<?xml version="1.0" encoding="UTF-8" standalone="no"?>
<!-- Generator: Adobe Illustrator 16.0.0, SVG Export Plug-In . SVG Version: 6.00 Build 0)  -->

<svg
   xmlns:dc="http://purl.org/dc/elements/1.1/"
   xmlns:cc="http://creativecommons.org/ns#"
   xmlns:rdf="http://www.w3.org/1999/02/22-rdf-syntax-ns#"
   xmlns:svg="http://www.w3.org/2000/svg"
   xmlns="http://www.w3.org/2000/svg"
   xmlns:sodipodi="http://sodipodi.sourceforge.net/DTD/sodipodi-0.dtd"
   xmlns:inkscape="http://www.inkscape.org/namespaces/inkscape"
   version="1.1"
   x="0px"
   y="0px"
   viewBox="50 50 510 430"
   enable-background="new 0 0 622 518"
   xml:space="preserve"
   id="svg110"
   sodipodi:docname="arbitrum-seeklogo.com.svg"
   inkscape:version="0.92.4 (5da689c313, 2019-01-14)"><metadata
   id="metadata116"><rdf:RDF><cc:Work
       rdf:about=""><dc:format>image/svg+xml</dc:format><dc:type
         rdf:resource="http://purl.org/dc/dcmitype/StillImage" /></cc:Work></rdf:RDF></metadata><defs
   id="defs114">
	
	
	
	
	
	
	
	
	
	
	
	
	
	
	
	
	
	
	
	
	
	
	
	
	
	
	
	
	
	
	
	
	
	
	
	
	
</defs><sodipodi:namedview
   pagecolor="#ffffff"
   bordercolor="#666666"
   borderopacity="1"
   objecttolerance="10"
   gridtolerance="10"
   guidetolerance="10"
   inkscape:pageopacity="0"
   inkscape:pageshadow="2"
   inkscape:window-width="1920"
   inkscape:window-height="1001"
   id="namedview112"
   showgrid="false"
   inkscape:zoom="0.54883721"
   inkscape:cx="255"
   inkscape:cy="215"
   inkscape:window-x="-9"
   inkscape:window-y="-9"
   inkscape:window-maximized="1"
   inkscape:current-layer="svg110" />
<g
   id="Background">
</g>
<g
   id="SYMBOL_VER_3">
	</g><g
   id="SYMBOL_VER_3_3_">
	</g><g
   id="SYMBOL_VER_4">
	</g><g
   id="SYMBOL_VER_4_1_">
		<g
   id="SYMBOL_VER_4_3_">
		</g>
	</g><g
   id="SYMBOL_VER_5_1_">
	</g><g
   id="off_2_1_">
	</g><g
   id="VER_3_1_">
		<g
   id="SYMBOL_VER_2_1_">
		</g>
	</g><g
   id="VER_3">
		<g
   id="SYMBOL_VER_2">
		</g>
	</g><g
   id="off_2">
	</g><g
   id="SYMBOL_VER_5">
	</g><g
   id="SYMBOL_VER_1">
	</g><g
   id="SYMBOL_VER_1_1_">
	</g><g
   id="SYMBOL_VER_1-1_3_">
	</g><g
   id="SYMBOL_VER_1-1_2_">
	</g><g
   id="SYMBOL_VER_1-1">
	</g><g
   id="SYMBOL_VER_1-1_1_">
		<g
   id="_x31_-3">
		</g>
		<g
   id="Symbol_-_Original_14_">
		</g>
		<g
   id="Symbol_-_Original_13_">
		</g>
		<g
   id="Symbol_-_Original_6_">
		</g>
		<g
   id="Symbol_-_Original_4_">
		</g>
		<g
   id="One_color_version_-_White_3_">
			<g
   id="Symbol_-_Original_15_">
			</g>
		</g>
		<g
   id="One_color_version_-_White">
			<g
   id="Symbol_-_Original">
			</g>
		</g>
		<g
   id="Symbol_-_Monochromatic_3_">
			<g
   id="_x33__7_">
			</g>
		</g>
		<g
   id="Symbol_-_Monochromatic">
			<g
   id="_x33__3_">
			</g>
		</g>
		<g
   id="_x33__2_">
		</g>
		<g
   id="_x33__1_">
		</g>
		<g
   id="_x33_">
		</g>
		<g
   id="Symbol_-_Original_10_">
		</g>
		<g
   id="Symbol_-_Original_1_">
		</g>
		<g
   id="Symbol_-_Original_2_">
		</g>
		<g
   id="_x34__1_">
		</g>
		<g
   id="Symbol_-_Monochromatic_2_">
			<g
   id="_x33__6_">
			</g>
		</g>
		<g
   id="One_color_version_-_White_2_">
			<g
   id="Symbol_-_Original_11_">
			</g>
		</g>
		<g
   id="Symbol_-_Original_5_">
			<g
   id="Symbol_-_Original_12_">
			</g>
		</g>
		<g
   id="One_color_version_-_White_1_">
			<g
   id="Symbol_-_Original_9_">
			</g>
		</g>
	</g><g
   id="SYMBOL_VER_1_2_">
		<g
   id="SYMBOL_VER_2_4_">
		</g>
		<g
   id="SYMBOL_VER_2-1-1_1_">
		</g>
		<g
   id="SYMBOL_VER_2-2-1_1_">
		</g>
		<g
   id="SYMBOL_VER_2-3-1_4_">
		</g>
		<g
   id="New_Symbol_1_">
			<g
   id="SYMBOL_VER_2-3-1_3_">
			</g>
		</g>
		<g
   id="New_Symbol">
			<g
   id="SYMBOL_VER_2-3-1_1_">
			</g>
		</g>
	</g><g
   id="SYMBOL_VER_2_2_">
	</g><g
   id="SYMBOL_VER_4_2_">
	</g><g
   id="SYMBOL_VER_3_2_">
	</g><g
   id="SYMBOL_VER_3_1_">
	</g><g
   id="SYMBOL_VER_1-1-1_1_">
	</g><g
   id="SYMBOL_VER_1-1-1">
	</g><g
   id="SYMBOL_VER_1-1-1_2_2_">
	</g><g
   id="SYMBOL_VER_1-1-1_2">
	</g><g
   id="SYMBOL_VER_1-1-1_2_1_">
	</g><g
   id="Symbol_-_Original_7_"
   transform="translate(-9.1101695,45.550847)">
		<path
   style="fill:#2d374b"
   inkscape:connector-curvature="0"
   id="path68"
   d="m 357.303,200.838 23.665,-40.154 63.785,99.348 0.03,19.065 -0.208,-131.197 c -0.151,-3.207 -1.854,-6.141 -4.571,-7.871 L 325.167,73.973 c -2.686,-1.32 -6.093,-1.306 -8.774,0.041 -0.362,0.182 -0.703,0.379 -1.028,0.594 l -0.4,0.252 -111.468,64.595 -0.433,0.196 c -0.556,0.256 -1.118,0.581 -1.646,0.959 -2.113,1.516 -3.517,3.757 -3.971,6.271 -0.068,0.381 -0.118,0.769 -0.142,1.16 l 0.175,106.913 59.413,-92.087 c 7.48,-12.211 23.778,-16.144 38.907,-15.93 l 17.757,0.469 -104.624,167.787 12.333,7.101 105.878,-174.718 46.798,-0.17 -105.605,179.127 44.008,25.312 5.258,3.024 c 2.224,0.904 4.846,0.949 7.089,0.14 l 116.451,-67.485 -22.264,12.901 z m 9.029,130.039 -44.449,-69.762 27.133,-46.042 58.375,92.009 z" />
		<polygon
   style="fill:#28a0f0"
   id="polygon70"
   points="349.017,215.073 321.883,261.115 366.332,330.877 407.392,307.082 " />
		<path
   style="fill:#28a0f0"
   inkscape:connector-curvature="0"
   id="path72"
   d="m 444.783,279.097 -0.03,-19.065 -63.785,-99.348 -23.665,40.154 61.576,99.587 22.264,-12.901 c 2.184,-1.773 3.505,-4.376 3.644,-7.185 z" />
		<path
   style="fill:#ffffff"
   inkscape:connector-curvature="0"
   id="path74"
   d="m 177.492,297.077 31.44,18.116 104.624,-167.787 -17.757,-0.469 c -15.129,-0.214 -31.426,3.719 -38.907,15.93 l -59.413,92.087 -19.988,30.711 v 11.412 z" />
		<polygon
   style="fill:#ffffff"
   id="polygon76"
   points="258.273,343.602 268.337,326.533 373.941,147.406 327.144,147.576 221.266,322.294 " />
		<path
   style="fill:#96bedc"
   inkscape:connector-curvature="0"
   id="path78"
   d="m 464.504,147.165 c -0.391,-9.787 -5.69,-18.747 -13.991,-23.963 L 334.171,56.297 c -8.211,-4.135 -18.469,-4.14 -26.693,-0.003 -0.972,0.49 -113.141,65.544 -113.141,65.544 -1.552,0.744 -3.047,1.631 -4.454,2.637 -7.41,5.311 -11.927,13.563 -12.391,22.63 v 138.561 l 19.988,-30.711 -0.175,-106.913 c 0.024,-0.391 0.073,-0.775 0.142,-1.155 0.451,-2.516 1.856,-4.76 3.971,-6.276 0.528,-0.378 114.612,-66.414 114.975,-66.596 2.682,-1.347 6.089,-1.361 8.774,-0.041 l 114.837,66.056 c 2.717,1.73 4.42,4.664 4.571,7.871 V 280.34 c -0.139,2.809 -1.249,5.411 -3.433,7.185 l -22.264,12.901 -11.487,6.657 -41.06,23.795 -41.64,24.132 c -2.243,0.81 -4.865,0.765 -7.089,-0.14 l -49.266,-28.336 -10.064,17.068 44.274,25.491 c 1.464,0.832 2.769,1.57 3.839,2.172 1.658,0.93 2.787,1.551 3.186,1.744 3.147,1.528 7.674,2.418 11.754,2.418 3.741,0 7.388,-0.687 10.84,-2.039 L 453.11,303.345 c 6.942,-5.378 11.026,-13.489 11.394,-22.276 z" />
	</g><g
   id="Symbol_-_Original_8_">
	</g><g
   id="SYMBOL_VER_2-1-1">
	</g><g
   id="SYMBOL_VER_2-2-1">
	</g><g
   id="SYMBOL_VER_2-3-1">
	</g><g
   id="SYMBOL_VER_5-1_1_">
	</g><g
   id="SYMBOL_VER_5-1">
	</g><g
   id="SYMBOL_VER_5-2_1_">
	</g><g
   id="SYMBOL_VER_5-2">
	</g><g
   id="Symbol_-_Monochromatic_1_">
		<g
   id="_x33__4_">
		</g>
	</g>
</svg>