<svg width="157" height="102" viewBox="0 0 157 102" fill="none" xmlns="http://www.w3.org/2000/svg">
<rect width="157" height="102" fill="#BCBCBC"/>
<path d="M0 0H157V102H0V0Z" fill="#0E0E0E"/>
<path d="M77.6464 41.3536C77.8417 41.5488 78.1583 41.5488 78.3536 41.3536L81.5355 38.1716C81.7308 37.9763 81.7308 37.6597 81.5355 37.4645C81.3403 37.2692 81.0237 37.2692 80.8284 37.4645L78 40.2929L75.1716 37.4645C74.9763 37.2692 74.6597 37.2692 74.4645 37.4645C74.2692 37.6597 74.2692 37.9763 74.4645 38.1716L77.6464 41.3536ZM77.5 27L77.5 41L78.5 41L78.5 27L77.5 27Z" fill="#414141"/>
<path d="M77.6464 73.3536C77.8417 73.5488 78.1583 73.5488 78.3536 73.3536L81.5355 70.1716C81.7308 69.9763 81.7308 69.6597 81.5355 69.4645C81.3403 69.2692 81.0237 69.2692 80.8284 69.4645L78 72.2929L75.1716 69.4645C74.9763 69.2692 74.6597 69.2692 74.4645 69.4645C74.2692 69.6597 74.2692 69.9763 74.4645 70.1716L77.6464 73.3536ZM77.5 59L77.5 73L78.5 73L78.5 59L77.5 59Z" fill="#414141"/>
<g filter="url(#filter0_d_0_1)">
<rect x="11" y="9" width="136" height="18" rx="3" fill="#1C1C1C"/>
</g>
<g filter="url(#filter1_d_0_1)">
<rect x="11" y="41" width="136" height="18" rx="3" fill="#1C1C1C"/>
</g>
<g filter="url(#filter2_d_0_1)">
<rect x="11" y="73" width="136" height="18" rx="3" fill="#1C1C1C"/>
</g>
<path d="M38.321 21L37.1278 16.6364H37.6648L38.5767 20.1903H38.6193L39.5483 16.6364H40.1449L41.0739 20.1903H41.1165L42.0284 16.6364H42.5653L41.3722 21H40.8267L39.8636 17.5227H39.8295L38.8665 21H38.321ZM43.6584 19.0312V21H43.1555V16.6364H43.6584V18.2386H43.701C43.7777 18.0696 43.8928 17.9354 44.0462 17.8359C44.201 17.7351 44.407 17.6847 44.6641 17.6847C44.8871 17.6847 45.0824 17.7294 45.25 17.8189C45.4176 17.907 45.5476 18.0426 45.6399 18.2259C45.7337 18.4077 45.7805 18.6392 45.7805 18.9205V21H45.2777V18.9545C45.2777 18.6946 45.2102 18.4936 45.0753 18.3516C44.9418 18.2081 44.7564 18.1364 44.5192 18.1364C44.3544 18.1364 44.2067 18.1712 44.076 18.2408C43.9467 18.3104 43.8445 18.4119 43.7692 18.5455C43.6953 18.679 43.6584 18.8409 43.6584 19.0312ZM48.0726 21.0682C47.7573 21.0682 47.4853 20.9986 47.2566 20.8594C47.0293 20.7188 46.8539 20.5227 46.7303 20.2713C46.6081 20.0185 46.5471 19.7244 46.5471 19.3892C46.5471 19.054 46.6081 18.7585 46.7303 18.5028C46.8539 18.2457 47.0257 18.0455 47.2459 17.902C47.4675 17.7571 47.726 17.6847 48.0215 17.6847C48.1919 17.6847 48.3603 17.7131 48.5265 17.7699C48.6926 17.8267 48.8439 17.919 48.9803 18.0469C49.1167 18.1733 49.2253 18.3409 49.3063 18.5497C49.3873 18.7585 49.4277 19.0156 49.4277 19.321V19.5341H46.905V19.0994H48.9164C48.9164 18.9148 48.8794 18.75 48.8056 18.6051C48.7331 18.4602 48.6294 18.3459 48.4945 18.2621C48.361 18.1783 48.2033 18.1364 48.0215 18.1364C47.8212 18.1364 47.6479 18.1861 47.5016 18.2855C47.3567 18.3835 47.2452 18.5114 47.1671 18.669C47.089 18.8267 47.0499 18.9957 47.0499 19.1761V19.4659C47.0499 19.7131 47.0925 19.9226 47.1777 20.0945C47.2644 20.2649 47.3844 20.3949 47.5378 20.4844C47.6912 20.5724 47.8695 20.6165 48.0726 20.6165C48.2047 20.6165 48.324 20.598 48.4306 20.5611C48.5385 20.5227 48.6316 20.4659 48.7097 20.3906C48.7878 20.3139 48.8482 20.2187 48.8908 20.1051L49.3766 20.2415C49.3255 20.4062 49.2395 20.5511 49.1188 20.6761C48.998 20.7997 48.8489 20.8963 48.6713 20.9659C48.4938 21.0341 48.2942 21.0682 48.0726 21.0682ZM50.6955 19.0312V21H50.1926V17.7273H50.6784V18.2386H50.7211C50.7978 18.0724 50.9142 17.9389 51.0705 17.8381C51.2267 17.7358 51.4284 17.6847 51.6756 17.6847C51.8972 17.6847 52.0911 17.7301 52.2573 17.821C52.4235 17.9105 52.5527 18.0469 52.6451 18.2301C52.7374 18.4119 52.7836 18.642 52.7836 18.9205V21H52.2807V18.9545C52.2807 18.6974 52.214 18.4972 52.0804 18.3537C51.9469 18.2088 51.7637 18.1364 51.5307 18.1364C51.3702 18.1364 51.2267 18.1712 51.1003 18.2408C50.9753 18.3104 50.8766 18.4119 50.8042 18.5455C50.7317 18.679 50.6955 18.8409 50.6955 19.0312ZM56.8132 17.7273V18.1534H55.1172V17.7273H56.8132ZM55.6115 16.9432H56.1143V20.0625C56.1143 20.2045 56.1349 20.3111 56.1761 20.3821C56.2188 20.4517 56.2727 20.4986 56.3381 20.5227C56.4048 20.5455 56.4751 20.5568 56.549 20.5568C56.6044 20.5568 56.6499 20.554 56.6854 20.5483C56.7209 20.5412 56.7493 20.5355 56.7706 20.5312L56.8729 20.983C56.8388 20.9957 56.7912 21.0085 56.7301 21.0213C56.669 21.0355 56.5916 21.0426 56.4979 21.0426C56.3558 21.0426 56.2166 21.0121 56.0803 20.951C55.9453 20.8899 55.8331 20.7969 55.7436 20.6719C55.6555 20.5469 55.6115 20.3892 55.6115 20.1989V16.9432ZM58.5327 21.0767C58.3253 21.0767 58.1371 21.0376 57.968 20.9595C57.799 20.88 57.6648 20.7656 57.5653 20.6165C57.4659 20.4659 57.4162 20.2841 57.4162 20.071C57.4162 19.8835 57.4531 19.7315 57.527 19.6151C57.6009 19.4972 57.6996 19.4048 57.8232 19.3381C57.9467 19.2713 58.0831 19.2216 58.2322 19.1889C58.3828 19.1548 58.5341 19.1278 58.6861 19.108C58.8849 19.0824 59.0462 19.0632 59.1697 19.0504C59.2947 19.0362 59.3857 19.0128 59.4425 18.9801C59.5007 18.9474 59.5298 18.8906 59.5298 18.8097V18.7926C59.5298 18.5824 59.4723 18.419 59.3572 18.3026C59.2436 18.1861 59.071 18.1278 58.8395 18.1278C58.5994 18.1278 58.4112 18.1804 58.2749 18.2855C58.1385 18.3906 58.0426 18.5028 57.9872 18.6222L57.5099 18.4517C57.5952 18.2528 57.7088 18.098 57.8509 17.9872C57.9943 17.875 58.1506 17.7969 58.3196 17.7528C58.4901 17.7074 58.6577 17.6847 58.8224 17.6847C58.9276 17.6847 59.0483 17.6974 59.1847 17.723C59.3224 17.7472 59.4553 17.7976 59.5831 17.8743C59.7124 17.951 59.8196 18.0668 59.9048 18.2216C59.9901 18.3764 60.0327 18.5838 60.0327 18.8438V21H59.5298V20.5568H59.5043C59.4702 20.6278 59.4134 20.7038 59.3338 20.7848C59.2543 20.8658 59.1484 20.9347 59.0163 20.9915C58.8842 21.0483 58.723 21.0767 58.5327 21.0767ZM58.6094 20.625C58.8082 20.625 58.9759 20.5859 59.1122 20.5078C59.25 20.4297 59.3537 20.3288 59.4233 20.2053C59.4943 20.0817 59.5298 19.9517 59.5298 19.8153V19.3551C59.5085 19.3807 59.4616 19.4041 59.3892 19.4254C59.3182 19.4453 59.2358 19.4631 59.142 19.4787C59.0497 19.4929 58.9595 19.5057 58.8714 19.517C58.7848 19.527 58.7145 19.5355 58.6605 19.5426C58.5298 19.5597 58.4077 19.5874 58.294 19.6257C58.1818 19.6626 58.0909 19.7187 58.0213 19.794C57.9531 19.8679 57.919 19.9687 57.919 20.0966C57.919 20.2713 57.9837 20.4034 58.1129 20.4929C58.2436 20.581 58.4091 20.625 58.6094 20.625ZM63.2686 18.4602L62.8169 18.5881C62.7885 18.5128 62.7466 18.4396 62.6912 18.3686C62.6373 18.2962 62.5634 18.2365 62.4696 18.1896C62.3759 18.1428 62.2559 18.1193 62.1096 18.1193C61.9093 18.1193 61.7424 18.1655 61.6088 18.2578C61.4767 18.3487 61.4107 18.4645 61.4107 18.6051C61.4107 18.7301 61.4561 18.8288 61.5471 18.9013C61.638 18.9737 61.78 19.0341 61.9732 19.0824L62.459 19.2017C62.7516 19.2727 62.9696 19.3814 63.1131 19.5277C63.2566 19.6726 63.3283 19.8594 63.3283 20.0881C63.3283 20.2756 63.2743 20.4432 63.1664 20.5909C63.0598 20.7386 62.9107 20.8551 62.7189 20.9403C62.5272 21.0256 62.3042 21.0682 62.0499 21.0682C61.7161 21.0682 61.4398 20.9957 61.2211 20.8509C61.0023 20.706 60.8638 20.4943 60.8056 20.2159L61.2828 20.0966C61.3283 20.2727 61.4142 20.4048 61.5407 20.4929C61.6685 20.581 61.8354 20.625 62.0414 20.625C62.2757 20.625 62.4618 20.5753 62.5996 20.4759C62.7388 20.375 62.8084 20.2543 62.8084 20.1136C62.8084 20 62.7686 19.9048 62.6891 19.8281C62.6096 19.75 62.4874 19.6918 62.3226 19.6534L61.7772 19.5256C61.4775 19.4545 61.2573 19.3445 61.1167 19.1953C60.9775 19.0447 60.9078 18.8565 60.9078 18.6307C60.9078 18.446 60.9597 18.2827 61.0634 18.1406C61.1685 17.9986 61.3113 17.8871 61.4917 17.8061C61.6735 17.7251 61.8794 17.6847 62.1096 17.6847C62.4334 17.6847 62.6877 17.7557 62.8723 17.8977C63.0584 18.0398 63.1905 18.2273 63.2686 18.4602ZM64.554 19.8068L64.5455 19.1847H64.6477L66.0795 17.7273H66.7017L65.1761 19.2699H65.1335L64.554 19.8068ZM64.0852 21V16.6364H64.5881V21H64.0852ZM66.1648 21L64.8864 19.3807L65.2443 19.0312L66.804 21H66.1648ZM69.0364 21V17.7273H69.5392V21H69.0364ZM69.2921 17.1818C69.1941 17.1818 69.1096 17.1484 69.0385 17.0817C68.9689 17.0149 68.9341 16.9347 68.9341 16.8409C68.9341 16.7472 68.9689 16.6669 69.0385 16.6001C69.1096 16.5334 69.1941 16.5 69.2921 16.5C69.3901 16.5 69.4739 16.5334 69.5435 16.6001C69.6145 16.6669 69.65 16.7472 69.65 16.8409C69.65 16.9347 69.6145 17.0149 69.5435 17.0817C69.4739 17.1484 69.3901 17.1818 69.2921 17.1818ZM72.7784 18.4602L72.3267 18.5881C72.2983 18.5128 72.2564 18.4396 72.201 18.3686C72.147 18.2962 72.0732 18.2365 71.9794 18.1896C71.8857 18.1428 71.7656 18.1193 71.6193 18.1193C71.419 18.1193 71.2521 18.1655 71.1186 18.2578C70.9865 18.3487 70.9205 18.4645 70.9205 18.6051C70.9205 18.7301 70.9659 18.8288 71.0568 18.9013C71.1477 18.9737 71.2898 19.0341 71.483 19.0824L71.9688 19.2017C72.2614 19.2727 72.4794 19.3814 72.6229 19.5277C72.7663 19.6726 72.8381 19.8594 72.8381 20.0881C72.8381 20.2756 72.7841 20.4432 72.6761 20.5909C72.5696 20.7386 72.4205 20.8551 72.2287 20.9403C72.0369 21.0256 71.8139 21.0682 71.5597 21.0682C71.2259 21.0682 70.9496 20.9957 70.7308 20.8509C70.5121 20.706 70.3736 20.4943 70.3153 20.2159L70.7926 20.0966C70.8381 20.2727 70.924 20.4048 71.0504 20.4929C71.1783 20.581 71.3452 20.625 71.5511 20.625C71.7855 20.625 71.9716 20.5753 72.1094 20.4759C72.2486 20.375 72.3182 20.2543 72.3182 20.1136C72.3182 20 72.2784 19.9048 72.1989 19.8281C72.1193 19.75 71.9972 19.6918 71.8324 19.6534L71.2869 19.5256C70.9872 19.4545 70.767 19.3445 70.6264 19.1953C70.4872 19.0447 70.4176 18.8565 70.4176 18.6307C70.4176 18.446 70.4695 18.2827 70.5732 18.1406C70.6783 17.9986 70.821 17.8871 71.0014 17.8061C71.1832 17.7251 71.3892 17.6847 71.6193 17.6847C71.9432 17.6847 72.1974 17.7557 72.3821 17.8977C72.5682 18.0398 72.7003 18.2273 72.7784 18.4602ZM75.2825 21V17.7273H75.7683V18.2386H75.8109C75.8791 18.0639 75.9892 17.9283 76.1412 17.8317C76.2931 17.7337 76.4757 17.6847 76.6887 17.6847C76.9047 17.6847 77.0843 17.7337 77.2278 17.8317C77.3727 17.9283 77.4856 18.0639 77.5666 18.2386H77.6007C77.6845 18.0696 77.8102 17.9354 77.9778 17.8359C78.1454 17.7351 78.3464 17.6847 78.5808 17.6847C78.8734 17.6847 79.1127 17.7763 79.2988 17.9595C79.4849 18.1413 79.5779 18.4247 79.5779 18.8097V21H79.0751V18.8097C79.0751 18.5682 79.0091 18.3956 78.877 18.2919C78.7449 18.1882 78.5893 18.1364 78.4103 18.1364C78.1802 18.1364 78.002 18.206 77.8755 18.3452C77.7491 18.483 77.6859 18.6577 77.6859 18.8693V21H77.1745V18.7585C77.1745 18.5724 77.1142 18.4226 76.9934 18.3089C76.8727 18.1939 76.7172 18.1364 76.5268 18.1364C76.3961 18.1364 76.274 18.1712 76.1603 18.2408C76.0481 18.3104 75.9572 18.407 75.8876 18.5305C75.8194 18.6527 75.7853 18.794 75.7853 18.9545V21H75.2825ZM81.8269 21.0682C81.5314 21.0682 81.2722 20.9979 81.0492 20.8572C80.8276 20.7166 80.6543 20.5199 80.5293 20.267C80.4057 20.0142 80.3439 19.7187 80.3439 19.3807C80.3439 19.0398 80.4057 18.7422 80.5293 18.4879C80.6543 18.2337 80.8276 18.0362 81.0492 17.8956C81.2722 17.755 81.5314 17.6847 81.8269 17.6847C82.1223 17.6847 82.3809 17.755 82.6025 17.8956C82.8255 18.0362 82.9988 18.2337 83.1223 18.4879C83.2473 18.7422 83.3098 19.0398 83.3098 19.3807C83.3098 19.7187 83.2473 20.0142 83.1223 20.267C82.9988 20.5199 82.8255 20.7166 82.6025 20.8572C82.3809 20.9979 82.1223 21.0682 81.8269 21.0682ZM81.8269 20.6165C82.0513 20.6165 82.236 20.5589 82.3809 20.4439C82.5257 20.3288 82.633 20.1776 82.7026 19.9901C82.7722 19.8026 82.807 19.5994 82.807 19.3807C82.807 19.1619 82.7722 18.9581 82.7026 18.7692C82.633 18.5803 82.5257 18.4276 82.3809 18.3111C82.236 18.1946 82.0513 18.1364 81.8269 18.1364C81.6025 18.1364 81.4178 18.1946 81.2729 18.3111C81.128 18.4276 81.0208 18.5803 80.9512 18.7692C80.8816 18.9581 80.8468 19.1619 80.8468 19.3807C80.8468 19.5994 80.8816 19.8026 80.9512 19.9901C81.0208 20.1776 81.128 20.3288 81.2729 20.4439C81.4178 20.5589 81.6025 20.6165 81.8269 20.6165ZM86.6364 17.7273L85.4261 21H84.9148L83.7045 17.7273H84.25L85.1534 20.3352H85.1875L86.0909 17.7273H86.6364ZM88.555 21.0682C88.2397 21.0682 87.9677 20.9986 87.739 20.8594C87.5117 20.7188 87.3363 20.5227 87.2127 20.2713C87.0906 20.0185 87.0295 19.7244 87.0295 19.3892C87.0295 19.054 87.0906 18.7585 87.2127 18.5028C87.3363 18.2457 87.5082 18.0455 87.7283 17.902C87.9499 17.7571 88.2085 17.6847 88.5039 17.6847C88.6744 17.6847 88.8427 17.7131 89.0089 17.7699C89.1751 17.8267 89.3263 17.919 89.4627 18.0469C89.5991 18.1733 89.7077 18.3409 89.7887 18.5497C89.8697 18.7585 89.9102 19.0156 89.9102 19.321V19.5341H87.3874V19.0994H89.3988C89.3988 18.9148 89.3619 18.75 89.288 18.6051C89.2156 18.4602 89.1119 18.3459 88.9769 18.2621C88.8434 18.1783 88.6857 18.1364 88.5039 18.1364C88.3036 18.1364 88.1303 18.1861 87.984 18.2855C87.8391 18.3835 87.7276 18.5114 87.6495 18.669C87.5714 18.8267 87.5323 18.9957 87.5323 19.1761V19.4659C87.5323 19.7131 87.5749 19.9226 87.6602 20.0945C87.7468 20.2649 87.8668 20.3949 88.0202 20.4844C88.1737 20.5724 88.3519 20.6165 88.555 20.6165C88.6871 20.6165 88.8065 20.598 88.913 20.5611C89.021 20.5227 89.114 20.4659 89.1921 20.3906C89.2702 20.3139 89.3306 20.2187 89.3732 20.1051L89.859 20.2415C89.8079 20.4062 89.7219 20.5511 89.6012 20.6761C89.4805 20.7997 89.3313 20.8963 89.1538 20.9659C88.9762 21.0341 88.7766 21.0682 88.555 21.0682ZM91.9109 21.0682C91.6381 21.0682 91.3974 20.9993 91.1886 20.8615C90.9798 20.7223 90.8164 20.5263 90.6985 20.2734C90.5806 20.0192 90.5217 19.7188 90.5217 19.3722C90.5217 19.0284 90.5806 18.7301 90.6985 18.4773C90.8164 18.2244 90.9805 18.0291 91.1907 17.8913C91.4009 17.7536 91.6438 17.6847 91.9194 17.6847C92.1325 17.6847 92.3008 17.7202 92.4244 17.7912C92.5494 17.8608 92.6445 17.9403 92.7099 18.0298C92.7766 18.1179 92.8285 18.1903 92.8654 18.2472H92.908V16.6364H93.4109V21H92.9251V20.4972H92.8654C92.8285 20.5568 92.7759 20.6321 92.7077 20.723C92.6396 20.8125 92.5423 20.8928 92.4158 20.9638C92.2894 21.0334 92.1211 21.0682 91.9109 21.0682ZM91.979 20.6165C92.1808 20.6165 92.3512 20.5639 92.4904 20.4588C92.6296 20.3523 92.7354 20.2053 92.8079 20.0178C92.8803 19.8288 92.9165 19.6108 92.9165 19.3636C92.9165 19.1193 92.881 18.9055 92.81 18.7223C92.739 18.5376 92.6339 18.3942 92.4947 18.2919C92.3555 18.1882 92.1836 18.1364 91.979 18.1364C91.766 18.1364 91.5884 18.1911 91.4464 18.3004C91.3058 18.4084 91.1999 18.5554 91.1289 18.7415C91.0593 18.9261 91.0245 19.1335 91.0245 19.3636C91.0245 19.5966 91.06 19.8082 91.131 19.9986C91.2035 20.1875 91.31 20.3381 91.4506 20.4503C91.5927 20.5611 91.7688 20.6165 91.979 20.6165ZM97.5124 17.7273V18.1534H95.8164V17.7273H97.5124ZM96.3107 16.9432H96.8136V20.0625C96.8136 20.2045 96.8342 20.3111 96.8754 20.3821C96.918 20.4517 96.9719 20.4986 97.0373 20.5227C97.104 20.5455 97.1744 20.5568 97.2482 20.5568C97.3036 20.5568 97.3491 20.554 97.3846 20.5483C97.4201 20.5412 97.4485 20.5355 97.4698 20.5312L97.5721 20.983C97.538 20.9957 97.4904 21.0085 97.4293 21.0213C97.3683 21.0355 97.2908 21.0426 97.1971 21.0426C97.055 21.0426 96.9158 21.0121 96.7795 20.951C96.6445 20.8899 96.5323 20.7969 96.4428 20.6719C96.3548 20.5469 96.3107 20.3892 96.3107 20.1989V16.9432ZM99.5632 21.0682C99.2678 21.0682 99.0085 20.9979 98.7855 20.8572C98.5639 20.7166 98.3906 20.5199 98.2656 20.267C98.142 20.0142 98.0803 19.7187 98.0803 19.3807C98.0803 19.0398 98.142 18.7422 98.2656 18.4879C98.3906 18.2337 98.5639 18.0362 98.7855 17.8956C99.0085 17.755 99.2678 17.6847 99.5632 17.6847C99.8587 17.6847 100.117 17.755 100.339 17.8956C100.562 18.0362 100.735 18.2337 100.859 18.4879C100.984 18.7422 101.046 19.0398 101.046 19.3807C101.046 19.7187 100.984 20.0142 100.859 20.267C100.735 20.5199 100.562 20.7166 100.339 20.8572C100.117 20.9979 99.8587 21.0682 99.5632 21.0682ZM99.5632 20.6165C99.7876 20.6165 99.9723 20.5589 100.117 20.4439C100.262 20.3288 100.369 20.1776 100.439 19.9901C100.509 19.8026 100.543 19.5994 100.543 19.3807C100.543 19.1619 100.509 18.9581 100.439 18.7692C100.369 18.5803 100.262 18.4276 100.117 18.3111C99.9723 18.1946 99.7876 18.1364 99.5632 18.1364C99.3388 18.1364 99.1541 18.1946 99.0092 18.3111C98.8643 18.4276 98.7571 18.5803 98.6875 18.7692C98.6179 18.9581 98.5831 19.1619 98.5831 19.3807C98.5831 19.5994 98.6179 19.8026 98.6875 19.9901C98.7571 20.1776 98.8643 20.3288 99.0092 20.4439C99.1541 20.5589 99.3388 20.6165 99.5632 20.6165ZM103.331 18V17.6165C103.331 17.5 103.351 17.3764 103.393 17.2457C103.435 17.1136 103.496 16.9865 103.576 16.8643C103.657 16.7408 103.754 16.6335 103.868 16.5426L104.14 16.7642C104.051 16.892 103.973 17.0256 103.906 17.1648C103.841 17.3026 103.808 17.4503 103.808 17.608V18H103.331ZM106.111 21H104.765V16.6364H106.171C106.594 16.6364 106.956 16.7237 107.258 16.8984C107.559 17.0717 107.79 17.321 107.95 17.6463C108.111 17.9702 108.191 18.358 108.191 18.8097C108.191 19.2642 108.11 19.6555 107.948 19.9837C107.786 20.3104 107.55 20.5618 107.241 20.7379C106.931 20.9126 106.555 21 106.111 21ZM105.293 20.5312H106.077C106.438 20.5312 106.737 20.4616 106.974 20.3224C107.211 20.1832 107.388 19.9851 107.505 19.728C107.621 19.4709 107.68 19.1648 107.68 18.8097C107.68 18.4574 107.622 18.1541 107.507 17.8999C107.392 17.6442 107.22 17.4482 106.991 17.3118C106.763 17.174 106.478 17.1051 106.137 17.1051H105.293V20.5312ZM110.339 21.0682C110.043 21.0682 109.784 20.9979 109.561 20.8572C109.339 20.7166 109.166 20.5199 109.041 20.267C108.917 20.0142 108.856 19.7187 108.856 19.3807C108.856 19.0398 108.917 18.7422 109.041 18.4879C109.166 18.2337 109.339 18.0362 109.561 17.8956C109.784 17.755 110.043 17.6847 110.339 17.6847C110.634 17.6847 110.893 17.755 111.114 17.8956C111.337 18.0362 111.51 18.2337 111.634 18.4879C111.759 18.7422 111.822 19.0398 111.822 19.3807C111.822 19.7187 111.759 20.0142 111.634 20.267C111.51 20.5199 111.337 20.7166 111.114 20.8572C110.893 20.9979 110.634 21.0682 110.339 21.0682ZM110.339 20.6165C110.563 20.6165 110.748 20.5589 110.893 20.4439C111.037 20.3288 111.145 20.1776 111.214 19.9901C111.284 19.8026 111.319 19.5994 111.319 19.3807C111.319 19.1619 111.284 18.9581 111.214 18.7692C111.145 18.5803 111.037 18.4276 110.893 18.3111C110.748 18.1946 110.563 18.1364 110.339 18.1364C110.114 18.1364 109.93 18.1946 109.785 18.3111C109.64 18.4276 109.532 18.5803 109.463 18.7692C109.393 18.9581 109.358 19.1619 109.358 19.3807C109.358 19.5994 109.393 19.8026 109.463 19.9901C109.532 20.1776 109.64 20.3288 109.785 20.4439C109.93 20.5589 110.114 20.6165 110.339 20.6165ZM113.092 19.0312V21H112.589V17.7273H113.075V18.2386H113.118C113.194 18.0724 113.311 17.9389 113.467 17.8381C113.623 17.7358 113.825 17.6847 114.072 17.6847C114.294 17.6847 114.488 17.7301 114.654 17.821C114.82 17.9105 114.949 18.0469 115.042 18.2301C115.134 18.4119 115.18 18.642 115.18 18.9205V21H114.677V18.9545C114.677 18.6974 114.61 18.4972 114.477 18.3537C114.343 18.2088 114.16 18.1364 113.927 18.1364C113.767 18.1364 113.623 18.1712 113.497 18.2408C113.372 18.3104 113.273 18.4119 113.201 18.5455C113.128 18.679 113.092 18.8409 113.092 19.0312ZM117.471 21.0682C117.156 21.0682 116.884 20.9986 116.655 20.8594C116.428 20.7188 116.252 20.5227 116.129 20.2713C116.007 20.0185 115.945 19.7244 115.945 19.3892C115.945 19.054 116.007 18.7585 116.129 18.5028C116.252 18.2457 116.424 18.0455 116.644 17.902C116.866 17.7571 117.124 17.6847 117.42 17.6847C117.59 17.6847 117.759 17.7131 117.925 17.7699C118.091 17.8267 118.242 17.919 118.379 18.0469C118.515 18.1733 118.624 18.3409 118.705 18.5497C118.786 18.7585 118.826 19.0156 118.826 19.321V19.5341H116.303V19.0994H118.315C118.315 18.9148 118.278 18.75 118.204 18.6051C118.132 18.4602 118.028 18.3459 117.893 18.2621C117.759 18.1783 117.602 18.1364 117.42 18.1364C117.22 18.1364 117.046 18.1861 116.9 18.2855C116.755 18.3835 116.644 18.5114 116.566 18.669C116.487 18.8267 116.448 18.9957 116.448 19.1761V19.4659C116.448 19.7131 116.491 19.9226 116.576 20.0945C116.663 20.2649 116.783 20.3949 116.936 20.4844C117.09 20.5724 117.268 20.6165 117.471 20.6165C117.603 20.6165 117.722 20.598 117.829 20.5611C117.937 20.5227 118.03 20.4659 118.108 20.3906C118.186 20.3139 118.247 20.2187 118.289 20.1051L118.775 20.2415C118.724 20.4062 118.638 20.5511 118.517 20.6761C118.396 20.7997 118.247 20.8963 118.07 20.9659C117.892 21.0341 117.693 21.0682 117.471 21.0682ZM120.034 16.6364V17.0199C120.034 17.1364 120.013 17.2607 119.97 17.3928C119.929 17.5234 119.868 17.6506 119.787 17.7741C119.708 17.8963 119.611 18.0028 119.497 18.0938L119.225 17.8722C119.314 17.7443 119.392 17.6115 119.457 17.4737C119.524 17.3345 119.557 17.1861 119.557 17.0284V16.6364H120.034Z" fill="#A7A7A7"/>
<path d="M28.9148 81.7273C28.8892 81.5114 28.7855 81.3438 28.6037 81.2244C28.4219 81.1051 28.1989 81.0455 27.9347 81.0455C27.7415 81.0455 27.5724 81.0767 27.4276 81.1392C27.2841 81.2017 27.1719 81.2876 27.0909 81.397C27.0114 81.5064 26.9716 81.6307 26.9716 81.7699C26.9716 81.8864 26.9993 81.9865 27.0547 82.0703C27.1115 82.1527 27.1839 82.2216 27.272 82.277C27.3601 82.331 27.4524 82.3757 27.549 82.4112C27.6456 82.4453 27.7344 82.473 27.8153 82.4943L28.2585 82.6136C28.3722 82.6435 28.4986 82.6847 28.6378 82.7372C28.7784 82.7898 28.9126 82.8615 29.0405 82.9524C29.1697 83.0419 29.2763 83.157 29.3601 83.2976C29.4439 83.4382 29.4858 83.6108 29.4858 83.8153C29.4858 84.0511 29.424 84.2642 29.3004 84.4545C29.1783 84.6449 28.9993 84.7962 28.7635 84.9084C28.5291 85.0206 28.2443 85.0767 27.9091 85.0767C27.5966 85.0767 27.326 85.0263 27.0973 84.9254C26.87 84.8246 26.6911 84.6839 26.5604 84.5036C26.4311 84.3232 26.358 84.1136 26.3409 83.875H26.8864C26.9006 84.0398 26.956 84.1761 27.0526 84.2841C27.1506 84.3906 27.2741 84.4702 27.4233 84.5227C27.5739 84.5739 27.7358 84.5994 27.9091 84.5994C28.1108 84.5994 28.2919 84.5668 28.4524 84.5014C28.6129 84.4347 28.7401 84.3423 28.8338 84.2244C28.9276 84.1051 28.9744 83.9659 28.9744 83.8068C28.9744 83.6619 28.9339 83.544 28.853 83.4531C28.772 83.3622 28.6655 83.2884 28.5334 83.2315C28.4013 83.1747 28.2585 83.125 28.1051 83.0824L27.5682 82.929C27.2273 82.831 26.9574 82.6911 26.7585 82.5092C26.5597 82.3274 26.4602 82.0895 26.4602 81.7955C26.4602 81.5511 26.5263 81.3381 26.6584 81.1562C26.7919 80.973 26.9709 80.831 27.1953 80.7301C27.4212 80.6278 27.6733 80.5767 27.9517 80.5767C28.233 80.5767 28.483 80.6271 28.7017 80.728C28.9205 80.8274 29.0938 80.9638 29.2216 81.1371C29.3509 81.3104 29.419 81.5071 29.4261 81.7273H28.9148ZM31.7097 81.7273V82.1534H30.0137V81.7273H31.7097ZM30.508 80.9432H31.0108V84.0625C31.0108 84.2045 31.0314 84.3111 31.0726 84.3821C31.1152 84.4517 31.1692 84.4986 31.2346 84.5227C31.3013 84.5455 31.3716 84.5568 31.4455 84.5568C31.5009 84.5568 31.5463 84.554 31.5819 84.5483C31.6174 84.5412 31.6458 84.5355 31.6671 84.5312L31.7694 84.983C31.7353 84.9957 31.6877 85.0085 31.6266 85.0213C31.5655 85.0355 31.4881 85.0426 31.3944 85.0426C31.2523 85.0426 31.1131 85.0121 30.9767 84.951C30.8418 84.8899 30.7296 84.7969 30.6401 84.6719C30.552 84.5469 30.508 84.3892 30.508 84.1989V80.9432ZM33.4292 85.0767C33.2218 85.0767 33.0336 85.0376 32.8645 84.9595C32.6955 84.88 32.5613 84.7656 32.4618 84.6165C32.3624 84.4659 32.3127 84.2841 32.3127 84.071C32.3127 83.8835 32.3496 83.7315 32.4235 83.6151C32.4973 83.4972 32.5961 83.4048 32.7196 83.3381C32.8432 83.2713 32.9796 83.2216 33.1287 83.1889C33.2793 83.1548 33.4306 83.1278 33.5826 83.108C33.7814 83.0824 33.9426 83.0632 34.0662 83.0504C34.1912 83.0362 34.2821 83.0128 34.339 82.9801C34.3972 82.9474 34.4263 82.8906 34.4263 82.8097V82.7926C34.4263 82.5824 34.3688 82.419 34.2537 82.3026C34.1401 82.1861 33.9675 82.1278 33.736 82.1278C33.4959 82.1278 33.3077 82.1804 33.1713 82.2855C33.035 82.3906 32.9391 82.5028 32.8837 82.6222L32.4064 82.4517C32.4917 82.2528 32.6053 82.098 32.7473 81.9872C32.8908 81.875 33.0471 81.7969 33.2161 81.7528C33.3865 81.7074 33.5542 81.6847 33.7189 81.6847C33.824 81.6847 33.9448 81.6974 34.0811 81.723C34.2189 81.7472 34.3517 81.7976 34.4796 81.8743C34.6088 81.951 34.7161 82.0668 34.8013 82.2216C34.8865 82.3764 34.9292 82.5838 34.9292 82.8438V85H34.4263V84.5568H34.4007C34.3667 84.6278 34.3098 84.7038 34.2303 84.7848C34.1507 84.8658 34.0449 84.9347 33.9128 84.9915C33.7807 85.0483 33.6195 85.0767 33.4292 85.0767ZM33.5059 84.625C33.7047 84.625 33.8723 84.5859 34.0087 84.5078C34.1465 84.4297 34.2502 84.3288 34.3198 84.2053C34.3908 84.0817 34.4263 83.9517 34.4263 83.8153V83.3551C34.405 83.3807 34.3581 83.4041 34.2857 83.4254C34.2147 83.4453 34.1323 83.4631 34.0385 83.4787C33.9462 83.4929 33.856 83.5057 33.7679 83.517C33.6813 83.527 33.611 83.5355 33.557 83.5426C33.4263 83.5597 33.3042 83.5874 33.1905 83.6257C33.0783 83.6626 32.9874 83.7187 32.9178 83.794C32.8496 83.8679 32.8155 83.9687 32.8155 84.0966C32.8155 84.2713 32.8801 84.4034 33.0094 84.4929C33.1401 84.581 33.3056 84.625 33.5059 84.625ZM35.8469 85V81.7273H36.3327V82.2216H36.3668C36.4265 82.0597 36.5344 81.9283 36.6907 81.8274C36.8469 81.7266 37.0231 81.6761 37.2191 81.6761C37.256 81.6761 37.3022 81.6768 37.3576 81.6783C37.413 81.6797 37.4549 81.6818 37.4833 81.6847V82.196C37.4663 82.1918 37.4272 82.1854 37.3661 82.1768C37.3065 82.1669 37.2433 82.1619 37.1765 82.1619C37.0174 82.1619 36.8754 82.1953 36.7504 82.2621C36.6268 82.3274 36.5288 82.4183 36.4563 82.5348C36.3853 82.6499 36.3498 82.7812 36.3498 82.929V85H35.8469ZM39.7077 81.7273V82.1534H38.0117V81.7273H39.7077ZM38.506 80.9432H39.0089V84.0625C39.0089 84.2045 39.0295 84.3111 39.0707 84.3821C39.1133 84.4517 39.1673 84.4986 39.2326 84.5227C39.2994 84.5455 39.3697 84.5568 39.4435 84.5568C39.4989 84.5568 39.5444 84.554 39.5799 84.5483C39.6154 84.5412 39.6438 84.5355 39.6651 84.5312L39.7674 84.983C39.7333 84.9957 39.6857 85.0085 39.6246 85.0213C39.5636 85.0355 39.4862 85.0426 39.3924 85.0426C39.2504 85.0426 39.1112 85.0121 38.9748 84.951C38.8398 84.8899 38.7276 84.7969 38.6381 84.6719C38.5501 84.5469 38.506 84.3892 38.506 84.1989V80.9432ZM43.1147 85.0767C42.9073 85.0767 42.7191 85.0376 42.5501 84.9595C42.381 84.88 42.2468 84.7656 42.1474 84.6165C42.0479 84.4659 41.9982 84.2841 41.9982 84.071C41.9982 83.8835 42.0352 83.7315 42.109 83.6151C42.1829 83.4972 42.2816 83.4048 42.4052 83.3381C42.5288 83.2713 42.6651 83.2216 42.8143 83.1889C42.9648 83.1548 43.1161 83.1278 43.2681 83.108C43.467 83.0824 43.6282 83.0632 43.7518 83.0504C43.8768 83.0362 43.9677 83.0128 44.0245 82.9801C44.0827 82.9474 44.1119 82.8906 44.1119 82.8097V82.7926C44.1119 82.5824 44.0543 82.419 43.9393 82.3026C43.8256 82.1861 43.6531 82.1278 43.4215 82.1278C43.1815 82.1278 42.9933 82.1804 42.8569 82.2855C42.7205 82.3906 42.6246 82.5028 42.5692 82.6222L42.092 82.4517C42.1772 82.2528 42.2908 82.098 42.4329 81.9872C42.5763 81.875 42.7326 81.7969 42.9016 81.7528C43.0721 81.7074 43.2397 81.6847 43.4045 81.6847C43.5096 81.6847 43.6303 81.6974 43.7667 81.723C43.9045 81.7472 44.0373 81.7976 44.1651 81.8743C44.2944 81.951 44.4016 82.0668 44.4869 82.2216C44.5721 82.3764 44.6147 82.5838 44.6147 82.8438V85H44.1119V84.5568H44.0863C44.0522 84.6278 43.9954 84.7038 43.9158 84.7848C43.8363 84.8658 43.7305 84.9347 43.5984 84.9915C43.4663 85.0483 43.305 85.0767 43.1147 85.0767ZM43.1914 84.625C43.3903 84.625 43.5579 84.5859 43.6942 84.5078C43.832 84.4297 43.9357 84.3288 44.0053 84.2053C44.0763 84.0817 44.1119 83.9517 44.1119 83.8153V83.3551C44.0906 83.3807 44.0437 83.4041 43.9712 83.4254C43.9002 83.4453 43.8178 83.4631 43.7241 83.4787C43.6317 83.4929 43.5415 83.5057 43.4535 83.517C43.3668 83.527 43.2965 83.5355 43.2425 83.5426C43.1119 83.5597 42.9897 83.5874 42.8761 83.6257C42.7638 83.6626 42.6729 83.7187 42.6033 83.794C42.5352 83.8679 42.5011 83.9687 42.5011 84.0966C42.5011 84.2713 42.5657 84.4034 42.695 84.4929C42.8256 84.581 42.9911 84.625 43.1914 84.625ZM47.22 85V81.7273H47.7058V82.2216H47.7399C47.7995 82.0597 47.9075 81.9283 48.0637 81.8274C48.22 81.7266 48.3961 81.6761 48.5922 81.6761C48.6291 81.6761 48.6752 81.6768 48.7306 81.6783C48.786 81.6797 48.8279 81.6818 48.8564 81.6847V82.196C48.8393 82.1918 48.8002 82.1854 48.7392 82.1768C48.6795 82.1669 48.6163 82.1619 48.5495 82.1619C48.3904 82.1619 48.2484 82.1953 48.1234 82.2621C47.9998 82.3274 47.9018 82.4183 47.8294 82.5348C47.7583 82.6499 47.7228 82.7812 47.7228 82.929V85H47.22ZM50.725 85.0682C50.4096 85.0682 50.1376 84.9986 49.9089 84.8594C49.6816 84.7188 49.5062 84.5227 49.3826 84.2713C49.2605 84.0185 49.1994 83.7244 49.1994 83.3892C49.1994 83.054 49.2605 82.7585 49.3826 82.5028C49.5062 82.2457 49.6781 82.0455 49.8983 81.902C50.1199 81.7571 50.3784 81.6847 50.6738 81.6847C50.8443 81.6847 51.0126 81.7131 51.1788 81.7699C51.345 81.8267 51.4963 81.919 51.6326 82.0469C51.769 82.1733 51.8777 82.3409 51.9586 82.5497C52.0396 82.7585 52.0801 83.0156 52.0801 83.321V83.5341H49.5574V83.0994H51.5687C51.5687 82.9148 51.5318 82.75 51.4579 82.6051C51.3855 82.4602 51.2818 82.3459 51.1468 82.2621C51.0133 82.1783 50.8556 82.1364 50.6738 82.1364C50.4735 82.1364 50.3002 82.1861 50.1539 82.2855C50.0091 82.3835 49.8975 82.5114 49.8194 82.669C49.7413 82.8267 49.7022 82.9957 49.7022 83.1761V83.4659C49.7022 83.7131 49.7449 83.9226 49.8301 84.0945C49.9167 84.2649 50.0368 84.3949 50.1902 84.4844C50.3436 84.5724 50.5218 84.6165 50.725 84.6165C50.8571 84.6165 50.9764 84.598 51.0829 84.5611C51.1909 84.5227 51.2839 84.4659 51.362 84.3906C51.4402 84.3139 51.5005 84.2187 51.5431 84.1051L52.0289 84.2415C51.9778 84.4062 51.8919 84.5511 51.7711 84.6761C51.6504 84.7997 51.5012 84.8963 51.3237 84.9659C51.1461 85.0341 50.9466 85.0682 50.725 85.0682ZM54.2683 81.7273V82.1534H52.5723V81.7273H54.2683ZM53.0666 80.9432H53.5694V84.0625C53.5694 84.2045 53.59 84.3111 53.6312 84.3821C53.6738 84.4517 53.7278 84.4986 53.7931 84.5227C53.8599 84.5455 53.9302 84.5568 54.0041 84.5568C54.0595 84.5568 54.1049 84.554 54.1404 84.5483C54.176 84.5412 54.2044 84.5355 54.2257 84.5312L54.3279 84.983C54.2939 84.9957 54.2463 85.0085 54.1852 85.0213C54.1241 85.0355 54.0467 85.0426 53.9529 85.0426C53.8109 85.0426 53.6717 85.0121 53.5353 84.951C53.4004 84.8899 53.2882 84.7969 53.1987 84.6719C53.1106 84.5469 53.0666 84.3892 53.0666 84.1989V80.9432ZM55.0247 85V81.7273H55.5105V82.2216H55.5446C55.6042 82.0597 55.7122 81.9283 55.8684 81.8274C56.0247 81.7266 56.2008 81.6761 56.3968 81.6761C56.4338 81.6761 56.4799 81.6768 56.5353 81.6783C56.5907 81.6797 56.6326 81.6818 56.661 81.6847V82.196C56.644 82.1918 56.6049 82.1854 56.5439 82.1768C56.4842 82.1669 56.421 82.1619 56.3542 82.1619C56.1951 82.1619 56.0531 82.1953 55.9281 82.2621C55.8045 82.3274 55.7065 82.4183 55.6341 82.5348C55.563 82.6499 55.5275 82.7812 55.5275 82.929V85H55.0247ZM58.487 85.0682C58.1916 85.0682 57.9324 84.9979 57.7093 84.8572C57.4877 84.7166 57.3145 84.5199 57.1895 84.267C57.0659 84.0142 57.0041 83.7187 57.0041 83.3807C57.0041 83.0398 57.0659 82.7422 57.1895 82.4879C57.3145 82.2337 57.4877 82.0362 57.7093 81.8956C57.9324 81.755 58.1916 81.6847 58.487 81.6847C58.7825 81.6847 59.041 81.755 59.2626 81.8956C59.4856 82.0362 59.6589 82.2337 59.7825 82.4879C59.9075 82.7422 59.97 83.0398 59.97 83.3807C59.97 83.7187 59.9075 84.0142 59.7825 84.267C59.6589 84.5199 59.4856 84.7166 59.2626 84.8572C59.041 84.9979 58.7825 85.0682 58.487 85.0682ZM58.487 84.6165C58.7115 84.6165 58.8961 84.5589 59.041 84.4439C59.1859 84.3288 59.2931 84.1776 59.3627 83.9901C59.4324 83.8026 59.4672 83.5994 59.4672 83.3807C59.4672 83.1619 59.4324 82.9581 59.3627 82.7692C59.2931 82.5803 59.1859 82.4276 59.041 82.3111C58.8961 82.1946 58.7115 82.1364 58.487 82.1364C58.2626 82.1364 58.0779 82.1946 57.9331 82.3111C57.7882 82.4276 57.6809 82.5803 57.6113 82.7692C57.5417 82.9581 57.5069 83.1619 57.5069 83.3807C57.5069 83.5994 57.5417 83.8026 57.6113 83.9901C57.6809 84.1776 57.7882 84.3288 57.9331 84.4439C58.0779 84.5589 58.2626 84.6165 58.487 84.6165ZM62.4251 86.2273V81.7273H62.9109V82.2472H62.9705C63.0075 82.1903 63.0586 82.1179 63.1239 82.0298C63.1907 81.9403 63.2859 81.8608 63.4094 81.7912C63.5344 81.7202 63.7035 81.6847 63.9165 81.6847C64.1921 81.6847 64.435 81.7536 64.6452 81.8913C64.8555 82.0291 65.0195 82.2244 65.1374 82.4773C65.2553 82.7301 65.3143 83.0284 65.3143 83.3722C65.3143 83.7188 65.2553 84.0192 65.1374 84.2734C65.0195 84.5263 64.8562 84.7223 64.6474 84.8615C64.4386 84.9993 64.1978 85.0682 63.9251 85.0682C63.7148 85.0682 63.5465 85.0334 63.4201 84.9638C63.2937 84.8928 63.1964 84.8125 63.1282 84.723C63.06 84.6321 63.0075 84.5568 62.9705 84.4972H62.9279V86.2273H62.4251ZM62.9194 83.3636C62.9194 83.6108 62.9556 83.8288 63.0281 84.0178C63.1005 84.2053 63.2063 84.3523 63.3455 84.4588C63.4847 84.5639 63.6552 84.6165 63.8569 84.6165C64.0671 84.6165 64.2425 84.5611 64.3832 84.4503C64.5252 84.3381 64.6317 84.1875 64.7028 83.9986C64.7752 83.8082 64.8114 83.5966 64.8114 83.3636C64.8114 83.1335 64.7759 82.9261 64.7049 82.7415C64.6353 82.5554 64.5295 82.4084 64.3874 82.3004C64.2468 82.1911 64.07 82.1364 63.8569 82.1364C63.6523 82.1364 63.4805 82.1882 63.3413 82.2919C63.2021 82.3942 63.0969 82.5376 63.0259 82.7223C62.9549 82.9055 62.9194 83.1193 62.9194 83.3636ZM67.4535 85.0682C67.1381 85.0682 66.8661 84.9986 66.6374 84.8594C66.4102 84.7188 66.2347 84.5227 66.1112 84.2713C65.989 84.0185 65.9279 83.7244 65.9279 83.3892C65.9279 83.054 65.989 82.7585 66.1112 82.5028C66.2347 82.2457 66.4066 82.0455 66.6268 81.902C66.8484 81.7571 67.1069 81.6847 67.4023 81.6847C67.5728 81.6847 67.7411 81.7131 67.9073 81.7699C68.0735 81.8267 68.2248 81.919 68.3612 82.0469C68.4975 82.1733 68.6062 82.3409 68.6871 82.5497C68.7681 82.7585 68.8086 83.0156 68.8086 83.321V83.5341H66.2859V83.0994H68.2972C68.2972 82.9148 68.2603 82.75 68.1864 82.6051C68.114 82.4602 68.0103 82.3459 67.8754 82.2621C67.7418 82.1783 67.5842 82.1364 67.4023 82.1364C67.2021 82.1364 67.0288 82.1861 66.8825 82.2855C66.7376 82.3835 66.6261 82.5114 66.5479 82.669C66.4698 82.8267 66.4308 82.9957 66.4308 83.1761V83.4659C66.4308 83.7131 66.4734 83.9226 66.5586 84.0945C66.6452 84.2649 66.7653 84.3949 66.9187 84.4844C67.0721 84.5724 67.2504 84.6165 67.4535 84.6165C67.5856 84.6165 67.7049 84.598 67.8114 84.5611C67.9194 84.5227 68.0124 84.4659 68.0906 84.3906C68.1687 84.3139 68.229 84.2187 68.2717 84.1051L68.7575 84.2415C68.7063 84.4062 68.6204 84.5511 68.4996 84.6761C68.3789 84.7997 68.2298 84.8963 68.0522 84.9659C67.8746 85.0341 67.6751 85.0682 67.4535 85.0682ZM69.5735 85V81.7273H70.0593V82.2216H70.0934C70.1531 82.0597 70.261 81.9283 70.4173 81.8274C70.5735 81.7266 70.7496 81.6761 70.9457 81.6761C70.9826 81.6761 71.0288 81.6768 71.0842 81.6783C71.1396 81.6797 71.1815 81.6818 71.2099 81.6847V82.196C71.1928 82.1918 71.1538 82.1854 71.0927 82.1768C71.033 82.1669 70.9698 82.1619 70.9031 82.1619C70.744 82.1619 70.6019 82.1953 70.4769 82.2621C70.3533 82.3274 70.2553 82.4183 70.1829 82.5348C70.1119 82.6499 70.0763 82.7812 70.0763 82.929V85H69.5735ZM71.8059 85V81.7273H72.3088V85H71.8059ZM72.0616 81.1818C71.9636 81.1818 71.8791 81.1484 71.8081 81.0817C71.7385 81.0149 71.7037 80.9347 71.7037 80.8409C71.7037 80.7472 71.7385 80.6669 71.8081 80.6001C71.8791 80.5334 71.9636 80.5 72.0616 80.5C72.1596 80.5 72.2434 80.5334 72.313 80.6001C72.3841 80.6669 72.4196 80.7472 72.4196 80.8409C72.4196 80.9347 72.3841 81.0149 72.313 81.0817C72.2434 81.1484 72.1596 81.1818 72.0616 81.1818ZM74.5593 85.0682C74.2638 85.0682 74.0046 84.9979 73.7816 84.8572C73.56 84.7166 73.3867 84.5199 73.2617 84.267C73.1381 84.0142 73.0763 83.7187 73.0763 83.3807C73.0763 83.0398 73.1381 82.7422 73.2617 82.4879C73.3867 82.2337 73.56 82.0362 73.7816 81.8956C74.0046 81.755 74.2638 81.6847 74.5593 81.6847C74.8548 81.6847 75.1133 81.755 75.3349 81.8956C75.5579 82.0362 75.7312 82.2337 75.8548 82.4879C75.9798 82.7422 76.0423 83.0398 76.0423 83.3807C76.0423 83.7187 75.9798 84.0142 75.8548 84.267C75.7312 84.5199 75.5579 84.7166 75.3349 84.8572C75.1133 84.9979 74.8548 85.0682 74.5593 85.0682ZM74.5593 84.6165C74.7837 84.6165 74.9684 84.5589 75.1133 84.4439C75.2582 84.3288 75.3654 84.1776 75.435 83.9901C75.5046 83.8026 75.5394 83.5994 75.5394 83.3807C75.5394 83.1619 75.5046 82.9581 75.435 82.7692C75.3654 82.5803 75.2582 82.4276 75.1133 82.3111C74.9684 82.1946 74.7837 82.1364 74.5593 82.1364C74.3349 82.1364 74.1502 82.1946 74.0053 82.3111C73.8604 82.4276 73.7532 82.5803 73.6836 82.7692C73.614 82.9581 73.5792 83.1619 73.5792 83.3807C73.5792 83.5994 73.614 83.8026 73.6836 83.9901C73.7532 84.1776 73.8604 84.3288 74.0053 84.4439C74.1502 84.5589 74.3349 84.6165 74.5593 84.6165ZM78.0456 85.0682C77.7729 85.0682 77.5321 84.9993 77.3233 84.8615C77.1145 84.7223 76.9512 84.5263 76.8333 84.2734C76.7154 84.0192 76.6564 83.7188 76.6564 83.3722C76.6564 83.0284 76.7154 82.7301 76.8333 82.4773C76.9512 82.2244 77.1152 82.0291 77.3255 81.8913C77.5357 81.7536 77.7786 81.6847 78.0542 81.6847C78.2672 81.6847 78.4355 81.7202 78.5591 81.7912C78.6841 81.8608 78.7793 81.9403 78.8446 82.0298C78.9114 82.1179 78.9632 82.1903 79.0002 82.2472H79.0428V80.6364H79.5456V85H79.0598V84.4972H79.0002C78.9632 84.5568 78.9107 84.6321 78.8425 84.723C78.7743 84.8125 78.677 84.8928 78.5506 84.9638C78.4242 85.0334 78.2559 85.0682 78.0456 85.0682ZM78.1138 84.6165C78.3155 84.6165 78.486 84.5639 78.6252 84.4588C78.7644 84.3523 78.8702 84.2053 78.9426 84.0178C79.0151 83.8288 79.0513 83.6108 79.0513 83.3636C79.0513 83.1193 79.0158 82.9055 78.9448 82.7223C78.8738 82.5376 78.7686 82.3942 78.6294 82.2919C78.4902 82.1882 78.3184 82.1364 78.1138 82.1364C77.9007 82.1364 77.7232 82.1911 77.5811 82.3004C77.4405 82.4084 77.3347 82.5554 77.2637 82.7415C77.1941 82.9261 77.1593 83.1335 77.1593 83.3636C77.1593 83.5966 77.1948 83.8082 77.2658 83.9986C77.3382 84.1875 77.4448 84.3381 77.5854 84.4503C77.7275 84.5611 77.9036 84.6165 78.1138 84.6165ZM82.9654 85L81.9682 81.7273H82.4966L83.204 84.233H83.2381L83.937 81.7273H84.4739L85.1642 84.2244H85.1983L85.9057 81.7273H86.4341L85.437 85H84.9426L84.2267 82.4858H84.1756L83.4597 85H82.9654ZM87.0989 85V81.7273H87.6017V85H87.0989ZM87.3546 81.1818C87.2566 81.1818 87.1721 81.1484 87.101 81.0817C87.0314 81.0149 86.9966 80.9347 86.9966 80.8409C86.9966 80.7472 87.0314 80.6669 87.101 80.6001C87.1721 80.5334 87.2566 80.5 87.3546 80.5C87.4526 80.5 87.5364 80.5334 87.606 80.6001C87.677 80.6669 87.7125 80.7472 87.7125 80.8409C87.7125 80.9347 87.677 81.0149 87.606 81.0817C87.5364 81.1484 87.4526 81.1818 87.3546 81.1818ZM89.946 81.7273V82.1534H88.25V81.7273H89.946ZM88.7443 80.9432H89.2472V84.0625C89.2472 84.2045 89.2678 84.3111 89.3089 84.3821C89.3516 84.4517 89.4055 84.4986 89.4709 84.5227C89.5376 84.5455 89.608 84.5568 89.6818 84.5568C89.7372 84.5568 89.7827 84.554 89.8182 84.5483C89.8537 84.5412 89.8821 84.5355 89.9034 84.5312L90.0057 84.983C89.9716 84.9957 89.924 85.0085 89.8629 85.0213C89.8018 85.0355 89.7244 85.0426 89.6307 85.0426C89.4886 85.0426 89.3494 85.0121 89.2131 84.951C89.0781 84.8899 88.9659 84.7969 88.8764 84.6719C88.7884 84.5469 88.7443 84.3892 88.7443 84.1989V80.9432ZM91.2756 83.0312V85H90.7727V80.6364H91.2756V82.2386H91.3182C91.3949 82.0696 91.5099 81.9354 91.6634 81.8359C91.8182 81.7351 92.0241 81.6847 92.2812 81.6847C92.5043 81.6847 92.6996 81.7294 92.8672 81.8189C93.0348 81.907 93.1648 82.0426 93.2571 82.2259C93.3509 82.4077 93.3977 82.6392 93.3977 82.9205V85H92.8949V82.9545C92.8949 82.6946 92.8274 82.4936 92.6925 82.3516C92.5589 82.2081 92.3736 82.1364 92.1364 82.1364C91.9716 82.1364 91.8239 82.1712 91.6932 82.2408C91.5639 82.3104 91.4616 82.4119 91.3864 82.5455C91.3125 82.679 91.2756 82.8409 91.2756 83.0312ZM96.9682 85.0767C96.7608 85.0767 96.5726 85.0376 96.4036 84.9595C96.2346 84.88 96.1003 84.7656 96.0009 84.6165C95.9015 84.4659 95.8517 84.2841 95.8517 84.071C95.8517 83.8835 95.8887 83.7315 95.9625 83.6151C96.0364 83.4972 96.1351 83.4048 96.2587 83.3381C96.3823 83.2713 96.5186 83.2216 96.6678 83.1889C96.8184 83.1548 96.9696 83.1278 97.1216 83.108C97.3205 83.0824 97.4817 83.0632 97.6053 83.0504C97.7303 83.0362 97.8212 83.0128 97.878 82.9801C97.9363 82.9474 97.9654 82.8906 97.9654 82.8097V82.7926C97.9654 82.5824 97.9078 82.419 97.7928 82.3026C97.6792 82.1861 97.5066 82.1278 97.275 82.1278C97.035 82.1278 96.8468 82.1804 96.7104 82.2855C96.574 82.3906 96.4782 82.5028 96.4228 82.6222L95.9455 82.4517C96.0307 82.2528 96.1444 82.098 96.2864 81.9872C96.4299 81.875 96.5861 81.7969 96.7551 81.7528C96.9256 81.7074 97.0932 81.6847 97.258 81.6847C97.3631 81.6847 97.4838 81.6974 97.6202 81.723C97.758 81.7472 97.8908 81.7976 98.0186 81.8743C98.1479 81.951 98.2551 82.0668 98.3404 82.2216C98.4256 82.3764 98.4682 82.5838 98.4682 82.8438V85H97.9654V84.5568H97.9398C97.9057 84.6278 97.8489 84.7038 97.7694 84.7848C97.6898 84.8658 97.584 84.9347 97.4519 84.9915C97.3198 85.0483 97.1586 85.0767 96.9682 85.0767ZM97.0449 84.625C97.2438 84.625 97.4114 84.5859 97.5478 84.5078C97.6855 84.4297 97.7892 84.3288 97.8588 84.2053C97.9299 84.0817 97.9654 83.9517 97.9654 83.8153V83.3551C97.9441 83.3807 97.8972 83.4041 97.8248 83.4254C97.7537 83.4453 97.6713 83.4631 97.5776 83.4787C97.4853 83.4929 97.3951 83.5057 97.307 83.517C97.2203 83.527 97.15 83.5355 97.0961 83.5426C96.9654 83.5597 96.8432 83.5874 96.7296 83.6257C96.6174 83.6626 96.5265 83.7187 96.4569 83.794C96.3887 83.8679 96.3546 83.9687 96.3546 84.0966C96.3546 84.2713 96.4192 84.4034 96.5485 84.4929C96.6792 84.581 96.8446 84.625 97.0449 84.625ZM99.8888 80.6364V85H99.386V80.6364H99.8888ZM101.313 80.6364V85H100.81V80.6364H101.313ZM104.884 85.0767C104.677 85.0767 104.489 85.0376 104.32 84.9595C104.151 84.88 104.016 84.7656 103.917 84.6165C103.817 84.4659 103.768 84.2841 103.768 84.071C103.768 83.8835 103.805 83.7315 103.879 83.6151C103.952 83.4972 104.051 83.4048 104.175 83.3381C104.298 83.2713 104.435 83.2216 104.584 83.1889C104.734 83.1548 104.886 83.1278 105.038 83.108C105.237 83.0824 105.398 83.0632 105.521 83.0504C105.646 83.0362 105.737 83.0128 105.794 82.9801C105.852 82.9474 105.881 82.8906 105.881 82.8097V82.7926C105.881 82.5824 105.824 82.419 105.709 82.3026C105.595 82.1861 105.423 82.1278 105.191 82.1278C104.951 82.1278 104.763 82.1804 104.626 82.2855C104.49 82.3906 104.394 82.5028 104.339 82.6222L103.862 82.4517C103.947 82.2528 104.06 82.098 104.202 81.9872C104.346 81.875 104.502 81.7969 104.671 81.7528C104.842 81.7074 105.009 81.6847 105.174 81.6847C105.279 81.6847 105.4 81.6974 105.536 81.723C105.674 81.7472 105.807 81.7976 105.935 81.8743C106.064 81.951 106.171 82.0668 106.256 82.2216C106.342 82.3764 106.384 82.5838 106.384 82.8438V85H105.881V84.5568H105.856C105.822 84.6278 105.765 84.7038 105.685 84.7848C105.606 84.8658 105.5 84.9347 105.368 84.9915C105.236 85.0483 105.075 85.0767 104.884 85.0767ZM104.961 84.625C105.16 84.625 105.327 84.5859 105.464 84.5078C105.602 84.4297 105.705 84.3288 105.775 84.2053C105.846 84.0817 105.881 83.9517 105.881 83.8153V83.3551C105.86 83.3807 105.813 83.4041 105.741 83.4254C105.67 83.4453 105.587 83.4631 105.494 83.4787C105.401 83.4929 105.311 83.5057 105.223 83.517C105.136 83.527 105.066 83.5355 105.012 83.5426C104.881 83.5597 104.759 83.5874 104.646 83.6257C104.533 83.6626 104.442 83.7187 104.373 83.794C104.305 83.8679 104.271 83.9687 104.271 84.0966C104.271 84.2713 104.335 84.4034 104.464 84.4929C104.595 84.581 104.761 84.625 104.961 84.625ZM109.62 82.4602L109.169 82.5881C109.14 82.5128 109.098 82.4396 109.043 82.3686C108.989 82.2962 108.915 82.2365 108.821 82.1896C108.727 82.1428 108.607 82.1193 108.461 82.1193C108.261 82.1193 108.094 82.1655 107.96 82.2578C107.828 82.3487 107.762 82.4645 107.762 82.6051C107.762 82.7301 107.808 82.8288 107.899 82.9013C107.99 82.9737 108.132 83.0341 108.325 83.0824L108.811 83.2017C109.103 83.2727 109.321 83.3814 109.465 83.5277C109.608 83.6726 109.68 83.8594 109.68 84.0881C109.68 84.2756 109.626 84.4432 109.518 84.5909C109.411 84.7386 109.262 84.8551 109.07 84.9403C108.879 85.0256 108.656 85.0682 108.401 85.0682C108.068 85.0682 107.791 84.9957 107.573 84.8509C107.354 84.706 107.215 84.4943 107.157 84.2159L107.634 84.0966C107.68 84.2727 107.766 84.4048 107.892 84.4929C108.02 84.581 108.187 84.625 108.393 84.625C108.627 84.625 108.813 84.5753 108.951 84.4759C109.09 84.375 109.16 84.2543 109.16 84.1136C109.16 84 109.12 83.9048 109.041 83.8281C108.961 83.75 108.839 83.6918 108.674 83.6534L108.129 83.5256C107.829 83.4545 107.609 83.3445 107.468 83.1953C107.329 83.0447 107.259 82.8565 107.259 82.6307C107.259 82.446 107.311 82.2827 107.415 82.1406C107.52 81.9986 107.663 81.8871 107.843 81.8061C108.025 81.7251 108.231 81.6847 108.461 81.6847C108.785 81.6847 109.039 81.7557 109.224 81.8977C109.41 82.0398 109.542 82.2273 109.62 82.4602ZM112.755 82.4602L112.303 82.5881C112.275 82.5128 112.233 82.4396 112.178 82.3686C112.124 82.2962 112.05 82.2365 111.956 82.1896C111.862 82.1428 111.742 82.1193 111.596 82.1193C111.396 82.1193 111.229 82.1655 111.095 82.2578C110.963 82.3487 110.897 82.4645 110.897 82.6051C110.897 82.7301 110.942 82.8288 111.033 82.9013C111.124 82.9737 111.266 83.0341 111.46 83.0824L111.945 83.2017C112.238 83.2727 112.456 83.3814 112.599 83.5277C112.743 83.6726 112.815 83.8594 112.815 84.0881C112.815 84.2756 112.761 84.4432 112.653 84.5909C112.546 84.7386 112.397 84.8551 112.205 84.9403C112.013 85.0256 111.79 85.0682 111.536 85.0682C111.202 85.0682 110.926 84.9957 110.707 84.8509C110.489 84.706 110.35 84.4943 110.292 84.2159L110.769 84.0966C110.815 84.2727 110.901 84.4048 111.027 84.4929C111.155 84.581 111.322 84.625 111.528 84.625C111.762 84.625 111.948 84.5753 112.086 84.4759C112.225 84.375 112.295 84.2543 112.295 84.1136C112.295 84 112.255 83.9048 112.175 83.8281C112.096 83.75 111.974 83.6918 111.809 83.6534L111.263 83.5256C110.964 83.4545 110.744 83.3445 110.603 83.1953C110.464 83.0447 110.394 82.8565 110.394 82.6307C110.394 82.446 110.446 82.2827 110.55 82.1406C110.655 81.9986 110.798 81.8871 110.978 81.8061C111.16 81.7251 111.366 81.6847 111.596 81.6847C111.92 81.6847 112.174 81.7557 112.359 81.8977C112.545 82.0398 112.677 82.2273 112.755 82.4602ZM113.572 85V81.7273H114.074V85H113.572ZM113.827 81.1818C113.729 81.1818 113.645 81.1484 113.574 81.0817C113.504 81.0149 113.469 80.9347 113.469 80.8409C113.469 80.7472 113.504 80.6669 113.574 80.6001C113.645 80.5334 113.729 80.5 113.827 80.5C113.925 80.5 114.009 80.5334 114.079 80.6001C114.15 80.6669 114.185 80.7472 114.185 80.8409C114.185 80.9347 114.15 81.0149 114.079 81.0817C114.009 81.1484 113.925 81.1818 113.827 81.1818ZM116.316 86.2955C116.074 86.2955 115.865 86.2642 115.69 86.2017C115.515 86.1406 115.37 86.0597 115.253 85.9588C115.138 85.8594 115.047 85.7528 114.978 85.6392L115.379 85.358C115.424 85.4176 115.482 85.4858 115.551 85.5625C115.621 85.6406 115.716 85.7081 115.837 85.7649C115.959 85.8232 116.119 85.8523 116.316 85.8523C116.581 85.8523 116.799 85.7884 116.971 85.6605C117.142 85.5327 117.228 85.3324 117.228 85.0597V84.3949H117.186C117.149 84.4545 117.096 84.5284 117.028 84.6165C116.961 84.7031 116.865 84.7805 116.738 84.8487C116.613 84.9155 116.444 84.9489 116.231 84.9489C115.967 84.9489 115.73 84.8864 115.52 84.7614C115.311 84.6364 115.145 84.4545 115.023 84.2159C114.902 83.9773 114.842 83.6875 114.842 83.3466C114.842 83.0114 114.901 82.7195 115.019 82.4709C115.137 82.2209 115.301 82.0277 115.511 81.8913C115.721 81.7536 115.964 81.6847 116.24 81.6847C116.453 81.6847 116.622 81.7202 116.747 81.7912C116.873 81.8608 116.97 81.9403 117.037 82.0298C117.105 82.1179 117.157 82.1903 117.194 82.2472H117.245V81.7273H117.731V85.0938C117.731 85.375 117.667 85.6037 117.539 85.7798C117.413 85.9574 117.243 86.0874 117.028 86.1697C116.815 86.2536 116.578 86.2955 116.316 86.2955ZM116.299 84.4972C116.501 84.4972 116.672 84.451 116.811 84.3587C116.95 84.2663 117.056 84.1335 117.128 83.9602C117.201 83.7869 117.237 83.5795 117.237 83.3381C117.237 83.1023 117.201 82.8942 117.13 82.7138C117.059 82.5334 116.954 82.392 116.815 82.2898C116.676 82.1875 116.504 82.1364 116.299 82.1364C116.086 82.1364 115.909 82.1903 115.767 82.2983C115.626 82.4062 115.52 82.5511 115.449 82.733C115.38 82.9148 115.345 83.1165 115.345 83.3381C115.345 83.5653 115.38 83.7663 115.451 83.9411C115.524 84.1143 115.63 84.2507 115.771 84.3501C115.913 84.4482 116.089 84.4972 116.299 84.4972ZM119.154 83.0312V85H118.652V81.7273H119.137V82.2386H119.18C119.257 82.0724 119.373 81.9389 119.529 81.8381C119.686 81.7358 119.887 81.6847 120.135 81.6847C120.356 81.6847 120.55 81.7301 120.716 81.821C120.882 81.9105 121.012 82.0469 121.104 82.2301C121.196 82.4119 121.243 82.642 121.243 82.9205V85H120.74V82.9545C120.74 82.6974 120.673 82.4972 120.539 82.3537C120.406 82.2088 120.223 82.1364 119.99 82.1364C119.829 82.1364 119.686 82.1712 119.559 82.2408C119.434 82.3104 119.336 82.4119 119.263 82.5455C119.191 82.679 119.154 82.8409 119.154 83.0312ZM123.534 85.0682C123.218 85.0682 122.946 84.9986 122.718 84.8594C122.49 84.7188 122.315 84.5227 122.191 84.2713C122.069 84.0185 122.008 83.7244 122.008 83.3892C122.008 83.054 122.069 82.7585 122.191 82.5028C122.315 82.2457 122.487 82.0455 122.707 81.902C122.928 81.7571 123.187 81.6847 123.482 81.6847C123.653 81.6847 123.821 81.7131 123.987 81.7699C124.154 81.8267 124.305 81.919 124.441 82.0469C124.578 82.1733 124.686 82.3409 124.767 82.5497C124.848 82.7585 124.889 83.0156 124.889 83.321V83.5341H122.366V83.0994H124.377C124.377 82.9148 124.34 82.75 124.267 82.6051C124.194 82.4602 124.09 82.3459 123.955 82.2621C123.822 82.1783 123.664 82.1364 123.482 82.1364C123.282 82.1364 123.109 82.1861 122.963 82.2855C122.818 82.3835 122.706 82.5114 122.628 82.669C122.55 82.8267 122.511 82.9957 122.511 83.1761V83.4659C122.511 83.7131 122.553 83.9226 122.639 84.0945C122.725 84.2649 122.845 84.3949 122.999 84.4844C123.152 84.5724 123.33 84.6165 123.534 84.6165C123.666 84.6165 123.785 84.598 123.892 84.5611C123.999 84.5227 124.093 84.4659 124.171 84.3906C124.249 84.3139 124.309 84.2187 124.352 84.1051L124.838 84.2415C124.786 84.4062 124.7 84.5511 124.58 84.6761C124.459 84.7997 124.31 84.8963 124.132 84.9659C123.955 85.0341 123.755 85.0682 123.534 85.0682ZM127.026 85.0682C126.71 85.0682 126.438 84.9986 126.21 84.8594C125.982 84.7188 125.807 84.5227 125.683 84.2713C125.561 84.0185 125.5 83.7244 125.5 83.3892C125.5 83.054 125.561 82.7585 125.683 82.5028C125.807 82.2457 125.979 82.0455 126.199 81.902C126.421 81.7571 126.679 81.6847 126.975 81.6847C127.145 81.6847 127.313 81.7131 127.48 81.7699C127.646 81.8267 127.797 81.919 127.933 82.0469C128.07 82.1733 128.178 82.3409 128.259 82.5497C128.34 82.7585 128.381 83.0156 128.381 83.321V83.5341H125.858V83.0994H127.869C127.869 82.9148 127.833 82.75 127.759 82.6051C127.686 82.4602 127.583 82.3459 127.448 82.2621C127.314 82.1783 127.156 82.1364 126.975 82.1364C126.774 82.1364 126.601 82.1861 126.455 82.2855C126.31 82.3835 126.198 82.5114 126.12 82.669C126.042 82.8267 126.003 82.9957 126.003 83.1761V83.4659C126.003 83.7131 126.046 83.9226 126.131 84.0945C126.218 84.2649 126.338 84.3949 126.491 84.4844C126.644 84.5724 126.823 84.6165 127.026 84.6165C127.158 84.6165 127.277 84.598 127.384 84.5611C127.492 84.5227 127.585 84.4659 127.663 84.3906C127.741 84.3139 127.801 84.2187 127.844 84.1051L128.33 84.2415C128.279 84.4062 128.193 84.5511 128.072 84.6761C127.951 84.7997 127.802 84.8963 127.624 84.9659C127.447 85.0341 127.247 85.0682 127.026 85.0682ZM131.464 82.4602L131.012 82.5881C130.984 82.5128 130.942 82.4396 130.887 82.3686C130.833 82.2962 130.759 82.2365 130.665 82.1896C130.571 82.1428 130.451 82.1193 130.305 82.1193C130.105 82.1193 129.938 82.1655 129.804 82.2578C129.672 82.3487 129.606 82.4645 129.606 82.6051C129.606 82.7301 129.651 82.8288 129.742 82.9013C129.833 82.9737 129.975 83.0341 130.169 83.0824L130.654 83.2017C130.947 83.2727 131.165 83.3814 131.308 83.5277C131.452 83.6726 131.524 83.8594 131.524 84.0881C131.524 84.2756 131.47 84.4432 131.362 84.5909C131.255 84.7386 131.106 84.8551 130.914 84.9403C130.722 85.0256 130.499 85.0682 130.245 85.0682C129.911 85.0682 129.635 84.9957 129.416 84.8509C129.198 84.706 129.059 84.4943 129.001 84.2159L129.478 84.0966C129.524 84.2727 129.61 84.4048 129.736 84.4929C129.864 84.581 130.031 84.625 130.237 84.625C130.471 84.625 130.657 84.5753 130.795 84.4759C130.934 84.375 131.004 84.2543 131.004 84.1136C131.004 84 130.964 83.9048 130.884 83.8281C130.805 83.75 130.683 83.6918 130.518 83.6534L129.972 83.5256C129.673 83.4545 129.453 83.3445 129.312 83.1953C129.173 83.0447 129.103 82.8565 129.103 82.6307C129.103 82.446 129.155 82.2827 129.259 82.1406C129.364 81.9986 129.507 81.8871 129.687 81.8061C129.869 81.7251 130.075 81.6847 130.305 81.6847C130.629 81.6847 130.883 81.7557 131.068 81.8977C131.254 82.0398 131.386 82.2273 131.464 82.4602Z" fill="#A7A7A7"/>
<path d="M38.0568 48.6364V53H37.5284V48.6364H38.0568ZM40.5055 49.7273V50.1534H38.7413V49.7273H40.5055ZM39.2697 53V49.2756C39.2697 49.0881 39.3137 48.9318 39.4018 48.8068C39.4899 48.6818 39.6042 48.5881 39.7449 48.5256C39.8855 48.4631 40.0339 48.4318 40.1902 48.4318C40.3137 48.4318 40.4146 48.4418 40.4927 48.4616C40.5708 48.4815 40.6291 48.5 40.6674 48.517L40.5225 48.9517C40.497 48.9432 40.4615 48.9325 40.416 48.9197C40.372 48.907 40.3137 48.9006 40.2413 48.9006C40.0751 48.9006 39.9551 48.9425 39.8812 49.0263C39.8088 49.1101 39.7725 49.233 39.7725 49.3949V53H39.2697ZM44.321 49.7273V50.1534H42.625V49.7273H44.321ZM43.1193 48.9432H43.6222V52.0625C43.6222 52.2045 43.6428 52.3111 43.6839 52.3821C43.7266 52.4517 43.7805 52.4986 43.8459 52.5227C43.9126 52.5455 43.983 52.5568 44.0568 52.5568C44.1122 52.5568 44.1577 52.554 44.1932 52.5483C44.2287 52.5412 44.2571 52.5355 44.2784 52.5312L44.3807 52.983C44.3466 52.9957 44.299 53.0085 44.2379 53.0213C44.1768 53.0355 44.0994 53.0426 44.0057 53.0426C43.8636 53.0426 43.7244 53.0121 43.5881 52.951C43.4531 52.8899 43.3409 52.7969 43.2514 52.6719C43.1634 52.5469 43.1193 52.3892 43.1193 52.1989V48.9432ZM46.0405 53.0767C45.8331 53.0767 45.6449 53.0376 45.4759 52.9595C45.3068 52.88 45.1726 52.7656 45.0732 52.6165C44.9737 52.4659 44.924 52.2841 44.924 52.071C44.924 51.8835 44.9609 51.7315 45.0348 51.6151C45.1087 51.4972 45.2074 51.4048 45.331 51.3381C45.4545 51.2713 45.5909 51.2216 45.7401 51.1889C45.8906 51.1548 46.0419 51.1278 46.1939 51.108C46.3928 51.0824 46.554 51.0632 46.6776 51.0504C46.8026 51.0362 46.8935 51.0128 46.9503 50.9801C47.0085 50.9474 47.0376 50.8906 47.0376 50.8097V50.7926C47.0376 50.5824 46.9801 50.419 46.8651 50.3026C46.7514 50.1861 46.5788 50.1278 46.3473 50.1278C46.1072 50.1278 45.919 50.1804 45.7827 50.2855C45.6463 50.3906 45.5504 50.5028 45.495 50.6222L45.0178 50.4517C45.103 50.2528 45.2166 50.098 45.3587 49.9872C45.5021 49.875 45.6584 49.7969 45.8274 49.7528C45.9979 49.7074 46.1655 49.6847 46.3303 49.6847C46.4354 49.6847 46.5561 49.6974 46.6925 49.723C46.8303 49.7472 46.9631 49.7976 47.0909 49.8743C47.2202 49.951 47.3274 50.0668 47.4126 50.2216C47.4979 50.3764 47.5405 50.5838 47.5405 50.8438V53H47.0376V52.5568H47.0121C46.978 52.6278 46.9212 52.7038 46.8416 52.7848C46.7621 52.8658 46.6563 52.9347 46.5241 52.9915C46.392 53.0483 46.2308 53.0767 46.0405 53.0767ZM46.1172 52.625C46.3161 52.625 46.4837 52.5859 46.62 52.5078C46.7578 52.4297 46.8615 52.3288 46.9311 52.2053C47.0021 52.0817 47.0376 51.9517 47.0376 51.8153V51.3551C47.0163 51.3807 46.9695 51.4041 46.897 51.4254C46.826 51.4453 46.7436 51.4631 46.6499 51.4787C46.5575 51.4929 46.4673 51.5057 46.3793 51.517C46.2926 51.527 46.2223 51.5355 46.1683 51.5426C46.0376 51.5597 45.9155 51.5874 45.8018 51.6257C45.6896 51.6626 45.5987 51.7187 45.5291 51.794C45.4609 51.8679 45.4268 51.9687 45.4268 52.0966C45.4268 52.2713 45.4915 52.4034 45.6207 52.4929C45.7514 52.581 45.9169 52.625 46.1172 52.625ZM50.7765 50.4602L50.3248 50.5881C50.2963 50.5128 50.2544 50.4396 50.199 50.3686C50.1451 50.2962 50.0712 50.2365 49.9775 50.1896C49.8837 50.1428 49.7637 50.1193 49.6174 50.1193C49.4171 50.1193 49.2502 50.1655 49.1167 50.2578C48.9846 50.3487 48.9185 50.4645 48.9185 50.6051C48.9185 50.7301 48.964 50.8288 49.0549 50.9013C49.1458 50.9737 49.2878 51.0341 49.481 51.0824L49.9668 51.2017C50.2594 51.2727 50.4775 51.3814 50.6209 51.5277C50.7644 51.6726 50.8361 51.8594 50.8361 52.0881C50.8361 52.2756 50.7821 52.4432 50.6742 52.5909C50.5676 52.7386 50.4185 52.8551 50.2267 52.9403C50.035 53.0256 49.812 53.0682 49.5577 53.0682C49.2239 53.0682 48.9476 52.9957 48.7289 52.8509C48.5101 52.706 48.3716 52.4943 48.3134 52.2159L48.7907 52.0966C48.8361 52.2727 48.9221 52.4048 49.0485 52.4929C49.1763 52.581 49.3432 52.625 49.5492 52.625C49.7836 52.625 49.9696 52.5753 50.1074 52.4759C50.2466 52.375 50.3162 52.2543 50.3162 52.1136C50.3162 52 50.2765 51.9048 50.1969 51.8281C50.1174 51.75 49.9952 51.6918 49.8304 51.6534L49.285 51.5256C48.9853 51.4545 48.7651 51.3445 48.6245 51.1953C48.4853 51.0447 48.4157 50.8565 48.4157 50.6307C48.4157 50.446 48.4675 50.2827 48.5712 50.1406C48.6763 49.9986 48.8191 49.8871 48.9995 49.8061C49.1813 49.7251 49.3873 49.6847 49.6174 49.6847C49.9412 49.6847 50.1955 49.7557 50.3801 49.8977C50.5662 50.0398 50.6983 50.2273 50.7765 50.4602ZM52.0618 51.8068L52.0533 51.1847H52.1555L53.5874 49.7273H54.2095L52.6839 51.2699H52.6413L52.0618 51.8068ZM51.593 53V48.6364H52.0959V53H51.593ZM53.6726 53L52.3942 51.3807L52.7521 51.0312L54.3118 53H53.6726ZM57.0471 51.0312V53H56.5442V48.6364H57.0471V50.2386H57.0897C57.1664 50.0696 57.2814 49.9354 57.4348 49.8359C57.5897 49.7351 57.7956 49.6847 58.0527 49.6847C58.2757 49.6847 58.4711 49.7294 58.6387 49.8189C58.8063 49.907 58.9363 50.0426 59.0286 50.2259C59.1223 50.4077 59.1692 50.6392 59.1692 50.9205V53H58.6664V50.9545C58.6664 50.6946 58.5989 50.4936 58.464 50.3516C58.3304 50.2081 58.1451 50.1364 57.9078 50.1364C57.7431 50.1364 57.5953 50.1712 57.4647 50.2408C57.3354 50.3104 57.2331 50.4119 57.1578 50.5455C57.084 50.679 57.0471 50.8409 57.0471 51.0312ZM61.0522 53.0767C60.8448 53.0767 60.6566 53.0376 60.4876 52.9595C60.3185 52.88 60.1843 52.7656 60.0849 52.6165C59.9854 52.4659 59.9357 52.2841 59.9357 52.071C59.9357 51.8835 59.9727 51.7315 60.0465 51.6151C60.1204 51.4972 60.2191 51.4048 60.3427 51.3381C60.4663 51.2713 60.6026 51.2216 60.7518 51.1889C60.9023 51.1548 61.0536 51.1278 61.2056 51.108C61.4045 51.0824 61.5657 51.0632 61.6893 51.0504C61.8143 51.0362 61.9052 51.0128 61.962 50.9801C62.0202 50.9474 62.0494 50.8906 62.0494 50.8097V50.7926C62.0494 50.5824 61.9918 50.419 61.8768 50.3026C61.7631 50.1861 61.5906 50.1278 61.359 50.1278C61.119 50.1278 60.9308 50.1804 60.7944 50.2855C60.658 50.3906 60.5621 50.5028 60.5067 50.6222L60.0295 50.4517C60.1147 50.2528 60.2283 50.098 60.3704 49.9872C60.5138 49.875 60.6701 49.7969 60.8391 49.7528C61.0096 49.7074 61.1772 49.6847 61.342 49.6847C61.4471 49.6847 61.5678 49.6974 61.7042 49.723C61.842 49.7472 61.9748 49.7976 62.1026 49.8743C62.2319 49.951 62.3391 50.0668 62.4244 50.2216C62.5096 50.3764 62.5522 50.5838 62.5522 50.8438V53H62.0494V52.5568H62.0238C61.9897 52.6278 61.9329 52.7038 61.8533 52.7848C61.7738 52.8658 61.668 52.9347 61.5359 52.9915C61.4038 53.0483 61.2425 53.0767 61.0522 53.0767ZM61.1289 52.625C61.3278 52.625 61.4954 52.5859 61.6317 52.5078C61.7695 52.4297 61.8732 52.3288 61.9428 52.2053C62.0138 52.0817 62.0494 51.9517 62.0494 51.8153V51.3551C62.0281 51.3807 61.9812 51.4041 61.9087 51.4254C61.8377 51.4453 61.7553 51.4631 61.6616 51.4787C61.5692 51.4929 61.479 51.5057 61.391 51.517C61.3043 51.527 61.234 51.5355 61.18 51.5426C61.0494 51.5597 60.9272 51.5874 60.8136 51.6257C60.7013 51.6626 60.6104 51.7187 60.5408 51.794C60.4727 51.8679 60.4386 51.9687 60.4386 52.0966C60.4386 52.2713 60.5032 52.4034 60.6325 52.4929C60.7631 52.581 60.9286 52.625 61.1289 52.625ZM65.7882 50.4602L65.3365 50.5881C65.3081 50.5128 65.2662 50.4396 65.2108 50.3686C65.1568 50.2962 65.0829 50.2365 64.9892 50.1896C64.8954 50.1428 64.7754 50.1193 64.6291 50.1193C64.4288 50.1193 64.2619 50.1655 64.1284 50.2578C63.9963 50.3487 63.9302 50.4645 63.9302 50.6051C63.9302 50.7301 63.9757 50.8288 64.0666 50.9013C64.1575 50.9737 64.2995 51.0341 64.4927 51.0824L64.9785 51.2017C65.2711 51.2727 65.4892 51.3814 65.6326 51.5277C65.7761 51.6726 65.8478 51.8594 65.8478 52.0881C65.8478 52.2756 65.7939 52.4432 65.6859 52.5909C65.5794 52.7386 65.4302 52.8551 65.2385 52.9403C65.0467 53.0256 64.8237 53.0682 64.5694 53.0682C64.2356 53.0682 63.9593 52.9957 63.7406 52.8509C63.5218 52.706 63.3833 52.4943 63.3251 52.2159L63.8024 52.0966C63.8478 52.2727 63.9338 52.4048 64.0602 52.4929C64.188 52.581 64.3549 52.625 64.5609 52.625C64.7953 52.625 64.9814 52.5753 65.1191 52.4759C65.2583 52.375 65.3279 52.2543 65.3279 52.1136C65.3279 52 65.2882 51.9048 65.2086 51.8281C65.1291 51.75 65.0069 51.6918 64.8422 51.6534L64.2967 51.5256C63.997 51.4545 63.7768 51.3445 63.6362 51.1953C63.497 51.0447 63.4274 50.8565 63.4274 50.6307C63.4274 50.446 63.4792 50.2827 63.5829 50.1406C63.688 49.9986 63.8308 49.8871 64.0112 49.8061C64.193 49.7251 64.399 49.6847 64.6291 49.6847C64.9529 49.6847 65.2072 49.7557 65.3919 49.8977C65.5779 50.0398 65.71 50.2273 65.7882 50.4602ZM68.2923 53V49.7273H68.7781V50.2386H68.8207C68.8888 50.0639 68.9989 49.9283 69.1509 49.8317C69.3029 49.7337 69.4854 49.6847 69.6985 49.6847C69.9144 49.6847 70.0941 49.7337 70.2376 49.8317C70.3825 49.9283 70.4954 50.0639 70.5763 50.2386H70.6104C70.6942 50.0696 70.82 49.9354 70.9876 49.8359C71.1552 49.7351 71.3562 49.6847 71.5906 49.6847C71.8832 49.6847 72.1225 49.7763 72.3086 49.9595C72.4947 50.1413 72.5877 50.4247 72.5877 50.8097V53H72.0849V50.8097C72.0849 50.5682 72.0188 50.3956 71.8867 50.2919C71.7546 50.1882 71.5991 50.1364 71.4201 50.1364C71.19 50.1364 71.0117 50.206 70.8853 50.3452C70.7589 50.483 70.6957 50.6577 70.6957 50.8693V53H70.1843V50.7585C70.1843 50.5724 70.1239 50.4226 70.0032 50.3089C69.8825 50.1939 69.7269 50.1364 69.5366 50.1364C69.4059 50.1364 69.2837 50.1712 69.1701 50.2408C69.0579 50.3104 68.967 50.407 68.8974 50.5305C68.8292 50.6527 68.7951 50.794 68.7951 50.9545V53H68.2923ZM75.5696 51.6619V49.7273H76.0724V53H75.5696V52.446H75.5355C75.4588 52.6122 75.3395 52.7536 75.1776 52.87C75.0156 52.9851 74.8111 53.0426 74.5639 53.0426C74.3594 53.0426 74.1776 52.9979 74.0185 52.9084C73.8594 52.8175 73.7344 52.6811 73.6435 52.4993C73.5526 52.3161 73.5071 52.0852 73.5071 51.8068V49.7273H74.0099V51.7727C74.0099 52.0114 74.0767 52.2017 74.2102 52.3438C74.3452 52.4858 74.517 52.5568 74.7259 52.5568C74.8509 52.5568 74.978 52.5249 75.1072 52.4609C75.2379 52.397 75.3473 52.299 75.4354 52.1669C75.5249 52.0348 75.5696 51.8665 75.5696 51.6619ZM77.4963 48.6364V53H76.9934V48.6364H77.4963ZM79.8406 49.7273V50.1534H78.1445V49.7273H79.8406ZM78.6388 48.9432H79.1417V52.0625C79.1417 52.2045 79.1623 52.3111 79.2035 52.3821C79.2461 52.4517 79.3001 52.4986 79.3654 52.5227C79.4322 52.5455 79.5025 52.5568 79.5763 52.5568C79.6317 52.5568 79.6772 52.554 79.7127 52.5483C79.7482 52.5412 79.7766 52.5355 79.7979 52.5312L79.9002 52.983C79.8661 52.9957 79.8185 53.0085 79.7575 53.0213C79.6964 53.0355 79.619 53.0426 79.5252 53.0426C79.3832 53.0426 79.244 53.0121 79.1076 52.951C78.9727 52.8899 78.8604 52.7969 78.771 52.6719C78.6829 52.5469 78.6388 52.3892 78.6388 52.1989V48.9432ZM80.5969 53V49.7273H81.0998V53H80.5969ZM80.8526 49.1818C80.7546 49.1818 80.6701 49.1484 80.5991 49.0817C80.5295 49.0149 80.4947 48.9347 80.4947 48.8409C80.4947 48.7472 80.5295 48.6669 80.5991 48.6001C80.6701 48.5334 80.7546 48.5 80.8526 48.5C80.9506 48.5 81.0344 48.5334 81.104 48.6001C81.1751 48.6669 81.2106 48.7472 81.2106 48.8409C81.2106 48.9347 81.1751 49.0149 81.104 49.0817C81.0344 49.1484 80.9506 49.1818 80.8526 49.1818ZM82.0208 54.2273V49.7273H82.5066V50.2472H82.5662C82.6032 50.1903 82.6543 50.1179 82.7196 50.0298C82.7864 49.9403 82.8816 49.8608 83.0051 49.7912C83.1301 49.7202 83.2992 49.6847 83.5123 49.6847C83.7878 49.6847 84.0307 49.7536 84.2409 49.8913C84.4512 50.0291 84.6152 50.2244 84.7331 50.4773C84.851 50.7301 84.91 51.0284 84.91 51.3722C84.91 51.7188 84.851 52.0192 84.7331 52.2734C84.6152 52.5263 84.4519 52.7223 84.2431 52.8615C84.0343 52.9993 83.7935 53.0682 83.5208 53.0682C83.3105 53.0682 83.1422 53.0334 83.0158 52.9638C82.8894 52.8928 82.7921 52.8125 82.7239 52.723C82.6557 52.6321 82.6032 52.5568 82.5662 52.4972H82.5236V54.2273H82.0208ZM82.5151 51.3636C82.5151 51.6108 82.5513 51.8288 82.6238 52.0178C82.6962 52.2053 82.802 52.3523 82.9412 52.4588C83.0804 52.5639 83.2509 52.6165 83.4526 52.6165C83.6628 52.6165 83.8382 52.5611 83.9789 52.4503C84.1209 52.3381 84.2275 52.1875 84.2985 51.9986C84.3709 51.8082 84.4071 51.5966 84.4071 51.3636C84.4071 51.1335 84.3716 50.9261 84.3006 50.7415C84.231 50.5554 84.1252 50.4084 83.9831 50.3004C83.8425 50.1911 83.6657 50.1364 83.4526 50.1364C83.248 50.1364 83.0762 50.1882 82.937 50.2919C82.7978 50.3942 82.6926 50.5376 82.6216 50.7223C82.5506 50.9055 82.5151 51.1193 82.5151 51.3636ZM86.1799 48.6364V53H85.677V48.6364H86.1799ZM88.473 53.0682C88.1577 53.0682 87.8857 52.9986 87.657 52.8594C87.4297 52.7188 87.2543 52.5227 87.1307 52.2713C87.0085 52.0185 86.9474 51.7244 86.9474 51.3892C86.9474 51.054 87.0085 50.7585 87.1307 50.5028C87.2543 50.2457 87.4261 50.0455 87.6463 49.902C87.8679 49.7571 88.1264 49.6847 88.4219 49.6847C88.5923 49.6847 88.7607 49.7131 88.9268 49.7699C89.093 49.8267 89.2443 49.919 89.3807 50.0469C89.517 50.1733 89.6257 50.3409 89.7067 50.5497C89.7876 50.7585 89.8281 51.0156 89.8281 51.321V51.5341H87.3054V51.0994H89.3168C89.3168 50.9148 89.2798 50.75 89.206 50.6051C89.1335 50.4602 89.0298 50.3459 88.8949 50.2621C88.7614 50.1783 88.6037 50.1364 88.4219 50.1364C88.2216 50.1364 88.0483 50.1861 87.902 50.2855C87.7571 50.3835 87.6456 50.5114 87.5675 50.669C87.4893 50.8267 87.4503 50.9957 87.4503 51.1761V51.4659C87.4503 51.7131 87.4929 51.9226 87.5781 52.0945C87.6648 52.2649 87.7848 52.3949 87.9382 52.4844C88.0916 52.5724 88.2699 52.6165 88.473 52.6165C88.6051 52.6165 88.7244 52.598 88.831 52.5611C88.9389 52.5227 89.032 52.4659 89.1101 52.3906C89.1882 52.3139 89.2486 52.2187 89.2912 52.1051L89.777 52.2415C89.7259 52.4062 89.6399 52.5511 89.5192 52.6761C89.3984 52.7997 89.2493 52.8963 89.0717 52.9659C88.8942 53.0341 88.6946 53.0682 88.473 53.0682ZM93.2436 53.0767C93.0362 53.0767 92.848 53.0376 92.679 52.9595C92.5099 52.88 92.3757 52.7656 92.2763 52.6165C92.1768 52.4659 92.1271 52.2841 92.1271 52.071C92.1271 51.8835 92.1641 51.7315 92.2379 51.6151C92.3118 51.4972 92.4105 51.4048 92.5341 51.3381C92.6577 51.2713 92.794 51.2216 92.9432 51.1889C93.0938 51.1548 93.245 51.1278 93.397 51.108C93.5959 51.0824 93.7571 51.0632 93.8807 51.0504C94.0057 51.0362 94.0966 51.0128 94.1534 50.9801C94.2116 50.9474 94.2408 50.8906 94.2408 50.8097V50.7926C94.2408 50.5824 94.1832 50.419 94.0682 50.3026C93.9545 50.1861 93.782 50.1278 93.5504 50.1278C93.3104 50.1278 93.1222 50.1804 92.9858 50.2855C92.8494 50.3906 92.7536 50.5028 92.6982 50.6222L92.2209 50.4517C92.3061 50.2528 92.4197 50.098 92.5618 49.9872C92.7053 49.875 92.8615 49.7969 93.0305 49.7528C93.201 49.7074 93.3686 49.6847 93.5334 49.6847C93.6385 49.6847 93.7592 49.6974 93.8956 49.723C94.0334 49.7472 94.1662 49.7976 94.294 49.8743C94.4233 49.951 94.5305 50.0668 94.6158 50.2216C94.701 50.3764 94.7436 50.5838 94.7436 50.8438V53H94.2408V52.5568H94.2152C94.1811 52.6278 94.1243 52.7038 94.0447 52.7848C93.9652 52.8658 93.8594 52.9347 93.7273 52.9915C93.5952 53.0483 93.4339 53.0767 93.2436 53.0767ZM93.3203 52.625C93.5192 52.625 93.6868 52.5859 93.8232 52.5078C93.9609 52.4297 94.0646 52.3288 94.1342 52.2053C94.2053 52.0817 94.2408 51.9517 94.2408 51.8153V51.3551C94.2195 51.3807 94.1726 51.4041 94.1001 51.4254C94.0291 51.4453 93.9467 51.4631 93.853 51.4787C93.7607 51.4929 93.6705 51.5057 93.5824 51.517C93.4957 51.527 93.4254 51.5355 93.3714 51.5426C93.2408 51.5597 93.1186 51.5874 93.005 51.6257C92.8928 51.6626 92.8018 51.7187 92.7322 51.794C92.6641 51.8679 92.63 51.9687 92.63 52.0966C92.63 52.2713 92.6946 52.4034 92.8239 52.4929C92.9545 52.581 93.12 52.625 93.3203 52.625ZM97.9796 50.4602L97.5279 50.5881C97.4995 50.5128 97.4576 50.4396 97.4022 50.3686C97.3482 50.2962 97.2743 50.2365 97.1806 50.1896C97.0868 50.1428 96.9668 50.1193 96.8205 50.1193C96.6202 50.1193 96.4533 50.1655 96.3198 50.2578C96.1877 50.3487 96.1216 50.4645 96.1216 50.6051C96.1216 50.7301 96.1671 50.8288 96.258 50.9013C96.3489 50.9737 96.4909 51.0341 96.6841 51.0824L97.1699 51.2017C97.4625 51.2727 97.6806 51.3814 97.824 51.5277C97.9675 51.6726 98.0392 51.8594 98.0392 52.0881C98.0392 52.2756 97.9853 52.4432 97.8773 52.5909C97.7708 52.7386 97.6216 52.8551 97.4299 52.9403C97.2381 53.0256 97.0151 53.0682 96.7608 53.0682C96.427 53.0682 96.1507 52.9957 95.932 52.8509C95.7132 52.706 95.5748 52.4943 95.5165 52.2159L95.9938 52.0966C96.0392 52.2727 96.1252 52.4048 96.2516 52.4929C96.3794 52.581 96.5463 52.625 96.7523 52.625C96.9867 52.625 97.1728 52.5753 97.3105 52.4759C97.4498 52.375 97.5194 52.2543 97.5194 52.1136C97.5194 52 97.4796 51.9048 97.4 51.8281C97.3205 51.75 97.1983 51.6918 97.0336 51.6534L96.4881 51.5256C96.1884 51.4545 95.9682 51.3445 95.8276 51.1953C95.6884 51.0447 95.6188 50.8565 95.6188 50.6307C95.6188 50.446 95.6706 50.2827 95.7743 50.1406C95.8794 49.9986 96.0222 49.8871 96.2026 49.8061C96.3844 49.7251 96.5904 49.6847 96.8205 49.6847C97.1444 49.6847 97.3986 49.7557 97.5833 49.8977C97.7694 50.0398 97.9015 50.2273 97.9796 50.4602ZM101.114 50.4602L100.663 50.5881C100.634 50.5128 100.592 50.4396 100.537 50.3686C100.483 50.2962 100.409 50.2365 100.315 50.1896C100.222 50.1428 100.102 50.1193 99.9553 50.1193C99.755 50.1193 99.5881 50.1655 99.4545 50.2578C99.3224 50.3487 99.2564 50.4645 99.2564 50.6051C99.2564 50.7301 99.3018 50.8288 99.3928 50.9013C99.4837 50.9737 99.6257 51.0341 99.8189 51.0824L100.305 51.2017C100.597 51.2727 100.815 51.3814 100.959 51.5277C101.102 51.6726 101.174 51.8594 101.174 52.0881C101.174 52.2756 101.12 52.4432 101.012 52.5909C100.906 52.7386 100.756 52.8551 100.565 52.9403C100.373 53.0256 100.15 53.0682 99.8956 53.0682C99.5618 53.0682 99.2855 52.9957 99.0668 52.8509C98.848 52.706 98.7095 52.4943 98.6513 52.2159L99.1286 52.0966C99.174 52.2727 99.2599 52.4048 99.3864 52.4929C99.5142 52.581 99.6811 52.625 99.8871 52.625C100.121 52.625 100.308 52.5753 100.445 52.4759C100.585 52.375 100.654 52.2543 100.654 52.1136C100.654 52 100.614 51.9048 100.535 51.8281C100.455 51.75 100.333 51.6918 100.168 51.6534L99.6229 51.5256C99.3232 51.4545 99.103 51.3445 98.9624 51.1953C98.8232 51.0447 98.7536 50.8565 98.7536 50.6307C98.7536 50.446 98.8054 50.2827 98.9091 50.1406C99.0142 49.9986 99.157 49.8871 99.3374 49.8061C99.5192 49.7251 99.7251 49.6847 99.9553 49.6847C100.279 49.6847 100.533 49.7557 100.718 49.8977C100.904 50.0398 101.036 50.2273 101.114 50.4602ZM101.931 53V49.7273H102.434V53H101.931ZM102.187 49.1818C102.089 49.1818 102.004 49.1484 101.933 49.0817C101.863 49.0149 101.829 48.9347 101.829 48.8409C101.829 48.7472 101.863 48.6669 101.933 48.6001C102.004 48.5334 102.089 48.5 102.187 48.5C102.285 48.5 102.368 48.5334 102.438 48.6001C102.509 48.6669 102.545 48.7472 102.545 48.8409C102.545 48.9347 102.509 49.0149 102.438 49.0817C102.368 49.1484 102.285 49.1818 102.187 49.1818ZM104.676 54.2955C104.433 54.2955 104.224 54.2642 104.049 54.2017C103.875 54.1406 103.729 54.0597 103.613 53.9588C103.498 53.8594 103.406 53.7528 103.338 53.6392L103.738 53.358C103.784 53.4176 103.841 53.4858 103.911 53.5625C103.98 53.6406 104.076 53.7081 104.196 53.7649C104.319 53.8232 104.478 53.8523 104.676 53.8523C104.94 53.8523 105.158 53.7884 105.33 53.6605C105.502 53.5327 105.588 53.3324 105.588 53.0597V52.3949H105.545C105.508 52.4545 105.456 52.5284 105.387 52.6165C105.321 52.7031 105.224 52.7805 105.098 52.8487C104.973 52.9155 104.804 52.9489 104.591 52.9489C104.326 52.9489 104.089 52.8864 103.879 52.7614C103.67 52.6364 103.505 52.4545 103.382 52.2159C103.262 51.9773 103.201 51.6875 103.201 51.3466C103.201 51.0114 103.26 50.7195 103.378 50.4709C103.496 50.2209 103.66 50.0277 103.87 49.8913C104.081 49.7536 104.324 49.6847 104.599 49.6847C104.812 49.6847 104.981 49.7202 105.106 49.7912C105.233 49.8608 105.329 49.9403 105.396 50.0298C105.464 50.1179 105.517 50.1903 105.554 50.2472H105.605V49.7273H106.091V53.0938C106.091 53.375 106.027 53.6037 105.899 53.7798C105.772 53.9574 105.602 54.0874 105.387 54.1697C105.174 54.2536 104.937 54.2955 104.676 54.2955ZM104.659 52.4972C104.86 52.4972 105.031 52.451 105.17 52.3587C105.309 52.2663 105.415 52.1335 105.488 51.9602C105.56 51.7869 105.596 51.5795 105.596 51.3381C105.596 51.1023 105.561 50.8942 105.49 50.7138C105.419 50.5334 105.314 50.392 105.174 50.2898C105.035 50.1875 104.863 50.1364 104.659 50.1364C104.446 50.1364 104.268 50.1903 104.126 50.2983C103.985 50.4062 103.88 50.5511 103.809 50.733C103.739 50.9148 103.704 51.1165 103.704 51.3381C103.704 51.5653 103.74 51.7663 103.811 51.9411C103.883 52.1143 103.99 52.2507 104.13 52.3501C104.272 52.4482 104.449 52.4972 104.659 52.4972ZM107.514 51.0312V53H107.011V49.7273H107.497V50.2386H107.539C107.616 50.0724 107.733 49.9389 107.889 49.8381C108.045 49.7358 108.247 49.6847 108.494 49.6847C108.716 49.6847 108.909 49.7301 109.076 49.821C109.242 49.9105 109.371 50.0469 109.463 50.2301C109.556 50.4119 109.602 50.642 109.602 50.9205V53H109.099V50.9545C109.099 50.6974 109.032 50.4972 108.899 50.3537C108.765 50.2088 108.582 50.1364 108.349 50.1364C108.189 50.1364 108.045 50.1712 107.919 50.2408C107.794 50.3104 107.695 50.4119 107.623 50.5455C107.55 50.679 107.514 50.8409 107.514 51.0312ZM111.893 53.0682C111.578 53.0682 111.306 52.9986 111.077 52.8594C110.85 52.7188 110.674 52.5227 110.551 52.2713C110.428 52.0185 110.367 51.7244 110.367 51.3892C110.367 51.054 110.428 50.7585 110.551 50.5028C110.674 50.2457 110.846 50.0455 111.066 49.902C111.288 49.7571 111.546 49.6847 111.842 49.6847C112.012 49.6847 112.181 49.7131 112.347 49.7699C112.513 49.8267 112.664 49.919 112.801 50.0469C112.937 50.1733 113.046 50.3409 113.127 50.5497C113.208 50.7585 113.248 51.0156 113.248 51.321V51.5341H110.725V51.0994H112.737C112.737 50.9148 112.7 50.75 112.626 50.6051C112.553 50.4602 112.45 50.3459 112.315 50.2621C112.181 50.1783 112.024 50.1364 111.842 50.1364C111.642 50.1364 111.468 50.1861 111.322 50.2855C111.177 50.3835 111.066 50.5114 110.987 50.669C110.909 50.8267 110.87 50.9957 110.87 51.1761V51.4659C110.87 51.7131 110.913 51.9226 110.998 52.0945C111.085 52.2649 111.205 52.3949 111.358 52.4844C111.512 52.5724 111.69 52.6165 111.893 52.6165C112.025 52.6165 112.144 52.598 112.251 52.5611C112.359 52.5227 112.452 52.4659 112.53 52.3906C112.608 52.3139 112.669 52.2187 112.711 52.1051L113.197 52.2415C113.146 52.4062 113.06 52.5511 112.939 52.6761C112.818 52.7997 112.669 52.8963 112.492 52.9659C112.314 53.0341 112.115 53.0682 111.893 53.0682ZM115.385 53.0682C115.07 53.0682 114.798 52.9986 114.569 52.8594C114.342 52.7188 114.166 52.5227 114.043 52.2713C113.921 52.0185 113.86 51.7244 113.86 51.3892C113.86 51.054 113.921 50.7585 114.043 50.5028C114.166 50.2457 114.338 50.0455 114.558 49.902C114.78 49.7571 115.039 49.6847 115.334 49.6847C115.504 49.6847 115.673 49.7131 115.839 49.7699C116.005 49.8267 116.156 49.919 116.293 50.0469C116.429 50.1733 116.538 50.3409 116.619 50.5497C116.7 50.7585 116.74 51.0156 116.74 51.321V51.5341H114.218V51.0994H116.229C116.229 50.9148 116.192 50.75 116.118 50.6051C116.046 50.4602 115.942 50.3459 115.807 50.2621C115.673 50.1783 115.516 50.1364 115.334 50.1364C115.134 50.1364 114.96 50.1861 114.814 50.2855C114.669 50.3835 114.558 50.5114 114.48 50.669C114.401 50.8267 114.362 50.9957 114.362 51.1761V51.4659C114.362 51.7131 114.405 51.9226 114.49 52.0945C114.577 52.2649 114.697 52.3949 114.85 52.4844C115.004 52.5724 115.182 52.6165 115.385 52.6165C115.517 52.6165 115.637 52.598 115.743 52.5611C115.851 52.5227 115.944 52.4659 116.022 52.3906C116.1 52.3139 116.161 52.2187 116.203 52.1051L116.689 52.2415C116.638 52.4062 116.552 52.5511 116.431 52.6761C116.311 52.7997 116.161 52.8963 115.984 52.9659C115.806 53.0341 115.607 53.0682 115.385 53.0682ZM119.823 50.4602L119.372 50.5881C119.343 50.5128 119.301 50.4396 119.246 50.3686C119.192 50.2962 119.118 50.2365 119.024 50.1896C118.931 50.1428 118.811 50.1193 118.664 50.1193C118.464 50.1193 118.297 50.1655 118.164 50.2578C118.031 50.3487 117.965 50.4645 117.965 50.6051C117.965 50.7301 118.011 50.8288 118.102 50.9013C118.193 50.9737 118.335 51.0341 118.528 51.0824L119.014 51.2017C119.306 51.2727 119.524 51.3814 119.668 51.5277C119.811 51.6726 119.883 51.8594 119.883 52.0881C119.883 52.2756 119.829 52.4432 119.721 52.5909C119.615 52.7386 119.465 52.8551 119.274 52.9403C119.082 53.0256 118.859 53.0682 118.605 53.0682C118.271 53.0682 117.994 52.9957 117.776 52.8509C117.557 52.706 117.419 52.4943 117.36 52.2159L117.838 52.0966C117.883 52.2727 117.969 52.4048 118.095 52.4929C118.223 52.581 118.39 52.625 118.596 52.625C118.83 52.625 119.017 52.5753 119.154 52.4759C119.294 52.375 119.363 52.2543 119.363 52.1136C119.363 52 119.323 51.9048 119.244 51.8281C119.164 51.75 119.042 51.6918 118.877 51.6534L118.332 51.5256C118.032 51.4545 117.812 51.3445 117.671 51.1953C117.532 51.0447 117.463 50.8565 117.463 50.6307C117.463 50.446 117.514 50.2827 117.618 50.1406C117.723 49.9986 117.866 49.8871 118.046 49.8061C118.228 49.7251 118.434 49.6847 118.664 49.6847C118.988 49.6847 119.242 49.7557 119.427 49.8977C119.613 50.0398 119.745 50.2273 119.823 50.4602Z" fill="#A7A7A7"/>
<defs>
<filter id="filter0_d_0_1" x="7" y="9" width="144" height="26" filterUnits="userSpaceOnUse" color-interpolation-filters="sRGB">
<feFlood flood-opacity="0" result="BackgroundImageFix"/>
<feColorMatrix in="SourceAlpha" type="matrix" values="0 0 0 0 0 0 0 0 0 0 0 0 0 0 0 0 0 0 127 0" result="hardAlpha"/>
<feOffset dy="4"/>
<feGaussianBlur stdDeviation="2"/>
<feComposite in2="hardAlpha" operator="out"/>
<feColorMatrix type="matrix" values="0 0 0 0 0 0 0 0 0 0 0 0 0 0 0 0 0 0 0.5 0"/>
<feBlend mode="normal" in2="BackgroundImageFix" result="effect1_dropShadow_0_1"/>
<feBlend mode="normal" in="SourceGraphic" in2="effect1_dropShadow_0_1" result="shape"/>
</filter>
<filter id="filter1_d_0_1" x="7" y="41" width="144" height="26" filterUnits="userSpaceOnUse" color-interpolation-filters="sRGB">
<feFlood flood-opacity="0" result="BackgroundImageFix"/>
<feColorMatrix in="SourceAlpha" type="matrix" values="0 0 0 0 0 0 0 0 0 0 0 0 0 0 0 0 0 0 127 0" result="hardAlpha"/>
<feOffset dy="4"/>
<feGaussianBlur stdDeviation="2"/>
<feComposite in2="hardAlpha" operator="out"/>
<feColorMatrix type="matrix" values="0 0 0 0 0 0 0 0 0 0 0 0 0 0 0 0 0 0 0.5 0"/>
<feBlend mode="normal" in2="BackgroundImageFix" result="effect1_dropShadow_0_1"/>
<feBlend mode="normal" in="SourceGraphic" in2="effect1_dropShadow_0_1" result="shape"/>
</filter>
<filter id="filter2_d_0_1" x="7" y="73" width="144" height="26" filterUnits="userSpaceOnUse" color-interpolation-filters="sRGB">
<feFlood flood-opacity="0" result="BackgroundImageFix"/>
<feColorMatrix in="SourceAlpha" type="matrix" values="0 0 0 0 0 0 0 0 0 0 0 0 0 0 0 0 0 0 127 0" result="hardAlpha"/>
<feOffset dy="4"/>
<feGaussianBlur stdDeviation="2"/>
<feComposite in2="hardAlpha" operator="out"/>
<feColorMatrix type="matrix" values="0 0 0 0 0 0 0 0 0 0 0 0 0 0 0 0 0 0 0.5 0"/>
<feBlend mode="normal" in2="BackgroundImageFix" result="effect1_dropShadow_0_1"/>
<feBlend mode="normal" in="SourceGraphic" in2="effect1_dropShadow_0_1" result="shape"/>
</filter>
</defs>
</svg>
