<svg width="157" height="132" viewBox="0 0 157 132" fill="none" xmlns="http://www.w3.org/2000/svg">
<rect width="157" height="132" fill="#BCBCBC"/>
<path d="M0 0H157V132H0V0Z" fill="#0E0E0E"/>
<path d="M77.6464 41.3536C77.8417 41.5488 78.1583 41.5488 78.3536 41.3536L81.5355 38.1716C81.7308 37.9763 81.7308 37.6597 81.5355 37.4645C81.3403 37.2692 81.0237 37.2692 80.8284 37.4645L78 40.2929L75.1716 37.4645C74.9763 37.2692 74.6597 37.2692 74.4645 37.4645C74.2692 37.6597 74.2692 37.9763 74.4645 38.1716L77.6464 41.3536ZM77.5 27L77.5 41L78.5 41L78.5 27L77.5 27Z" fill="#414141"/>
<path d="M77.6464 73.3536C77.8417 73.5488 78.1583 73.5488 78.3536 73.3536L81.5355 70.1716C81.7308 69.9763 81.7308 69.6597 81.5355 69.4645C81.3403 69.2692 81.0237 69.2692 80.8284 69.4645L78 72.2929L75.1716 69.4645C74.9763 69.2692 74.6597 69.2692 74.4645 69.4645C74.2692 69.6597 74.2692 69.9763 74.4645 70.1716L77.6464 73.3536ZM77.5 59L77.5 73L78.5 73L78.5 59L77.5 59Z" fill="#414141"/>
<path d="M77.6464 105.354C77.8417 105.549 78.1583 105.549 78.3536 105.354L81.5355 102.172C81.7308 101.976 81.7308 101.66 81.5355 101.464C81.3403 101.269 81.0237 101.269 80.8284 101.464L78 104.293L75.1716 101.464C74.9763 101.269 74.6597 101.269 74.4645 101.464C74.2692 101.66 74.2692 101.976 74.4645 102.172L77.6464 105.354ZM77.5 91L77.5 105L78.5 105L78.5 91L77.5 91Z" fill="#414141"/>
<g filter="url(#filter0_d_0_1)">
<rect x="11" y="9" width="136" height="18" rx="3" fill="#1C1C1C"/>
</g>
<g filter="url(#filter1_d_0_1)">
<rect x="11" y="41" width="136" height="18" rx="3" fill="#1C1C1C"/>
</g>
<g filter="url(#filter2_d_0_1)">
<rect x="11" y="73" width="136" height="18" rx="3" fill="#1C1C1C"/>
</g>
<g filter="url(#filter3_d_0_1)">
<rect x="11" y="105" width="136" height="18" rx="3" fill="#1C1C1C"/>
</g>
<path d="M39.5 14C41.9853 14 44 16.0147 44 18.5C44 20.4983 42.6972 22.1908 40.8951 22.7783C40.8959 22.7767 40.8967 22.7742 40.8967 22.7742C40.8967 22.7742 40.5927 22.6325 40.5992 22.3779C40.6067 22.0985 40.5992 21.4459 40.5992 21.2069C40.5992 20.7957 40.3389 20.504 40.3389 20.504C40.3389 20.504 42.38 20.5271 42.38 18.3492C42.38 17.5087 41.9408 17.072 41.9408 17.072C41.9408 17.072 42.1715 16.1746 41.8608 15.7947C41.5131 15.7568 40.8893 16.1276 40.6231 16.3007C40.6231 16.3007 40.2012 16.1276 39.5 16.1276C38.7979 16.1276 38.376 16.3007 38.376 16.3007C38.1107 16.1276 37.4869 15.7568 37.1392 15.7947C36.8285 16.1754 37.0592 17.072 37.0592 17.072C37.0592 17.072 36.62 17.5095 36.62 18.3492C36.62 20.5271 38.6603 20.504 38.6603 20.504C38.6603 20.504 38.4551 20.7364 38.4098 21.0775C38.2681 21.1262 38.058 21.1863 37.889 21.1863C37.4457 21.1863 37.1087 20.7554 36.9859 20.5559C36.8639 20.3598 36.6143 20.195 36.3819 20.195C36.2286 20.195 36.1536 20.2717 36.1536 20.359C36.1536 20.4463 36.3687 20.5081 36.5104 20.6705C36.8096 21.0125 36.8038 21.7829 37.8684 21.7829C37.9846 21.7829 38.2203 21.7541 38.3983 21.7302C38.3975 21.9733 38.3966 22.2287 38.4008 22.3779C38.4073 22.6325 38.1033 22.7742 38.1033 22.7742C38.1033 22.7742 38.1041 22.7767 38.1049 22.7783C36.3028 22.1908 35 20.4983 35 18.5C35 16.0147 37.0147 14 39.5 14Z" fill="white"/>
<path d="M53.2102 18.8182C53.2102 19.2784 53.1271 19.6761 52.9609 20.0114C52.7947 20.3466 52.5668 20.6051 52.277 20.7869C51.9872 20.9688 51.6563 21.0597 51.2841 21.0597C50.9119 21.0597 50.581 20.9688 50.2912 20.7869C50.0014 20.6051 49.7734 20.3466 49.6072 20.0114C49.4411 19.6761 49.358 19.2784 49.358 18.8182C49.358 18.358 49.4411 17.9602 49.6072 17.625C49.7734 17.2898 50.0014 17.0312 50.2912 16.8494C50.581 16.6676 50.9119 16.5767 51.2841 16.5767C51.6563 16.5767 51.9872 16.6676 52.277 16.8494C52.5668 17.0312 52.7947 17.2898 52.9609 17.625C53.1271 17.9602 53.2102 18.358 53.2102 18.8182ZM52.6989 18.8182C52.6989 18.4403 52.6357 18.1214 52.5092 17.8615C52.3842 17.6016 52.2145 17.4048 52 17.2713C51.7869 17.1378 51.5483 17.071 51.2841 17.071C51.0199 17.071 50.7805 17.1378 50.5661 17.2713C50.353 17.4048 50.1832 17.6016 50.0568 17.8615C49.9318 18.1214 49.8693 18.4403 49.8693 18.8182C49.8693 19.196 49.9318 19.5149 50.0568 19.7749C50.1832 20.0348 50.353 20.2315 50.5661 20.3651C50.7805 20.4986 51.0199 20.5653 51.2841 20.5653C51.5483 20.5653 51.7869 20.4986 52 20.3651C52.2145 20.2315 52.3842 20.0348 52.5092 19.7749C52.6357 19.5149 52.6989 19.196 52.6989 18.8182ZM54.5334 19.0312V21H54.0305V17.7273H54.5163V18.2386H54.5589C54.6357 18.0724 54.7521 17.9389 54.9084 17.8381C55.0646 17.7358 55.2663 17.6847 55.5135 17.6847C55.7351 17.6847 55.929 17.7301 56.0952 17.821C56.2614 17.9105 56.3906 18.0469 56.483 18.2301C56.5753 18.4119 56.6214 18.642 56.6214 18.9205V21H56.1186V18.9545C56.1186 18.6974 56.0518 18.4972 55.9183 18.3537C55.7848 18.2088 55.6016 18.1364 55.3686 18.1364C55.2081 18.1364 55.0646 18.1712 54.9382 18.2408C54.8132 18.3104 54.7145 18.4119 54.642 18.5455C54.5696 18.679 54.5334 18.8409 54.5334 19.0312ZM59.296 21V16.6364H60.7704C61.1127 16.6364 61.3926 16.6982 61.6099 16.8217C61.8287 16.9439 61.9906 17.1094 62.0957 17.3182C62.2008 17.527 62.2534 17.7599 62.2534 18.017C62.2534 18.2741 62.2008 18.5078 62.0957 18.718C61.992 18.9283 61.8315 19.0959 61.6142 19.2209C61.3968 19.3445 61.1184 19.4062 60.7789 19.4062H59.7221V18.9375H60.7619C60.9963 18.9375 61.1845 18.897 61.3265 18.8161C61.4686 18.7351 61.5716 18.6257 61.6355 18.4879C61.7008 18.3487 61.7335 18.1918 61.7335 18.017C61.7335 17.8423 61.7008 17.6861 61.6355 17.5483C61.5716 17.4105 61.4679 17.3026 61.3244 17.2244C61.1809 17.1449 60.9906 17.1051 60.7534 17.1051H59.8244V21H59.296ZM65.0989 19.6619V17.7273H65.6017V21H65.0989V20.446H65.0648C64.9881 20.6122 64.8688 20.7536 64.7069 20.87C64.5449 20.9851 64.3404 21.0426 64.0932 21.0426C63.8887 21.0426 63.7069 20.9979 63.5478 20.9084C63.3887 20.8175 63.2637 20.6811 63.1728 20.4993C63.0819 20.3161 63.0364 20.0852 63.0364 19.8068V17.7273H63.5392V19.7727C63.5392 20.0114 63.606 20.2017 63.7395 20.3438C63.8745 20.4858 64.0463 20.5568 64.2551 20.5568C64.3801 20.5568 64.5073 20.5249 64.6365 20.4609C64.7672 20.397 64.8766 20.299 64.9647 20.1669C65.0542 20.0348 65.0989 19.8665 65.0989 19.6619ZM67.0256 16.6364V21H66.5227V16.6364H67.0256ZM68.4494 16.6364V21H67.9466V16.6364H68.4494ZM71.1261 21V16.6364H72.6005C72.9414 16.6364 73.2212 16.6946 73.44 16.8111C73.6587 16.9261 73.8207 17.0845 73.9258 17.2862C74.0309 17.4879 74.0835 17.7173 74.0835 17.9744C74.0835 18.2315 74.0309 18.4595 73.9258 18.6584C73.8207 18.8572 73.6594 19.0135 73.4421 19.1271C73.2248 19.2393 72.9471 19.2955 72.609 19.2955H71.4158V18.8182H72.592C72.8249 18.8182 73.0124 18.7841 73.1545 18.7159C73.2979 18.6477 73.4016 18.5511 73.4656 18.4261C73.5309 18.2997 73.5636 18.1491 73.5636 17.9744C73.5636 17.7997 73.5309 17.647 73.4656 17.5163C73.4002 17.3857 73.2958 17.2848 73.1523 17.2138C73.0089 17.1413 72.8192 17.1051 72.5835 17.1051H71.6545V21H71.1261ZM73.18 19.0398L74.2539 21H73.6403L72.5835 19.0398H73.18ZM76.2328 21.0682C75.9174 21.0682 75.6454 20.9986 75.4167 20.8594C75.1895 20.7188 75.014 20.5227 74.8904 20.2713C74.7683 20.0185 74.7072 19.7244 74.7072 19.3892C74.7072 19.054 74.7683 18.7585 74.8904 18.5028C75.014 18.2457 75.1859 18.0455 75.4061 17.902C75.6277 17.7571 75.8862 17.6847 76.1816 17.6847C76.3521 17.6847 76.5204 17.7131 76.6866 17.7699C76.8528 17.8267 77.0041 17.919 77.1404 18.0469C77.2768 18.1733 77.3855 18.3409 77.4664 18.5497C77.5474 18.7585 77.5879 19.0156 77.5879 19.321V19.5341H75.0652V19.0994H77.0765C77.0765 18.9148 77.0396 18.75 76.9657 18.6051C76.8933 18.4602 76.7896 18.3459 76.6547 18.2621C76.5211 18.1783 76.3635 18.1364 76.1816 18.1364C75.9814 18.1364 75.8081 18.1861 75.6618 18.2855C75.5169 18.3835 75.4054 18.5114 75.3272 18.669C75.2491 18.8267 75.21 18.9957 75.21 19.1761V19.4659C75.21 19.7131 75.2527 19.9226 75.3379 20.0945C75.4245 20.2649 75.5446 20.3949 75.698 20.4844C75.8514 20.5724 76.0297 20.6165 76.2328 20.6165C76.3649 20.6165 76.4842 20.598 76.5907 20.5611C76.6987 20.5227 76.7917 20.4659 76.8699 20.3906C76.948 20.3139 77.0083 20.2187 77.051 20.1051L77.5368 20.2415C77.4856 20.4062 77.3997 20.5511 77.2789 20.6761C77.1582 20.7997 77.0091 20.8963 76.8315 20.9659C76.6539 21.0341 76.4544 21.0682 76.2328 21.0682ZM80.5858 22.2273V20.4972H80.5431C80.5062 20.5568 80.4537 20.6321 80.3855 20.723C80.3173 20.8125 80.22 20.8928 80.0936 20.9638C79.9672 21.0334 79.7988 21.0682 79.5886 21.0682C79.3159 21.0682 79.0751 20.9993 78.8663 20.8615C78.6575 20.7223 78.4941 20.5263 78.3762 20.2734C78.2583 20.0192 78.1994 19.7188 78.1994 19.3722C78.1994 19.0284 78.2583 18.7301 78.3762 18.4773C78.4941 18.2244 78.6582 18.0291 78.8684 17.8913C79.0787 17.7536 79.3216 17.6847 79.5971 17.6847C79.8102 17.6847 79.9785 17.7202 80.1021 17.7912C80.2271 17.8608 80.3223 17.9403 80.3876 18.0298C80.4544 18.1179 80.5062 18.1903 80.5431 18.2472H80.6028V17.7273H81.0886V22.2273H80.5858ZM79.6568 20.6165C79.8585 20.6165 80.0289 20.5639 80.1681 20.4588C80.3074 20.3523 80.4132 20.2053 80.4856 20.0178C80.5581 19.8288 80.5943 19.6108 80.5943 19.3636C80.5943 19.1193 80.5588 18.9055 80.4877 18.7223C80.4167 18.5376 80.3116 18.3942 80.1724 18.2919C80.0332 18.1882 79.8613 18.1364 79.6568 18.1364C79.4437 18.1364 79.2662 18.1911 79.1241 18.3004C78.9835 18.4084 78.8777 18.5554 78.8066 18.7415C78.737 18.9261 78.7022 19.1335 78.7022 19.3636C78.7022 19.5966 78.7377 19.8082 78.8088 19.9986C78.8812 20.1875 78.9877 20.3381 79.1284 20.4503C79.2704 20.5611 79.4466 20.6165 79.6568 20.6165ZM84.0716 19.6619V17.7273H84.5744V21H84.0716V20.446H84.0375C83.9608 20.6122 83.8414 20.7536 83.6795 20.87C83.5176 20.9851 83.313 21.0426 83.0659 21.0426C82.8613 21.0426 82.6795 20.9979 82.5204 20.9084C82.3613 20.8175 82.2363 20.6811 82.1454 20.4993C82.0545 20.3161 82.0091 20.0852 82.0091 19.8068V17.7273H82.5119V19.7727C82.5119 20.0114 82.5787 20.2017 82.7122 20.3438C82.8471 20.4858 83.019 20.5568 83.2278 20.5568C83.3528 20.5568 83.4799 20.5249 83.6092 20.4609C83.7399 20.397 83.8493 20.299 83.9373 20.1669C84.0268 20.0348 84.0716 19.8665 84.0716 19.6619ZM86.8675 21.0682C86.5522 21.0682 86.2802 20.9986 86.0515 20.8594C85.8242 20.7188 85.6488 20.5227 85.5252 20.2713C85.4031 20.0185 85.342 19.7244 85.342 19.3892C85.342 19.054 85.4031 18.7585 85.5252 18.5028C85.6488 18.2457 85.8207 18.0455 86.0408 17.902C86.2624 17.7571 86.521 17.6847 86.8164 17.6847C86.9869 17.6847 87.1552 17.7131 87.3214 17.7699C87.4876 17.8267 87.6388 17.919 87.7752 18.0469C87.9116 18.1733 88.0202 18.3409 88.1012 18.5497C88.1822 18.7585 88.2227 19.0156 88.2227 19.321V19.5341H85.6999V19.0994H87.7113C87.7113 18.9148 87.6744 18.75 87.6005 18.6051C87.5281 18.4602 87.4244 18.3459 87.2894 18.2621C87.1559 18.1783 86.9982 18.1364 86.8164 18.1364C86.6161 18.1364 86.4428 18.1861 86.2965 18.2855C86.1516 18.3835 86.0401 18.5114 85.962 18.669C85.8839 18.8267 85.8448 18.9957 85.8448 19.1761V19.4659C85.8448 19.7131 85.8874 19.9226 85.9727 20.0945C86.0593 20.2649 86.1793 20.3949 86.3327 20.4844C86.4862 20.5724 86.6644 20.6165 86.8675 20.6165C86.9996 20.6165 87.119 20.598 87.2255 20.5611C87.3335 20.5227 87.4265 20.4659 87.5046 20.3906C87.5827 20.3139 87.6431 20.2187 87.6857 20.1051L88.1715 20.2415C88.1204 20.4062 88.0344 20.5511 87.9137 20.6761C87.793 20.7997 87.6438 20.8963 87.4663 20.9659C87.2887 21.0341 87.0891 21.0682 86.8675 21.0682ZM91.3058 18.4602L90.854 18.5881C90.8256 18.5128 90.7837 18.4396 90.7283 18.3686C90.6744 18.2962 90.6005 18.2365 90.5067 18.1896C90.413 18.1428 90.293 18.1193 90.1467 18.1193C89.9464 18.1193 89.7795 18.1655 89.646 18.2578C89.5138 18.3487 89.4478 18.4645 89.4478 18.6051C89.4478 18.7301 89.4933 18.8288 89.5842 18.9013C89.6751 18.9737 89.8171 19.0341 90.0103 19.0824L90.4961 19.2017C90.7887 19.2727 91.0067 19.3814 91.1502 19.5277C91.2937 19.6726 91.3654 19.8594 91.3654 20.0881C91.3654 20.2756 91.3114 20.4432 91.2035 20.5909C91.0969 20.7386 90.9478 20.8551 90.756 20.9403C90.5643 21.0256 90.3413 21.0682 90.087 21.0682C89.7532 21.0682 89.4769 20.9957 89.2582 20.8509C89.0394 20.706 88.9009 20.4943 88.8427 20.2159L89.32 20.0966C89.3654 20.2727 89.4513 20.4048 89.5778 20.4929C89.7056 20.581 89.8725 20.625 90.0785 20.625C90.3129 20.625 90.4989 20.5753 90.6367 20.4759C90.7759 20.375 90.8455 20.2543 90.8455 20.1136C90.8455 20 90.8058 19.9048 90.7262 19.8281C90.6467 19.75 90.5245 19.6918 90.3597 19.6534L89.8143 19.5256C89.5146 19.4545 89.2944 19.3445 89.1538 19.1953C89.0146 19.0447 88.945 18.8565 88.945 18.6307C88.945 18.446 88.9968 18.2827 89.1005 18.1406C89.2056 17.9986 89.3484 17.8871 89.5288 17.8061C89.7106 17.7251 89.9165 17.6847 90.1467 17.6847C90.4705 17.6847 90.7248 17.7557 90.9094 17.8977C91.0955 18.0398 91.2276 18.2273 91.3058 18.4602ZM93.5456 17.7273V18.1534H91.8496V17.7273H93.5456ZM92.3439 16.9432H92.8468V20.0625C92.8468 20.2045 92.8674 20.3111 92.9086 20.3821C92.9512 20.4517 93.0051 20.4986 93.0705 20.5227C93.1373 20.5455 93.2076 20.5568 93.2814 20.5568C93.3368 20.5568 93.3823 20.554 93.4178 20.5483C93.4533 20.5412 93.4817 20.5355 93.503 20.5312L93.6053 20.983C93.5712 20.9957 93.5236 21.0085 93.4625 21.0213C93.4015 21.0355 93.324 21.0426 93.2303 21.0426C93.0882 21.0426 92.949 21.0121 92.8127 20.951C92.6777 20.8899 92.5655 20.7969 92.476 20.6719C92.388 20.5469 92.3439 20.3892 92.3439 20.1989V16.9432ZM97.8645 18.8949V19.3636H95.9554V18.8949H97.8645ZM101.766 21.0682C101.471 21.0682 101.212 20.9979 100.989 20.8572C100.767 20.7166 100.594 20.5199 100.469 20.267C100.345 20.0142 100.283 19.7187 100.283 19.3807C100.283 19.0398 100.345 18.7422 100.469 18.4879C100.594 18.2337 100.767 18.0362 100.989 17.8956C101.212 17.755 101.471 17.6847 101.766 17.6847C102.062 17.6847 102.32 17.755 102.542 17.8956C102.765 18.0362 102.938 18.2337 103.062 18.4879C103.187 18.7422 103.249 19.0398 103.249 19.3807C103.249 19.7187 103.187 20.0142 103.062 20.267C102.938 20.5199 102.765 20.7166 102.542 20.8572C102.32 20.9979 102.062 21.0682 101.766 21.0682ZM101.766 20.6165C101.991 20.6165 102.175 20.5589 102.32 20.4439C102.465 20.3288 102.572 20.1776 102.642 19.9901C102.712 19.8026 102.746 19.5994 102.746 19.3807C102.746 19.1619 102.712 18.9581 102.642 18.7692C102.572 18.5803 102.465 18.4276 102.32 18.3111C102.175 18.1946 101.991 18.1364 101.766 18.1364C101.542 18.1364 101.357 18.1946 101.212 18.3111C101.067 18.4276 100.96 18.5803 100.891 18.7692C100.821 18.9581 100.786 19.1619 100.786 19.3807C100.786 19.5994 100.821 19.8026 100.891 19.9901C100.96 20.1776 101.067 20.3288 101.212 20.4439C101.357 20.5589 101.542 20.6165 101.766 20.6165ZM104.017 22.2273V17.7273H104.503V18.2472H104.562C104.599 18.1903 104.65 18.1179 104.716 18.0298C104.782 17.9403 104.878 17.8608 105.001 17.7912C105.126 17.7202 105.295 17.6847 105.508 17.6847C105.784 17.6847 106.027 17.7536 106.237 17.8913C106.447 18.0291 106.611 18.2244 106.729 18.4773C106.847 18.7301 106.906 19.0284 106.906 19.3722C106.906 19.7188 106.847 20.0192 106.729 20.2734C106.611 20.5263 106.448 20.7223 106.239 20.8615C106.03 20.9993 105.79 21.0682 105.517 21.0682C105.307 21.0682 105.138 21.0334 105.012 20.9638C104.885 20.8928 104.788 20.8125 104.72 20.723C104.652 20.6321 104.599 20.5568 104.562 20.4972H104.52V22.2273H104.017ZM104.511 19.3636C104.511 19.6108 104.547 19.8288 104.62 20.0178C104.692 20.2053 104.798 20.3523 104.937 20.4588C105.077 20.5639 105.247 20.6165 105.449 20.6165C105.659 20.6165 105.834 20.5611 105.975 20.4503C106.117 20.3381 106.224 20.1875 106.295 19.9986C106.367 19.8082 106.403 19.5966 106.403 19.3636C106.403 19.1335 106.368 18.9261 106.297 18.7415C106.227 18.5554 106.121 18.4084 105.979 18.3004C105.839 18.1911 105.662 18.1364 105.449 18.1364C105.244 18.1364 105.072 18.1882 104.933 18.2919C104.794 18.3942 104.689 18.5376 104.618 18.7223C104.547 18.9055 104.511 19.1193 104.511 19.3636ZM109.045 21.0682C108.73 21.0682 108.458 20.9986 108.229 20.8594C108.002 20.7188 107.827 20.5227 107.703 20.2713C107.581 20.0185 107.52 19.7244 107.52 19.3892C107.52 19.054 107.581 18.7585 107.703 18.5028C107.827 18.2457 107.998 18.0455 108.219 17.902C108.44 17.7571 108.699 17.6847 108.994 17.6847C109.165 17.6847 109.333 17.7131 109.499 17.7699C109.665 17.8267 109.817 17.919 109.953 18.0469C110.089 18.1733 110.198 18.3409 110.279 18.5497C110.36 18.7585 110.4 19.0156 110.4 19.321V19.5341H107.878V19.0994H109.889C109.889 18.9148 109.852 18.75 109.778 18.6051C109.706 18.4602 109.602 18.3459 109.467 18.2621C109.334 18.1783 109.176 18.1364 108.994 18.1364C108.794 18.1364 108.621 18.1861 108.474 18.2855C108.329 18.3835 108.218 18.5114 108.14 18.669C108.062 18.8267 108.023 18.9957 108.023 19.1761V19.4659C108.023 19.7131 108.065 19.9226 108.15 20.0945C108.237 20.2649 108.357 20.3949 108.51 20.4844C108.664 20.5724 108.842 20.6165 109.045 20.6165C109.177 20.6165 109.297 20.598 109.403 20.5611C109.511 20.5227 109.604 20.4659 109.682 20.3906C109.76 20.3139 109.821 20.2187 109.863 20.1051L110.349 20.2415C110.298 20.4062 110.212 20.5511 110.091 20.6761C109.971 20.7997 109.822 20.8963 109.644 20.9659C109.466 21.0341 109.267 21.0682 109.045 21.0682ZM111.668 19.0312V21H111.165V17.7273H111.651V18.2386H111.694C111.77 18.0724 111.887 17.9389 112.043 17.8381C112.199 17.7358 112.401 17.6847 112.648 17.6847C112.87 17.6847 113.064 17.7301 113.23 17.821C113.396 17.9105 113.525 18.0469 113.618 18.2301C113.71 18.4119 113.756 18.642 113.756 18.9205V21H113.253V18.9545C113.253 18.6974 113.187 18.4972 113.053 18.3537C112.92 18.2088 112.736 18.1364 112.503 18.1364C112.343 18.1364 112.199 18.1712 112.073 18.2408C111.948 18.3104 111.849 18.4119 111.777 18.5455C111.704 18.679 111.668 18.8409 111.668 19.0312ZM116.047 21.0682C115.732 21.0682 115.46 20.9986 115.231 20.8594C115.004 20.7188 114.828 20.5227 114.705 20.2713C114.583 20.0185 114.522 19.7244 114.522 19.3892C114.522 19.054 114.583 18.7585 114.705 18.5028C114.828 18.2457 115 18.0455 115.221 17.902C115.442 17.7571 115.701 17.6847 115.996 17.6847C116.167 17.6847 116.335 17.7131 116.501 17.7699C116.667 17.8267 116.819 17.919 116.955 18.0469C117.091 18.1733 117.2 18.3409 117.281 18.5497C117.362 18.7585 117.402 19.0156 117.402 19.321V19.5341H114.88V19.0994H116.891C116.891 18.9148 116.854 18.75 116.78 18.6051C116.708 18.4602 116.604 18.3459 116.469 18.2621C116.336 18.1783 116.178 18.1364 115.996 18.1364C115.796 18.1364 115.623 18.1861 115.476 18.2855C115.331 18.3835 115.22 18.5114 115.142 18.669C115.064 18.8267 115.025 18.9957 115.025 19.1761V19.4659C115.025 19.7131 115.067 19.9226 115.152 20.0945C115.239 20.2649 115.359 20.3949 115.512 20.4844C115.666 20.5724 115.844 20.6165 116.047 20.6165C116.179 20.6165 116.299 20.598 116.405 20.5611C116.513 20.5227 116.606 20.4659 116.684 20.3906C116.762 20.3139 116.823 20.2187 116.865 20.1051L117.351 20.2415C117.3 20.4062 117.214 20.5511 117.093 20.6761C116.973 20.7997 116.824 20.8963 116.646 20.9659C116.468 21.0341 116.269 21.0682 116.047 21.0682ZM119.403 21.0682C119.13 21.0682 118.89 20.9993 118.681 20.8615C118.472 20.7223 118.309 20.5263 118.191 20.2734C118.073 20.0192 118.014 19.7188 118.014 19.3722C118.014 19.0284 118.073 18.7301 118.191 18.4773C118.309 18.2244 118.473 18.0291 118.683 17.8913C118.893 17.7536 119.136 17.6847 119.412 17.6847C119.625 17.6847 119.793 17.7202 119.917 17.7912C120.042 17.8608 120.137 17.9403 120.202 18.0298C120.269 18.1179 120.321 18.1903 120.358 18.2472H120.4V16.6364H120.903V21H120.417V20.4972H120.358C120.321 20.5568 120.268 20.6321 120.2 20.723C120.132 20.8125 120.034 20.8928 119.908 20.9638C119.782 21.0334 119.613 21.0682 119.403 21.0682ZM119.471 20.6165C119.673 20.6165 119.843 20.5639 119.983 20.4588C120.122 20.3523 120.228 20.2053 120.3 20.0178C120.373 19.8288 120.409 19.6108 120.409 19.3636C120.409 19.1193 120.373 18.9055 120.302 18.7223C120.231 18.5376 120.126 18.3942 119.987 18.2919C119.848 18.1882 119.676 18.1364 119.471 18.1364C119.258 18.1364 119.081 18.1911 118.939 18.3004C118.798 18.4084 118.692 18.5554 118.621 18.7415C118.551 18.9261 118.517 19.1335 118.517 19.3636C118.517 19.5966 118.552 19.8082 118.623 19.9986C118.696 20.1875 118.802 20.3381 118.943 20.4503C119.085 20.5611 119.261 20.6165 119.471 20.6165Z" fill="#A7A7A7"/>
<path d="M39.5 78C41.9853 78 44 80.0147 44 82.5C44 84.4983 42.6972 86.1908 40.8951 86.7783C40.8959 86.7767 40.8967 86.7742 40.8967 86.7742C40.8967 86.7742 40.5927 86.6325 40.5992 86.3779C40.6067 86.0985 40.5992 85.4459 40.5992 85.2069C40.5992 84.7957 40.3389 84.504 40.3389 84.504C40.3389 84.504 42.38 84.5271 42.38 82.3492C42.38 81.5087 41.9408 81.072 41.9408 81.072C41.9408 81.072 42.1715 80.1746 41.8608 79.7947C41.5131 79.7568 40.8893 80.1276 40.6231 80.3007C40.6231 80.3007 40.2012 80.1276 39.5 80.1276C38.7979 80.1276 38.376 80.3007 38.376 80.3007C38.1107 80.1276 37.4869 79.7568 37.1392 79.7947C36.8285 80.1754 37.0592 81.072 37.0592 81.072C37.0592 81.072 36.62 81.5095 36.62 82.3492C36.62 84.5271 38.6603 84.504 38.6603 84.504C38.6603 84.504 38.4551 84.7364 38.4098 85.0775C38.2681 85.1262 38.058 85.1863 37.889 85.1863C37.4457 85.1863 37.1087 84.7554 36.9859 84.5559C36.8639 84.3598 36.6143 84.195 36.3819 84.195C36.2286 84.195 36.1536 84.2717 36.1536 84.359C36.1536 84.4463 36.3687 84.5081 36.5104 84.6705C36.8096 85.0125 36.8038 85.7829 37.8684 85.7829C37.9846 85.7829 38.2203 85.7541 38.3983 85.7302C38.3975 85.9733 38.3966 86.2287 38.4008 86.3779C38.4073 86.6325 38.1033 86.7742 38.1033 86.7742C38.1033 86.7742 38.1041 86.7767 38.1049 86.7783C36.3028 86.1908 35 84.4983 35 82.5C35 80.0147 37.0147 78 39.5 78Z" fill="white"/>
<path d="M53.2102 82.8182C53.2102 83.2784 53.1271 83.6761 52.9609 84.0114C52.7947 84.3466 52.5668 84.6051 52.277 84.7869C51.9872 84.9688 51.6563 85.0597 51.2841 85.0597C50.9119 85.0597 50.581 84.9688 50.2912 84.7869C50.0014 84.6051 49.7734 84.3466 49.6072 84.0114C49.4411 83.6761 49.358 83.2784 49.358 82.8182C49.358 82.358 49.4411 81.9602 49.6072 81.625C49.7734 81.2898 50.0014 81.0312 50.2912 80.8494C50.581 80.6676 50.9119 80.5767 51.2841 80.5767C51.6563 80.5767 51.9872 80.6676 52.277 80.8494C52.5668 81.0312 52.7947 81.2898 52.9609 81.625C53.1271 81.9602 53.2102 82.358 53.2102 82.8182ZM52.6989 82.8182C52.6989 82.4403 52.6357 82.1214 52.5092 81.8615C52.3842 81.6016 52.2145 81.4048 52 81.2713C51.7869 81.1378 51.5483 81.071 51.2841 81.071C51.0199 81.071 50.7805 81.1378 50.5661 81.2713C50.353 81.4048 50.1832 81.6016 50.0568 81.8615C49.9318 82.1214 49.8693 82.4403 49.8693 82.8182C49.8693 83.196 49.9318 83.5149 50.0568 83.7749C50.1832 84.0348 50.353 84.2315 50.5661 84.3651C50.7805 84.4986 51.0199 84.5653 51.2841 84.5653C51.5483 84.5653 51.7869 84.4986 52 84.3651C52.2145 84.2315 52.3842 84.0348 52.5092 83.7749C52.6357 83.5149 52.6989 83.196 52.6989 82.8182ZM54.5334 83.0312V85H54.0305V81.7273H54.5163V82.2386H54.5589C54.6357 82.0724 54.7521 81.9389 54.9084 81.8381C55.0646 81.7358 55.2663 81.6847 55.5135 81.6847C55.7351 81.6847 55.929 81.7301 56.0952 81.821C56.2614 81.9105 56.3906 82.0469 56.483 82.2301C56.5753 82.4119 56.6214 82.642 56.6214 82.9205V85H56.1186V82.9545C56.1186 82.6974 56.0518 82.4972 55.9183 82.3537C55.7848 82.2088 55.6016 82.1364 55.3686 82.1364C55.2081 82.1364 55.0646 82.1712 54.9382 82.2408C54.8132 82.3104 54.7145 82.4119 54.642 82.5455C54.5696 82.679 54.5334 82.8409 54.5334 83.0312ZM59.296 85V80.6364H60.7704C61.1127 80.6364 61.3926 80.6982 61.6099 80.8217C61.8287 80.9439 61.9906 81.1094 62.0957 81.3182C62.2008 81.527 62.2534 81.7599 62.2534 82.017C62.2534 82.2741 62.2008 82.5078 62.0957 82.718C61.992 82.9283 61.8315 83.0959 61.6142 83.2209C61.3968 83.3445 61.1184 83.4062 60.7789 83.4062H59.7221V82.9375H60.7619C60.9963 82.9375 61.1845 82.897 61.3265 82.8161C61.4686 82.7351 61.5716 82.6257 61.6355 82.4879C61.7008 82.3487 61.7335 82.1918 61.7335 82.017C61.7335 81.8423 61.7008 81.6861 61.6355 81.5483C61.5716 81.4105 61.4679 81.3026 61.3244 81.2244C61.1809 81.1449 60.9906 81.1051 60.7534 81.1051H59.8244V85H59.296ZM65.0989 83.6619V81.7273H65.6017V85H65.0989V84.446H65.0648C64.9881 84.6122 64.8688 84.7536 64.7069 84.87C64.5449 84.9851 64.3404 85.0426 64.0932 85.0426C63.8887 85.0426 63.7069 84.9979 63.5478 84.9084C63.3887 84.8175 63.2637 84.6811 63.1728 84.4993C63.0819 84.3161 63.0364 84.0852 63.0364 83.8068V81.7273H63.5392V83.7727C63.5392 84.0114 63.606 84.2017 63.7395 84.3438C63.8745 84.4858 64.0463 84.5568 64.2551 84.5568C64.3801 84.5568 64.5073 84.5249 64.6365 84.4609C64.7672 84.397 64.8766 84.299 64.9647 84.1669C65.0542 84.0348 65.0989 83.8665 65.0989 83.6619ZM67.0256 80.6364V85H66.5227V80.6364H67.0256ZM68.4494 80.6364V85H67.9466V80.6364H68.4494ZM71.1261 85V80.6364H72.6005C72.9414 80.6364 73.2212 80.6946 73.44 80.8111C73.6587 80.9261 73.8207 81.0845 73.9258 81.2862C74.0309 81.4879 74.0835 81.7173 74.0835 81.9744C74.0835 82.2315 74.0309 82.4595 73.9258 82.6584C73.8207 82.8572 73.6594 83.0135 73.4421 83.1271C73.2248 83.2393 72.9471 83.2955 72.609 83.2955H71.4158V82.8182H72.592C72.8249 82.8182 73.0124 82.7841 73.1545 82.7159C73.2979 82.6477 73.4016 82.5511 73.4656 82.4261C73.5309 82.2997 73.5636 82.1491 73.5636 81.9744C73.5636 81.7997 73.5309 81.647 73.4656 81.5163C73.4002 81.3857 73.2958 81.2848 73.1523 81.2138C73.0089 81.1413 72.8192 81.1051 72.5835 81.1051H71.6545V85H71.1261ZM73.18 83.0398L74.2539 85H73.6403L72.5835 83.0398H73.18ZM76.2328 85.0682C75.9174 85.0682 75.6454 84.9986 75.4167 84.8594C75.1895 84.7188 75.014 84.5227 74.8904 84.2713C74.7683 84.0185 74.7072 83.7244 74.7072 83.3892C74.7072 83.054 74.7683 82.7585 74.8904 82.5028C75.014 82.2457 75.1859 82.0455 75.4061 81.902C75.6277 81.7571 75.8862 81.6847 76.1816 81.6847C76.3521 81.6847 76.5204 81.7131 76.6866 81.7699C76.8528 81.8267 77.0041 81.919 77.1404 82.0469C77.2768 82.1733 77.3855 82.3409 77.4664 82.5497C77.5474 82.7585 77.5879 83.0156 77.5879 83.321V83.5341H75.0652V83.0994H77.0765C77.0765 82.9148 77.0396 82.75 76.9657 82.6051C76.8933 82.4602 76.7896 82.3459 76.6547 82.2621C76.5211 82.1783 76.3635 82.1364 76.1816 82.1364C75.9814 82.1364 75.8081 82.1861 75.6618 82.2855C75.5169 82.3835 75.4054 82.5114 75.3272 82.669C75.2491 82.8267 75.21 82.9957 75.21 83.1761V83.4659C75.21 83.7131 75.2527 83.9226 75.3379 84.0945C75.4245 84.2649 75.5446 84.3949 75.698 84.4844C75.8514 84.5724 76.0297 84.6165 76.2328 84.6165C76.3649 84.6165 76.4842 84.598 76.5907 84.5611C76.6987 84.5227 76.7917 84.4659 76.8699 84.3906C76.948 84.3139 77.0083 84.2187 77.051 84.1051L77.5368 84.2415C77.4856 84.4062 77.3997 84.5511 77.2789 84.6761C77.1582 84.7997 77.0091 84.8963 76.8315 84.9659C76.6539 85.0341 76.4544 85.0682 76.2328 85.0682ZM80.5858 86.2273V84.4972H80.5431C80.5062 84.5568 80.4537 84.6321 80.3855 84.723C80.3173 84.8125 80.22 84.8928 80.0936 84.9638C79.9672 85.0334 79.7988 85.0682 79.5886 85.0682C79.3159 85.0682 79.0751 84.9993 78.8663 84.8615C78.6575 84.7223 78.4941 84.5263 78.3762 84.2734C78.2583 84.0192 78.1994 83.7188 78.1994 83.3722C78.1994 83.0284 78.2583 82.7301 78.3762 82.4773C78.4941 82.2244 78.6582 82.0291 78.8684 81.8913C79.0787 81.7536 79.3216 81.6847 79.5971 81.6847C79.8102 81.6847 79.9785 81.7202 80.1021 81.7912C80.2271 81.8608 80.3223 81.9403 80.3876 82.0298C80.4544 82.1179 80.5062 82.1903 80.5431 82.2472H80.6028V81.7273H81.0886V86.2273H80.5858ZM79.6568 84.6165C79.8585 84.6165 80.0289 84.5639 80.1681 84.4588C80.3074 84.3523 80.4132 84.2053 80.4856 84.0178C80.5581 83.8288 80.5943 83.6108 80.5943 83.3636C80.5943 83.1193 80.5588 82.9055 80.4877 82.7223C80.4167 82.5376 80.3116 82.3942 80.1724 82.2919C80.0332 82.1882 79.8613 82.1364 79.6568 82.1364C79.4437 82.1364 79.2662 82.1911 79.1241 82.3004C78.9835 82.4084 78.8777 82.5554 78.8066 82.7415C78.737 82.9261 78.7022 83.1335 78.7022 83.3636C78.7022 83.5966 78.7377 83.8082 78.8088 83.9986C78.8812 84.1875 78.9877 84.3381 79.1284 84.4503C79.2704 84.5611 79.4466 84.6165 79.6568 84.6165ZM84.0716 83.6619V81.7273H84.5744V85H84.0716V84.446H84.0375C83.9608 84.6122 83.8414 84.7536 83.6795 84.87C83.5176 84.9851 83.313 85.0426 83.0659 85.0426C82.8613 85.0426 82.6795 84.9979 82.5204 84.9084C82.3613 84.8175 82.2363 84.6811 82.1454 84.4993C82.0545 84.3161 82.0091 84.0852 82.0091 83.8068V81.7273H82.5119V83.7727C82.5119 84.0114 82.5787 84.2017 82.7122 84.3438C82.8471 84.4858 83.019 84.5568 83.2278 84.5568C83.3528 84.5568 83.4799 84.5249 83.6092 84.4609C83.7399 84.397 83.8493 84.299 83.9373 84.1669C84.0268 84.0348 84.0716 83.8665 84.0716 83.6619ZM86.8675 85.0682C86.5522 85.0682 86.2802 84.9986 86.0515 84.8594C85.8242 84.7188 85.6488 84.5227 85.5252 84.2713C85.4031 84.0185 85.342 83.7244 85.342 83.3892C85.342 83.054 85.4031 82.7585 85.5252 82.5028C85.6488 82.2457 85.8207 82.0455 86.0408 81.902C86.2624 81.7571 86.521 81.6847 86.8164 81.6847C86.9869 81.6847 87.1552 81.7131 87.3214 81.7699C87.4876 81.8267 87.6388 81.919 87.7752 82.0469C87.9116 82.1733 88.0202 82.3409 88.1012 82.5497C88.1822 82.7585 88.2227 83.0156 88.2227 83.321V83.5341H85.6999V83.0994H87.7113C87.7113 82.9148 87.6744 82.75 87.6005 82.6051C87.5281 82.4602 87.4244 82.3459 87.2894 82.2621C87.1559 82.1783 86.9982 82.1364 86.8164 82.1364C86.6161 82.1364 86.4428 82.1861 86.2965 82.2855C86.1516 82.3835 86.0401 82.5114 85.962 82.669C85.8839 82.8267 85.8448 82.9957 85.8448 83.1761V83.4659C85.8448 83.7131 85.8874 83.9226 85.9727 84.0945C86.0593 84.2649 86.1793 84.3949 86.3327 84.4844C86.4862 84.5724 86.6644 84.6165 86.8675 84.6165C86.9996 84.6165 87.119 84.598 87.2255 84.5611C87.3335 84.5227 87.4265 84.4659 87.5046 84.3906C87.5827 84.3139 87.6431 84.2187 87.6857 84.1051L88.1715 84.2415C88.1204 84.4062 88.0344 84.5511 87.9137 84.6761C87.793 84.7997 87.6438 84.8963 87.4663 84.9659C87.2887 85.0341 87.0891 85.0682 86.8675 85.0682ZM91.3058 82.4602L90.854 82.5881C90.8256 82.5128 90.7837 82.4396 90.7283 82.3686C90.6744 82.2962 90.6005 82.2365 90.5067 82.1896C90.413 82.1428 90.293 82.1193 90.1467 82.1193C89.9464 82.1193 89.7795 82.1655 89.646 82.2578C89.5138 82.3487 89.4478 82.4645 89.4478 82.6051C89.4478 82.7301 89.4933 82.8288 89.5842 82.9013C89.6751 82.9737 89.8171 83.0341 90.0103 83.0824L90.4961 83.2017C90.7887 83.2727 91.0067 83.3814 91.1502 83.5277C91.2937 83.6726 91.3654 83.8594 91.3654 84.0881C91.3654 84.2756 91.3114 84.4432 91.2035 84.5909C91.0969 84.7386 90.9478 84.8551 90.756 84.9403C90.5643 85.0256 90.3413 85.0682 90.087 85.0682C89.7532 85.0682 89.4769 84.9957 89.2582 84.8509C89.0394 84.706 88.9009 84.4943 88.8427 84.2159L89.32 84.0966C89.3654 84.2727 89.4513 84.4048 89.5778 84.4929C89.7056 84.581 89.8725 84.625 90.0785 84.625C90.3129 84.625 90.4989 84.5753 90.6367 84.4759C90.7759 84.375 90.8455 84.2543 90.8455 84.1136C90.8455 84 90.8058 83.9048 90.7262 83.8281C90.6467 83.75 90.5245 83.6918 90.3597 83.6534L89.8143 83.5256C89.5146 83.4545 89.2944 83.3445 89.1538 83.1953C89.0146 83.0447 88.945 82.8565 88.945 82.6307C88.945 82.446 88.9968 82.2827 89.1005 82.1406C89.2056 81.9986 89.3484 81.8871 89.5288 81.8061C89.7106 81.7251 89.9165 81.6847 90.1467 81.6847C90.4705 81.6847 90.7248 81.7557 90.9094 81.8977C91.0955 82.0398 91.2276 82.2273 91.3058 82.4602ZM93.5456 81.7273V82.1534H91.8496V81.7273H93.5456ZM92.3439 80.9432H92.8468V84.0625C92.8468 84.2045 92.8674 84.3111 92.9086 84.3821C92.9512 84.4517 93.0051 84.4986 93.0705 84.5227C93.1373 84.5455 93.2076 84.5568 93.2814 84.5568C93.3368 84.5568 93.3823 84.554 93.4178 84.5483C93.4533 84.5412 93.4817 84.5355 93.503 84.5312L93.6053 84.983C93.5712 84.9957 93.5236 85.0085 93.4625 85.0213C93.4015 85.0355 93.324 85.0426 93.2303 85.0426C93.0882 85.0426 92.949 85.0121 92.8127 84.951C92.6777 84.8899 92.5655 84.7969 92.476 84.6719C92.388 84.5469 92.3439 84.3892 92.3439 84.1989V80.9432ZM97.8645 82.8949V83.3636H95.9554V82.8949H97.8645ZM100.437 85V81.7273H100.923V82.2386H100.965C101.033 82.0639 101.143 81.9283 101.295 81.8317C101.447 81.7337 101.63 81.6847 101.843 81.6847C102.059 81.6847 102.239 81.7337 102.382 81.8317C102.527 81.9283 102.64 82.0639 102.721 82.2386H102.755C102.839 82.0696 102.964 81.9354 103.132 81.8359C103.3 81.7351 103.501 81.6847 103.735 81.6847C104.028 81.6847 104.267 81.7763 104.453 81.9595C104.639 82.1413 104.732 82.4247 104.732 82.8097V85H104.229V82.8097C104.229 82.5682 104.163 82.3956 104.031 82.2919C103.899 82.1882 103.744 82.1364 103.565 82.1364C103.335 82.1364 103.156 82.206 103.03 82.3452C102.903 82.483 102.84 82.6577 102.84 82.8693V85H102.329V82.7585C102.329 82.5724 102.268 82.4226 102.148 82.3089C102.027 82.1939 101.871 82.1364 101.681 82.1364C101.55 82.1364 101.428 82.1712 101.315 82.2408C101.202 82.3104 101.112 82.407 101.042 82.5305C100.974 82.6527 100.94 82.794 100.94 82.9545V85H100.437ZM107.024 85.0682C106.708 85.0682 106.436 84.9986 106.208 84.8594C105.98 84.7188 105.805 84.5227 105.681 84.2713C105.559 84.0185 105.498 83.7244 105.498 83.3892C105.498 83.054 105.559 82.7585 105.681 82.5028C105.805 82.2457 105.977 82.0455 106.197 81.902C106.419 81.7571 106.677 81.6847 106.973 81.6847C107.143 81.6847 107.311 81.7131 107.478 81.7699C107.644 81.8267 107.795 81.919 107.931 82.0469C108.068 82.1733 108.176 82.3409 108.257 82.5497C108.338 82.7585 108.379 83.0156 108.379 83.321V83.5341H105.856V83.0994H107.868C107.868 82.9148 107.831 82.75 107.757 82.6051C107.684 82.4602 107.581 82.3459 107.446 82.2621C107.312 82.1783 107.154 82.1364 106.973 82.1364C106.772 82.1364 106.599 82.1861 106.453 82.2855C106.308 82.3835 106.196 82.5114 106.118 82.669C106.04 82.8267 106.001 82.9957 106.001 83.1761V83.4659C106.001 83.7131 106.044 83.9226 106.129 84.0945C106.216 84.2649 106.336 84.3949 106.489 84.4844C106.642 84.5724 106.821 84.6165 107.024 84.6165C107.156 84.6165 107.275 84.598 107.382 84.5611C107.49 84.5227 107.583 84.4659 107.661 84.3906C107.739 84.3139 107.799 84.2187 107.842 84.1051L108.328 84.2415C108.277 84.4062 108.191 84.5511 108.07 84.6761C107.949 84.7997 107.8 84.8963 107.623 84.9659C107.445 85.0341 107.245 85.0682 107.024 85.0682ZM109.144 85V81.7273H109.63V82.2216H109.664C109.723 82.0597 109.831 81.9283 109.988 81.8274C110.144 81.7266 110.32 81.6761 110.516 81.6761C110.553 81.6761 110.599 81.6768 110.654 81.6783C110.71 81.6797 110.752 81.6818 110.78 81.6847V82.196C110.763 82.1918 110.724 82.1854 110.663 82.1768C110.603 82.1669 110.54 82.1619 110.473 82.1619C110.314 82.1619 110.172 82.1953 110.047 82.2621C109.924 82.3274 109.826 82.4183 109.753 82.5348C109.682 82.6499 109.647 82.7812 109.647 82.929V85H109.144ZM112.598 86.2955C112.355 86.2955 112.146 86.2642 111.971 86.2017C111.797 86.1406 111.651 86.0597 111.534 85.9588C111.419 85.8594 111.328 85.7528 111.26 85.6392L111.66 85.358C111.706 85.4176 111.763 85.4858 111.833 85.5625C111.902 85.6406 111.998 85.7081 112.118 85.7649C112.24 85.8232 112.4 85.8523 112.598 85.8523C112.862 85.8523 113.08 85.7884 113.252 85.6605C113.424 85.5327 113.51 85.3324 113.51 85.0597V84.3949H113.467C113.43 84.4545 113.377 84.5284 113.309 84.6165C113.243 84.7031 113.146 84.7805 113.02 84.8487C112.895 84.9155 112.725 84.9489 112.512 84.9489C112.248 84.9489 112.011 84.8864 111.801 84.7614C111.592 84.6364 111.426 84.4545 111.304 84.2159C111.184 83.9773 111.123 83.6875 111.123 83.3466C111.123 83.0114 111.182 82.7195 111.3 82.4709C111.418 82.2209 111.582 82.0277 111.792 81.8913C112.002 81.7536 112.245 81.6847 112.521 81.6847C112.734 81.6847 112.903 81.7202 113.028 81.7912C113.154 81.8608 113.251 81.9403 113.318 82.0298C113.386 82.1179 113.439 82.1903 113.475 82.2472H113.527V81.7273H114.012V85.0938C114.012 85.375 113.949 85.6037 113.821 85.7798C113.694 85.9574 113.524 86.0874 113.309 86.1697C113.096 86.2536 112.859 86.2955 112.598 86.2955ZM112.581 84.4972C112.782 84.4972 112.953 84.451 113.092 84.3587C113.231 84.2663 113.337 84.1335 113.409 83.9602C113.482 83.7869 113.518 83.5795 113.518 83.3381C113.518 83.1023 113.483 82.8942 113.412 82.7138C113.341 82.5334 113.235 82.392 113.096 82.2898C112.957 82.1875 112.785 82.1364 112.581 82.1364C112.368 82.1364 112.19 82.1903 112.048 82.2983C111.907 82.4062 111.801 82.5511 111.73 82.733C111.661 82.9148 111.626 83.1165 111.626 83.3381C111.626 83.5653 111.662 83.7663 111.733 83.9411C111.805 84.1143 111.912 84.2507 112.052 84.3501C112.194 84.4482 112.37 84.4972 112.581 84.4972ZM116.305 85.0682C115.99 85.0682 115.718 84.9986 115.489 84.8594C115.262 84.7188 115.086 84.5227 114.963 84.2713C114.841 84.0185 114.779 83.7244 114.779 83.3892C114.779 83.054 114.841 82.7585 114.963 82.5028C115.086 82.2457 115.258 82.0455 115.478 81.902C115.7 81.7571 115.958 81.6847 116.254 81.6847C116.424 81.6847 116.593 81.7131 116.759 81.7699C116.925 81.8267 117.076 81.919 117.213 82.0469C117.349 82.1733 117.458 82.3409 117.539 82.5497C117.62 82.7585 117.66 83.0156 117.66 83.321V83.5341H115.137V83.0994H117.149C117.149 82.9148 117.112 82.75 117.038 82.6051C116.966 82.4602 116.862 82.3459 116.727 82.2621C116.593 82.1783 116.436 82.1364 116.254 82.1364C116.054 82.1364 115.88 82.1861 115.734 82.2855C115.589 82.3835 115.478 82.5114 115.4 82.669C115.321 82.8267 115.282 82.9957 115.282 83.1761V83.4659C115.282 83.7131 115.325 83.9226 115.41 84.0945C115.497 84.2649 115.617 84.3949 115.77 84.4844C115.924 84.5724 116.102 84.6165 116.305 84.6165C116.437 84.6165 116.556 84.598 116.663 84.5611C116.771 84.5227 116.864 84.4659 116.942 84.3906C117.02 84.3139 117.081 84.2187 117.123 84.1051L117.609 84.2415C117.558 84.4062 117.472 84.5511 117.351 84.6761C117.23 84.7997 117.081 84.8963 116.904 84.9659C116.726 85.0341 116.527 85.0682 116.305 85.0682ZM119.661 85.0682C119.388 85.0682 119.147 84.9993 118.939 84.8615C118.73 84.7223 118.566 84.5263 118.449 84.2734C118.331 84.0192 118.272 83.7188 118.272 83.3722C118.272 83.0284 118.331 82.7301 118.449 82.4773C118.566 82.2244 118.73 82.0291 118.941 81.8913C119.151 81.7536 119.394 81.6847 119.669 81.6847C119.882 81.6847 120.051 81.7202 120.174 81.7912C120.299 81.8608 120.395 81.9403 120.46 82.0298C120.527 82.1179 120.578 82.1903 120.615 82.2472H120.658V80.6364H121.161V85H120.675V84.4972H120.615C120.578 84.5568 120.526 84.6321 120.458 84.723C120.39 84.8125 120.292 84.8928 120.166 84.9638C120.039 85.0334 119.871 85.0682 119.661 85.0682ZM119.729 84.6165C119.931 84.6165 120.101 84.5639 120.24 84.4588C120.38 84.3523 120.485 84.2053 120.558 84.0178C120.63 83.8288 120.667 83.6108 120.667 83.3636C120.667 83.1193 120.631 82.9055 120.56 82.7223C120.489 82.5376 120.384 82.3942 120.245 82.2919C120.105 82.1882 119.934 82.1364 119.729 82.1364C119.516 82.1364 119.338 82.1911 119.196 82.3004C119.056 82.4084 118.95 82.5554 118.879 82.7415C118.809 82.9261 118.775 83.1335 118.775 83.3636C118.775 83.5966 118.81 83.8082 118.881 83.9986C118.953 84.1875 119.06 84.3381 119.201 84.4503C119.343 84.5611 119.519 84.6165 119.729 84.6165Z" fill="#A7A7A7"/>
<path d="M39.5284 48.6364H40.1591L41.642 52.2585H41.6932L43.1761 48.6364H43.8068V53H43.3125V49.6847H43.2699L41.9062 53H41.429L40.0653 49.6847H40.0227V53H39.5284V48.6364ZM46.1277 53.0682C45.8322 53.0682 45.573 52.9979 45.35 52.8572C45.1284 52.7166 44.9551 52.5199 44.8301 52.267C44.7065 52.0142 44.6447 51.7187 44.6447 51.3807C44.6447 51.0398 44.7065 50.7422 44.8301 50.4879C44.9551 50.2337 45.1284 50.0362 45.35 49.8956C45.573 49.755 45.8322 49.6847 46.1277 49.6847C46.4231 49.6847 46.6816 49.755 46.9032 49.8956C47.1262 50.0362 47.2995 50.2337 47.4231 50.4879C47.5481 50.7422 47.6106 51.0398 47.6106 51.3807C47.6106 51.7187 47.5481 52.0142 47.4231 52.267C47.2995 52.5199 47.1262 52.7166 46.9032 52.8572C46.6816 52.9979 46.4231 53.0682 46.1277 53.0682ZM46.1277 52.6165C46.3521 52.6165 46.5368 52.5589 46.6816 52.4439C46.8265 52.3288 46.9338 52.1776 47.0034 51.9901C47.073 51.8026 47.1078 51.5994 47.1078 51.3807C47.1078 51.1619 47.073 50.9581 47.0034 50.7692C46.9338 50.5803 46.8265 50.4276 46.6816 50.3111C46.5368 50.1946 46.3521 50.1364 46.1277 50.1364C45.9032 50.1364 45.7186 50.1946 45.5737 50.3111C45.4288 50.4276 45.3216 50.5803 45.252 50.7692C45.1824 50.9581 45.1475 51.1619 45.1475 51.3807C45.1475 51.5994 45.1824 51.8026 45.252 51.9901C45.3216 52.1776 45.4288 52.3288 45.5737 52.4439C45.7186 52.5589 45.9032 52.6165 46.1277 52.6165ZM50.9371 49.7273L49.7269 53H49.2156L48.0053 49.7273H48.5508L49.4542 52.3352H49.4883L50.3917 49.7273H50.9371ZM52.8558 53.0682C52.5405 53.0682 52.2685 52.9986 52.0398 52.8594C51.8125 52.7188 51.6371 52.5227 51.5135 52.2713C51.3913 52.0185 51.3303 51.7244 51.3303 51.3892C51.3303 51.054 51.3913 50.7585 51.5135 50.5028C51.6371 50.2457 51.8089 50.0455 52.0291 49.902C52.2507 49.7571 52.5092 49.6847 52.8047 49.6847C52.9751 49.6847 53.1435 49.7131 53.3097 49.7699C53.4759 49.8267 53.6271 49.919 53.7635 50.0469C53.8999 50.1733 54.0085 50.3409 54.0895 50.5497C54.1705 50.7585 54.2109 51.0156 54.2109 51.321V51.5341H51.6882V51.0994H53.6996C53.6996 50.9148 53.6626 50.75 53.5888 50.6051C53.5163 50.4602 53.4126 50.3459 53.2777 50.2621C53.1442 50.1783 52.9865 50.1364 52.8047 50.1364C52.6044 50.1364 52.4311 50.1861 52.2848 50.2855C52.1399 50.3835 52.0284 50.5114 51.9503 50.669C51.8722 50.8267 51.8331 50.9957 51.8331 51.1761V51.4659C51.8331 51.7131 51.8757 51.9226 51.9609 52.0945C52.0476 52.2649 52.1676 52.3949 52.321 52.4844C52.4744 52.5724 52.6527 52.6165 52.8558 52.6165C52.9879 52.6165 53.1072 52.598 53.2138 52.5611C53.3217 52.5227 53.4148 52.4659 53.4929 52.3906C53.571 52.3139 53.6314 52.2187 53.674 52.1051L54.1598 52.2415C54.1087 52.4062 54.0227 52.5511 53.902 52.6761C53.7813 52.7997 53.6321 52.8963 53.4545 52.9659C53.277 53.0341 53.0774 53.0682 52.8558 53.0682ZM58.0866 49.7273V50.1534H56.3906V49.7273H58.0866ZM56.8849 48.9432H57.3878V52.0625C57.3878 52.2045 57.4084 52.3111 57.4496 52.3821C57.4922 52.4517 57.5462 52.4986 57.6115 52.5227C57.6783 52.5455 57.7486 52.5568 57.8224 52.5568C57.8778 52.5568 57.9233 52.554 57.9588 52.5483C57.9943 52.5412 58.0227 52.5355 58.044 52.5312L58.1463 52.983C58.1122 52.9957 58.0646 53.0085 58.0036 53.0213C57.9425 53.0355 57.8651 53.0426 57.7713 53.0426C57.6293 53.0426 57.4901 53.0121 57.3537 52.951C57.2188 52.8899 57.1065 52.7969 57.017 52.6719C56.929 52.5469 56.8849 52.3892 56.8849 52.1989V48.9432ZM60.1374 53.0682C59.842 53.0682 59.5827 52.9979 59.3597 52.8572C59.1381 52.7166 58.9648 52.5199 58.8398 52.267C58.7163 52.0142 58.6545 51.7187 58.6545 51.3807C58.6545 51.0398 58.7163 50.7422 58.8398 50.4879C58.9648 50.2337 59.1381 50.0362 59.3597 49.8956C59.5827 49.755 59.842 49.6847 60.1374 49.6847C60.4329 49.6847 60.6914 49.755 60.913 49.8956C61.136 50.0362 61.3093 50.2337 61.4329 50.4879C61.5579 50.7422 61.6204 51.0398 61.6204 51.3807C61.6204 51.7187 61.5579 52.0142 61.4329 52.267C61.3093 52.5199 61.136 52.7166 60.913 52.8572C60.6914 52.9979 60.4329 53.0682 60.1374 53.0682ZM60.1374 52.6165C60.3619 52.6165 60.5465 52.5589 60.6914 52.4439C60.8363 52.3288 60.9435 52.1776 61.0131 51.9901C61.0827 51.8026 61.1175 51.5994 61.1175 51.3807C61.1175 51.1619 61.0827 50.9581 61.0131 50.7692C60.9435 50.5803 60.8363 50.4276 60.6914 50.3111C60.5465 50.1946 60.3619 50.1364 60.1374 50.1364C59.913 50.1364 59.7283 50.1946 59.5835 50.3111C59.4386 50.4276 59.3313 50.5803 59.2617 50.7692C59.1921 50.9581 59.1573 51.1619 59.1573 51.3807C59.1573 51.5994 59.1921 51.8026 59.2617 51.9901C59.3313 52.1776 59.4386 52.3288 59.5835 52.4439C59.7283 52.5589 59.913 52.6165 60.1374 52.6165ZM67.655 50H67.1266C67.0953 49.848 67.0407 49.7145 66.9625 49.5994C66.8858 49.4844 66.7921 49.3878 66.6813 49.3097C66.5719 49.2301 66.4505 49.1705 66.3169 49.1307C66.1834 49.0909 66.0442 49.071 65.8993 49.071C65.6351 49.071 65.3958 49.1378 65.1813 49.2713C64.9682 49.4048 64.7985 49.6016 64.6721 49.8615C64.5471 50.1214 64.4846 50.4403 64.4846 50.8182C64.4846 51.196 64.5471 51.5149 64.6721 51.7749C64.7985 52.0348 64.9682 52.2315 65.1813 52.3651C65.3958 52.4986 65.6351 52.5653 65.8993 52.5653C66.0442 52.5653 66.1834 52.5455 66.3169 52.5057C66.4505 52.4659 66.5719 52.407 66.6813 52.3288C66.7921 52.2493 66.8858 52.152 66.9625 52.0369C67.0407 51.9205 67.0953 51.7869 67.1266 51.6364H67.655C67.6152 51.8594 67.5428 52.0589 67.4377 52.2351C67.3326 52.4112 67.2019 52.5611 67.0456 52.6847C66.8894 52.8068 66.714 52.8999 66.5194 52.9638C66.3262 53.0277 66.1195 53.0597 65.8993 53.0597C65.5272 53.0597 65.1962 52.9688 64.9064 52.7869C64.6167 52.6051 64.3887 52.3466 64.2225 52.0114C64.0563 51.6761 63.9732 51.2784 63.9732 50.8182C63.9732 50.358 64.0563 49.9602 64.2225 49.625C64.3887 49.2898 64.6167 49.0312 64.9064 48.8494C65.1962 48.6676 65.5272 48.5767 65.8993 48.5767C66.1195 48.5767 66.3262 48.6087 66.5194 48.6726C66.714 48.7365 66.8894 48.8303 67.0456 48.9538C67.2019 49.076 67.3326 49.2251 67.4377 49.4013C67.5428 49.576 67.6152 49.7756 67.655 50ZM69.7702 53.0682C69.4748 53.0682 69.2156 52.9979 68.9925 52.8572C68.771 52.7166 68.5977 52.5199 68.4727 52.267C68.3491 52.0142 68.2873 51.7187 68.2873 51.3807C68.2873 51.0398 68.3491 50.7422 68.4727 50.4879C68.5977 50.2337 68.771 50.0362 68.9925 49.8956C69.2156 49.755 69.4748 49.6847 69.7702 49.6847C70.0657 49.6847 70.3242 49.755 70.5458 49.8956C70.7688 50.0362 70.9421 50.2337 71.0657 50.4879C71.1907 50.7422 71.2532 51.0398 71.2532 51.3807C71.2532 51.7187 71.1907 52.0142 71.0657 52.267C70.9421 52.5199 70.7688 52.7166 70.5458 52.8572C70.3242 52.9979 70.0657 53.0682 69.7702 53.0682ZM69.7702 52.6165C69.9947 52.6165 70.1793 52.5589 70.3242 52.4439C70.4691 52.3288 70.5763 52.1776 70.646 51.9901C70.7156 51.8026 70.7504 51.5994 70.7504 51.3807C70.7504 51.1619 70.7156 50.9581 70.646 50.7692C70.5763 50.5803 70.4691 50.4276 70.3242 50.3111C70.1793 50.1946 69.9947 50.1364 69.7702 50.1364C69.5458 50.1364 69.3612 50.1946 69.2163 50.3111C69.0714 50.4276 68.9641 50.5803 68.8945 50.7692C68.8249 50.9581 68.7901 51.1619 68.7901 51.3807C68.7901 51.5994 68.8249 51.8026 68.8945 51.9901C68.9641 52.1776 69.0714 52.3288 69.2163 52.4439C69.3612 52.5589 69.5458 52.6165 69.7702 52.6165ZM72.5236 48.6364V53H72.0208V48.6364H72.5236ZM75.5071 51.6619V49.7273H76.0099V53H75.5071V52.446H75.473C75.3963 52.6122 75.277 52.7536 75.1151 52.87C74.9531 52.9851 74.7486 53.0426 74.5014 53.0426C74.2969 53.0426 74.1151 52.9979 73.956 52.9084C73.7969 52.8175 73.6719 52.6811 73.581 52.4993C73.4901 52.3161 73.4446 52.0852 73.4446 51.8068V49.7273H73.9474V51.7727C73.9474 52.0114 74.0142 52.2017 74.1477 52.3438C74.2827 52.4858 74.4545 52.5568 74.6634 52.5568C74.7884 52.5568 74.9155 52.5249 75.0447 52.4609C75.1754 52.397 75.2848 52.299 75.3729 52.1669C75.4624 52.0348 75.5071 51.8665 75.5071 51.6619ZM76.9309 53V49.7273H77.4167V50.2386H77.4593C77.5275 50.0639 77.6376 49.9283 77.7896 49.8317C77.9416 49.7337 78.1241 49.6847 78.3372 49.6847C78.5531 49.6847 78.7328 49.7337 78.8762 49.8317C79.0211 49.9283 79.1341 50.0639 79.215 50.2386H79.2491C79.3329 50.0696 79.4586 49.9354 79.6262 49.8359C79.7939 49.7351 79.9949 49.6847 80.2292 49.6847C80.5218 49.6847 80.7612 49.7763 80.9473 49.9595C81.1333 50.1413 81.2264 50.4247 81.2264 50.8097V53H80.7235V50.8097C80.7235 50.5682 80.6575 50.3956 80.5254 50.2919C80.3933 50.1882 80.2377 50.1364 80.0588 50.1364C79.8287 50.1364 79.6504 50.206 79.524 50.3452C79.3975 50.483 79.3343 50.6577 79.3343 50.8693V53H78.823V50.7585C78.823 50.5724 78.7626 50.4226 78.6419 50.3089C78.5211 50.1939 78.3656 50.1364 78.1752 50.1364C78.0446 50.1364 77.9224 50.1712 77.8088 50.2408C77.6966 50.3104 77.6056 50.407 77.536 50.5305C77.4679 50.6527 77.4338 50.794 77.4338 50.9545V53H76.9309ZM82.6486 51.0312V53H82.1458V49.7273H82.6316V50.2386H82.6742C82.7509 50.0724 82.8674 49.9389 83.0236 49.8381C83.1799 49.7358 83.3816 49.6847 83.6287 49.6847C83.8503 49.6847 84.0442 49.7301 84.2104 49.821C84.3766 49.9105 84.5059 50.0469 84.5982 50.2301C84.6905 50.4119 84.7367 50.642 84.7367 50.9205V53H84.2338V50.9545C84.2338 50.6974 84.1671 50.4972 84.0336 50.3537C83.9 50.2088 83.7168 50.1364 83.4838 50.1364C83.3233 50.1364 83.1799 50.1712 83.0534 50.2408C82.9284 50.3104 82.8297 50.4119 82.7573 50.5455C82.6848 50.679 82.6486 50.8409 82.6486 51.0312ZM87.1726 50V49.6165C87.1726 49.5 87.1932 49.3764 87.2344 49.2457C87.277 49.1136 87.3381 48.9865 87.4176 48.8643C87.4986 48.7408 87.5959 48.6335 87.7095 48.5426L87.9822 48.7642C87.8928 48.892 87.8146 49.0256 87.7479 49.1648C87.6825 49.3026 87.6499 49.4503 87.6499 49.608V50H87.1726ZM89.1349 48.6364V53H88.6065V48.6364H89.1349ZM90.6291 51.0312V53H90.1262V49.7273H90.612V50.2386H90.6547C90.7314 50.0724 90.8478 49.9389 91.0041 49.8381C91.1603 49.7358 91.362 49.6847 91.6092 49.6847C91.8308 49.6847 92.0247 49.7301 92.1909 49.821C92.3571 49.9105 92.4863 50.0469 92.5787 50.2301C92.671 50.4119 92.7172 50.642 92.7172 50.9205V53H92.2143V50.9545C92.2143 50.6974 92.1475 50.4972 92.014 50.3537C91.8805 50.2088 91.6973 50.1364 91.4643 50.1364C91.3038 50.1364 91.1603 50.1712 91.0339 50.2408C90.9089 50.3104 90.8102 50.4119 90.7377 50.5455C90.6653 50.679 90.6291 50.8409 90.6291 51.0312ZM95.3917 53V48.6364H96.8661C97.207 48.6364 97.4869 48.6946 97.7056 48.8111C97.9244 48.9261 98.0863 49.0845 98.1914 49.2862C98.2965 49.4879 98.3491 49.7173 98.3491 49.9744C98.3491 50.2315 98.2965 50.4595 98.1914 50.6584C98.0863 50.8572 97.9251 51.0135 97.7077 51.1271C97.4904 51.2393 97.2127 51.2955 96.8746 51.2955H95.6815V50.8182H96.8576C97.0906 50.8182 97.2781 50.7841 97.4201 50.7159C97.5636 50.6477 97.6673 50.5511 97.7312 50.4261C97.7965 50.2997 97.8292 50.1491 97.8292 49.9744C97.8292 49.7997 97.7965 49.647 97.7312 49.5163C97.6658 49.3857 97.5614 49.2848 97.418 49.2138C97.2745 49.1413 97.0849 49.1051 96.8491 49.1051H95.9201V53H95.3917ZM97.4457 51.0398L98.5195 53H97.9059L96.8491 51.0398H97.4457ZM100.498 53.0682C100.183 53.0682 99.911 52.9986 99.6824 52.8594C99.4551 52.7188 99.2797 52.5227 99.1561 52.2713C99.0339 52.0185 98.9728 51.7244 98.9728 51.3892C98.9728 51.054 99.0339 50.7585 99.1561 50.5028C99.2797 50.2457 99.4515 50.0455 99.6717 49.902C99.8933 49.7571 100.152 49.6847 100.447 49.6847C100.618 49.6847 100.786 49.7131 100.952 49.7699C101.118 49.8267 101.27 49.919 101.406 50.0469C101.542 50.1733 101.651 50.3409 101.732 50.5497C101.813 50.7585 101.854 51.0156 101.854 51.321V51.5341H99.3308V51.0994H101.342C101.342 50.9148 101.305 50.75 101.231 50.6051C101.159 50.4602 101.055 50.3459 100.92 50.2621C100.787 50.1783 100.629 50.1364 100.447 50.1364C100.247 50.1364 100.074 50.1861 99.9274 50.2855C99.7825 50.3835 99.671 50.5114 99.5929 50.669C99.5147 50.8267 99.4757 50.9957 99.4757 51.1761V51.4659C99.4757 51.7131 99.5183 51.9226 99.6035 52.0945C99.6902 52.2649 99.8102 52.3949 99.9636 52.4844C100.117 52.5724 100.295 52.6165 100.498 52.6165C100.631 52.6165 100.75 52.598 100.856 52.5611C100.964 52.5227 101.057 52.4659 101.135 52.3906C101.214 52.3139 101.274 52.2187 101.317 52.1051L101.802 52.2415C101.751 52.4062 101.665 52.5511 101.545 52.6761C101.424 52.7997 101.275 52.8963 101.097 52.9659C100.92 53.0341 100.72 53.0682 100.498 53.0682ZM105.195 49.7273L103.985 53H103.473L102.263 49.7273H102.809L103.712 52.3352H103.746L104.65 49.7273H105.195ZM105.859 53V49.7273H106.362V53H105.859ZM106.114 49.1818C106.016 49.1818 105.932 49.1484 105.861 49.0817C105.791 49.0149 105.756 48.9347 105.756 48.8409C105.756 48.7472 105.791 48.6669 105.861 48.6001C105.932 48.5334 106.016 48.5 106.114 48.5C106.212 48.5 106.296 48.5334 106.366 48.6001C106.437 48.6669 106.472 48.7472 106.472 48.8409C106.472 48.9347 106.437 49.0149 106.366 49.0817C106.296 49.1484 106.212 49.1818 106.114 49.1818ZM108.655 53.0682C108.339 53.0682 108.067 52.9986 107.839 52.8594C107.611 52.7188 107.436 52.5227 107.312 52.2713C107.19 52.0185 107.129 51.7244 107.129 51.3892C107.129 51.054 107.19 50.7585 107.312 50.5028C107.436 50.2457 107.608 50.0455 107.828 49.902C108.05 49.7571 108.308 49.6847 108.604 49.6847C108.774 49.6847 108.942 49.7131 109.108 49.7699C109.275 49.8267 109.426 49.919 109.562 50.0469C109.699 50.1733 109.807 50.3409 109.888 50.5497C109.969 50.7585 110.01 51.0156 110.01 51.321V51.5341H107.487V51.0994H109.498C109.498 50.9148 109.461 50.75 109.388 50.6051C109.315 50.4602 109.211 50.3459 109.077 50.2621C108.943 50.1783 108.785 50.1364 108.604 50.1364C108.403 50.1364 108.23 50.1861 108.084 50.2855C107.939 50.3835 107.827 50.5114 107.749 50.669C107.671 50.8267 107.632 50.9957 107.632 51.1761V51.4659C107.632 51.7131 107.675 51.9226 107.76 52.0945C107.846 52.2649 107.966 52.3949 108.12 52.4844C108.273 52.5724 108.452 52.6165 108.655 52.6165C108.787 52.6165 108.906 52.598 109.013 52.5611C109.121 52.5227 109.214 52.4659 109.292 52.3906C109.37 52.3139 109.43 52.2187 109.473 52.1051L109.959 52.2415C109.907 52.4062 109.822 52.5511 109.701 52.6761C109.58 52.7997 109.431 52.8963 109.253 52.9659C109.076 53.0341 108.876 53.0682 108.655 53.0682ZM111.516 53L110.519 49.7273H111.047L111.755 52.233H111.789L112.488 49.7273H113.025L113.715 52.2244H113.749L114.456 49.7273H114.985L113.988 53H113.493L112.778 50.4858H112.726L112.01 53H111.516ZM116.351 48.6364V49.0199C116.351 49.1364 116.329 49.2607 116.287 49.3928C116.246 49.5234 116.184 49.6506 116.104 49.7741C116.024 49.8963 115.927 50.0028 115.814 50.0938L115.541 49.8722C115.631 49.7443 115.708 49.6115 115.773 49.4737C115.84 49.3345 115.873 49.1861 115.873 49.0284V48.6364H116.351Z" fill="#A7A7A7"/>
<path d="M45.5284 112.636H46.1591L47.642 116.259H47.6932L49.1761 112.636H49.8068V117H49.3125V113.685H49.2699L47.9062 117H47.429L46.0653 113.685H46.0227V117H45.5284V112.636ZM52.1277 117.068C51.8322 117.068 51.573 116.998 51.35 116.857C51.1284 116.717 50.9551 116.52 50.8301 116.267C50.7065 116.014 50.6447 115.719 50.6447 115.381C50.6447 115.04 50.7065 114.742 50.8301 114.488C50.9551 114.234 51.1284 114.036 51.35 113.896C51.573 113.755 51.8322 113.685 52.1277 113.685C52.4231 113.685 52.6816 113.755 52.9032 113.896C53.1262 114.036 53.2995 114.234 53.4231 114.488C53.5481 114.742 53.6106 115.04 53.6106 115.381C53.6106 115.719 53.5481 116.014 53.4231 116.267C53.2995 116.52 53.1262 116.717 52.9032 116.857C52.6816 116.998 52.4231 117.068 52.1277 117.068ZM52.1277 116.616C52.3521 116.616 52.5368 116.559 52.6816 116.444C52.8265 116.329 52.9338 116.178 53.0034 115.99C53.073 115.803 53.1078 115.599 53.1078 115.381C53.1078 115.162 53.073 114.958 53.0034 114.769C52.9338 114.58 52.8265 114.428 52.6816 114.311C52.5368 114.195 52.3521 114.136 52.1277 114.136C51.9032 114.136 51.7186 114.195 51.5737 114.311C51.4288 114.428 51.3216 114.58 51.252 114.769C51.1824 114.958 51.1475 115.162 51.1475 115.381C51.1475 115.599 51.1824 115.803 51.252 115.99C51.3216 116.178 51.4288 116.329 51.5737 116.444C51.7186 116.559 51.9032 116.616 52.1277 116.616ZM56.9371 113.727L55.7269 117H55.2156L54.0053 113.727H54.5508L55.4542 116.335H55.4883L56.3917 113.727H56.9371ZM58.8558 117.068C58.5405 117.068 58.2685 116.999 58.0398 116.859C57.8125 116.719 57.6371 116.523 57.5135 116.271C57.3913 116.018 57.3303 115.724 57.3303 115.389C57.3303 115.054 57.3913 114.759 57.5135 114.503C57.6371 114.246 57.8089 114.045 58.0291 113.902C58.2507 113.757 58.5092 113.685 58.8047 113.685C58.9751 113.685 59.1435 113.713 59.3097 113.77C59.4759 113.827 59.6271 113.919 59.7635 114.047C59.8999 114.173 60.0085 114.341 60.0895 114.55C60.1705 114.759 60.2109 115.016 60.2109 115.321V115.534H57.6882V115.099H59.6996C59.6996 114.915 59.6626 114.75 59.5888 114.605C59.5163 114.46 59.4126 114.346 59.2777 114.262C59.1442 114.178 58.9865 114.136 58.8047 114.136C58.6044 114.136 58.4311 114.186 58.2848 114.286C58.1399 114.384 58.0284 114.511 57.9503 114.669C57.8722 114.827 57.8331 114.996 57.8331 115.176V115.466C57.8331 115.713 57.8757 115.923 57.9609 116.094C58.0476 116.265 58.1676 116.395 58.321 116.484C58.4744 116.572 58.6527 116.616 58.8558 116.616C58.9879 116.616 59.1072 116.598 59.2138 116.561C59.3217 116.523 59.4148 116.466 59.4929 116.391C59.571 116.314 59.6314 116.219 59.674 116.105L60.1598 116.241C60.1087 116.406 60.0227 116.551 59.902 116.676C59.7813 116.8 59.6321 116.896 59.4545 116.966C59.277 117.034 59.0774 117.068 58.8558 117.068ZM64.0866 113.727V114.153H62.3906V113.727H64.0866ZM62.8849 112.943H63.3878V116.062C63.3878 116.205 63.4084 116.311 63.4496 116.382C63.4922 116.452 63.5462 116.499 63.6115 116.523C63.6783 116.545 63.7486 116.557 63.8224 116.557C63.8778 116.557 63.9233 116.554 63.9588 116.548C63.9943 116.541 64.0227 116.536 64.044 116.531L64.1463 116.983C64.1122 116.996 64.0646 117.009 64.0036 117.021C63.9425 117.036 63.8651 117.043 63.7713 117.043C63.6293 117.043 63.4901 117.012 63.3537 116.951C63.2188 116.89 63.1065 116.797 63.017 116.672C62.929 116.547 62.8849 116.389 62.8849 116.199V112.943ZM66.1374 117.068C65.842 117.068 65.5827 116.998 65.3597 116.857C65.1381 116.717 64.9648 116.52 64.8398 116.267C64.7163 116.014 64.6545 115.719 64.6545 115.381C64.6545 115.04 64.7163 114.742 64.8398 114.488C64.9648 114.234 65.1381 114.036 65.3597 113.896C65.5827 113.755 65.842 113.685 66.1374 113.685C66.4329 113.685 66.6914 113.755 66.913 113.896C67.136 114.036 67.3093 114.234 67.4329 114.488C67.5579 114.742 67.6204 115.04 67.6204 115.381C67.6204 115.719 67.5579 116.014 67.4329 116.267C67.3093 116.52 67.136 116.717 66.913 116.857C66.6914 116.998 66.4329 117.068 66.1374 117.068ZM66.1374 116.616C66.3619 116.616 66.5465 116.559 66.6914 116.444C66.8363 116.329 66.9435 116.178 67.0131 115.99C67.0827 115.803 67.1175 115.599 67.1175 115.381C67.1175 115.162 67.0827 114.958 67.0131 114.769C66.9435 114.58 66.8363 114.428 66.6914 114.311C66.5465 114.195 66.3619 114.136 66.1374 114.136C65.913 114.136 65.7283 114.195 65.5835 114.311C65.4386 114.428 65.3313 114.58 65.2617 114.769C65.1921 114.958 65.1573 115.162 65.1573 115.381C65.1573 115.599 65.1921 115.803 65.2617 115.99C65.3313 116.178 65.4386 116.329 65.5835 116.444C65.7283 116.559 65.913 116.616 66.1374 116.616ZM73.655 114H73.1266C73.0953 113.848 73.0407 113.714 72.9625 113.599C72.8858 113.484 72.7921 113.388 72.6813 113.31C72.5719 113.23 72.4505 113.17 72.3169 113.131C72.1834 113.091 72.0442 113.071 71.8993 113.071C71.6351 113.071 71.3958 113.138 71.1813 113.271C70.9682 113.405 70.7985 113.602 70.6721 113.862C70.5471 114.121 70.4846 114.44 70.4846 114.818C70.4846 115.196 70.5471 115.515 70.6721 115.775C70.7985 116.035 70.9682 116.232 71.1813 116.365C71.3958 116.499 71.6351 116.565 71.8993 116.565C72.0442 116.565 72.1834 116.545 72.3169 116.506C72.4505 116.466 72.5719 116.407 72.6813 116.329C72.7921 116.249 72.8858 116.152 72.9625 116.037C73.0407 115.92 73.0953 115.787 73.1266 115.636H73.655C73.6152 115.859 73.5428 116.059 73.4377 116.235C73.3326 116.411 73.2019 116.561 73.0456 116.685C72.8894 116.807 72.714 116.9 72.5194 116.964C72.3262 117.028 72.1195 117.06 71.8993 117.06C71.5272 117.06 71.1962 116.969 70.9064 116.787C70.6167 116.605 70.3887 116.347 70.2225 116.011C70.0563 115.676 69.9732 115.278 69.9732 114.818C69.9732 114.358 70.0563 113.96 70.2225 113.625C70.3887 113.29 70.6167 113.031 70.9064 112.849C71.1962 112.668 71.5272 112.577 71.8993 112.577C72.1195 112.577 72.3262 112.609 72.5194 112.673C72.714 112.737 72.8894 112.83 73.0456 112.954C73.2019 113.076 73.3326 113.225 73.4377 113.401C73.5428 113.576 73.6152 113.776 73.655 114ZM75.7702 117.068C75.4748 117.068 75.2156 116.998 74.9925 116.857C74.771 116.717 74.5977 116.52 74.4727 116.267C74.3491 116.014 74.2873 115.719 74.2873 115.381C74.2873 115.04 74.3491 114.742 74.4727 114.488C74.5977 114.234 74.771 114.036 74.9925 113.896C75.2156 113.755 75.4748 113.685 75.7702 113.685C76.0657 113.685 76.3242 113.755 76.5458 113.896C76.7688 114.036 76.9421 114.234 77.0657 114.488C77.1907 114.742 77.2532 115.04 77.2532 115.381C77.2532 115.719 77.1907 116.014 77.0657 116.267C76.9421 116.52 76.7688 116.717 76.5458 116.857C76.3242 116.998 76.0657 117.068 75.7702 117.068ZM75.7702 116.616C75.9947 116.616 76.1793 116.559 76.3242 116.444C76.4691 116.329 76.5763 116.178 76.646 115.99C76.7156 115.803 76.7504 115.599 76.7504 115.381C76.7504 115.162 76.7156 114.958 76.646 114.769C76.5763 114.58 76.4691 114.428 76.3242 114.311C76.1793 114.195 75.9947 114.136 75.7702 114.136C75.5458 114.136 75.3612 114.195 75.2163 114.311C75.0714 114.428 74.9641 114.58 74.8945 114.769C74.8249 114.958 74.7901 115.162 74.7901 115.381C74.7901 115.599 74.8249 115.803 74.8945 115.99C74.9641 116.178 75.0714 116.329 75.2163 116.444C75.3612 116.559 75.5458 116.616 75.7702 116.616ZM78.5236 112.636V117H78.0208V112.636H78.5236ZM81.5071 115.662V113.727H82.0099V117H81.5071V116.446H81.473C81.3963 116.612 81.277 116.754 81.1151 116.87C80.9531 116.985 80.7486 117.043 80.5014 117.043C80.2969 117.043 80.1151 116.998 79.956 116.908C79.7969 116.817 79.6719 116.681 79.581 116.499C79.4901 116.316 79.4446 116.085 79.4446 115.807V113.727H79.9474V115.773C79.9474 116.011 80.0142 116.202 80.1477 116.344C80.2827 116.486 80.4545 116.557 80.6634 116.557C80.7884 116.557 80.9155 116.525 81.0447 116.461C81.1754 116.397 81.2848 116.299 81.3729 116.167C81.4624 116.035 81.5071 115.866 81.5071 115.662ZM82.9309 117V113.727H83.4167V114.239H83.4593C83.5275 114.064 83.6376 113.928 83.7896 113.832C83.9416 113.734 84.1241 113.685 84.3372 113.685C84.5531 113.685 84.7328 113.734 84.8762 113.832C85.0211 113.928 85.1341 114.064 85.215 114.239H85.2491C85.3329 114.07 85.4586 113.935 85.6262 113.836C85.7939 113.735 85.9949 113.685 86.2292 113.685C86.5218 113.685 86.7612 113.776 86.9473 113.96C87.1333 114.141 87.2264 114.425 87.2264 114.81V117H86.7235V114.81C86.7235 114.568 86.6575 114.396 86.5254 114.292C86.3933 114.188 86.2377 114.136 86.0588 114.136C85.8287 114.136 85.6504 114.206 85.524 114.345C85.3975 114.483 85.3343 114.658 85.3343 114.869V117H84.823V114.759C84.823 114.572 84.7626 114.423 84.6419 114.309C84.5211 114.194 84.3656 114.136 84.1752 114.136C84.0446 114.136 83.9224 114.171 83.8088 114.241C83.6966 114.31 83.6056 114.407 83.536 114.531C83.4679 114.653 83.4338 114.794 83.4338 114.955V117H82.9309ZM88.6486 115.031V117H88.1458V113.727H88.6316V114.239H88.6742C88.7509 114.072 88.8674 113.939 89.0236 113.838C89.1799 113.736 89.3816 113.685 89.6287 113.685C89.8503 113.685 90.0442 113.73 90.2104 113.821C90.3766 113.911 90.5059 114.047 90.5982 114.23C90.6905 114.412 90.7367 114.642 90.7367 114.92V117H90.2338V114.955C90.2338 114.697 90.1671 114.497 90.0336 114.354C89.9 114.209 89.7168 114.136 89.4838 114.136C89.3233 114.136 89.1799 114.171 89.0534 114.241C88.9284 114.31 88.8297 114.412 88.7573 114.545C88.6848 114.679 88.6486 114.841 88.6486 115.031ZM93.1726 114V113.616C93.1726 113.5 93.1932 113.376 93.2344 113.246C93.277 113.114 93.3381 112.987 93.4176 112.864C93.4986 112.741 93.5959 112.634 93.7095 112.543L93.9822 112.764C93.8928 112.892 93.8146 113.026 93.7479 113.165C93.6825 113.303 93.6499 113.45 93.6499 113.608V114H93.1726ZM95.9531 117H94.6065V112.636H96.0128C96.4361 112.636 96.7983 112.724 97.0994 112.898C97.4006 113.072 97.6314 113.321 97.7919 113.646C97.9524 113.97 98.0327 114.358 98.0327 114.81C98.0327 115.264 97.9517 115.656 97.7898 115.984C97.6278 116.31 97.392 116.562 97.0824 116.738C96.7727 116.913 96.3963 117 95.9531 117ZM95.1349 116.531H95.919C96.2798 116.531 96.5788 116.462 96.8161 116.322C97.0533 116.183 97.2301 115.985 97.3466 115.728C97.4631 115.471 97.5213 115.165 97.5213 114.81C97.5213 114.457 97.4638 114.154 97.3487 113.9C97.2337 113.644 97.0618 113.448 96.8331 113.312C96.6044 113.174 96.3196 113.105 95.9787 113.105H95.1349V116.531ZM100.18 117.068C99.8849 117.068 99.6257 116.998 99.4027 116.857C99.1811 116.717 99.0078 116.52 98.8828 116.267C98.7592 116.014 98.6974 115.719 98.6974 115.381C98.6974 115.04 98.7592 114.742 98.8828 114.488C99.0078 114.234 99.1811 114.036 99.4027 113.896C99.6257 113.755 99.8849 113.685 100.18 113.685C100.476 113.685 100.734 113.755 100.956 113.896C101.179 114.036 101.352 114.234 101.476 114.488C101.601 114.742 101.663 115.04 101.663 115.381C101.663 115.719 101.601 116.014 101.476 116.267C101.352 116.52 101.179 116.717 100.956 116.857C100.734 116.998 100.476 117.068 100.18 117.068ZM100.18 116.616C100.405 116.616 100.589 116.559 100.734 116.444C100.879 116.329 100.987 116.178 101.056 115.99C101.126 115.803 101.161 115.599 101.161 115.381C101.161 115.162 101.126 114.958 101.056 114.769C100.987 114.58 100.879 114.428 100.734 114.311C100.589 114.195 100.405 114.136 100.18 114.136C99.956 114.136 99.7713 114.195 99.6264 114.311C99.4815 114.428 99.3743 114.58 99.3047 114.769C99.2351 114.958 99.2003 115.162 99.2003 115.381C99.2003 115.599 99.2351 115.803 99.3047 115.99C99.3743 116.178 99.4815 116.329 99.6264 116.444C99.7713 116.559 99.956 116.616 100.18 116.616ZM102.934 115.031V117H102.431V113.727H102.917V114.239H102.959C103.036 114.072 103.153 113.939 103.309 113.838C103.465 113.736 103.667 113.685 103.914 113.685C104.135 113.685 104.329 113.73 104.496 113.821C104.662 113.911 104.791 114.047 104.883 114.23C104.976 114.412 105.022 114.642 105.022 114.92V117H104.519V114.955C104.519 114.697 104.452 114.497 104.319 114.354C104.185 114.209 104.002 114.136 103.769 114.136C103.608 114.136 103.465 114.171 103.339 114.241C103.214 114.31 103.115 114.412 103.042 114.545C102.97 114.679 102.934 114.841 102.934 115.031ZM107.313 117.068C106.998 117.068 106.725 116.999 106.497 116.859C106.27 116.719 106.094 116.523 105.971 116.271C105.848 116.018 105.787 115.724 105.787 115.389C105.787 115.054 105.848 114.759 105.971 114.503C106.094 114.246 106.266 114.045 106.486 113.902C106.708 113.757 106.966 113.685 107.262 113.685C107.432 113.685 107.6 113.713 107.767 113.77C107.933 113.827 108.084 113.919 108.221 114.047C108.357 114.173 108.466 114.341 108.547 114.55C108.627 114.759 108.668 115.016 108.668 115.321V115.534H106.145V115.099H108.157C108.157 114.915 108.12 114.75 108.046 114.605C107.973 114.46 107.87 114.346 107.735 114.262C107.601 114.178 107.444 114.136 107.262 114.136C107.061 114.136 106.888 114.186 106.742 114.286C106.597 114.384 106.485 114.511 106.407 114.669C106.329 114.827 106.29 114.996 106.29 115.176V115.466C106.29 115.713 106.333 115.923 106.418 116.094C106.505 116.265 106.625 116.395 106.778 116.484C106.931 116.572 107.11 116.616 107.313 116.616C107.445 116.616 107.564 116.598 107.671 116.561C107.779 116.523 107.872 116.466 107.95 116.391C108.028 116.314 108.088 116.219 108.131 116.105L108.617 116.241C108.566 116.406 108.48 116.551 108.359 116.676C108.238 116.8 108.089 116.896 107.912 116.966C107.734 117.034 107.534 117.068 107.313 117.068ZM109.876 112.636V113.02C109.876 113.136 109.855 113.261 109.812 113.393C109.771 113.523 109.71 113.651 109.629 113.774C109.549 113.896 109.453 114.003 109.339 114.094L109.066 113.872C109.156 113.744 109.233 113.612 109.299 113.474C109.365 113.335 109.399 113.186 109.399 113.028V112.636H109.876Z" fill="#A7A7A7"/>
<defs>
<filter id="filter0_d_0_1" x="7" y="9" width="144" height="26" filterUnits="userSpaceOnUse" color-interpolation-filters="sRGB">
<feFlood flood-opacity="0" result="BackgroundImageFix"/>
<feColorMatrix in="SourceAlpha" type="matrix" values="0 0 0 0 0 0 0 0 0 0 0 0 0 0 0 0 0 0 127 0" result="hardAlpha"/>
<feOffset dy="4"/>
<feGaussianBlur stdDeviation="2"/>
<feComposite in2="hardAlpha" operator="out"/>
<feColorMatrix type="matrix" values="0 0 0 0 0 0 0 0 0 0 0 0 0 0 0 0 0 0 0.5 0"/>
<feBlend mode="normal" in2="BackgroundImageFix" result="effect1_dropShadow_0_1"/>
<feBlend mode="normal" in="SourceGraphic" in2="effect1_dropShadow_0_1" result="shape"/>
</filter>
<filter id="filter1_d_0_1" x="7" y="41" width="144" height="26" filterUnits="userSpaceOnUse" color-interpolation-filters="sRGB">
<feFlood flood-opacity="0" result="BackgroundImageFix"/>
<feColorMatrix in="SourceAlpha" type="matrix" values="0 0 0 0 0 0 0 0 0 0 0 0 0 0 0 0 0 0 127 0" result="hardAlpha"/>
<feOffset dy="4"/>
<feGaussianBlur stdDeviation="2"/>
<feComposite in2="hardAlpha" operator="out"/>
<feColorMatrix type="matrix" values="0 0 0 0 0 0 0 0 0 0 0 0 0 0 0 0 0 0 0.5 0"/>
<feBlend mode="normal" in2="BackgroundImageFix" result="effect1_dropShadow_0_1"/>
<feBlend mode="normal" in="SourceGraphic" in2="effect1_dropShadow_0_1" result="shape"/>
</filter>
<filter id="filter2_d_0_1" x="7" y="73" width="144" height="26" filterUnits="userSpaceOnUse" color-interpolation-filters="sRGB">
<feFlood flood-opacity="0" result="BackgroundImageFix"/>
<feColorMatrix in="SourceAlpha" type="matrix" values="0 0 0 0 0 0 0 0 0 0 0 0 0 0 0 0 0 0 127 0" result="hardAlpha"/>
<feOffset dy="4"/>
<feGaussianBlur stdDeviation="2"/>
<feComposite in2="hardAlpha" operator="out"/>
<feColorMatrix type="matrix" values="0 0 0 0 0 0 0 0 0 0 0 0 0 0 0 0 0 0 0.5 0"/>
<feBlend mode="normal" in2="BackgroundImageFix" result="effect1_dropShadow_0_1"/>
<feBlend mode="normal" in="SourceGraphic" in2="effect1_dropShadow_0_1" result="shape"/>
</filter>
<filter id="filter3_d_0_1" x="7" y="105" width="144" height="26" filterUnits="userSpaceOnUse" color-interpolation-filters="sRGB">
<feFlood flood-opacity="0" result="BackgroundImageFix"/>
<feColorMatrix in="SourceAlpha" type="matrix" values="0 0 0 0 0 0 0 0 0 0 0 0 0 0 0 0 0 0 127 0" result="hardAlpha"/>
<feOffset dy="4"/>
<feGaussianBlur stdDeviation="2"/>
<feComposite in2="hardAlpha" operator="out"/>
<feColorMatrix type="matrix" values="0 0 0 0 0 0 0 0 0 0 0 0 0 0 0 0 0 0 0.5 0"/>
<feBlend mode="normal" in2="BackgroundImageFix" result="effect1_dropShadow_0_1"/>
<feBlend mode="normal" in="SourceGraphic" in2="effect1_dropShadow_0_1" result="shape"/>
</filter>
</defs>
</svg>
