<?xml version="1.0" encoding="UTF-8" standalone="no"?>
<svg
   xmlns:dc="http://purl.org/dc/elements/1.1/"
   xmlns:cc="http://creativecommons.org/ns#"
   xmlns:rdf="http://www.w3.org/1999/02/22-rdf-syntax-ns#"
   xmlns:svg="http://www.w3.org/2000/svg"
   xmlns="http://www.w3.org/2000/svg"
   xmlns:sodipodi="http://sodipodi.sourceforge.net/DTD/sodipodi-0.dtd"
   xmlns:inkscape="http://www.inkscape.org/namespaces/inkscape"
   width="1397.541"
   height="1175.0026"
   viewBox="0 0 1397.541 1175.0026"
   version="1.1"
   id="svg110"
   sodipodi:docname="automate.svg"
   style="fill:none"
   inkscape:version="0.92.4 (5da689c313, 2019-01-14)">
  <metadata
     id="metadata114">
    <rdf:RDF>
      <cc:Work
         rdf:about="">
        <dc:format>image/svg+xml</dc:format>
        <dc:type
           rdf:resource="http://purl.org/dc/dcmitype/StillImage" />
        <dc:title></dc:title>
      </cc:Work>
    </rdf:RDF>
  </metadata>
  <sodipodi:namedview
     pagecolor="#ffffff"
     bordercolor="#666666"
     borderopacity="1"
     objecttolerance="10"
     gridtolerance="10"
     guidetolerance="10"
     inkscape:pageopacity="0"
     inkscape:pageshadow="2"
     inkscape:window-width="1920"
     inkscape:window-height="1001"
     id="namedview112"
     showgrid="false"
     fit-margin-top="0"
     fit-margin-left="0"
     fit-margin-right="0"
     fit-margin-bottom="0"
     inkscape:zoom="0.3160553"
     inkscape:cx="282.19942"
     inkscape:cy="568.26726"
     inkscape:window-x="-9"
     inkscape:window-y="-9"
     inkscape:window-maximized="1"
     inkscape:current-layer="svg110" />
  <rect
     width="1397.541"
     height="1175.0026"
     id="rect2"
     x="0"
     y="0"
     style="fill:#bcbcbc;stroke-width:8.90153408" />
  <path
     d="M 1.2333984e-5,3.7402344e-6 H 1397.5409 V 1175.0026 H 1.2333984e-5 Z"
     id="path4"
     inkscape:connector-curvature="0"
     style="fill:#0e0e0e;stroke-width:8.90153408" />
  <path
     d="m 691.17213,368.11051 c 1.73847,1.73758 4.55668,1.73758 6.29515,0 l 28.32381,-28.32468 c 1.73847,-1.73847 1.73847,-4.5567 0,-6.29428 -1.7376,-1.73847 -4.55581,-1.73847 -6.29427,0 l -25.17711,25.17709 -25.17711,-25.17709 c -1.73847,-1.73847 -4.5567,-1.73847 -6.29428,0 -1.73847,1.73758 -1.73847,4.55581 0,6.29428 z m -1.3032,-127.76907 v 124.62147 h 8.90153 V 240.34144 Z"
     id="path6"
     inkscape:connector-curvature="0"
     style="fill:#414141;stroke-width:8.90153408" />
  <path
     d="m 691.17213,652.95961 c 1.73847,1.73758 4.55668,1.73758 6.29515,0 l 28.32381,-28.3247 c 1.73847,-1.73847 1.73847,-4.55668 0,-6.29425 -1.7376,-1.73847 -4.55581,-1.73847 -6.29427,0 l -25.17711,25.17708 -25.17711,-25.17708 c -1.73847,-1.73847 -4.5567,-1.73847 -6.29428,0 -1.73847,1.73757 -1.73847,4.55578 0,6.29425 z m -1.3032,-127.76907 v 124.62148 h 8.90153 V 525.19054 Z"
     id="path8"
     inkscape:connector-curvature="0"
     style="fill:#414141;stroke-width:8.90153408" />
  <path
     d="m 691.17213,937.81227 c 1.73847,1.73579 4.55668,1.73579 6.29515,0 l 28.32381,-28.32468 c 1.73847,-1.7447 1.73847,-4.55759 0,-6.3023 -1.7376,-1.73578 -4.55581,-1.73578 -6.29427,0 l -25.17711,25.18245 -25.17711,-25.18245 c -1.73847,-1.73578 -4.5567,-1.73578 -6.29428,0 -1.73847,1.74471 -1.73847,4.5576 0,6.3023 z m -1.3032,-127.77262 v 124.62147 h 8.90153 V 810.03965 Z"
     id="path10"
     inkscape:connector-curvature="0"
     style="fill:#414141;stroke-width:8.90153408" />
  <g
     id="g14"
     transform="matrix(8.9015346,0,0,8.9015346,1.2333984e-5,3.7402344e-6)"
     style="filter:url(#filter0_d_0_1)">
    <rect
       x="11"
       y="9"
       width="136"
       height="18"
       rx="3"
       id="rect12"
       style="fill:#1c1c1c" />
  </g>
  <g
     id="g18"
     transform="matrix(8.9015346,0,0,8.9015346,1.2333984e-5,3.7402344e-6)"
     style="filter:url(#filter1_d_0_1)">
    <rect
       x="11"
       y="41"
       width="136"
       height="18"
       rx="3"
       id="rect16"
       style="fill:#1c1c1c" />
  </g>
  <g
     id="g22"
     transform="matrix(8.9015346,0,0,8.9015346,1.2333984e-5,3.7402344e-6)"
     style="filter:url(#filter2_d_0_1)">
    <rect
       x="11"
       y="73"
       width="136"
       height="18"
       rx="3"
       id="rect20"
       style="fill:#1c1c1c" />
  </g>
  <g
     id="g26"
     transform="matrix(8.9015346,0,0,8.9015346,1.2333984e-5,3.7402344e-6)"
     style="filter:url(#filter3_d_0_1)">
    <rect
       x="11"
       y="105"
       width="136"
       height="18"
       rx="3"
       id="rect24"
       style="fill:#1c1c1c" />
  </g>
  <path
     d="m 351.61062,124.62147 c 22.12299,0 40.05692,17.93393 40.05692,40.05692 0,17.78794 -11.59693,32.85379 -27.63839,38.08343 0.007,-0.0134 0.0134,-0.0364 0.0134,-0.0364 0,0 -2.70605,-1.26136 -2.64821,-3.52768 0.0668,-2.4871 0,-8.29624 0,-10.42371 0,-3.6603 -2.31705,-6.25688 -2.31705,-6.25688 0,0 18.16891,0.20555 18.16891,-19.18102 0,-7.48175 -3.90954,-11.36905 -3.90954,-11.36905 0,0 2.05358,-7.98824 -0.71213,-11.36993 -3.09507,-0.33736 -8.64784,2.96332 -11.01742,4.50417 0,0 -3.75557,-1.54085 -9.99732,-1.54085 -6.24977,0 -10.00534,1.54085 -10.00534,1.54085 -2.36156,-1.54085 -7.91435,-4.84153 -11.0094,-4.50417 -2.76571,3.38882 -0.71213,11.36993 -0.71213,11.36993 0,0 -3.90956,3.89442 -3.90956,11.36905 0,19.38664 18.16181,19.18102 18.16181,19.18102 0,0 -1.82659,2.06871 -2.22984,5.10502 -1.26135,0.43352 -3.13155,0.9685 -4.63592,0.9685 -3.94605,0 -6.94586,-3.83568 -8.03898,-5.61153 -1.08598,-1.7456 -3.30781,-3.21257 -5.37652,-3.21257 -1.3646,0 -2.03222,0.68275 -2.03222,1.45985 0,0.77712 1.91473,1.32722 3.17606,2.77283 2.66336,3.04433 2.61173,9.90207 12.0883,9.90207 1.03436,0 3.13245,-0.25637 4.71691,-0.46911 -0.007,2.16397 -0.0156,4.43742 0.0223,5.76553 0.0579,2.26632 -2.64821,3.52768 -2.64821,3.52768 0,0 0.007,0.0223 0.0134,0.0364 -16.04145,-5.22964 -27.63836,-20.29549 -27.63836,-38.08343 0,-22.12299 17.93391,-40.05692 40.05689,-40.05692 z"
     id="path28"
     inkscape:connector-curvature="0"
     style="fill:#ffffff;stroke-width:8.90153408" />
  <path
     d="m 473.65245,167.51085 c 0,4.0965 -0.73971,7.63662 -2.21915,10.62133 -1.47944,2.98378 -3.50811,5.28482 -6.08777,6.90313 -2.57967,1.61919 -5.52518,2.42832 -8.83833,2.42832 -3.31315,0 -6.25866,-0.80913 -8.83833,-2.42832 -2.57966,-1.61831 -4.60923,-3.91935 -6.08866,-6.90313 -1.47855,-2.98471 -2.21827,-6.52483 -2.21827,-10.62133 0,-4.09648 0.73972,-7.63752 2.21827,-10.6213 1.47943,-2.98381 3.509,-5.28574 6.08866,-6.90404 2.57967,-1.61829 5.52518,-2.42744 8.83833,-2.42744 3.31315,0 6.25866,0.80915 8.83833,2.42744 2.57966,1.6183 4.60833,3.92023 6.08777,6.90404 1.47944,2.98378 2.21915,6.52482 2.21915,10.6213 z m -4.55136,0 c 0,-3.36389 -0.56257,-6.20259 -1.68862,-8.51609 -1.1127,-2.31351 -2.62328,-4.06534 -4.53266,-5.25368 -1.89692,-1.18837 -4.02083,-1.78298 -6.37261,-1.78298 -2.35178,0 -4.48282,0.59461 -6.39131,1.78298 -1.89692,1.18834 -3.40839,2.94017 -4.53355,5.25368 -1.11268,2.3135 -1.66903,5.1522 -1.66903,8.51609 0,3.36299 0.55635,6.20171 1.66903,8.51611 1.12516,2.31351 2.63663,4.06442 4.53355,5.25368 1.90849,1.18835 4.03953,1.78208 6.39131,1.78208 2.35178,0 4.47569,-0.59373 6.37261,-1.78208 1.90938,-1.18926 3.41996,-2.94017 4.53266,-5.25368 1.12605,-2.3144 1.68862,-5.15312 1.68862,-8.51611 z m 16.32987,1.89602 v 17.52536 h -4.47659 v -29.13205 h 4.32437 v 4.55134 h 0.37921 c 0.68364,-1.47944 1.71977,-2.66778 3.11109,-3.56505 1.3904,-0.91064 3.18584,-1.3655 5.3863,-1.3655 1.97259,0 3.69859,0.40412 5.17803,1.21328 1.47944,0.79669 2.62951,2.01086 3.45203,3.64162 0.8216,1.61829 1.23195,3.66653 1.23195,6.14561 v 18.51075 h -4.47569 v -18.2081 c 0,-2.28857 -0.59461,-4.07068 -1.78297,-5.34803 -1.18835,-1.28985 -2.8191,-1.93432 -4.89317,-1.93432 -1.4287,0 -2.70608,0.30979 -3.83122,0.92933 -1.11269,0.61955 -1.99129,1.52305 -2.63663,2.71229 -0.64448,1.18837 -0.96671,2.62951 -0.96671,4.32347 z m 42.39445,17.52536 v -38.84274 h 13.12443 c 3.04699,0 5.53851,0.5501 7.47283,1.64946 1.94766,1.08776 3.3888,2.56096 4.32437,4.41961 0.93555,1.85862 1.40377,3.9318 1.40377,6.22039 0,2.28857 -0.46822,4.36888 -1.40377,6.23997 -0.9231,1.872 -2.3518,3.36388 -4.2861,4.47658 -1.93518,1.10023 -4.41337,1.64946 -7.43545,1.64946 h -9.40713 v -4.17215 h 9.25581 c 2.08651,0 3.76177,-0.36051 5.02581,-1.08064 1.26489,-0.72104 2.18176,-1.69486 2.75056,-2.92149 0.58127,-1.23909 0.87236,-2.63575 0.87236,-4.19173 0,-1.55511 -0.29109,-2.94551 -0.87236,-4.17215 -0.5688,-1.22664 -1.49188,-2.18712 -2.76926,-2.8832 -1.27738,-0.70768 -2.97134,-1.06196 -5.08279,-1.06196 h -8.26952 v 34.67059 z m 51.65472,-11.91114 v -17.22091 h 4.47569 v 29.13205 h -4.47569 v -4.93146 h -0.30356 c -0.68275,1.47943 -1.7447,2.73811 -3.18585,3.77426 -1.44206,1.02456 -3.26241,1.53639 -5.46286,1.53639 -1.82038,0 -3.43867,-0.39789 -4.8549,-1.19458 -1.41626,-0.80916 -2.52893,-2.02333 -3.33809,-3.64162 -0.80915,-1.63076 -1.21417,-3.68613 -1.21417,-6.16431 v -18.51073 h 4.47569 v 18.20719 c 0,2.12481 0.59463,3.81875 1.78298,5.08366 1.2017,1.26401 2.73098,1.89604 4.58963,1.89604 1.11269,0 2.24496,-0.28396 3.39505,-0.85366 1.16344,-0.5688 2.13725,-1.44116 2.92148,-2.61706 0.79669,-1.17588 1.1946,-2.67402 1.1946,-4.49526 z m 17.15057,-26.9316 v 38.84274 h -4.47658 v -38.84274 z m 12.67401,0 v 38.84274 h -4.47569 v -38.84274 z m 23.82674,38.84274 v -38.84274 h 13.12443 c 3.03452,0 5.52517,0.51806 7.47283,1.55509 1.94676,1.02368 3.38882,2.43368 4.32437,4.22912 0.93554,1.79544 1.40376,3.83745 1.40376,6.12604 0,2.28858 -0.46822,4.31814 -1.40376,6.08864 -0.93555,1.76964 -2.37137,3.16094 -4.30567,4.17216 -1.93432,0.99875 -4.40627,1.49903 -7.41588,1.49903 h -10.62131 v -4.24872 h 10.46998 c 2.07318,0 3.74221,-0.30354 5.00712,-0.91061 1.27648,-0.6071 2.19956,-1.46699 2.76928,-2.57967 0.58127,-1.12516 0.87234,-2.46574 0.87234,-4.02083 0,-1.55511 -0.29107,-2.91437 -0.87234,-4.0778 -0.58216,-1.16254 -1.5115,-2.06071 -2.78885,-2.69271 -1.27649,-0.64535 -2.96511,-0.96759 -5.0632,-0.96759 h -8.26952 v 34.67059 z m 18.28286,-17.44879 9.55935,17.44879 h -5.46197 l -9.40714,-17.44879 z m 27.17461,18.05587 c -2.80755,0 -5.22877,-0.61954 -7.26454,-1.85865 -2.02244,-1.25155 -3.58465,-2.99715 -4.68488,-5.23498 -1.08689,-2.25032 -1.63076,-4.86826 -1.63076,-7.85204 0,-2.98381 0.54387,-5.61421 1.63076,-7.89032 1.10023,-2.28859 2.63041,-4.07068 4.59051,-5.34805 1.97259,-1.28982 4.27363,-1.9343 6.90314,-1.9343 1.51773,0 3.01584,0.2528 4.49528,0.7584 1.47944,0.50562 2.82623,1.32722 4.03951,2.46574 1.21417,1.12514 2.18177,2.61704 2.9019,4.47569 0.72104,1.85863 1.08155,4.14722 1.08155,6.86574 v 1.89692 h -22.45591 v -3.86949 h 17.90365 c 0,-1.64322 -0.32847,-3.11019 -0.98628,-4.40004 -0.64448,-1.28982 -1.56755,-2.30727 -2.76839,-3.05322 -1.18924,-0.74595 -2.59211,-1.11893 -4.21131,-1.11893 -1.78209,0 -3.32473,0.44241 -4.62702,1.32722 -1.28982,0.87236 -2.28233,2.01086 -2.97844,3.41376 -0.69522,1.40376 -1.04326,2.90811 -1.04326,4.51396 v 2.57966 c 0,2.20046 0.38008,4.06534 1.1385,5.59551 0.77086,1.51682 1.83995,2.67402 3.20544,3.47071 1.36549,0.78333 2.95264,1.17588 4.76055,1.17588 1.17588,0 2.23783,-0.16466 3.18585,-0.49313 0.96137,-0.34184 1.7892,-0.84743 2.48531,-1.51771 0.69521,-0.68275 1.23198,-1.53018 1.61206,-2.5414 l 4.32437,1.21418 c -0.45576,1.46607 -1.22039,2.75589 -2.2957,3.86859 -1.07442,1.10023 -2.40162,1.96012 -3.98254,2.57966 -1.58091,0.6071 -3.35678,0.91064 -5.32935,0.91064 z m 38.74837,10.31776 v -15.40055 h -0.38008 c -0.32847,0.53055 -0.7958,1.20083 -1.40289,2.00997 -0.60708,0.79669 -1.47321,1.5115 -2.59837,2.1435 -1.12514,0.61955 -2.62417,0.92932 -4.49526,0.92932 -2.42745,0 -4.57093,-0.61331 -6.42958,-1.83995 -1.85865,-1.23908 -3.31315,-2.98378 -4.36264,-5.235 -1.04949,-2.26277 -1.57381,-4.93678 -1.57381,-8.02205 0,-3.06035 0.52432,-5.71568 1.57381,-7.96598 1.04949,-2.2512 2.51023,-3.98967 4.38132,-5.21631 1.87201,-1.22574 4.03419,-1.83905 6.48655,-1.83905 1.89692,0 3.39506,0.31601 4.49528,0.94801 1.1127,0.61955 1.96013,1.32723 2.5414,2.12392 0.5946,0.78422 1.05572,1.42867 1.38419,1.93519 h 0.5314 v -4.62791 h 4.32437 v 40.05689 z m -8.26953,-14.33859 c 1.79545,0 3.31226,-0.46822 4.55137,-1.40377 1.23997,-0.94801 2.18175,-2.25653 2.82623,-3.92559 0.64536,-1.68236 0.9676,-3.62292 0.9676,-5.82337 0,-2.17465 -0.316,-4.07778 -0.9489,-5.70856 -0.63201,-1.6441 -1.56756,-2.92058 -2.80666,-3.83122 -1.23909,-0.92308 -2.76926,-1.38419 -4.58964,-1.38419 -1.89691,0 -3.47693,0.48692 -4.74184,1.45987 -1.25155,0.96135 -2.19333,2.26989 -2.82623,3.92645 -0.61955,1.64323 -0.92932,3.48941 -0.92932,5.53765 0,2.07407 0.31601,3.95762 0.94889,5.65248 0.64447,1.6815 1.59248,3.02206 2.84493,4.02081 1.26404,0.98631 2.83248,1.47944 4.70357,1.47944 z m 39.2985,-8.49739 v -17.22091 h 4.47569 v 29.13205 h -4.47569 v -4.93146 h -0.30354 c -0.68277,1.47943 -1.74559,2.73811 -3.18674,3.77426 -1.44116,1.02456 -3.26243,1.53639 -5.46199,1.53639 -1.82125,0 -3.43954,-0.39789 -4.8558,-1.19458 -1.41623,-0.80916 -2.52892,-2.02333 -3.33806,-3.64162 -0.80915,-1.63076 -1.21327,-3.68613 -1.21327,-6.16431 v -18.51073 h 4.47568 v 18.20719 c 0,2.12481 0.59461,3.81875 1.78298,5.08366 1.20081,1.26401 2.73099,1.89604 4.58963,1.89604 1.1127,0 2.24407,-0.28396 3.39504,-0.85366 1.16343,-0.5688 2.13727,-1.44116 2.9206,-2.61706 0.79667,-1.17588 1.19547,-2.67402 1.19547,-4.49526 z m 24.8878,12.51822 c -2.80666,0 -5.22787,-0.61954 -7.26365,-1.85865 -2.02333,-1.25155 -3.58465,-2.99715 -4.6849,-5.23498 -1.08686,-2.25032 -1.63075,-4.86826 -1.63075,-7.85204 0,-2.98381 0.54389,-5.61421 1.63075,-7.89032 1.10025,-2.28859 2.63041,-4.07068 4.58964,-5.34805 1.97259,-1.28982 4.27452,-1.9343 6.90403,-1.9343 1.51771,0 3.01585,0.2528 4.49528,0.7584 1.47944,0.50562 2.82534,1.32722 4.03951,2.46574 1.21417,1.12514 2.18088,2.61704 2.9019,4.47569 0.72102,1.85863 1.08155,4.14722 1.08155,6.86574 v 1.89692 h -22.4568 v -3.86949 h 17.90455 c 0,-1.64322 -0.32847,-3.11019 -0.98629,-4.40004 -0.64447,-1.28982 -1.56755,-2.30727 -2.76928,-3.05322 -1.18834,-0.74595 -2.59211,-1.11893 -4.21042,-1.11893 -1.78297,0 -3.32562,0.44241 -4.62791,1.32722 -1.28982,0.87236 -2.28236,2.01086 -2.97755,3.41376 -0.69521,1.40376 -1.04328,2.90811 -1.04328,4.51396 v 2.57966 c 0,2.20046 0.37921,4.06534 1.13853,5.59551 0.77086,1.51682 1.83905,2.67402 3.20454,3.47071 1.36639,0.78333 2.95264,1.17588 4.76055,1.17588 1.17588,0 2.23873,-0.16466 3.18674,-0.49313 0.96137,-0.34184 1.78921,-0.84743 2.48442,-1.51771 0.69522,-0.68275 1.23287,-1.53018 1.61206,-2.5414 l 4.32437,1.21418 c -0.45486,1.46607 -1.22038,2.75589 -2.29481,3.86859 -1.07442,1.10023 -2.40251,1.96012 -3.98256,2.57966 -1.58091,0.6071 -3.35765,0.91064 -5.33022,0.91064 z m 39.50768,-23.2152 -4.02172,1.1385 c -0.2528,-0.67028 -0.62578,-1.32188 -1.11893,-1.95389 -0.47979,-0.64447 -1.1376,-1.17588 -1.97257,-1.59336 -0.83406,-0.41661 -1.90225,-0.6258 -3.20454,-0.6258 -1.783,0 -3.26865,0.41127 -4.45701,1.23288 -1.17678,0.80915 -1.76428,1.83994 -1.76428,3.09149 0,1.1127 0.40502,1.99129 1.21417,2.63664 0.80914,0.64447 2.07315,1.18213 3.79295,1.61208 l 4.32436,1.06193 c 2.60458,0.63201 4.54511,1.59962 5.82249,2.90191 1.27737,1.28984 1.91561,2.95264 1.91561,4.98843 0,1.66903 -0.48068,3.16094 -1.44116,4.47569 -0.94891,1.31476 -2.27613,2.35178 -3.98343,3.1102 -1.70643,0.75929 -3.69147,1.1385 -5.95513,1.1385 -2.97134,0 -5.43083,-0.64537 -7.37759,-1.9343 -1.94766,-1.28984 -3.18053,-3.17429 -3.69859,-5.65248 l 4.24869,-1.06196 c 0.40415,1.56758 1.16878,2.74346 2.29483,3.52768 1.13761,0.78422 2.62328,1.1759 4.45699,1.1759 2.08651,0 3.7422,-0.44242 4.96884,-1.32722 1.23909,-0.89817 1.85865,-1.97257 1.85865,-3.22504 0,-1.01119 -0.3534,-1.85862 -1.06196,-2.54137 -0.70768,-0.69521 -1.79544,-1.21328 -3.26241,-1.55511 l -4.8549,-1.1376 c -2.6678,-0.6329 -4.6279,-1.61208 -5.87947,-2.94018 -1.23909,-1.34058 -1.85863,-3.01584 -1.85863,-5.02581 0,-1.64412 0.4611,-3.09773 1.38417,-4.36264 0.93557,-1.26402 2.20669,-2.25653 3.81254,-2.97757 1.61829,-0.72102 3.45113,-1.08064 5.50027,-1.08064 2.88231,0 5.14597,0.63201 6.78919,1.89603 1.65657,1.26491 2.83247,2.93394 3.52857,5.00711 z m 19.93766,-6.52393 v 3.79294 h -15.09701 v -3.79294 z m -10.69697,-6.9797 h 4.47658 v 27.76655 c 0,1.26402 0.18343,2.21293 0.5501,2.84493 0.37921,0.61955 0.85901,1.03703 1.44117,1.25155 0.59461,0.20287 1.2204,0.30356 1.87732,0.30356 0.49316,0 0.89817,-0.025 1.21417,-0.0757 0.31601,-0.0632 0.56881,-0.11395 0.75842,-0.15215 l 0.91062,4.0217 c -0.30354,0.11305 -0.72726,0.22699 -1.27113,0.34094 -0.54299,0.12645 -1.23287,0.18968 -2.06694,0.18968 -1.26491,0 -2.50401,-0.27148 -3.71729,-0.81537 -1.2017,-0.54389 -2.20045,-1.37173 -2.99714,-2.48442 -0.78333,-1.1127 -1.17588,-2.51646 -1.17588,-4.21042 z m 49.14181,17.37312 v 4.17215 H 854.1503 v -4.17215 z m 34.72932,19.34571 c -2.62596,0 -4.93144,-0.62578 -6.91647,-1.87822 -1.97615,-1.25155 -3.51613,-3.00249 -4.6288,-5.25368 -1.10381,-2.25032 -1.6557,-4.88073 -1.6557,-7.88945 0,-3.03452 0.55189,-5.68362 1.6557,-7.94728 1.11267,-2.26277 2.65265,-4.02083 4.6288,-5.27238 1.98503,-1.25155 4.29051,-1.87733 6.91647,-1.87733 2.63485,0 4.93147,0.62578 6.90761,1.87733 1.98503,1.25155 3.525,3.00961 4.62878,5.27238 1.11269,2.26366 1.6646,4.91276 1.6646,7.94728 0,3.00872 -0.55191,5.63913 -1.6646,7.88945 -1.10378,2.25119 -2.64375,4.00213 -4.62878,5.25368 -1.97614,1.25244 -4.27276,1.87822 -6.90761,1.87822 z m 0,-4.02083 c 2.00284,0 3.64073,-0.51273 4.93147,-1.53639 1.29071,-1.02458 2.24317,-2.3705 2.86629,-4.03953 0.62309,-1.66903 0.92576,-3.47783 0.92576,-5.4246 0,-1.94765 -0.30267,-3.76177 -0.92576,-5.44329 -0.62312,-1.6815 -1.57558,-3.04076 -2.86629,-4.07778 -1.29074,-1.03702 -2.92863,-1.55511 -4.93147,-1.55511 -1.99395,0 -3.64072,0.51809 -4.93144,1.55511 -1.29071,1.03702 -2.2432,2.39628 -2.8574,4.07778 -0.62311,1.68152 -0.93465,3.49564 -0.93465,5.44329 0,1.94677 0.31154,3.75557 0.93465,5.4246 0.6142,1.66903 1.56669,3.01495 2.8574,4.03953 1.29072,1.02366 2.93749,1.53639 4.93144,1.53639 z m 20.03735,14.33859 v -40.05689 h 4.32616 v 4.62791 h 0.52519 c 0.32936,-0.50652 0.78333,-1.15097 1.37083,-1.93519 0.5875,-0.79669 1.44206,-1.50437 2.53695,-2.12392 1.11269,-0.632 2.61704,-0.94801 4.51307,-0.94801 2.45682,0 4.6199,0.61331 6.48923,1.83905 1.8693,1.22664 3.32917,2.96511 4.37955,5.21631 1.05038,2.2503 1.57557,4.90563 1.57557,7.96598 0,3.08527 -0.52519,5.75928 -1.57557,8.02205 -1.05038,2.25122 -2.50133,3.99592 -4.36177,5.235 -1.86041,1.22664 -3.99677,1.83995 -6.4269,1.83995 -1.86932,0 -3.37367,-0.30977 -4.49528,-0.92932 -1.13048,-0.632 -1.99393,-1.34681 -2.59924,-2.1435 -0.60531,-0.80914 -1.07708,-1.47942 -1.40644,-2.00997 h -0.37387 v 15.40055 z m 4.39736,-25.49132 c 0,2.20045 0.32047,4.14101 0.97029,5.82337 0.6409,1.66906 1.58446,2.97758 2.82178,3.92559 1.24621,0.93555 2.75947,1.40377 4.55757,1.40377 1.86933,0 3.4271,-0.49313 4.68222,-1.47944 1.26402,-0.99875 2.21648,-2.33931 2.84848,-4.02081 0.64093,-1.69486 0.96138,-3.57841 0.96138,-5.65248 0,-2.04824 -0.31156,-3.89442 -0.94357,-5.53765 -0.62312,-1.65656 -1.56666,-2.9651 -2.8307,-3.92645 -1.24621,-0.97295 -2.82178,-1.45987 -4.71781,-1.45987 -1.82479,0 -3.35586,0.46111 -4.59318,1.38419 -1.23732,0.91064 -2.17197,2.18712 -2.80398,3.83122 -0.63201,1.63078 -0.95248,3.53391 -0.95248,5.70856 z m 40.35956,15.17356 c -2.80398,0 -5.2252,-0.61954 -7.26365,-1.85865 -2.02065,-1.25155 -3.57842,-2.99715 -4.6822,-5.23498 -1.08599,-2.25032 -1.62899,-4.86826 -1.62899,-7.85204 0,-2.98381 0.543,-5.61421 1.62899,-7.89032 1.10378,-2.28859 2.62596,-4.07068 4.59319,-5.34805 1.96725,-1.28982 4.27273,-1.9343 6.89869,-1.9343 1.52216,0 3.01761,0.2528 4.49528,0.7584 1.47765,0.50562 2.83068,1.32722 4.0413,2.46574 1.2106,1.12514 2.18086,2.61704 2.9019,4.47569 0.72102,1.85863 1.07708,4.14722 1.07708,6.86574 v 1.89692 h -22.44967 v -3.86949 h 17.90099 c 0,-1.64322 -0.32936,-3.11019 -0.98807,-4.40004 -0.64092,-1.28982 -1.56668,-2.30727 -2.76838,-3.05322 -1.1839,-0.74595 -2.59035,-1.11893 -4.21043,-1.11893 -1.78031,0 -3.32028,0.44241 -4.6288,1.32722 -1.29071,0.87236 -2.27878,2.01086 -2.9731,3.41376 -0.69432,1.40376 -1.04149,2.90811 -1.04149,4.51396 v 2.57966 c 0,2.20046 0.37387,4.06534 1.1305,5.59551 0.77444,1.51682 1.8426,2.67402 3.20454,3.47071 1.37084,0.78333 2.95533,1.17588 4.76232,1.17588 1.175,0 2.24319,-0.16466 3.18676,-0.49313 0.96137,-0.34184 1.78921,-0.84743 2.48353,-1.51771 0.69432,-0.68275 1.23731,-1.53018 1.61118,-2.5414 l 4.32614,1.21418 c -0.45397,1.46607 -1.21951,2.75589 -2.2966,3.86859 -1.06819,1.10023 -2.39451,1.96012 -3.97898,2.57966 -1.58447,0.6071 -3.35589,0.91064 -5.33203,0.91064 z m 23.34873,-18.13244 v 17.52536 h -4.47748 v -29.13205 h 4.32616 v 4.55134 h 0.38276 c 0.67651,-1.47944 1.71801,-2.66778 3.10664,-3.56505 1.38864,-0.91064 3.18676,-1.3655 5.38546,-1.3655 1.9761,0 3.703,0.40412 5.1807,1.21328 1.4776,0.79669 2.6259,2.01086 3.4538,3.64162 0.8189,1.61829 1.2284,3.66653 1.2284,6.14561 v 18.51075 h -4.4775 v -18.2081 c 0,-2.28857 -0.5875,-4.07068 -1.7803,-5.34803 -1.1839,-1.28985 -2.8218,-1.93432 -4.8959,-1.93432 -1.4242,0 -2.70602,0.30979 -3.82762,0.92933 -1.11268,0.61955 -1.99393,1.52305 -2.63485,2.71229 -0.64982,1.18837 -0.97027,2.62951 -0.97027,4.32347 z m 38.97984,18.13244 c -2.804,0 -5.2252,-0.61954 -7.2637,-1.85865 -2.0206,-1.25155 -3.5873,-2.99715 -4.6822,-5.23498 -1.086,-2.25032 -1.629,-4.86826 -1.629,-7.85204 0,-2.98381 0.543,-5.61421 1.629,-7.89032 1.0949,-2.28859 2.626,-4.07068 4.5932,-5.34805 1.9673,-1.28982 4.2728,-1.9343 6.8987,-1.9343 1.5222,0 3.0176,0.2528 4.4953,0.7584 1.4776,0.50562 2.8307,1.32722 4.0413,2.46574 1.2106,1.12514 2.1809,2.61704 2.9019,4.47569 0.721,1.85863 1.0771,4.14722 1.0771,6.86574 v 1.89692 h -22.4497 v -3.86949 h 17.901 c 0,-1.64322 -0.3294,-3.11019 -0.9881,-4.40004 -0.6409,-1.28982 -1.5667,-2.30727 -2.7684,-3.05322 -1.1839,-0.74595 -2.5903,-1.11893 -4.2104,-1.11893 -1.7803,0 -3.3203,0.44241 -4.6288,1.32722 -1.2907,0.87236 -2.2788,2.01086 -2.9731,3.41376 -0.6943,1.40376 -1.0415,2.90811 -1.0415,4.51396 v 2.57966 c 0,2.20046 0.3739,4.06534 1.1305,5.59551 0.7745,1.51682 1.8426,2.67402 3.2046,3.47071 1.3708,0.78333 2.9553,1.17588 4.7623,1.17588 1.175,0 2.2432,-0.16466 3.1867,-0.49313 0.9614,-0.34184 1.7892,-0.84743 2.4836,-1.51771 0.6943,-0.68275 1.2373,-1.53018 1.6112,-2.5414 l 4.3261,1.21418 c -0.454,1.46607 -1.2195,2.75589 -2.2966,3.86859 -1.0682,1.10023 -2.3945,1.96012 -3.979,2.57966 -1.5845,0.6071 -3.3559,0.91064 -5.332,0.91064 z m 29.8735,0 c -2.4301,0 -4.5665,-0.61331 -6.4269,-1.83995 -1.8604,-1.23908 -3.3114,-2.98378 -4.3617,-5.235 -1.0504,-2.26277 -1.5756,-4.93678 -1.5756,-8.02205 0,-3.06035 0.5252,-5.71568 1.5756,-7.96598 1.0503,-2.2512 2.5102,-3.98967 4.3795,-5.21631 1.8694,-1.22574 4.0324,-1.83905 6.4893,-1.83905 1.896,0 3.3914,0.31601 4.4952,0.94801 1.1127,0.61955 1.9584,1.32723 2.537,2.12392 0.5964,0.78422 1.0593,1.42867 1.3886,1.93519 h 0.3739 v -14.3386 h 4.4774 v 38.84274 h -4.3261 v -4.47571 h -0.5252 c -0.3293,0.53055 -0.8011,1.20083 -1.4064,2.00997 -0.6053,0.79669 -1.4777,1.5115 -2.5993,2.1435 -1.1216,0.61955 -2.6259,0.92932 -4.4953,0.92932 z m 0.6053,-4.02083 c 1.7981,0 3.3114,-0.46822 4.5576,-1.40377 1.2373,-0.94801 2.1809,-2.25653 2.8218,-3.92559 0.6498,-1.68236 0.9703,-3.62292 0.9703,-5.82337 0,-2.17465 -0.3205,-4.07778 -0.9525,-5.70856 -0.632,-1.6441 -1.5667,-2.92058 -2.804,-3.83122 -1.2373,-0.92308 -2.7683,-1.38419 -4.5932,-1.38419 -1.896,0 -3.4716,0.48692 -4.7356,1.45987 -1.2551,0.96135 -2.1987,2.26989 -2.8307,3.92645 -0.6231,1.64323 -0.9257,3.48941 -0.9257,5.53765 0,2.07407 0.3115,3.95762 0.9435,5.65248 0.6498,1.6815 1.5934,3.02206 2.8485,4.02081 1.2641,0.98631 2.8307,1.47944 4.7,1.47944 z"
     id="path30"
     inkscape:connector-curvature="0"
     style="fill:#a7a7a7;stroke-width:8.90153408" />
  <path
     d="m 351.61062,694.31969 c 22.12299,0 40.05692,17.93392 40.05692,40.05691 0,17.78794 -11.59693,32.85379 -27.63839,38.08343 0.007,-0.0134 0.0134,-0.0364 0.0134,-0.0364 0,0 -2.70605,-1.26135 -2.64821,-3.52767 0.0668,-2.48711 0,-8.29625 0,-10.42372 0,-3.66029 -2.31705,-6.25687 -2.31705,-6.25687 0,0 18.16891,0.20554 18.16891,-19.18103 0,-7.48175 -3.90954,-11.36904 -3.90954,-11.36904 0,0 2.05358,-7.98824 -0.71213,-11.36994 -3.09507,-0.33736 -8.64784,2.96332 -11.01742,4.50418 0,0 -3.75557,-1.54086 -9.99732,-1.54086 -6.24977,0 -10.00534,1.54086 -10.00534,1.54086 -2.36156,-1.54086 -7.91435,-4.84154 -11.0094,-4.50418 -2.76571,3.38882 -0.71213,11.36994 -0.71213,11.36994 0,0 -3.90956,3.89442 -3.90956,11.36904 0,19.38664 18.16181,19.18103 18.16181,19.18103 0,0 -1.82659,2.0687 -2.22984,5.10501 -1.26135,0.43353 -3.13155,0.9685 -4.63592,0.9685 -3.94605,0 -6.94586,-3.83568 -8.03898,-5.61153 -1.08598,-1.74559 -3.30781,-3.21256 -5.37652,-3.21256 -1.3646,0 -2.03222,0.68274 -2.03222,1.45984 0,0.77712 1.91473,1.32722 3.17606,2.77283 2.66336,3.04434 2.61173,9.90208 12.0883,9.90208 1.03436,0 3.13245,-0.25638 4.71691,-0.46912 -0.007,2.16397 -0.0156,4.43742 0.0223,5.76554 0.0579,2.26632 -2.64821,3.52767 -2.64821,3.52767 0,0 0.007,0.0223 0.0134,0.0364 -16.04145,-5.22964 -27.63836,-20.29549 -27.63836,-38.08343 0,-22.12299 17.93391,-40.05691 40.05689,-40.05691 z"
     id="path32"
     inkscape:connector-curvature="0"
     style="fill:#ffffff;stroke-width:8.90153408" />
  <path
     d="m 473.65245,737.20906 c 0,4.09651 -0.73971,7.63663 -2.21915,10.62133 -1.47944,2.98378 -3.50811,5.28482 -6.08777,6.90314 -2.57967,1.61918 -5.52518,2.42832 -8.83833,2.42832 -3.31315,0 -6.25866,-0.80914 -8.83833,-2.42832 -2.57966,-1.61832 -4.60923,-3.91936 -6.08866,-6.90314 -1.47855,-2.9847 -2.21827,-6.52482 -2.21827,-10.62133 0,-4.09648 0.73972,-7.63751 2.21827,-10.6213 1.47943,-2.98381 3.509,-5.28574 6.08866,-6.90403 2.57967,-1.61829 5.52518,-2.42745 8.83833,-2.42745 3.31315,0 6.25866,0.80916 8.83833,2.42745 2.57966,1.61829 4.60833,3.92022 6.08777,6.90403 1.47944,2.98379 2.21915,6.52482 2.21915,10.6213 z m -4.55136,0 c 0,-3.36388 -0.56257,-6.20258 -1.68862,-8.51609 -1.1127,-2.3135 -2.62328,-4.06533 -4.53266,-5.25368 -1.89692,-1.18836 -4.02083,-1.78297 -6.37261,-1.78297 -2.35178,0 -4.48282,0.59461 -6.39131,1.78297 -1.89692,1.18835 -3.40839,2.94018 -4.53355,5.25368 -1.11268,2.31351 -1.66903,5.15221 -1.66903,8.51609 0,3.363 0.55635,6.20172 1.66903,8.51612 1.12516,2.3135 2.63663,4.06442 4.53355,5.25368 1.90849,1.18834 4.03953,1.78208 6.39131,1.78208 2.35178,0 4.47569,-0.59374 6.37261,-1.78208 1.90938,-1.18926 3.41996,-2.94018 4.53266,-5.25368 1.12605,-2.3144 1.68862,-5.15312 1.68862,-8.51612 z m 16.32987,1.89603 v 17.52536 h -4.47659 V 727.4984 h 4.32437 v 4.55133 h 0.37921 c 0.68364,-1.47943 1.71977,-2.66778 3.11109,-3.56505 1.3904,-0.91063 3.18584,-1.36549 5.3863,-1.36549 1.97259,0 3.69859,0.40412 5.17803,1.21327 1.47944,0.79669 2.62951,2.01087 3.45203,3.64162 0.8216,1.6183 1.23195,3.66654 1.23195,6.14562 v 18.51075 h -4.47569 v -18.20811 c 0,-2.28857 -0.59461,-4.07067 -1.78297,-5.34803 -1.18835,-1.28984 -2.8191,-1.93432 -4.89317,-1.93432 -1.4287,0 -2.70608,0.3098 -3.83122,0.92934 -1.11269,0.61954 -1.99129,1.52305 -2.63663,2.71228 -0.64448,1.18837 -0.96671,2.62951 -0.96671,4.32348 z m 42.39445,17.52536 V 717.7877 h 13.12443 c 3.04699,0 5.53851,0.55011 7.47283,1.64946 1.94766,1.08776 3.3888,2.56097 4.32437,4.41961 0.93555,1.85863 1.40377,3.9318 1.40377,6.2204 0,2.28857 -0.46822,4.36887 -1.40377,6.23996 -0.9231,1.87201 -2.3518,3.36389 -4.2861,4.47658 -1.93518,1.10023 -4.41337,1.64946 -7.43545,1.64946 h -9.40713 v -4.17215 h 9.25581 c 2.08651,0 3.76177,-0.36051 5.02581,-1.08063 1.26489,-0.72104 2.18176,-1.69486 2.75056,-2.9215 0.58127,-1.23908 0.87236,-2.63574 0.87236,-4.19172 0,-1.55511 -0.29109,-2.94552 -0.87236,-4.17216 -0.5688,-1.22663 -1.49188,-2.18711 -2.76926,-2.8832 -1.27738,-0.70768 -2.97134,-1.06195 -5.08279,-1.06195 h -8.26952 v 34.67059 z m 51.65472,-11.91115 v -17.2209 h 4.47569 v 29.13205 h -4.47569 v -4.93147 h -0.30356 c -0.68275,1.47944 -1.7447,2.73812 -3.18585,3.77427 -1.44206,1.02455 -3.26241,1.53638 -5.46286,1.53638 -1.82038,0 -3.43867,-0.39788 -4.8549,-1.19457 -1.41626,-0.80916 -2.52893,-2.02333 -3.33809,-3.64163 -0.80915,-1.63075 -1.21417,-3.68612 -1.21417,-6.16431 V 727.4984 h 4.47569 v 18.20718 c 0,2.12481 0.59463,3.81875 1.78298,5.08366 1.2017,1.26402 2.73098,1.89605 4.58963,1.89605 1.11269,0 2.24496,-0.28397 3.39505,-0.85366 1.16344,-0.56881 2.13725,-1.44117 2.92148,-2.61707 0.79669,-1.17588 1.1946,-2.67401 1.1946,-4.49526 z m 17.15057,-26.9316 v 38.84275 h -4.47658 V 717.7877 Z m 12.67401,0 v 38.84275 h -4.47569 V 717.7877 Z m 23.82674,38.84275 V 717.7877 h 13.12443 c 3.03452,0 5.52517,0.51807 7.47283,1.55509 1.94676,1.02369 3.38882,2.43368 4.32437,4.22912 0.93554,1.79545 1.40376,3.83745 1.40376,6.12605 0,2.28857 -0.46822,4.31813 -1.40376,6.08864 -0.93555,1.76964 -2.37137,3.16093 -4.30567,4.17215 -1.93432,0.99875 -4.40627,1.49903 -7.41588,1.49903 h -10.62131 v -4.24872 h 10.46998 c 2.07318,0 3.74221,-0.30353 5.00712,-0.91061 1.27648,-0.60709 2.19956,-1.46699 2.76928,-2.57966 0.58127,-1.12516 0.87234,-2.46575 0.87234,-4.02083 0,-1.55511 -0.29107,-2.91437 -0.87234,-4.07781 -0.58216,-1.16253 -1.5115,-2.0607 -2.78885,-2.69271 -1.27649,-0.64535 -2.96511,-0.96758 -5.0632,-0.96758 h -8.26952 v 34.67059 z m 18.28286,-17.4488 9.55935,17.4488 h -5.46197 l -9.40714,-17.4488 z m 27.17461,18.05587 c -2.80755,0 -5.22877,-0.61954 -7.26454,-1.85865 -2.02244,-1.25155 -3.58465,-2.99714 -4.68488,-5.23497 -1.08689,-2.25033 -1.63076,-4.86826 -1.63076,-7.85205 0,-2.98381 0.54387,-5.61421 1.63076,-7.89032 1.10023,-2.28859 2.63041,-4.07067 4.59051,-5.34805 1.97259,-1.28982 4.27363,-1.93429 6.90314,-1.93429 1.51773,0 3.01584,0.25279 4.49528,0.75839 1.47944,0.50562 2.82623,1.32722 4.03951,2.46575 1.21417,1.12513 2.18177,2.61704 2.9019,4.47569 0.72104,1.85862 1.08155,4.14721 1.08155,6.86573 v 1.89692 h -22.45591 v -3.86948 h 17.90365 c 0,-1.64323 -0.32847,-3.1102 -0.98628,-4.40004 -0.64448,-1.28983 -1.56755,-2.30728 -2.76839,-3.05323 -1.18924,-0.74595 -2.59211,-1.11893 -4.21131,-1.11893 -1.78209,0 -3.32473,0.44242 -4.62702,1.32723 -1.28982,0.87236 -2.28233,2.01086 -2.97844,3.41375 -0.69522,1.40377 -1.04326,2.90811 -1.04326,4.51396 v 2.57967 c 0,2.20045 0.38008,4.06533 1.1385,5.59551 0.77086,1.51681 1.83995,2.67401 3.20544,3.4707 1.36549,0.78333 2.95264,1.17588 4.76055,1.17588 1.17588,0 2.23783,-0.16466 3.18585,-0.49313 0.96137,-0.34183 1.7892,-0.84743 2.48531,-1.51771 0.69521,-0.68275 1.23198,-1.53017 1.61206,-2.54139 l 4.32437,1.21417 c -0.45576,1.46608 -1.22039,2.7559 -2.2957,3.86859 -1.07442,1.10023 -2.40162,1.96013 -3.98254,2.57967 -1.58091,0.60709 -3.35678,0.91063 -5.32935,0.91063 z m 38.74837,10.31777 v -15.40056 h -0.38008 c -0.32847,0.53056 -0.7958,1.20084 -1.40289,2.00997 -0.60708,0.79669 -1.47321,1.5115 -2.59837,2.14351 -1.12514,0.61954 -2.62417,0.92931 -4.49526,0.92931 -2.42745,0 -4.57093,-0.61331 -6.42958,-1.83995 -1.85865,-1.23908 -3.31315,-2.98378 -4.36264,-5.235 -1.04949,-2.26276 -1.57381,-4.93678 -1.57381,-8.02204 0,-3.06035 0.52432,-5.71569 1.57381,-7.96599 1.04949,-2.25119 2.51023,-3.98966 4.38132,-5.2163 1.87201,-1.22575 4.03419,-1.83905 6.48655,-1.83905 1.89692,0 3.39506,0.316 4.49528,0.94801 1.1127,0.61954 1.96013,1.32722 2.5414,2.12391 0.5946,0.78422 1.05572,1.42868 1.38419,1.93519 h 0.5314 v -4.6279 h 4.32437 v 40.05689 z m -8.26953,-14.3386 c 1.79545,0 3.31226,-0.46822 4.55137,-1.40376 1.23997,-0.94802 2.18175,-2.25654 2.82623,-3.92559 0.64536,-1.68237 0.9676,-3.62292 0.9676,-5.82338 0,-2.17465 -0.316,-4.07778 -0.9489,-5.70856 -0.63201,-1.6441 -1.56756,-2.92058 -2.80666,-3.83121 -1.23909,-0.92308 -2.76926,-1.3842 -4.58964,-1.3842 -1.89691,0 -3.47693,0.48692 -4.74184,1.45987 -1.25155,0.96135 -2.19333,2.26989 -2.82623,3.92646 -0.61955,1.64322 -0.92932,3.4894 -0.92932,5.53764 0,2.07407 0.31601,3.95763 0.94889,5.65249 0.64447,1.68149 1.59248,3.02205 2.84493,4.0208 1.26404,0.98631 2.83248,1.47944 4.70357,1.47944 z m 39.2985,-8.49739 v -17.2209 h 4.47569 v 29.13205 h -4.47569 v -4.93147 h -0.30354 c -0.68277,1.47944 -1.74559,2.73812 -3.18674,3.77427 -1.44116,1.02455 -3.26243,1.53638 -5.46199,1.53638 -1.82125,0 -3.43954,-0.39788 -4.8558,-1.19457 -1.41623,-0.80916 -2.52892,-2.02333 -3.33806,-3.64163 -0.80915,-1.63075 -1.21327,-3.68612 -1.21327,-6.16431 V 727.4984 h 4.47568 v 18.20718 c 0,2.12481 0.59461,3.81875 1.78298,5.08366 1.20081,1.26402 2.73099,1.89605 4.58963,1.89605 1.1127,0 2.24407,-0.28397 3.39504,-0.85366 1.16343,-0.56881 2.13727,-1.44117 2.9206,-2.61707 0.79667,-1.17588 1.19547,-2.67401 1.19547,-4.49526 z m 24.8878,12.51822 c -2.80666,0 -5.22787,-0.61954 -7.26365,-1.85865 -2.02333,-1.25155 -3.58465,-2.99714 -4.6849,-5.23497 -1.08686,-2.25033 -1.63075,-4.86826 -1.63075,-7.85205 0,-2.98381 0.54389,-5.61421 1.63075,-7.89032 1.10025,-2.28859 2.63041,-4.07067 4.58964,-5.34805 1.97259,-1.28982 4.27452,-1.93429 6.90403,-1.93429 1.51771,0 3.01585,0.25279 4.49528,0.75839 1.47944,0.50562 2.82534,1.32722 4.03951,2.46575 1.21417,1.12513 2.18088,2.61704 2.9019,4.47569 0.72102,1.85862 1.08155,4.14721 1.08155,6.86573 v 1.89692 h -22.4568 v -3.86948 h 17.90455 c 0,-1.64323 -0.32847,-3.1102 -0.98629,-4.40004 -0.64447,-1.28983 -1.56755,-2.30728 -2.76928,-3.05323 -1.18834,-0.74595 -2.59211,-1.11893 -4.21042,-1.11893 -1.78297,0 -3.32562,0.44242 -4.62791,1.32723 -1.28982,0.87236 -2.28236,2.01086 -2.97755,3.41375 -0.69521,1.40377 -1.04328,2.90811 -1.04328,4.51396 v 2.57967 c 0,2.20045 0.37921,4.06533 1.13853,5.59551 0.77086,1.51681 1.83905,2.67401 3.20454,3.4707 1.36639,0.78333 2.95264,1.17588 4.76055,1.17588 1.17588,0 2.23873,-0.16466 3.18674,-0.49313 0.96137,-0.34183 1.78921,-0.84743 2.48442,-1.51771 0.69522,-0.68275 1.23287,-1.53017 1.61206,-2.54139 l 4.32437,1.21417 c -0.45486,1.46608 -1.22038,2.7559 -2.29481,3.86859 -1.07442,1.10023 -2.40251,1.96013 -3.98256,2.57967 -1.58091,0.60709 -3.35765,0.91063 -5.33022,0.91063 z m 39.50768,-23.2152 -4.02172,1.1385 c -0.2528,-0.67028 -0.62578,-1.32188 -1.11893,-1.95389 -0.47979,-0.64447 -1.1376,-1.17587 -1.97257,-1.59335 -0.83406,-0.41661 -1.90225,-0.6258 -3.20454,-0.6258 -1.783,0 -3.26865,0.41127 -4.45701,1.23287 -1.17678,0.80916 -1.76428,1.83995 -1.76428,3.0915 0,1.11269 0.40502,1.99129 1.21417,2.63663 0.80914,0.64448 2.07315,1.18214 3.79295,1.61208 l 4.32436,1.06194 c 2.60458,0.63201 4.54511,1.59961 5.82249,2.9019 1.27737,1.28984 1.91561,2.95264 1.91561,4.98844 0,1.66903 -0.48068,3.16093 -1.44116,4.47569 -0.94891,1.31475 -2.27613,2.35177 -3.98343,3.11019 -1.70643,0.75929 -3.69147,1.1385 -5.95513,1.1385 -2.97134,0 -5.43083,-0.64537 -7.37759,-1.9343 -1.94766,-1.28984 -3.18053,-3.17429 -3.69859,-5.65248 l 4.24869,-1.06195 c 0.40415,1.56757 1.16878,2.74345 2.29483,3.52767 1.13761,0.78423 2.62328,1.1759 4.45699,1.1759 2.08651,0 3.7422,-0.44241 4.96884,-1.32722 1.23909,-0.89817 1.85865,-1.97257 1.85865,-3.22503 0,-1.0112 -0.3534,-1.85863 -1.06196,-2.54137 -0.70768,-0.69522 -1.79544,-1.21328 -3.26241,-1.55511 l -4.8549,-1.13761 c -2.6678,-0.6329 -4.6279,-1.61208 -5.87947,-2.94017 -1.23909,-1.34058 -1.85863,-3.01585 -1.85863,-5.02582 0,-1.64412 0.4611,-3.09773 1.38417,-4.36264 0.93557,-1.26401 2.20669,-2.25653 3.81254,-2.97757 1.61829,-0.72102 3.45113,-1.08063 5.50027,-1.08063 2.88231,0 5.14597,0.632 6.78919,1.89602 1.65657,1.26491 2.83247,2.93394 3.52857,5.00711 z m 19.93766,-6.52392 v 3.79294 h -15.09701 v -3.79294 z m -10.69697,-6.97971 h 4.47658 v 27.76656 c 0,1.26401 0.18343,2.21292 0.5501,2.84493 0.37921,0.61954 0.85901,1.03702 1.44117,1.25155 0.59461,0.20286 1.2204,0.30356 1.87732,0.30356 0.49316,0 0.89817,-0.025 1.21417,-0.0757 0.31601,-0.0632 0.56881,-0.11394 0.75842,-0.15215 l 0.91062,4.0217 c -0.30354,0.11305 -0.72726,0.227 -1.27113,0.34094 -0.54299,0.12646 -1.23287,0.18968 -2.06694,0.18968 -1.26491,0 -2.50401,-0.27147 -3.71729,-0.81537 -1.2017,-0.54389 -2.20045,-1.37172 -2.99714,-2.48442 -0.78333,-1.11269 -1.17588,-2.51646 -1.17588,-4.21042 z m 49.14181,17.37312 v 4.17215 H 854.1503 v -4.17215 z m 22.89919,18.73864 V 727.4984 h 4.32615 v 4.55133 h 0.37385 c 0.60531,-1.55508 1.58449,-2.76213 2.93752,-3.62202 1.35302,-0.87237 2.98202,-1.30852 4.87804,-1.30852 1.92272,0 3.525,0.43615 4.79793,1.30852 1.29071,0.85989 2.29659,2.06694 3.01761,3.62202 h 0.30266 c 0.74772,-1.50434 1.86042,-2.69894 3.35587,-3.58464 1.49546,-0.89728 3.28467,-1.3459 5.36763,-1.3459 2.60815,0 4.73561,0.81536 6.3913,2.44612 1.6557,1.61832 2.48353,4.14101 2.48353,7.5681 v 19.49704 h -4.47748 v -19.49704 c 0,-2.14973 -0.5875,-3.68612 -1.76251,-4.60922 -1.17498,-0.92308 -2.55473,-1.3842 -4.14811,-1.3842 -2.04734,0 -3.64072,0.61957 -4.76231,1.85865 -1.1305,1.22664 -1.69128,2.78173 -1.69128,4.66531 v 18.9665 h -4.54871 v -19.95281 c 0,-1.65656 -0.54297,-2.99002 -1.61116,-4.00213 -1.07708,-1.02366 -2.46572,-1.53552 -4.15703,-1.53552 -1.16609,0 -2.25209,0.3098 -3.25796,0.92934 -1.00586,0.61954 -1.807,1.47944 -2.43011,2.57877 -0.60531,1.08776 -0.90796,2.34554 -0.90796,3.77424 v 18.20811 z m 58.63442,0.60707 c -2.8129,0 -5.23411,-0.61954 -7.26367,-1.85865 -2.02954,-1.25155 -3.58731,-2.99714 -4.69111,-5.23497 -1.08598,-2.25033 -1.62898,-4.86826 -1.62898,-7.85205 0,-2.98381 0.543,-5.61421 1.62898,-7.89032 1.1038,-2.28859 2.63487,-4.07067 4.5932,-5.34805 1.97615,-1.28982 4.27274,-1.93429 6.90759,-1.93429 1.51326,0 3.00872,0.25279 4.49528,0.75839 1.47765,0.50562 2.82179,1.32722 4.03238,2.46575 1.21951,1.12513 2.18089,2.61704 2.90191,4.47569 0.72101,1.85862 1.08599,4.14721 1.08599,6.86573 v 1.89692 h -22.45859 v -3.86948 h 17.90991 c 0,-1.64323 -0.32936,-3.1102 -0.98807,-4.40004 -0.64981,-1.28983 -1.56668,-2.30728 -2.76839,-3.05323 -1.19281,-0.74595 -2.59923,-1.11893 -4.21042,-1.11893 -1.78921,0 -3.32917,0.44242 -4.6288,1.32723 -1.29071,0.87236 -2.2877,2.01086 -2.98202,3.41375 -0.69432,1.40377 -1.04147,2.90811 -1.04147,4.51396 v 2.57967 c 0,2.20045 0.38276,4.06533 1.13939,5.59551 0.77444,1.51681 1.84261,2.67401 3.20455,3.4707 1.36194,0.78333 2.95532,1.17588 4.76234,1.17588 1.17498,0 2.23428,-0.16466 3.18674,-0.49313 0.96137,-0.34183 1.7892,-0.84743 2.48352,-1.51771 0.69432,-0.68275 1.22841,-1.53017 1.61119,-2.54139 l 4.32613,1.21417 c -0.45396,1.46608 -1.21951,2.7559 -2.29659,3.86859 -1.07708,1.10023 -2.40341,1.96013 -3.97898,2.57967 -1.58447,0.60709 -3.36478,0.91063 -5.33201,0.91063 z m 18.87123,-0.60707 V 727.4984 h 4.32616 v 4.40001 h 0.30264 c 0.52519,-1.44116 1.48656,-2.61081 2.8841,-3.50897 1.38864,-0.89728 2.95532,-1.34682 4.70002,-1.34682 0.32934,0 0.73883,0.007 1.2284,0.0201 0.4985,0.0134 0.87237,0.031 1.12159,0.057 v 4.55134 c -0.15125,-0.0373 -0.49847,-0.0943 -1.04147,-0.17092 -0.53408,-0.088 -1.09489,-0.13271 -1.69128,-0.13271 -1.41536,0 -2.67938,0.29733 -3.79207,0.89194 -1.09489,0.58127 -1.96723,1.39042 -2.61705,2.42745 -0.632,1.02457 -0.94356,2.19335 -0.94356,3.50897 v 18.4351 z m 30.74592,11.53193 c -2.1631,0 -4.02351,-0.27862 -5.58128,-0.83496 -1.54885,-0.54389 -2.84848,-1.26404 -3.88997,-2.16218 -1.02366,-0.88483 -1.83371,-1.83374 -2.439,-2.84493 l 3.56061,-2.50312 c 0.40946,0.53053 0.91684,1.13762 1.53996,1.82037 0.6142,0.69519 1.46876,1.29606 2.53692,1.80165 1.086,0.51896 2.51026,0.77802 4.27276,0.77802 2.35,0 4.2905,-0.56883 5.8216,-1.70733 1.5311,-1.13761 2.2966,-2.9206 2.2966,-5.34805 v -5.91773 h -0.3828 c -0.3293,0.53053 -0.8011,1.18835 -1.4064,1.97257 -0.5875,0.77089 -1.451,1.45987 -2.5726,2.06694 -1.1127,0.59463 -2.6259,0.89193 -4.5219,0.89193 -2.35006,0 -4.45971,-0.55633 -6.32904,-1.66903 -1.86041,-1.11269 -3.33806,-2.73188 -4.42406,-4.85579 -1.06819,-2.12391 -1.61116,-4.70358 -1.61116,-7.7381 0,-2.98378 0.52519,-5.58215 1.57555,-7.79507 1.05038,-2.22539 2.51025,-3.94516 4.37957,-5.15933 1.86931,-1.22575 4.03238,-1.83905 6.48924,-1.83905 1.896,0 3.4004,0.316 4.513,0.94801 1.1217,0.61954 1.9851,1.32722 2.5815,2.12391 0.6053,0.78422 1.0771,1.42868 1.3976,1.93519 h 0.4628 v -4.6279 h 4.3173 v 29.96701 c 0,2.5031 -0.5608,4.53889 -1.7002,6.10645 -1.1305,1.58091 -2.6438,2.73811 -4.5576,3.4707 -1.896,0.74685 -4.0057,1.11982 -6.329,1.11982 z m -0.1512,-16.00765 c 1.7892,0 3.3113,-0.41124 4.5486,-1.23284 1.2373,-0.8225 2.1809,-2.00463 2.8218,-3.54728 0.6498,-1.54262 0.9703,-3.3888 0.9703,-5.53764 0,-2.09898 -0.3116,-3.95139 -0.9436,-5.55722 -0.632,-1.60585 -1.5755,-2.86452 -2.8129,-3.77426 -1.2373,-0.91061 -2.7683,-1.3655 -4.5842,-1.3655 -1.8961,0 -3.48054,0.4798 -4.74456,1.44117 -1.25513,0.96048 -2.19869,2.2503 -2.8307,3.86951 -0.6142,1.61829 -0.92576,3.41373 -0.92576,5.3863 0,2.02243 0.32047,3.81164 0.95248,5.36762 0.6409,1.54175 1.59336,2.75592 2.83959,3.64073 1.26402,0.87326 2.83065,1.30941 4.70895,1.30941 z m 33.1493,5.08279 c -2.804,0 -5.2252,-0.61954 -7.2637,-1.85865 -2.0206,-1.25155 -3.5873,-2.99714 -4.6822,-5.23497 -1.086,-2.25033 -1.6379,-4.86826 -1.6379,-7.85205 0,-2.98381 0.5519,-5.61421 1.6379,-7.89032 1.0949,-2.28859 2.626,-4.07067 4.5843,-5.34805 1.9762,-1.28982 4.2727,-1.93429 6.9076,-1.93429 1.5133,0 3.0176,0.25279 4.4953,0.75839 1.4776,0.50562 2.8218,1.32722 4.0413,2.46575 1.2106,1.12513 2.1808,2.61704 2.9019,4.47569 0.721,1.85862 1.0771,4.14721 1.0771,6.86573 v 1.89692 h -22.4586 v -3.86948 h 17.9099 c 0,-1.64323 -0.3294,-3.1102 -0.9881,-4.40004 -0.6409,-1.28983 -1.5667,-2.30728 -2.7684,-3.05323 -1.1928,-0.74595 -2.5903,-1.11893 -4.2104,-1.11893 -1.7803,0 -3.3292,0.44242 -4.6288,1.32723 -1.2907,0.87236 -2.2788,2.01086 -2.9731,3.41375 -0.7032,1.40377 -1.0504,2.90811 -1.0504,4.51396 v 2.57967 c 0,2.20045 0.3828,4.06533 1.1394,5.59551 0.7744,1.51681 1.8426,2.67401 3.2045,3.4707 1.3709,0.78333 2.9554,1.17588 4.7624,1.17588 1.175,0 2.2343,-0.16466 3.1867,-0.49313 0.9614,-0.34183 1.7892,-0.84743 2.4835,-1.51771 0.6944,-0.68275 1.2374,-1.53017 1.6112,-2.54139 l 4.3262,1.21417 c -0.454,1.46608 -1.2195,2.7559 -2.2966,3.86859 -1.0771,1.10023 -2.4034,1.96013 -3.979,2.57967 -1.5845,0.60709 -3.3559,0.91063 -5.332,0.91063 z m 29.8735,0 c -2.4301,0 -4.5754,-0.61331 -6.4269,-1.83995 -1.8604,-1.23908 -3.3203,-2.98378 -4.3617,-5.235 -1.0504,-2.26276 -1.5756,-4.93678 -1.5756,-8.02204 0,-3.06035 0.5252,-5.71569 1.5756,-7.96599 1.0414,-2.25119 2.5013,-3.98966 4.3795,-5.2163 1.8693,-1.22575 4.0324,-1.83905 6.4803,-1.83905 1.8961,0 3.4004,0.316 4.4953,0.94801 1.1127,0.61954 1.9673,1.32722 2.5458,2.12391 0.5965,0.78422 1.0504,1.42868 1.3798,1.93519 h 0.3828 v -14.3386 h 4.4774 v 38.84275 h -4.3261 v -4.47572 h -0.5341 c -0.3294,0.53056 -0.7923,1.20084 -1.3975,2.00997 -0.6054,0.79669 -1.4777,1.5115 -2.5993,2.14351 -1.1305,0.61954 -2.626,0.92931 -4.4953,0.92931 z m 0.6053,-4.02083 c 1.7981,0 3.3114,-0.46822 4.5487,-1.40376 1.2462,-0.94802 2.1809,-2.25654 2.8307,-3.92559 0.6409,-1.68237 0.9703,-3.62292 0.9703,-5.82338 0,-2.17465 -0.3205,-4.07778 -0.9525,-5.70856 -0.632,-1.6441 -1.5667,-2.92058 -2.804,-3.83121 -1.2462,-0.92308 -2.7684,-1.3842 -4.5932,-1.3842 -1.896,0 -3.4805,0.48692 -4.7445,1.45987 -1.2462,0.96135 -2.1898,2.26989 -2.8218,3.92646 -0.6231,1.64322 -0.9257,3.4894 -0.9257,5.53764 0,2.07407 0.3115,3.95763 0.9435,5.65249 0.6409,1.68149 1.5934,3.02205 2.8485,4.0208 1.264,0.98631 2.8307,1.47944 4.7,1.47944 z"
     id="path34"
     inkscape:connector-curvature="0"
     style="fill:#a7a7a7;stroke-width:8.90153408" />
  <path
     d="m 351.86342,432.9386 h 5.61421 l 13.20008,32.24224 h 0.45577 l 13.20008,-32.24224 h 5.61421 v 38.84274 h -4.40004 v -29.51126 h -0.37921 l -12.13901,29.51126 h -4.24783 l -12.13901,-29.51126 h -0.37921 v 29.51126 h -4.40004 z m 58.74392,39.44981 c -2.63041,0 -4.9377,-0.62577 -6.92273,-1.87821 -1.97259,-1.25158 -3.51521,-3.00249 -4.62791,-5.25371 -1.10023,-2.2503 -1.65035,-4.8807 -1.65035,-7.88942 0,-3.03452 0.55012,-5.68363 1.65035,-7.94729 1.1127,-2.26276 2.65532,-4.02083 4.62791,-5.27238 1.98503,-1.25155 4.29232,-1.87732 6.92273,-1.87732 2.62951,0 4.93055,0.62577 6.90314,1.87732 1.98503,1.25155 3.52767,3.00962 4.6279,5.27238 1.1127,2.26366 1.66903,4.91277 1.66903,7.94729 0,3.00872 -0.55633,5.63912 -1.66903,7.88942 -1.10023,2.25122 -2.64287,4.00213 -4.6279,5.25371 -1.97259,1.25244 -4.27363,1.87821 -6.90314,1.87821 z m 0,-4.02083 c 1.9975,0 3.6416,-0.51272 4.93055,-1.53641 1.28984,-1.02455 2.24496,-2.37047 2.86452,-4.0395 0.61954,-1.66903 0.92931,-3.47784 0.92931,-5.4246 0,-1.94766 -0.30977,-3.76177 -0.92931,-5.44329 -0.61956,-1.6815 -1.57468,-3.04076 -2.86452,-4.07778 -1.28895,-1.03703 -2.93305,-1.55511 -4.93055,-1.55511 -1.9984,0 -3.64162,0.51808 -4.93147,1.55511 -1.28982,1.03702 -2.24406,2.39628 -2.8636,4.07778 -0.61957,1.68152 -0.93023,3.49563 -0.93023,5.44329 0,1.94676 0.31066,3.75557 0.93023,5.4246 0.61954,1.66903 1.57378,3.01495 2.8636,4.0395 1.28985,1.02369 2.93307,1.53641 4.93147,1.53641 z m 42.81102,-25.71829 -10.77262,29.13205 h -4.55136 l -10.77352,-29.13205 h 4.85577 l 8.04166,23.2143 h 0.30354 l 8.04163,-23.2143 z m 17.07939,29.73912 c -2.80666,0 -5.22787,-0.61954 -7.26367,-1.85864 -2.0233,-1.25155 -3.58465,-2.99715 -4.68487,-5.23498 -1.08776,-2.25032 -1.63076,-4.86826 -1.63076,-7.85205 0,-2.9838 0.543,-5.61421 1.63076,-7.89031 1.10022,-2.2886 2.62951,-4.07068 4.58963,-5.34805 1.97259,-1.28983 4.27363,-1.9343 6.90403,-1.9343 1.51682,0 3.01585,0.2528 4.49528,0.7584 1.47944,0.50562 2.82534,1.32722 4.03951,2.46574 1.21417,1.12514 2.18089,2.61704 2.90191,4.47569 0.72101,1.85862 1.08065,4.14722 1.08065,6.86574 v 1.89691 h -22.4559 v -3.86948 h 17.90454 c 0,-1.64323 -0.32936,-3.1102 -0.98628,-4.40004 -0.64537,-1.28982 -1.56847,-2.30727 -2.76928,-3.05323 -1.18835,-0.74595 -2.59214,-1.11892 -4.21043,-1.11892 -1.78297,0 -3.32562,0.44241 -4.6279,1.32722 -1.28982,0.87236 -2.28236,2.01086 -2.97758,3.41375 -0.69519,1.40377 -1.04325,2.90812 -1.04325,4.51397 v 2.57966 c 0,2.20046 0.37921,4.06534 1.13762,5.59549 0.77176,1.51684 1.83995,2.67404 3.20544,3.47073 1.3655,0.78333 2.95265,1.17587 4.76055,1.17587 1.17588,0 2.23784,-0.16466 3.18674,-0.49313 0.96048,-0.34183 1.78921,-0.84743 2.48442,-1.51771 0.69522,-0.68274 1.23285,-1.53017 1.61206,-2.54139 l 4.32437,1.21417 c -0.45486,1.46608 -1.2204,2.7559 -2.29481,3.86859 -1.07442,1.10025 -2.40253,1.96013 -3.98345,2.57967 -1.58002,0.6071 -3.35676,0.91063 -5.32933,0.91063 z m 46.56214,-29.73912 v 3.79294 h -15.09701 v -3.79294 z m -10.69697,-6.97971 h 4.47658 v 27.76656 c 0,1.26402 0.18343,2.21292 0.5501,2.84493 0.37921,0.61954 0.8599,1.03702 1.44117,1.25155 0.59463,0.20287 1.2204,0.30356 1.87732,0.30356 0.49316,0 0.89817,-0.025 1.21418,-0.0757 0.316,-0.0632 0.56882,-0.11394 0.75841,-0.15215 l 0.91064,4.02171 c -0.30356,0.11305 -0.72728,0.22699 -1.27025,0.34093 -0.54389,0.12646 -1.23287,0.18969 -2.06784,0.18969 -1.26401,0 -2.50312,-0.2715 -3.71727,-0.81539 -1.20083,-0.5439 -2.20047,-1.37173 -2.99714,-2.48443 -0.78335,-1.11269 -1.1759,-2.51646 -1.1759,-4.21042 z m 28.95224,36.71883 c -2.62951,0 -4.9377,-0.62577 -6.92273,-1.87821 -1.97257,-1.25158 -3.51521,-3.00249 -4.62791,-5.25371 -1.09933,-2.2503 -1.64945,-4.8807 -1.64945,-7.88942 0,-3.03452 0.55012,-5.68363 1.64945,-7.94729 1.1127,-2.26276 2.65534,-4.02083 4.62791,-5.27238 1.98503,-1.25155 4.29322,-1.87732 6.92273,-1.87732 2.6304,0 4.93144,0.62577 6.90403,1.87732 1.98504,1.25155 3.52768,3.00962 4.62791,5.27238 1.11269,2.26366 1.66903,4.91277 1.66903,7.94729 0,3.00872 -0.55634,5.63912 -1.66903,7.88942 -1.10023,2.25122 -2.64287,4.00213 -4.62791,5.25371 -1.97259,1.25244 -4.27363,1.87821 -6.90403,1.87821 z m 0,-4.02083 c 1.9984,0 3.64162,-0.51272 4.93144,-1.53641 1.28985,-1.02455 2.24409,-2.37047 2.86363,-4.0395 0.61955,-1.66903 0.92932,-3.47784 0.92932,-5.4246 0,-1.94766 -0.30977,-3.76177 -0.92932,-5.44329 -0.61954,-1.6815 -1.57378,-3.04076 -2.86363,-4.07778 -1.28982,-1.03703 -2.93304,-1.55511 -4.93144,-1.55511 -1.9975,0 -3.64162,0.51808 -4.93057,1.55511 -1.28982,1.03702 -2.24496,2.39628 -2.8645,4.07778 -0.61956,1.68152 -0.92934,3.49563 -0.92934,5.44329 0,1.94676 0.30978,3.75557 0.92934,5.4246 0.61954,1.66903 1.57468,3.01495 2.8645,4.0395 1.28895,1.02369 2.93307,1.53641 4.93057,1.53641 z m 66.91818,-23.29084 h -4.70358 c -0.27862,-1.35305 -0.76465,-2.5414 -1.46074,-3.56597 -0.68274,-1.02367 -1.51683,-1.88356 -2.50312,-2.57877 -0.97381,-0.70856 -2.05447,-1.23909 -3.24371,-1.59339 -1.18836,-0.35427 -2.42745,-0.53142 -3.71729,-0.53142 -2.35178,0 -4.48192,0.59463 -6.39129,1.783 -1.89691,1.18834 -3.40752,2.94017 -4.53266,5.25368 -1.11269,2.3135 -1.66905,5.1522 -1.66905,8.51609 0,3.36299 0.55636,6.20171 1.66905,8.51611 1.12514,2.31351 2.63575,4.06442 4.53266,5.25368 1.90937,1.18834 4.03951,1.78208 6.39129,1.78208 1.28984,0 2.52893,-0.17628 3.71729,-0.53053 1.18924,-0.35428 2.2699,-0.87857 3.24371,-1.57468 0.98629,-0.70768 1.82038,-1.57379 2.50312,-2.59837 0.69609,-1.03612 1.18212,-2.22536 1.46074,-3.56505 h 4.70358 c -0.3543,1.98503 -0.99875,3.7609 -1.93432,5.32935 -0.93555,1.56755 -2.09898,2.9019 -3.49028,4.00213 -1.39042,1.08687 -2.95174,1.9156 -4.684,2.48442 -1.71977,0.5688 -3.55972,0.85364 -5.51984,0.85364 -3.31226,0 -6.25866,-0.80913 -8.83833,-2.42832 -2.57877,-1.61831 -4.60831,-3.91935 -6.08775,-6.90314 -1.47943,-2.9847 -2.21915,-6.52484 -2.21915,-10.62132 0,-4.09648 0.73972,-7.63752 2.21915,-10.62131 1.47944,-2.9838 3.50898,-5.28574 6.08775,-6.90403 2.57967,-1.61829 5.52607,-2.42745 8.83833,-2.42745 1.96012,0 3.80007,0.28486 5.51984,0.85366 1.73226,0.56881 3.29358,1.40377 4.684,2.5031 1.3913,1.08779 2.55473,2.41499 3.49028,3.98346 0.93557,1.55508 1.58002,3.33182 1.93432,5.32935 z m 18.82852,27.31167 c -2.62951,0 -4.93679,-0.62577 -6.92274,-1.87821 -1.97167,-1.25158 -3.51431,-3.00249 -4.62701,-5.25371 -1.10023,-2.2503 -1.65033,-4.8807 -1.65033,-7.88942 0,-3.03452 0.5501,-5.68363 1.65033,-7.94729 1.1127,-2.26276 2.65534,-4.02083 4.62701,-5.27238 1.98595,-1.25155 4.29323,-1.87732 6.92274,-1.87732 2.6304,0 4.93144,0.62577 6.90403,1.87732 1.98503,1.25155 3.52768,3.00962 4.6279,5.27238 1.1127,2.26366 1.66903,4.91277 1.66903,7.94729 0,3.00872 -0.55633,5.63912 -1.66903,7.88942 -1.10022,2.25122 -2.64287,4.00213 -4.6279,5.25371 -1.97259,1.25244 -4.27363,1.87821 -6.90403,1.87821 z m 0,-4.02083 c 1.99839,0 3.64162,-0.51272 4.93144,-1.53641 1.28984,-1.02455 2.24409,-2.37047 2.86452,-4.0395 0.61954,-1.66903 0.92931,-3.47784 0.92931,-5.4246 0,-1.94766 -0.30977,-3.76177 -0.92931,-5.44329 -0.62043,-1.6815 -1.57468,-3.04076 -2.86452,-4.07778 -1.28982,-1.03703 -2.93305,-1.55511 -4.93144,-1.55511 -1.99751,0 -3.64073,0.51808 -4.93055,1.55511 -1.28985,1.03702 -2.24499,2.39628 -2.86453,4.07778 -0.61954,1.68152 -0.92931,3.49563 -0.92931,5.44329 0,1.94676 0.30977,3.75557 0.92931,5.4246 0.61954,1.66903 1.57468,3.01495 2.86453,4.0395 1.28982,1.02369 2.93304,1.53641 4.93055,1.53641 z m 24.50948,-35.42898 v 38.84274 h -4.47569 V 432.9386 Z m 26.55773,26.93159 v -17.2209 h 4.47569 v 29.13205 h -4.47569 v -4.93147 h -0.30354 c -0.68275,1.47944 -1.7447,2.73812 -3.18587,3.77427 -1.44203,1.02456 -3.26241,1.53639 -5.46286,1.53639 -1.82036,0 -3.43867,-0.39789 -4.8549,-1.19458 -1.41624,-0.80916 -2.52893,-2.02331 -3.33806,-3.64162 -0.80916,-1.63076 -1.21418,-3.68613 -1.21418,-6.16432 v -18.51072 h 4.47569 v 18.20719 c 0,2.1248 0.59461,3.81874 1.78298,5.08365 1.2017,1.26404 2.73098,1.89605 4.59052,1.89605 1.1127,0 2.24407,-0.28396 3.39414,-0.85366 1.16344,-0.56883 2.13728,-1.44117 2.9215,-2.61707 0.79669,-1.17587 1.19458,-2.67401 1.19458,-4.49526 z m 12.67401,11.91115 v -29.13205 h 4.32437 v 4.55134 h 0.37921 c 0.60707,-1.55509 1.58712,-2.76213 2.94017,-3.62203 1.35303,-0.87236 2.97755,-1.30852 4.87447,-1.30852 1.92185,0 3.52144,0.43616 4.79793,1.30852 1.28984,0.8599 2.2957,2.06694 3.01584,3.62203 h 0.30354 c 0.74595,-1.50435 1.86488,-2.69895 3.35676,-3.58465 1.4928,-0.89728 3.28201,-1.3459 5.36765,-1.3459 2.60457,0 4.73561,0.81537 6.39218,2.44613 1.65569,1.61831 2.48442,4.141 2.48442,7.5681 v 19.49703 h -4.47659 v -19.49703 c 0,-2.14974 -0.5875,-3.68613 -1.7634,-4.60923 -1.17588,-0.92308 -2.56096,-1.38419 -4.15345,-1.38419 -2.04824,0 -3.63539,0.61956 -4.76053,1.85864 -1.12605,1.22664 -1.68862,2.78173 -1.68862,4.66531 v 18.9665 h -4.55136 v -19.95281 c 0,-1.65656 -0.53766,-2.99002 -1.61206,-4.00213 -1.07532,-1.02366 -2.45951,-1.53551 -4.15435,-1.53551 -1.16254,0 -2.25032,0.30979 -3.26154,0.92933 -0.99875,0.61954 -1.80878,1.47944 -2.42832,2.57877 -0.6062,1.08776 -0.90974,2.34555 -0.90974,3.77424 v 18.20811 z m 50.8963,-17.52536 v 17.52536 h -4.47569 v -29.13205 h 4.32436 v 4.55134 h 0.37921 c 0.68275,-1.47944 1.71977,-2.66778 3.1102,-3.56506 1.3913,-0.91063 3.18674,-1.36549 5.38632,-1.36549 1.97257,0 3.69857,0.40412 5.17801,1.21328 1.47944,0.79669 2.6304,2.01086 3.452,3.64162 0.82163,1.61829 1.23288,3.66653 1.23288,6.14561 v 18.51075 h -4.47659 v -18.20811 c 0,-2.28857 -0.59373,-4.07067 -1.78208,-5.34802 -1.18926,-1.28985 -2.81999,-1.93432 -4.89406,-1.93432 -1.4287,0 -2.70518,0.30979 -3.83122,0.92933 -1.11269,0.61954 -1.99126,1.52305 -2.63574,2.71229 -0.64537,1.18836 -0.9676,2.62951 -0.9676,4.32347 z m 40.27054,-9.17924 v -3.41376 c 0,-1.03702 0.18343,-2.13725 0.5501,-3.30068 0.37921,-1.1759 0.92311,-2.30727 1.63076,-3.39506 0.72102,-1.09933 1.58715,-2.05447 2.59837,-2.8636 l 2.42745,1.97256 c -0.7958,1.13763 -1.49191,2.32687 -2.08564,3.56597 -0.58217,1.22662 -0.87234,2.54137 -0.87234,3.94516 v 3.48941 z m 17.46747,-12.13814 v 38.84274 h -4.70357 V 432.9386 Z m 13.30068,21.31738 v 17.52536 h -4.47658 v -29.13205 h 4.32437 v 4.55134 h 0.38008 c 0.68274,-1.47944 1.71889,-2.66778 3.11019,-3.56506 1.39043,-0.91063 3.18587,-1.36549 5.38633,-1.36549 1.97259,0 3.69859,0.40412 5.17803,1.21328 1.47943,0.79669 2.62951,2.01086 3.452,3.64162 0.82163,1.61829 1.23287,3.66653 1.23287,6.14561 v 18.51075 h -4.47658 v -18.20811 c 0,-2.28857 -0.59463,-4.07067 -1.78297,-5.34802 -1.18837,-1.28985 -2.81913,-1.93432 -4.89317,-1.93432 -1.4287,0 -2.70608,0.30979 -3.83124,0.92933 -1.11267,0.61954 -1.99127,1.52305 -2.63662,2.71229 -0.64447,1.18836 -0.96671,2.62951 -0.96671,4.32347 z m 42.39444,17.52536 V 432.9386 h 13.12442 c 3.03455,0 5.52608,0.51806 7.47284,1.55508 1.94766,1.02369 3.38882,2.43369 4.32437,4.22913 0.93556,1.79544 1.40378,3.83745 1.40378,6.12604 0,2.28857 -0.46822,4.31813 -1.40378,6.08864 -0.93555,1.76964 -2.37048,3.16094 -4.30567,4.17215 -1.9343,0.99875 -4.40625,1.49903 -7.41586,1.49903 h -10.62044 v -4.24871 h 10.46911 c 2.07405,0 3.7431,-0.30354 5.00712,-0.91061 1.27735,-0.6071 2.20045,-1.467 2.76926,-2.57967 0.58127,-1.12516 0.87234,-2.46574 0.87234,-4.02083 0,-1.55511 -0.29107,-2.91437 -0.87234,-4.0778 -0.58217,-1.16254 -1.51148,-2.06071 -2.78796,-2.69272 -1.27738,-0.64534 -2.96511,-0.96758 -5.06409,-0.96758 h -8.26952 v 34.67059 z m 18.28375,-17.44879 9.55848,17.44879 h -5.46197 l -9.40716,-17.44879 z m 27.17017,18.05586 c -2.80398,0 -5.2252,-0.61954 -7.2601,-1.85864 -2.02333,-1.25155 -3.58465,-2.99715 -4.68488,-5.23498 -1.08776,-2.25032 -1.63165,-4.86826 -1.63165,-7.85205 0,-2.9838 0.54389,-5.61421 1.63165,-7.89031 1.10023,-2.2886 2.62951,-4.07068 4.58964,-5.34805 1.97256,-1.28983 4.27539,-1.9343 6.90135,-1.9343 1.52217,0 3.01763,0.2528 4.49528,0.7584 1.47765,0.50562 2.83068,1.32722 4.0413,2.46574 1.21059,1.12514 2.18088,2.61704 2.9019,4.47569 0.72102,1.85862 1.08597,4.14722 1.08597,6.86574 v 1.89691 h -22.46035 v -3.86948 h 17.90278 c 0,-1.64323 -0.32936,-3.1102 -0.98807,-4.40004 -0.64092,-1.28982 -1.56668,-2.30727 -2.76839,-3.05323 -1.1839,-0.74595 -2.59034,-1.11892 -4.21042,-1.11892 -1.7803,0 -3.32028,0.44241 -4.62523,1.32722 -1.28984,0.87236 -2.28236,2.01086 -2.97757,3.41375 -0.69611,1.40377 -1.04326,2.90812 -1.04326,4.51397 v 2.57966 c 0,2.20046 0.37921,4.06534 1.13761,5.59549 0.77178,1.51684 1.83995,2.67404 3.20546,3.47073 1.36549,0.78333 2.94996,1.17587 4.75698,1.17587 1.18389,0 2.24317,-0.16466 3.18673,-0.49313 0.96138,-0.34183 1.78921,-0.84743 2.48353,-1.51771 0.70324,-0.68274 1.23732,-1.53017 1.62008,-2.54139 l 4.31724,1.21417 c -0.45396,1.46608 -1.21949,2.7559 -2.28768,3.86859 -1.07708,1.10025 -2.40341,1.96013 -3.98789,2.57967 -1.57558,0.6071 -3.35587,0.91063 -5.33201,0.91063 z m 41.8105,-29.73912 -10.77086,29.13205 h -4.55759 l -10.77086,-29.13205 h 4.86024 l 8.03808,23.2143 h 0.30267 l 8.04698,-23.2143 z m 5.91063,29.13205 v -29.13205 h 4.47745 v 29.13205 z m 2.26989,-33.98784 c -0.87236,0 -1.62008,-0.29733 -2.25209,-0.89104 -0.62311,-0.59463 -0.93467,-1.30855 -0.93467,-2.14351 0,-0.83407 0.31156,-1.54885 0.93467,-2.14348 0.63201,-0.59374 1.37973,-0.89104 2.25209,-0.89104 0.87234,0 1.62008,0.2973 2.24317,0.89104 0.63201,0.59463 0.94357,1.30941 0.94357,2.14348 0,0.83496 -0.31156,1.54888 -0.94357,2.14351 -0.62309,0.59371 -1.37083,0.89104 -2.24317,0.89104 z m 22.6188,34.59491 c -2.81289,0 -5.23411,-0.61954 -7.26367,-1.85864 -2.02954,-1.25155 -3.58731,-2.99715 -4.69111,-5.23498 -1.08597,-2.25032 -1.62897,-4.86826 -1.62897,-7.85205 0,-2.9838 0.543,-5.61421 1.62897,-7.89031 1.1038,-2.2886 2.63487,-4.07068 4.59321,-5.34805 1.97614,-1.28983 4.27273,-1.9343 6.90758,-1.9343 1.51327,0 3.00872,0.2528 4.48637,0.7584 1.48657,0.50562 2.8307,1.32722 4.0413,2.46574 1.21951,1.12514 2.18088,2.61704 2.9019,4.47569 0.72102,1.85862 1.086,4.14722 1.086,6.86574 v 1.89691 h -22.45859 v -3.86948 h 17.90099 c 0,-1.64323 -0.32936,-3.1102 -0.97916,-4.40004 -0.64981,-1.28982 -1.57557,-2.30727 -2.76838,-3.05323 -1.19282,-0.74595 -2.59924,-1.11892 -4.21043,-1.11892 -1.7892,0 -3.32917,0.44241 -4.6288,1.32722 -1.29071,0.87236 -2.2877,2.01086 -2.98202,3.41375 -0.69432,1.40377 -1.04146,2.90812 -1.04146,4.51397 v 2.57966 c 0,2.20046 0.38276,4.06534 1.13939,5.59549 0.76552,1.51684 1.83371,2.67404 3.20454,3.47073 1.36195,0.78333 2.95533,1.17587 4.76234,1.17587 1.17498,0 2.23428,-0.16466 3.18674,-0.49313 0.96137,-0.34183 1.78921,-0.84743 2.48353,-1.51771 0.69432,-0.68274 1.2284,-1.53017 1.61119,-2.54139 l 4.32613,1.21417 c -0.46288,1.46608 -1.21951,2.7559 -2.2966,3.86859 -1.07708,1.10025 -2.4034,1.96013 -3.98789,2.57967 -1.57556,0.6071 -3.35587,0.91063 -5.3231,0.91063 z m 25.46728,-0.60707 -8.87483,-29.13205 h 4.7 l 6.3023,22.30456 h 0.30264 l 6.22216,-22.30456 h 4.7801 l 6.1421,22.22802 h 0.3027 l 6.2934,-22.22802 h 4.7089 l -8.8749,29.13205 h -4.4062 l -6.3646,-22.38026 h -0.4629 l -6.37351,22.38026 z m 43.03897,-38.84274 v 3.41373 c 0,1.03702 -0.1958,2.14348 -0.5697,3.31938 -0.365,1.16254 -0.9169,2.29481 -1.629,3.39417 -0.7121,1.08776 -1.5756,2.03577 -2.5815,2.84582 l -2.4301,-1.97259 c 0.8012,-1.1385 1.4866,-2.32063 2.0652,-3.54727 0.5964,-1.23908 0.8901,-2.56007 0.8901,-3.96384 v -3.4894 z"
     id="path36"
     inkscape:connector-curvature="0"
     style="fill:#a7a7a7;stroke-width:8.90153408" />
  <path
     d="m 405.27265,1002.6332 h 5.61419 l 13.20009,32.2503 h 0.45575 l 13.20008,-32.2503 h 5.61421 v 38.8464 h -4.40004 v -29.5086 h -0.37921 l -12.13901,29.5086 h -4.24782 l -12.13902,-29.5086 h -0.37921 v 29.5086 h -4.40001 z m 58.74389,39.4516 c -2.6304,0 -4.9377,-0.623 -6.92273,-1.8782 -1.97257,-1.2462 -3.51521,-2.9998 -4.62791,-5.2519 -1.10022,-2.2521 -1.65035,-4.878 -1.65035,-7.8867 0,-3.0355 0.55013,-5.6881 1.65035,-7.9491 1.1127,-2.261 2.65534,-4.0235 4.62791,-5.2697 1.98503,-1.2551 4.29233,-1.8782 6.92273,-1.8782 2.62951,0 4.93055,0.6231 6.90314,1.8782 1.98503,1.2462 3.52768,3.0087 4.6279,5.2697 1.1127,2.261 1.66904,4.9136 1.66904,7.9491 0,3.0087 -0.55634,5.6346 -1.66904,7.8867 -1.10022,2.2521 -2.64287,4.0057 -4.6279,5.2519 -1.97259,1.2552 -4.27363,1.8782 -6.90314,1.8782 z m 0,-4.0234 c 1.9975,0 3.64162,-0.5074 4.93055,-1.5311 1.28984,-1.0237 2.24498,-2.3678 2.86452,-4.0413 0.61955,-1.6646 0.92932,-3.4805 0.92932,-5.421 0,-1.9495 -0.30977,-3.7654 -0.92932,-5.4478 -0.61954,-1.6824 -1.57468,-3.0354 -2.86452,-4.0769 -1.28893,-1.0326 -2.93305,-1.5577 -4.93055,-1.5577 -1.99839,0 -3.64162,0.5251 -4.93146,1.5577 -1.28982,1.0415 -2.24407,2.3945 -2.86361,4.0769 -0.61957,1.6824 -0.93023,3.4983 -0.93023,5.4478 0,1.9405 0.31066,3.7564 0.93023,5.421 0.61954,1.6735 1.57379,3.0176 2.86361,4.0413 1.28984,1.0237 2.93307,1.5311 4.93146,1.5311 z m 42.81105,-25.7166 -10.77265,29.1348 h -4.55136 l -10.77352,-29.1348 h 4.85579 l 8.04164,23.2152 h 0.30354 l 8.04166,-23.2152 z m 17.07936,29.74 c -2.80665,0 -5.22787,-0.6142 -7.26364,-1.8604 -2.02333,-1.2462 -3.58465,-2.9909 -4.68488,-5.2341 -1.08778,-2.2521 -1.63078,-4.8691 -1.63078,-7.8511 0,-2.982 0.543,-5.608 1.63078,-7.8868 1.10023,-2.2877 2.62951,-4.0769 4.58961,-5.3498 1.97259,-1.2907 4.27363,-1.9316 6.90403,-1.9316 1.51684,0 3.01585,0.2492 4.49529,0.7566 1.47943,0.5074 2.82533,1.3263 4.0395,2.4657 1.21418,1.1216 2.18089,2.6171 2.90191,4.4775 0.72104,1.8604 1.08065,4.1481 1.08065,6.8631 v 1.896 h -22.4559 v -3.8722 h 17.90454 c 0,-1.6378 -0.32936,-3.1066 -0.98628,-4.3973 -0.64537,-1.2908 -1.56845,-2.3055 -2.76928,-3.0533 -1.18835,-0.7477 -2.59211,-1.1215 -4.21043,-1.1215 -1.78297,0 -3.32559,0.445 -4.6279,1.3352 -1.28982,0.8723 -2.28234,2.0028 -2.97755,3.4093 -0.69522,1.4064 -1.04326,2.9108 -1.04326,4.5131 v 2.5814 c 0,2.1987 0.37919,4.068 1.13761,5.5902 0.77175,1.5221 1.83994,2.6793 3.20544,3.4716 1.36549,0.7833 2.95264,1.175 4.76054,1.175 1.17588,0 2.23784,-0.1602 3.18674,-0.4896 0.96048,-0.3383 1.78921,-0.8457 2.48442,-1.5133 0.69522,-0.6854 1.23288,-1.5311 1.61209,-2.5458 l 4.32434,1.2106 c -0.45486,1.4687 -1.22038,2.7595 -2.2948,3.8722 -1.07443,1.1037 -2.40252,1.9583 -3.98343,2.5814 -1.58002,0.6053 -3.35679,0.9079 -5.32936,0.9079 z m 46.56215,-29.74 v 3.7921 h -15.09702 v -3.7921 z m -10.69698,-6.9788 h 4.47658 v 27.7639 c 0,1.2729 0.18343,2.2165 0.55011,2.8485 0.37921,0.6231 0.85989,1.0415 1.44116,1.2551 0.59463,0.1957 1.22041,0.3027 1.87735,0.3027 0.49313,0 0.89814,-0.027 1.21415,-0.08 0.316,-0.062 0.56882,-0.1068 0.75842,-0.1513 l 0.91063,4.0235 c -0.30354,0.1157 -0.72725,0.2314 -1.27025,0.3383 -0.54389,0.1336 -1.23287,0.1959 -2.06783,0.1959 -1.26402,0 -2.5031,-0.2759 -3.71727,-0.8189 -1.20084,-0.543 -2.20046,-1.3709 -2.99715,-2.4836 -0.78335,-1.1127 -1.1759,-2.5191 -1.1759,-4.2104 z m 28.95224,36.7188 c -2.6295,0 -4.93767,-0.623 -6.92273,-1.8782 -1.97257,-1.2462 -3.51521,-2.9998 -4.6279,-5.2519 -1.09934,-2.2521 -1.64946,-4.878 -1.64946,-7.8867 0,-3.0355 0.55012,-5.6881 1.64946,-7.9491 1.11269,-2.261 2.65533,-4.0235 4.6279,-5.2697 1.98506,-1.2551 4.29323,-1.8782 6.92273,-1.8782 2.63041,0 4.93145,0.6231 6.90404,1.8782 1.98503,1.2462 3.52767,3.0087 4.6279,5.2697 1.1127,2.261 1.66903,4.9136 1.66903,7.9491 0,3.0087 -0.55633,5.6346 -1.66903,7.8867 -1.10023,2.2521 -2.64287,4.0057 -4.6279,5.2519 -1.97259,1.2552 -4.27363,1.8782 -6.90404,1.8782 z m 0,-4.0234 c 1.9984,0 3.64163,-0.5074 4.93145,-1.5311 1.28984,-1.0237 2.24409,-2.3678 2.86363,-4.0413 0.61954,-1.6646 0.92931,-3.4805 0.92931,-5.421 0,-1.9495 -0.30977,-3.7654 -0.92931,-5.4478 -0.61954,-1.6824 -1.57379,-3.0354 -2.86363,-4.0769 -1.28982,-1.0326 -2.93305,-1.5577 -4.93145,-1.5577 -1.9975,0 -3.64162,0.5251 -4.93057,1.5577 -1.28982,1.0415 -2.24496,2.3945 -2.8645,4.0769 -0.61954,1.6824 -0.92933,3.4983 -0.92933,5.4478 0,1.9405 0.30979,3.7564 0.92933,5.421 0.61954,1.6735 1.57468,3.0176 2.8645,4.0413 1.28895,1.0237 2.93307,1.5311 4.93057,1.5311 z m 66.91818,-23.2864 h -4.70358 c -0.27862,-1.3531 -0.76462,-2.5459 -1.46073,-3.5696 -0.68275,-1.0237 -1.51682,-1.8782 -2.50312,-2.5725 -0.97382,-0.7121 -2.05448,-1.2462 -3.24371,-1.5934 -1.18835,-0.356 -2.42745,-0.5341 -3.71728,-0.5341 -2.35179,0 -4.48192,0.5964 -6.3913,1.7803 -1.89692,1.1928 -3.40753,2.9464 -4.53266,5.2608 -1.1127,2.3055 -1.66906,5.1451 -1.66906,8.5099 0,3.3648 0.55636,6.2044 1.66906,8.5188 1.12513,2.3144 2.63574,4.068 4.53266,5.2519 1.90938,1.1928 4.03951,1.7803 6.3913,1.7803 1.28983,0 2.52893,-0.1781 3.71728,-0.5252 1.18923,-0.3561 2.26989,-0.8813 3.24371,-1.5756 0.9863,-0.7121 1.82037,-1.5755 2.50312,-2.5992 0.69611,-1.0415 1.18211,-2.2254 1.46073,-3.5695 h 4.70358 c -0.35427,1.985 -0.99875,3.7653 -1.93429,5.332 -0.93557,1.5666 -2.09901,2.9019 -3.4903,4.0057 -1.39043,1.086 -2.95175,1.9138 -4.68399,2.4835 -1.71979,0.5697 -3.55973,0.8545 -5.51984,0.8545 -3.31227,0 -6.25868,-0.81 -8.83835,-2.4301 -2.57877,-1.6201 -4.60831,-3.9167 -6.08774,-6.9076 -1.47944,-2.982 -2.21916,-6.5248 -2.21916,-10.6195 0,-4.0947 0.73972,-7.6375 2.21916,-10.6195 1.47943,-2.982 3.50897,-5.2875 6.08774,-6.9076 2.57967,-1.6112 5.52608,-2.4212 8.83835,-2.4212 1.96011,0 3.80005,0.2848 5.51984,0.8545 1.73224,0.5697 3.29356,1.3976 4.68399,2.5013 1.39129,1.086 2.55473,2.4124 3.4903,3.979 0.93554,1.5578 1.58002,3.3381 1.93429,5.3321 z m 18.82852,27.3098 c -2.62951,0 -4.93678,-0.623 -6.92271,-1.8782 -1.9717,-1.2462 -3.51434,-2.9998 -4.62703,-5.2519 -1.10023,-2.2521 -1.65034,-4.878 -1.65034,-7.8867 0,-3.0355 0.55011,-5.6881 1.65034,-7.9491 1.11269,-2.261 2.65533,-4.0235 4.62703,-5.2697 1.98593,-1.2551 4.2932,-1.8782 6.92271,-1.8782 2.6304,0 4.93146,0.6231 6.90403,1.8782 1.98504,1.2462 3.52768,3.0087 4.62791,5.2697 1.11269,2.261 1.66905,4.9136 1.66905,7.9491 0,3.0087 -0.55636,5.6346 -1.66905,7.8867 -1.10023,2.2521 -2.64287,4.0057 -4.62791,5.2519 -1.97257,1.2552 -4.27363,1.8782 -6.90403,1.8782 z m 0,-4.0234 c 1.99839,0 3.64162,-0.5074 4.93146,-1.5311 1.28982,-1.0237 2.24407,-2.3678 2.86451,-4.0413 0.61954,-1.6646 0.92933,-3.4805 0.92933,-5.421 0,-1.9495 -0.30979,-3.7654 -0.92933,-5.4478 -0.62044,-1.6824 -1.57469,-3.0354 -2.86451,-4.0769 -1.28984,-1.0326 -2.93307,-1.5577 -4.93146,-1.5577 -1.9975,0 -3.64073,0.5251 -4.93055,1.5577 -1.28984,1.0415 -2.24498,2.3945 -2.86452,4.0769 -0.61955,1.6824 -0.92932,3.4983 -0.92932,5.4478 0,1.9405 0.30977,3.7564 0.92932,5.421 0.61954,1.6735 1.57468,3.0176 2.86452,4.0413 1.28982,1.0237 2.93305,1.5311 4.93055,1.5311 z m 24.50948,-35.4282 v 38.8464 h -4.47568 v -38.8464 z m 26.55773,26.9361 v -17.2245 h 4.47569 v 29.1348 h -4.47569 v -4.9315 h -0.30354 c -0.68274,1.4776 -1.7447,2.7417 -3.18584,3.7743 -1.44206,1.0236 -3.26244,1.5399 -5.46289,1.5399 -1.82035,0 -3.43867,-0.4005 -4.8549,-1.2017 -1.41623,-0.81 -2.52893,-2.0206 -3.33806,-3.6407 -0.80916,-1.629 -1.21417,-3.6852 -1.21417,-6.1599 v -18.5152 h 4.47569 v 18.2126 c 0,2.1185 0.59463,3.8187 1.78297,5.0827 1.20171,1.2641 2.73099,1.8961 4.59053,1.8961 1.11269,0 2.24406,-0.2849 3.39416,-0.8546 1.16341,-0.5697 2.13725,-1.442 2.92147,-2.617 0.79669,-1.175 1.19458,-2.6794 1.19458,-4.4953 z m 12.67401,11.9103 v -29.1348 h 4.32437 v 4.5576 h 0.37921 c 0.60707,-1.5577 1.58715,-2.7684 2.94017,-3.6229 1.35303,-0.8724 2.97756,-1.3085 4.87447,-1.3085 1.92183,0 3.52145,0.4361 4.79793,1.3085 1.28982,0.8545 2.2957,2.0652 3.01585,3.6229 h 0.30353 c 0.74596,-1.5043 1.86488,-2.7061 3.35677,-3.5873 1.49279,-0.8991 3.282,-1.3441 5.36762,-1.3441 2.6046,0 4.73561,0.81 6.3922,2.4479 1.65569,1.6112 2.48442,4.1392 2.48442,7.5663 v 19.4944 h -4.47658 v -19.4944 c 0,-2.1542 -0.5875,-3.6852 -1.7634,-4.611 -1.17588,-0.9258 -2.56097,-1.3886 -4.15346,-1.3886 -2.04824,0 -3.63538,0.6231 -4.76055,1.8604 -1.12603,1.2284 -1.6886,2.7862 -1.6886,4.6644 v 18.9692 h -4.55136 v -19.9484 c 0,-1.6646 -0.53766,-2.9909 -1.61208,-4.0057 -1.07529,-1.0236 -2.45949,-1.5399 -4.15435,-1.5399 -1.16253,0 -2.2503,0.3115 -3.26149,0.9346 -0.99875,0.6142 -1.8088,1.4777 -2.42834,2.5815 -0.60621,1.086 -0.90974,2.3411 -0.90974,3.7742 v 18.2037 z m 50.8963,-17.5272 v 17.5272 h -4.47569 v -29.1348 h 4.32437 v 4.5576 h 0.37921 c 0.68274,-1.4865 1.71977,-2.6704 3.11019,-3.5695 1.3913,-0.908 3.18674,-1.3619 5.3863,-1.3619 1.97259,0 3.6986,0.4005 5.17803,1.2106 1.47944,0.8011 2.63041,2.0117 3.45203,3.6407 0.8216,1.6201 1.23285,3.6674 1.23285,6.1421 v 18.5152 h -4.47658 v -18.2037 c 0,-2.2966 -0.59374,-4.0769 -1.78208,-5.3498 -1.18924,-1.2907 -2.82002,-1.9405 -4.89407,-1.9405 -1.4287,0 -2.70518,0.3115 -3.83121,0.9346 -1.1127,0.6142 -1.99129,1.5222 -2.63575,2.7061 -0.64536,1.1928 -0.9676,2.6348 -0.9676,4.3261 z m 40.27055,-9.1774 v -3.4182 c 0,-1.0326 0.18342,-2.1364 0.5501,-3.2936 0.37921,-1.175 0.9231,-2.3055 1.63076,-3.4004 0.72104,-1.0949 1.58714,-2.0473 2.59836,-2.8574 l 2.42745,1.9673 c -0.7958,1.1394 -1.4919,2.3321 -2.08562,3.5695 -0.58216,1.2284 -0.87236,2.5369 -0.87236,3.9434 v 3.4894 z m 24.75071,26.7046 h -11.9868 v -38.8464 h 12.51822 c 3.76801,0 6.99215,0.7834 9.6724,2.3322 2.68114,1.5489 4.73561,3.7654 6.16431,6.6584 1.4287,2.8841 2.14351,6.3379 2.14351,10.3614 0,4.0413 -0.72104,7.5307 -2.16218,10.4504 -1.44206,2.9019 -3.54104,5.1451 -6.29696,6.7118 -2.75679,1.5577 -6.10734,2.3322 -10.0525,2.3322 z m -7.28324,-4.1749 h 6.9797 c 3.21167,0 5.87322,-0.6142 7.98556,-1.8604 2.11145,-1.2373 3.68523,-2.9998 4.72228,-5.2875 1.03702,-2.2877 1.55508,-5.0116 1.55508,-8.1716 0,-3.1422 -0.51183,-5.8394 -1.53641,-8.1004 -1.02366,-2.2788 -2.55383,-4.0235 -4.58963,-5.2341 -2.03577,-1.2284 -4.57093,-1.8426 -7.60546,-1.8426 h -7.51112 z m 44.90913,4.7801 c -2.62683,0 -4.93413,-0.623 -6.91916,-1.8782 -1.97257,-1.2462 -3.51521,-2.9998 -4.62791,-5.2519 -1.10022,-2.2521 -1.65035,-4.878 -1.65035,-7.8867 0,-3.0355 0.55013,-5.6881 1.65035,-7.9491 1.1127,-2.261 2.65534,-4.0235 4.62791,-5.2697 1.98503,-1.2551 4.29233,-1.8782 6.91916,-1.8782 2.63487,0 4.93146,0.6231 6.9076,1.8782 1.98504,1.2462 3.525,3.0087 4.6288,5.2697 1.11267,2.261 1.66459,4.9136 1.66459,7.9491 0,3.0087 -0.55192,5.6346 -1.66459,7.8867 -1.1038,2.2521 -2.64376,4.0057 -4.6288,5.2519 -1.97614,1.2552 -4.27273,1.8782 -6.9076,1.8782 z m 0,-4.0234 c 2.00286,0 3.64072,-0.5074 4.93146,-1.5311 1.29072,-1.0237 2.25209,-2.3678 2.86629,-4.0413 0.62312,-1.6646 0.93465,-3.4805 0.93465,-5.421 0,-1.9495 -0.31153,-3.7654 -0.93465,-5.4478 -0.6142,-1.6824 -1.57557,-3.0354 -2.86629,-4.0769 -1.29074,-1.0326 -2.9286,-1.5577 -4.93146,-1.5577 -1.99393,0 -3.63805,0.5251 -4.92789,1.5577 -1.28982,1.0415 -2.24407,2.3945 -2.86361,4.0769 -0.61956,1.6824 -0.92934,3.4983 -0.92934,5.4478 0,1.9405 0.30978,3.7564 0.92934,5.421 0.61954,1.6735 1.57379,3.0176 2.86361,4.0413 1.28984,1.0237 2.93396,1.5311 4.92789,1.5311 z m 24.51482,-14.109 v 17.5272 h -4.47745 v -29.1348 h 4.32613 v 4.5576 h 0.37387 c 0.68541,-1.4865 1.7269,-2.6704 3.11554,-3.5695 1.38864,-0.908 3.18674,-1.3619 5.38543,-1.3619 1.96722,0 3.69412,0.4005 5.18068,1.2106 1.47765,0.8011 2.62596,2.0117 3.4449,3.6407 0.82784,1.6201 1.23732,3.6674 1.23732,6.1421 v 18.5152 h -4.47747 v -18.2037 c 0,-2.2966 -0.5964,-4.0769 -1.78032,-5.3498 -1.19279,-1.2907 -2.82178,-1.9405 -4.89583,-1.9405 -1.43317,0 -2.70607,0.3115 -3.82766,0.9346 -1.1127,0.6142 -1.99395,1.5222 -2.64376,2.7061 -0.64091,1.1928 -0.96138,2.6348 -0.96138,4.3261 z m 38.97983,18.1324 c -2.80397,0 -5.2341,-0.6142 -7.26364,-1.8604 -2.02065,-1.2462 -3.58733,-2.9909 -4.68222,-5.2341 -1.09489,-2.2521 -1.63789,-4.8691 -1.63789,-7.8511 0,-2.982 0.543,-5.608 1.63789,-7.8868 1.09489,-2.2877 2.62596,-4.0769 4.58429,-5.3498 1.97614,-1.2907 4.27274,-1.9316 6.90759,-1.9316 1.51326,0 3.00872,0.2492 4.49528,0.7566 1.47765,0.5074 2.82178,1.3263 4.0413,2.4657 1.21059,1.1216 2.18088,2.6171 2.9019,4.4775 0.71212,1.8604 1.07708,4.1481 1.07708,6.8631 v 1.896 h -22.45857 v -3.8722 h 17.90989 c 0,-1.6378 -0.32937,-3.1066 -0.98807,-4.3973 -0.64982,-1.2908 -1.56668,-2.3055 -2.76839,-3.0533 -1.19279,-0.7477 -2.59034,-1.1215 -4.21042,-1.1215 -1.78921,0 -3.32917,0.445 -4.6288,1.3352 -1.29072,0.8723 -2.28768,2.0028 -2.982,3.4093 -0.69432,1.4064 -1.04149,2.9108 -1.04149,4.5131 v 2.5814 c 0,2.1987 0.38276,4.068 1.13939,5.5902 0.77444,1.5221 1.84263,2.6793 3.20455,3.4716 1.36194,0.7833 2.95532,1.175 4.76233,1.175 1.17501,0 2.23429,-0.1602 3.18674,-0.4896 0.96138,-0.3383 1.78921,-0.8457 2.48353,-1.5133 0.69432,-0.6854 1.22843,-1.5311 1.61119,-2.5458 l 4.32613,1.2106 c -0.45396,1.4687 -1.21951,2.7595 -2.29659,3.8722 -1.07708,1.1037 -2.40341,1.9583 -3.97898,2.5814 -1.58447,0.6053 -3.36479,0.9079 -5.33202,0.9079 z m 22.81463,-39.4516 v 3.4182 c 0,1.0326 -0.187,2.1453 -0.56969,3.3203 -0.36496,1.1572 -0.90796,2.2966 -1.62898,3.3915 -0.71212,1.086 -1.56668,2.0385 -2.58145,2.8485 l -2.43013,-1.9762 c 0.80114,-1.1394 1.48657,-2.3144 2.07407,-3.5428 0.5875,-1.2373 0.89015,-2.5636 0.89015,-3.9701 v -3.4894 z"
     id="path38"
     inkscape:connector-curvature="0"
     style="fill:#a7a7a7;stroke-width:8.90153408" />
  <defs
     id="defs108">
    <filter
       id="filter0_d_0_1"
       x="7"
       y="9"
       width="144"
       height="26"
       filterUnits="userSpaceOnUse"
       style="color-interpolation-filters:sRGB">
      <feFlood
         flood-opacity="0"
         result="BackgroundImageFix"
         id="feFlood40" />
      <feColorMatrix
         in="SourceAlpha"
         type="matrix"
         values="0 0 0 0 0 0 0 0 0 0 0 0 0 0 0 0 0 0 127 0"
         result="hardAlpha"
         id="feColorMatrix42" />
      <feOffset
         dy="4"
         id="feOffset44" />
      <feGaussianBlur
         stdDeviation="2"
         id="feGaussianBlur46" />
      <feComposite
         in2="hardAlpha"
         operator="out"
         id="feComposite48" />
      <feColorMatrix
         type="matrix"
         values="0 0 0 0 0 0 0 0 0 0 0 0 0 0 0 0 0 0 0.5 0"
         id="feColorMatrix50" />
      <feBlend
         mode="normal"
         in2="BackgroundImageFix"
         result="effect1_dropShadow_0_1"
         id="feBlend52" />
      <feBlend
         mode="normal"
         in="SourceGraphic"
         in2="effect1_dropShadow_0_1"
         result="shape"
         id="feBlend54" />
    </filter>
    <filter
       id="filter1_d_0_1"
       x="7"
       y="41"
       width="144"
       height="26"
       filterUnits="userSpaceOnUse"
       style="color-interpolation-filters:sRGB">
      <feFlood
         flood-opacity="0"
         result="BackgroundImageFix"
         id="feFlood57" />
      <feColorMatrix
         in="SourceAlpha"
         type="matrix"
         values="0 0 0 0 0 0 0 0 0 0 0 0 0 0 0 0 0 0 127 0"
         result="hardAlpha"
         id="feColorMatrix59" />
      <feOffset
         dy="4"
         id="feOffset61" />
      <feGaussianBlur
         stdDeviation="2"
         id="feGaussianBlur63" />
      <feComposite
         in2="hardAlpha"
         operator="out"
         id="feComposite65" />
      <feColorMatrix
         type="matrix"
         values="0 0 0 0 0 0 0 0 0 0 0 0 0 0 0 0 0 0 0.5 0"
         id="feColorMatrix67" />
      <feBlend
         mode="normal"
         in2="BackgroundImageFix"
         result="effect1_dropShadow_0_1"
         id="feBlend69" />
      <feBlend
         mode="normal"
         in="SourceGraphic"
         in2="effect1_dropShadow_0_1"
         result="shape"
         id="feBlend71" />
    </filter>
    <filter
       id="filter2_d_0_1"
       x="7"
       y="73"
       width="144"
       height="26"
       filterUnits="userSpaceOnUse"
       style="color-interpolation-filters:sRGB">
      <feFlood
         flood-opacity="0"
         result="BackgroundImageFix"
         id="feFlood74" />
      <feColorMatrix
         in="SourceAlpha"
         type="matrix"
         values="0 0 0 0 0 0 0 0 0 0 0 0 0 0 0 0 0 0 127 0"
         result="hardAlpha"
         id="feColorMatrix76" />
      <feOffset
         dy="4"
         id="feOffset78" />
      <feGaussianBlur
         stdDeviation="2"
         id="feGaussianBlur80" />
      <feComposite
         in2="hardAlpha"
         operator="out"
         id="feComposite82" />
      <feColorMatrix
         type="matrix"
         values="0 0 0 0 0 0 0 0 0 0 0 0 0 0 0 0 0 0 0.5 0"
         id="feColorMatrix84" />
      <feBlend
         mode="normal"
         in2="BackgroundImageFix"
         result="effect1_dropShadow_0_1"
         id="feBlend86" />
      <feBlend
         mode="normal"
         in="SourceGraphic"
         in2="effect1_dropShadow_0_1"
         result="shape"
         id="feBlend88" />
    </filter>
    <filter
       id="filter3_d_0_1"
       x="7"
       y="105"
       width="144"
       height="26"
       filterUnits="userSpaceOnUse"
       style="color-interpolation-filters:sRGB">
      <feFlood
         flood-opacity="0"
         result="BackgroundImageFix"
         id="feFlood91" />
      <feColorMatrix
         in="SourceAlpha"
         type="matrix"
         values="0 0 0 0 0 0 0 0 0 0 0 0 0 0 0 0 0 0 127 0"
         result="hardAlpha"
         id="feColorMatrix93" />
      <feOffset
         dy="4"
         id="feOffset95" />
      <feGaussianBlur
         stdDeviation="2"
         id="feGaussianBlur97" />
      <feComposite
         in2="hardAlpha"
         operator="out"
         id="feComposite99" />
      <feColorMatrix
         type="matrix"
         values="0 0 0 0 0 0 0 0 0 0 0 0 0 0 0 0 0 0 0.5 0"
         id="feColorMatrix101" />
      <feBlend
         mode="normal"
         in2="BackgroundImageFix"
         result="effect1_dropShadow_0_1"
         id="feBlend103" />
      <feBlend
         mode="normal"
         in="SourceGraphic"
         in2="effect1_dropShadow_0_1"
         result="shape"
         id="feBlend105" />
    </filter>
  </defs>
</svg>
