<?xml version="1.0" encoding="UTF-8" standalone="no"?>
<svg
   xmlns:dc="http://purl.org/dc/elements/1.1/"
   xmlns:cc="http://creativecommons.org/ns#"
   xmlns:rdf="http://www.w3.org/1999/02/22-rdf-syntax-ns#"
   xmlns:svg="http://www.w3.org/2000/svg"
   xmlns="http://www.w3.org/2000/svg"
   xmlns:sodipodi="http://sodipodi.sourceforge.net/DTD/sodipodi-0.dtd"
   xmlns:inkscape="http://www.inkscape.org/namespaces/inkscape"
   viewBox="0 0 48 48"
   width="48px"
   height="48px"
   version="1.1"
   id="svg4"
   sodipodi:docname="discord.svg"
   inkscape:version="0.92.4 (5da689c313, 2019-01-14)">
  <metadata
     id="metadata10">
    <rdf:RDF>
      <cc:Work
         rdf:about="">
        <dc:format>image/svg+xml</dc:format>
        <dc:type
           rdf:resource="http://purl.org/dc/dcmitype/StillImage" />
      </cc:Work>
    </rdf:RDF>
  </metadata>
  <defs
     id="defs8">
    <filter
       inkscape:collect="always"
       style="color-interpolation-filters:sRGB"
       id="filter1031"
       x="-0.285"
       width="1.57"
       y="-0.39187501"
       height="1.78375">
      <feGaussianBlur
         inkscape:collect="always"
         stdDeviation="4.2588982"
         id="feGaussianBlur1033" />
    </filter>
  </defs>
  <sodipodi:namedview
     pagecolor="#ffffff"
     bordercolor="#666666"
     borderopacity="1"
     objecttolerance="10"
     gridtolerance="10"
     guidetolerance="10"
     inkscape:pageopacity="0"
     inkscape:pageshadow="2"
     inkscape:window-width="1920"
     inkscape:window-height="1001"
     id="namedview6"
     showgrid="false"
     inkscape:zoom="9.8333333"
     inkscape:cx="4.6632111"
     inkscape:cy="26.532578"
     inkscape:window-x="-9"
     inkscape:window-y="-9"
     inkscape:window-maximized="1"
     inkscape:current-layer="svg4" />
  <path
     style="opacity:1;fill:#231aff;fill-opacity:1;stroke-width:0.81510013;filter:url(#filter1031)"
     inkscape:connector-curvature="0"
     id="path817"
     d="m 37.041602,14.218798 c 0,0 -3.737234,-2.924579 -8.151001,-3.2604 l -0.397769,0.795537 c 3.99073,0.97649 5.821445,2.376017 7.73367,4.095063 -3.29708,-1.683181 -6.55259,-3.2604 -12.226502,-3.2604 -5.673912,0 -8.929422,1.577219 -12.226502,3.2604 1.912225,-1.719046 4.090172,-3.272627 7.73367,-4.095063 l -0.397769,-0.795537 c -4.630584,0.437708 -8.151001,3.2604 -8.151001,3.2604 0,0 -4.1741284,6.052119 -4.8906014,17.932204 4.2075474,4.852291 10.5963024,4.8906 10.5963024,4.8906 l 1.335949,-1.780993 c -2.267609,-0.788202 -4.828654,-2.19588 -7.04165,-4.739808 2.639294,1.996996 6.622688,4.075501 13.041602,4.075501 6.418914,0 10.402308,-2.078505 13.041602,-4.075501 -2.212996,2.543928 -4.774041,3.951606 -7.04165,4.739808 l 1.335949,1.780993 c 0,0 6.388755,-0.03831 10.596302,-4.8906 C 41.21573,20.270917 37.041602,14.218798 37.041602,14.218798 Z M 18.701849,28.890601 c -1.575589,0 -2.852851,-1.459844 -2.852851,-3.260401 0,-1.800556 1.277262,-3.2604 2.852851,-3.2604 1.575589,0 2.852851,1.459844 2.852851,3.2604 0,1.800557 -1.277262,3.260401 -2.852851,3.260401 z m 10.596302,0 c -1.575589,0 -2.852851,-1.459844 -2.852851,-3.260401 0,-1.800556 1.277262,-3.2604 2.852851,-3.2604 1.575589,0 2.852851,1.459844 2.852851,3.2604 0,1.800557 -1.277262,3.260401 -2.852851,3.260401 z"
     transform="matrix(1.1092885,0,0,1.1092885,-2.6229231,-2.6229231)" />
  <path
     d="m 37.041602,14.218798 c 0,0 -3.737234,-2.924579 -8.151001,-3.2604 l -0.397769,0.795537 c 3.99073,0.97649 5.821445,2.376017 7.73367,4.095063 -3.29708,-1.683181 -6.55259,-3.2604 -12.226502,-3.2604 -5.673912,0 -8.929422,1.577219 -12.226502,3.2604 1.912225,-1.719046 4.090172,-3.272627 7.73367,-4.095063 l -0.397769,-0.795537 c -4.630584,0.437708 -8.151001,3.2604 -8.151001,3.2604 0,0 -4.1741284,6.052119 -4.8906014,17.932204 4.2075474,4.852291 10.5963024,4.8906 10.5963024,4.8906 l 1.335949,-1.780993 c -2.267609,-0.788202 -4.828654,-2.19588 -7.04165,-4.739808 2.639294,1.996996 6.622688,4.075501 13.041602,4.075501 6.418914,0 10.402308,-2.078505 13.041602,-4.075501 -2.212996,2.543928 -4.774041,3.951606 -7.04165,4.739808 l 1.335949,1.780993 c 0,0 6.388755,-0.03831 10.596302,-4.8906 C 41.21573,20.270917 37.041602,14.218798 37.041602,14.218798 Z M 18.701849,28.890601 c -1.575589,0 -2.852851,-1.459844 -2.852851,-3.260401 0,-1.800556 1.277262,-3.2604 2.852851,-3.2604 1.575589,0 2.852851,1.459844 2.852851,3.2604 0,1.800557 -1.277262,3.260401 -2.852851,3.260401 z m 10.596302,0 c -1.575589,0 -2.852851,-1.459844 -2.852851,-3.260401 0,-1.800556 1.277262,-3.2604 2.852851,-3.2604 1.575589,0 2.852851,1.459844 2.852851,3.2604 0,1.800557 -1.277262,3.260401 -2.852851,3.260401 z"
     id="path2"
     inkscape:connector-curvature="0"
     style="fill:#ffffff;stroke-width:0.81510013;fill-opacity:1;opacity:1" />
</svg>
