<svg width="708" height="657" viewBox="0 0 708 657" fill="none" xmlns="http://www.w3.org/2000/svg">
<path d="M299.097 249.144L249.377 114.828C247.157 109.019 243.552 103.84 238.875 99.7399C228.88 90.9511 214.952 88.1595 202.339 92.4166C189.726 96.6738 180.343 107.333 177.726 120.379C175.108 133.424 179.653 146.875 189.648 155.664L299.097 249.144ZM353.903 237.008L389.839 42.9959C390.576 38.6536 390.576 34.2181 389.839 29.8759C386.214 10.0853 367.223 -3.02111 347.421 0.601876C327.62 4.22486 314.506 23.2053 318.131 42.9959L353.903 237.008ZM528.004 140.412C531.551 122.583 521.638 104.814 504.598 98.4586C487.558 92.1027 468.421 99.0357 459.413 114.828L410.186 249.308L518.814 155.664C523.067 151.397 526.22 146.164 528.004 140.412ZM353.903 419.212L318.131 613.06C317.31 617.395 317.31 621.845 318.131 626.18C320.476 638.982 329.477 649.562 341.742 653.933C354.008 658.304 367.676 655.804 377.596 647.373C387.517 638.942 392.184 625.862 389.839 613.06L353.903 419.212ZM676.342 190.924C662.802 171.704 637.086 165.525 616.284 176.492L404.443 278.828L453.67 302.936L634.17 215.032C635.025 214.548 635.979 214.268 636.96 214.212C644.18 215.852 662.886 253.244 662.886 327.536C662.886 401.828 644.18 439.22 636.96 440.86C635.909 440.78 634.895 440.442 634.006 439.876L91.6858 176.492C70.8837 165.525 45.1687 171.704 31.6285 190.924C-10.5428 243.404 -10.5428 412.652 31.6285 465.132C40.6113 477.22 54.6382 484.532 69.6976 484.976C77.3482 484.904 84.8768 483.051 91.6858 479.564L303.363 377.228L254.136 353.12L73.6358 441.024C72.7275 441.521 71.7167 441.801 70.6822 441.844C63.6262 440.204 44.7558 402.812 44.7558 328.52C44.7558 254.228 63.6262 216.836 70.6822 215.196C71.737 215.254 72.757 215.594 73.6358 216.18L200.15 277.516L508.641 427.576L615.628 479.564C636.48 490.552 662.251 484.376 675.849 465.132C718.513 412.652 718.513 243.404 676.342 190.924ZM408.709 406.912L459.413 541.228C461.572 547.069 465.187 552.262 469.915 556.316C479.911 564.929 493.744 567.558 506.205 563.213C518.666 558.868 527.861 548.209 530.327 535.251C532.792 522.293 528.153 509.005 518.158 500.392L408.709 406.912ZM180.459 515.644C173.693 528.378 174.93 543.879 183.631 555.381C192.331 566.882 206.917 572.297 221.02 569.261C235.123 566.225 246.185 555.289 249.377 541.228L298.604 406.748L189.976 500.392C185.645 504.655 182.384 509.881 180.459 515.644Z" fill="url(#paint0_linear_6_40)"/>
<defs>
<linearGradient id="paint0_linear_6_40" x1="58.2112" y1="186.314" x2="548.582" y2="459.881" gradientUnits="userSpaceOnUse">
<stop stop-color="#E70AAB"/>
<stop offset="1" stop-color="#0061FF"/>
</linearGradient>
</defs>
</svg>
