<svg width="116" height="26" viewBox="0 0 116 26" fill="none" xmlns="http://www.w3.org/2000/svg">
<g clip-path="url(#clip0_138_12012)">
<path d="M19.0364 1.86969C17.8101 1.86969 16.8027 2.87113 16.8027 4.1162C16.8027 5.36128 17.8108 6.30818 19.0364 6.30818C20.262 6.30818 21.2701 5.30674 21.2701 4.1162C21.2701 2.92566 20.2891 1.86969 19.0364 1.86969V1.86969Z" fill="white"/>
<path d="M20.8616 7.68427H17.2383V20.9983H20.8616V7.68427Z" fill="white"/>
<path d="M59.272 7.33228C57.8282 7.33228 56.2212 7.95481 55.4034 9.33516V7.68427H51.8892V20.9983H55.5125V13.3402C55.5125 11.7977 56.4386 10.5802 58.0186 10.5802C59.7618 10.5802 60.4975 11.7439 60.4975 13.2319V20.9983H64.1209V12.6093C64.1209 9.68715 62.5951 7.33228 59.272 7.33228V7.33228Z" fill="white"/>
<path d="M72.531 7.27844C68.5262 7.27844 65.5025 10.2282 65.5025 14.3409C65.5025 18.4536 68.5262 21.4041 72.531 21.4041C76.5357 21.4041 79.5594 18.4274 79.5594 14.3409C79.5594 10.2544 76.5357 7.27844 72.531 7.27844ZM72.531 18.13C70.7599 18.13 69.1258 16.8311 69.1258 14.3416C69.1258 11.8522 70.7599 10.5533 72.531 10.5533C74.302 10.5533 75.9361 11.8253 75.9361 14.3416C75.9361 16.858 74.302 18.13 72.531 18.13Z" fill="white"/>
<path d="M96.3433 7.30536C94.5722 7.30536 93.1563 7.90098 92.0932 9.52425C91.4124 8.09008 89.9408 7.30536 88.1163 7.30536C86.6455 7.30536 84.9293 8.00863 84.1936 9.30753V7.68426H80.7335V20.9983H84.3568V13.2049C84.3568 11.7439 85.283 10.5802 86.8629 10.5802C88.4428 10.5802 89.2328 11.6624 89.2328 13.0973V20.999H92.829V13.2056C92.829 11.7715 93.7552 10.5809 95.308 10.5809C96.97 10.5809 97.6779 11.6631 97.6779 13.098V20.9997H101.192V12.3678C101.192 8.79548 98.8223 7.30748 96.3433 7.30748V7.30536Z" fill="white"/>
<path d="M112.12 7.68427L108.824 15.4777L105.256 7.68427H101.197L106.89 19.3198L103.73 26.2477H107.571L115.989 7.68427H112.12Z" fill="white"/>
<path d="M29.2639 18.1293C27.4928 18.1293 25.8587 16.8304 25.8587 14.3409C25.8587 11.8515 27.4936 10.5526 29.2639 10.5526C30.3625 10.5526 31.3322 11.0434 31.9104 12.0172L35.3277 10.9039C34.2283 8.68287 32.0266 7.27844 29.2639 7.27844C25.2591 7.27844 22.2354 10.2282 22.2354 14.3409C22.2354 18.4536 25.2591 21.4041 29.2639 21.4041C32.592 21.4041 35.1045 19.3467 35.8581 16.3063H32.0951C31.5561 17.5181 30.4909 18.13 29.2639 18.13V18.1293Z" fill="white"/>
<path d="M43.4876 7.27844C39.4828 7.27844 36.4591 10.2282 36.4591 14.3409C36.4591 18.4536 39.4828 21.4041 43.4876 21.4041C47.4923 21.4041 50.516 18.4274 50.516 14.3409C50.516 10.2544 47.4923 7.27844 43.4876 7.27844ZM43.4876 18.13C41.7165 18.13 40.0824 16.8311 40.0824 14.3416C40.0824 11.8522 41.7173 10.5533 43.4876 10.5533C45.2579 10.5533 46.8927 11.8253 46.8927 14.3416C46.8927 16.858 45.2579 18.13 43.4876 18.13Z" fill="white"/>
<path d="M12.4589 9.33798C13.2018 8.35991 13.3566 7.4208 13.3566 6.29754C13.3566 5.17428 12.327 1.81018 8.57538 1.81018H-0.0322876V20.9856H9.26554C13.897 20.9856 15.8519 17.7992 15.8519 14.4365C15.8519 12.8947 15.2053 10.8933 12.4582 9.33727L12.4589 9.33798ZM3.60314 4.75289H7.98718C8.99603 4.75289 9.8131 5.56523 9.8131 6.56667C9.8131 7.56882 8.99532 8.38045 7.98718 8.38045H3.60314V4.75218V4.75289ZM8.83633 18.0429H3.60314V11.3239H8.83633C10.7043 11.3239 12.2179 12.8282 12.2179 14.683C12.2179 16.7397 10.8719 18.0422 8.83633 18.0422V18.0429Z" fill="white"/>
</g>
<defs>
<clipPath id="clip0_138_12012">
<rect width="116" height="26" fill="white"/>
</clipPath>
</defs>
</svg>
