<svg width="266" height="56" viewBox="0 0 266 56" fill="none" xmlns="http://www.w3.org/2000/svg">
<g clip-path="url(#clip0_138_12070)">
<path d="M107.99 11.4932C105.991 11.4932 104.349 13.1392 104.349 15.1857C104.349 17.2321 105.992 18.7885 107.99 18.7885C109.989 18.7885 111.632 17.1425 111.632 15.1857C111.632 13.2288 110.033 11.4932 107.99 11.4932V11.4932Z" fill="white"/>
<path d="M110.966 21.0508H105.059V42.9345H110.966V21.0508Z" fill="white"/>
<path d="M173.59 20.4717C171.236 20.4717 168.616 21.4949 167.283 23.7637V21.0502H161.553V42.9339H167.461V30.3466C167.461 27.8113 168.971 25.8102 171.546 25.8102C174.389 25.8102 175.588 27.7228 175.588 30.1685V42.9339H181.496V29.1453C181.496 24.3423 179.008 20.4717 173.59 20.4717V20.4717Z" fill="white"/>
<path d="M195.207 20.3838C188.678 20.3838 183.748 25.2322 183.748 31.9921C183.748 38.7519 188.678 43.6015 195.207 43.6015C201.737 43.6015 206.666 38.7089 206.666 31.9921C206.666 25.2753 201.737 20.3838 195.207 20.3838ZM195.207 38.22C192.32 38.22 189.656 36.085 189.656 31.9932C189.656 27.9015 192.32 25.7665 195.207 25.7665C198.095 25.7665 200.759 27.8572 200.759 31.9932C200.759 36.1293 198.095 38.22 195.207 38.22Z" fill="white"/>
<path d="M234.031 20.4277C231.143 20.4277 228.835 21.4067 227.102 24.0748C225.992 21.7175 223.592 20.4277 220.618 20.4277C218.22 20.4277 215.422 21.5837 214.222 23.7186V21.0505H208.581V42.9342H214.488V30.1246C214.488 27.7231 215.998 25.8105 218.574 25.8105C221.15 25.8105 222.438 27.5892 222.438 29.9477V42.9354H228.301V30.1258C228.301 27.7685 229.811 25.8116 232.343 25.8116C235.053 25.8116 236.207 27.5904 236.207 29.9488V42.9366H241.936V28.7486C241.936 22.877 238.072 20.4312 234.031 20.4312V20.4277Z" fill="white"/>
<path d="M259.753 21.0508L254.379 33.8604L248.561 21.0508H241.943L251.225 40.1756L246.073 51.5627H252.336L266.06 21.0508H259.753Z" fill="white"/>
<path d="M124.665 38.2188C121.778 38.2188 119.114 36.0839 119.114 31.9921C119.114 27.9003 121.779 25.7654 124.665 25.7654C126.457 25.7654 128.037 26.5721 128.98 28.1727L134.552 26.3428C132.759 22.6922 129.17 20.3838 124.665 20.3838C118.136 20.3838 113.206 25.2322 113.206 31.9921C113.206 38.7519 118.136 43.6015 124.665 43.6015C130.091 43.6015 134.188 40.2199 135.416 35.2224H129.281C128.402 37.2142 126.666 38.22 124.665 38.22V38.2188Z" fill="white"/>
<path d="M147.855 20.3838C141.326 20.3838 136.396 25.2322 136.396 31.9921C136.396 38.7519 141.326 43.6015 147.855 43.6015C154.385 43.6015 159.314 38.7089 159.314 31.9921C159.314 25.2753 154.385 20.3838 147.855 20.3838ZM147.855 38.22C144.968 38.22 142.304 36.085 142.304 31.9932C142.304 27.9015 144.969 25.7665 147.855 25.7665C150.742 25.7665 153.407 27.8572 153.407 31.9932C153.407 36.1293 150.742 38.22 147.855 38.22Z" fill="white"/>
<path d="M97.2672 23.7686C98.4784 22.161 98.7307 20.6174 98.7307 18.7712C98.7307 16.9249 97.0521 11.3955 90.9355 11.3955H76.9017V42.9132H92.0607C99.6118 42.9132 102.799 37.676 102.799 32.1489C102.799 29.6147 101.745 26.3249 97.266 23.7674L97.2672 23.7686ZM82.8289 16.2323H89.9765C91.6214 16.2323 92.9535 17.5675 92.9535 19.2135C92.9535 20.8607 91.6202 22.1948 89.9765 22.1948H82.8289V16.2311V16.2323ZM91.361 38.0764H82.8289V27.0327H91.361C94.4065 27.0327 96.8743 29.5052 96.8743 32.554C96.8743 35.9345 94.6797 38.0753 91.361 38.0753V38.0764Z" fill="white"/>
<path d="M35.6535 21.6118C36.5951 19.7027 37.2519 17.3081 37.2519 14.3281C37.2519 10.2398 35.6198 6.53914 32.6557 3.90714C29.7311 1.31006 25.7742 -0.062404 21.2129 -0.062404L5.49478 -0.135742C2.46088 -0.135742 0.0012207 2.32747 0.0012207 5.36574V52.0189H27.4981C37.7657 52.0189 43.7672 43.4419 43.7672 35.7054C43.7672 29.8279 40.5089 24.4498 35.6547 21.6118H35.6535ZM21.2117 3.96069C28.5907 3.96069 33.2346 8.39005 33.2346 14.3281C33.2346 22.2974 27.2377 25.9422 21.1699 25.9422C15.4694 25.9422 10.7745 21.2404 10.7745 13.9532V9.93014C10.7745 7.28882 9.19706 4.91757 6.756 4.13646V3.96069H21.2106H21.2117Z" fill="white"/>
</g>
<defs>
<clipPath id="clip0_138_12070">
<rect width="266" height="56" fill="white"/>
</clipPath>
</defs>
</svg>
