<?xml version="1.0" encoding="UTF-8" standalone="no"?>
<svg
   xmlns:dc="http://purl.org/dc/elements/1.1/"
   xmlns:cc="http://creativecommons.org/ns#"
   xmlns:rdf="http://www.w3.org/1999/02/22-rdf-syntax-ns#"
   xmlns:svg="http://www.w3.org/2000/svg"
   xmlns="http://www.w3.org/2000/svg"
   xmlns:sodipodi="http://sodipodi.sourceforge.net/DTD/sodipodi-0.dtd"
   xmlns:inkscape="http://www.inkscape.org/namespaces/inkscape"
   width="853"
   height="853"
   viewBox="0 0 853 853"
   fill="none"
   version="1.1"
   id="svg67"
   sodipodi:docname="circle-nav.svg"
   inkscape:version="0.92.4 (5da689c313, 2019-01-14)">
  <metadata
     id="metadata71">
    <rdf:RDF>
      <cc:Work
         rdf:about="">
        <dc:format>image/svg+xml</dc:format>
        <dc:type
           rdf:resource="http://purl.org/dc/dcmitype/StillImage" />
        <dc:title></dc:title>
      </cc:Work>
    </rdf:RDF>
  </metadata>
  <sodipodi:namedview
     pagecolor="#ffffff"
     bordercolor="#666666"
     borderopacity="1"
     objecttolerance="10"
     gridtolerance="10"
     guidetolerance="10"
     inkscape:pageopacity="0"
     inkscape:pageshadow="2"
     inkscape:window-width="1920"
     inkscape:window-height="1001"
     id="namedview69"
     showgrid="false"
     inkscape:zoom="1.1066823"
     inkscape:cx="385.84092"
     inkscape:cy="389.58376"
     inkscape:window-x="-9"
     inkscape:window-y="-9"
     inkscape:window-maximized="1"
     inkscape:current-layer="g6" />
  <g
     filter="url(#filter0_d_0_1)"
     id="g6" />
  <circle
     cx="427"
     cy="207"
     r="65.5"
     fill="#362240"
     stroke="#BC58EF"
     id="circle8" />
  <circle
     cx="152"
     cy="304"
     r="65.5"
     fill="#362240"
     stroke="#BF5AF2"
     id="circle10" />
  <circle
     cx="333"
     cy="436"
     r="65.5"
     fill="#362240"
     stroke="#BF5AF2"
     id="circle12" />
  <circle
     cx="240"
     cy="676"
     r="65.5"
     fill="#362240"
     stroke="#BF5AF2"
     id="circle14" />
  <circle
     cx="559"
     cy="482"
     r="65.5"
     fill="#362240"
     stroke="#BF5AF2"
     id="circle16" />
  <circle
     cx="427"
     cy="676"
     r="65.5"
     fill="#362240"
     stroke="#BF5AF2"
     id="circle18" />
  <circle
     cx="715"
     cy="357"
     r="65.5"
     fill="#362240"
     stroke="#BF5AF2"
     id="circle20" />
  <path
     d="M394.171 200V179.636H401.966C403.438 179.636 404.661 179.868 405.635 180.332C406.616 180.79 407.349 181.416 407.833 182.212C408.323 183.007 408.568 183.909 408.568 184.916C408.568 185.745 408.409 186.454 408.091 187.044C407.773 187.627 407.345 188.101 406.808 188.466C406.271 188.83 405.672 189.092 405.009 189.251V189.45C405.731 189.49 406.424 189.712 407.087 190.116C407.756 190.514 408.303 191.078 408.727 191.807C409.152 192.536 409.364 193.418 409.364 194.452C409.364 195.506 409.109 196.454 408.598 197.295C408.088 198.131 407.319 198.79 406.291 199.274C405.264 199.758 403.971 200 402.414 200H394.171ZM397.86 196.918H401.827C403.166 196.918 404.13 196.662 404.72 196.152C405.317 195.635 405.615 194.972 405.615 194.163C405.615 193.56 405.466 193.017 405.168 192.533C404.869 192.042 404.445 191.658 403.895 191.379C403.345 191.094 402.689 190.952 401.926 190.952H397.86V196.918ZM397.86 188.297H401.509C402.145 188.297 402.718 188.181 403.229 187.949C403.739 187.71 404.14 187.375 404.432 186.945C404.73 186.507 404.879 185.99 404.879 185.393C404.879 184.605 404.601 183.955 404.044 183.445C403.494 182.934 402.675 182.679 401.588 182.679H397.86V188.297ZM422.148 193.577V184.727H425.748V200H422.258V197.286H422.099C421.754 198.141 421.187 198.84 420.398 199.384C419.616 199.927 418.652 200.199 417.505 200.199C416.504 200.199 415.619 199.977 414.85 199.533C414.088 199.082 413.491 198.429 413.06 197.574C412.629 196.712 412.414 195.671 412.414 194.452V184.727H416.013V193.895C416.013 194.863 416.278 195.632 416.809 196.202C417.339 196.772 418.035 197.057 418.897 197.057C419.427 197.057 419.941 196.928 420.438 196.669C420.935 196.411 421.343 196.026 421.661 195.516C421.986 194.999 422.148 194.352 422.148 193.577ZM429.449 200V184.727H433.048V200H429.449ZM431.259 182.56C430.689 182.56 430.198 182.371 429.787 181.993C429.376 181.608 429.171 181.148 429.171 180.611C429.171 180.067 429.376 179.607 429.787 179.229C430.198 178.844 430.689 178.652 431.259 178.652C431.835 178.652 432.326 178.844 432.73 179.229C433.141 179.607 433.347 180.067 433.347 180.611C433.347 181.148 433.141 181.608 432.73 181.993C432.326 182.371 431.835 182.56 431.259 182.56ZM442.417 200.268C441.218 200.268 440.144 199.96 439.196 199.344C438.248 198.727 437.499 197.832 436.949 196.659C436.398 195.486 436.123 194.061 436.123 192.384C436.123 190.687 436.402 189.255 436.959 188.088C437.522 186.915 438.281 186.03 439.236 185.433C440.19 184.83 441.254 184.528 442.427 184.528C443.322 184.528 444.058 184.681 444.635 184.986C445.211 185.284 445.669 185.645 446.007 186.07C446.345 186.487 446.607 186.882 446.792 187.253H446.942V179.636H450.551V200H447.011V197.594H446.792C446.607 197.965 446.338 198.359 445.987 198.777C445.636 199.188 445.172 199.539 444.595 199.831C444.018 200.123 443.292 200.268 442.417 200.268ZM443.422 197.315C444.184 197.315 444.834 197.11 445.371 196.699C445.907 196.281 446.315 195.701 446.594 194.959C446.872 194.216 447.011 193.351 447.011 192.364C447.011 191.376 446.872 190.518 446.594 189.788C446.322 189.059 445.917 188.492 445.381 188.088C444.85 187.684 444.197 187.482 443.422 187.482C442.62 187.482 441.95 187.69 441.413 188.108C440.876 188.526 440.472 189.102 440.2 189.838C439.928 190.574 439.792 191.416 439.792 192.364C439.792 193.318 439.928 194.17 440.2 194.919C440.479 195.661 440.886 196.248 441.423 196.679C441.967 197.103 442.633 197.315 443.422 197.315ZM457.986 179.636V200H454.387V179.636H457.986ZM395.161 219.234C395.068 218.366 394.677 217.69 393.988 217.206C393.305 216.722 392.417 216.48 391.323 216.48C390.554 216.48 389.895 216.596 389.344 216.828C388.794 217.06 388.373 217.375 388.082 217.773C387.79 218.17 387.641 218.625 387.634 219.135C387.634 219.559 387.73 219.927 387.923 220.239C388.121 220.55 388.39 220.815 388.728 221.034C389.066 221.246 389.441 221.425 389.852 221.571C390.263 221.717 390.677 221.839 391.094 221.939L393.004 222.416C393.772 222.595 394.512 222.837 395.221 223.142C395.937 223.447 396.576 223.831 397.14 224.295C397.71 224.759 398.161 225.32 398.492 225.976C398.824 226.632 398.989 227.401 398.989 228.283C398.989 229.476 398.684 230.527 398.075 231.435C397.465 232.336 396.583 233.042 395.43 233.553C394.283 234.056 392.894 234.308 391.263 234.308C389.679 234.308 388.304 234.063 387.137 233.572C385.977 233.082 385.069 232.366 384.413 231.425C383.763 230.483 383.412 229.337 383.359 227.984H386.988C387.041 228.694 387.26 229.284 387.644 229.754C388.029 230.225 388.529 230.576 389.146 230.808C389.769 231.04 390.465 231.156 391.234 231.156C392.036 231.156 392.738 231.037 393.342 230.798C393.951 230.553 394.429 230.215 394.773 229.784C395.118 229.347 395.294 228.836 395.3 228.253C395.294 227.723 395.138 227.285 394.833 226.94C394.528 226.589 394.101 226.297 393.55 226.065C393.007 225.827 392.371 225.615 391.641 225.429L389.325 224.832C387.647 224.402 386.322 223.749 385.347 222.874C384.379 221.992 383.896 220.822 383.896 219.364C383.896 218.164 384.22 217.113 384.87 216.212C385.526 215.31 386.418 214.611 387.545 214.114C388.672 213.61 389.948 213.358 391.373 213.358C392.818 213.358 394.084 213.61 395.171 214.114C396.265 214.611 397.123 215.304 397.746 216.192C398.37 217.073 398.691 218.088 398.711 219.234H395.161ZM409.745 218.727V221.511H400.966V218.727H409.745ZM403.133 215.068H406.733V229.406C406.733 229.89 406.806 230.261 406.951 230.52C407.104 230.772 407.303 230.944 407.548 231.037C407.793 231.13 408.065 231.176 408.363 231.176C408.589 231.176 408.794 231.16 408.98 231.126C409.172 231.093 409.318 231.063 409.417 231.037L410.024 233.851C409.832 233.917 409.556 233.99 409.199 234.07C408.847 234.149 408.416 234.196 407.906 234.209C407.004 234.235 406.192 234.099 405.47 233.801C404.747 233.496 404.174 233.026 403.75 232.389C403.332 231.753 403.127 230.957 403.133 230.003V215.068ZM422.49 227.577V218.727H426.089V234H422.599V231.286H422.44C422.096 232.141 421.529 232.84 420.74 233.384C419.958 233.927 418.993 234.199 417.847 234.199C416.846 234.199 415.961 233.977 415.192 233.533C414.429 233.082 413.833 232.429 413.402 231.574C412.971 230.712 412.756 229.671 412.756 228.452V218.727H416.355V227.895C416.355 228.863 416.62 229.632 417.151 230.202C417.681 230.772 418.377 231.057 419.239 231.057C419.769 231.057 420.283 230.928 420.78 230.669C421.277 230.411 421.685 230.026 422.003 229.516C422.328 228.999 422.49 228.352 422.49 227.577ZM435.458 234.268C434.259 234.268 433.185 233.96 432.237 233.344C431.289 232.727 430.54 231.832 429.99 230.659C429.44 229.486 429.164 228.061 429.164 226.384C429.164 224.687 429.443 223.255 430 222.088C430.563 220.915 431.322 220.03 432.277 219.433C433.231 218.83 434.295 218.528 435.468 218.528C436.363 218.528 437.099 218.681 437.676 218.986C438.252 219.284 438.71 219.645 439.048 220.07C439.386 220.487 439.648 220.882 439.833 221.253H439.983V213.636H443.592V234H440.052V231.594H439.833C439.648 231.965 439.379 232.359 439.028 232.777C438.677 233.188 438.213 233.539 437.636 233.831C437.059 234.123 436.333 234.268 435.458 234.268ZM436.463 231.315C437.225 231.315 437.875 231.11 438.412 230.699C438.949 230.281 439.356 229.701 439.635 228.959C439.913 228.216 440.052 227.351 440.052 226.364C440.052 225.376 439.913 224.518 439.635 223.788C439.363 223.059 438.958 222.492 438.422 222.088C437.891 221.684 437.238 221.482 436.463 221.482C435.661 221.482 434.991 221.69 434.454 222.108C433.917 222.526 433.513 223.102 433.241 223.838C432.969 224.574 432.833 225.416 432.833 226.364C432.833 227.318 432.969 228.17 433.241 228.919C433.52 229.661 433.927 230.248 434.464 230.679C435.008 231.103 435.674 231.315 436.463 231.315ZM447.428 234V218.727H451.027V234H447.428ZM449.237 216.56C448.667 216.56 448.177 216.371 447.766 215.993C447.355 215.608 447.149 215.148 447.149 214.611C447.149 214.067 447.355 213.607 447.766 213.229C448.177 212.844 448.667 212.652 449.237 212.652C449.814 212.652 450.304 212.844 450.709 213.229C451.12 213.607 451.325 214.067 451.325 214.611C451.325 215.148 451.12 215.608 450.709 215.993C450.304 216.371 449.814 216.56 449.237 216.56ZM461.39 234.298C459.899 234.298 458.606 233.97 457.512 233.314C456.419 232.658 455.57 231.74 454.967 230.56C454.37 229.38 454.072 228.001 454.072 226.423C454.072 224.846 454.37 223.464 454.967 222.277C455.57 221.09 456.419 220.169 457.512 219.513C458.606 218.857 459.899 218.528 461.39 218.528C462.882 218.528 464.174 218.857 465.268 219.513C466.362 220.169 467.207 221.09 467.804 222.277C468.407 223.464 468.708 224.846 468.708 226.423C468.708 228.001 468.407 229.38 467.804 230.56C467.207 231.74 466.362 232.658 465.268 233.314C464.174 233.97 462.882 234.298 461.39 234.298ZM461.41 231.415C462.219 231.415 462.895 231.193 463.439 230.749C463.982 230.298 464.386 229.695 464.652 228.939C464.923 228.183 465.059 227.341 465.059 226.413C465.059 225.479 464.923 224.634 464.652 223.878C464.386 223.116 463.982 222.509 463.439 222.058C462.895 221.607 462.219 221.382 461.41 221.382C460.582 221.382 459.892 221.607 459.342 222.058C458.798 222.509 458.391 223.116 458.119 223.878C457.854 224.634 457.721 225.479 457.721 226.413C457.721 227.341 457.854 228.183 458.119 228.939C458.391 229.695 458.798 230.298 459.342 230.749C459.892 231.193 460.582 231.415 461.41 231.415Z"
     fill="#BC58EF"
     id="path22" />
  <path
     d="M99.7705 297H103.317L108.067 308.594H108.255L113.005 297H116.552V313H113.771V302.008H113.622L109.2 312.953H107.122L102.7 301.984H102.552V313H99.7705V297ZM123.036 313.242C122.276 313.242 121.591 313.107 120.981 312.836C120.377 312.56 119.898 312.154 119.544 311.617C119.195 311.081 119.021 310.419 119.021 309.633C119.021 308.956 119.146 308.396 119.396 307.953C119.646 307.51 119.987 307.156 120.419 306.891C120.851 306.625 121.338 306.424 121.88 306.289C122.427 306.148 122.992 306.047 123.575 305.984C124.278 305.911 124.849 305.846 125.286 305.789C125.724 305.727 126.041 305.633 126.239 305.508C126.442 305.378 126.544 305.177 126.544 304.906V304.859C126.544 304.271 126.369 303.815 126.021 303.492C125.672 303.169 125.169 303.008 124.513 303.008C123.82 303.008 123.271 303.159 122.864 303.461C122.463 303.763 122.192 304.12 122.052 304.531L119.411 304.156C119.619 303.427 119.963 302.818 120.442 302.328C120.922 301.833 121.507 301.464 122.2 301.219C122.893 300.969 123.659 300.844 124.497 300.844C125.075 300.844 125.651 300.911 126.224 301.047C126.797 301.182 127.32 301.406 127.794 301.719C128.268 302.026 128.648 302.445 128.935 302.977C129.226 303.508 129.372 304.172 129.372 304.969V313H126.653V311.352H126.56C126.388 311.685 126.146 311.997 125.833 312.289C125.526 312.576 125.138 312.807 124.669 312.984C124.205 313.156 123.661 313.242 123.036 313.242ZM123.771 311.164C124.338 311.164 124.83 311.052 125.247 310.828C125.664 310.599 125.984 310.297 126.208 309.922C126.437 309.547 126.552 309.138 126.552 308.695V307.281C126.463 307.354 126.312 307.422 126.099 307.484C125.89 307.547 125.656 307.602 125.396 307.648C125.135 307.695 124.877 307.737 124.622 307.773C124.367 307.81 124.146 307.841 123.958 307.867C123.536 307.924 123.159 308.018 122.825 308.148C122.492 308.279 122.229 308.461 122.036 308.695C121.843 308.924 121.747 309.221 121.747 309.586C121.747 310.107 121.937 310.5 122.317 310.766C122.698 311.031 123.182 311.164 123.771 311.164ZM132.216 313V301H134.958V303H135.083C135.302 302.307 135.677 301.773 136.208 301.398C136.744 301.018 137.356 300.828 138.044 300.828C138.2 300.828 138.375 300.836 138.567 300.852C138.765 300.862 138.929 300.88 139.06 300.906V303.508C138.94 303.466 138.75 303.43 138.489 303.398C138.234 303.362 137.987 303.344 137.747 303.344C137.231 303.344 136.768 303.456 136.356 303.68C135.95 303.898 135.63 304.203 135.396 304.594C135.161 304.984 135.044 305.435 135.044 305.945V313H132.216ZM143.517 309.234L143.509 305.82H143.962L148.274 301H151.579L146.274 306.906H145.688L143.517 309.234ZM140.938 313V297H143.767V313H140.938ZM148.47 313L144.563 307.539L146.47 305.547L151.853 313H148.47ZM158.282 313.234C157.079 313.234 156.04 312.984 155.165 312.484C154.295 311.979 153.626 311.266 153.157 310.344C152.688 309.417 152.454 308.326 152.454 307.07C152.454 305.836 152.688 304.753 153.157 303.82C153.631 302.883 154.293 302.154 155.142 301.633C155.991 301.107 156.988 300.844 158.134 300.844C158.873 300.844 159.571 300.964 160.228 301.203C160.889 301.437 161.472 301.802 161.978 302.297C162.488 302.792 162.889 303.422 163.181 304.187C163.472 304.948 163.618 305.854 163.618 306.906V307.773H153.782V305.867H160.907C160.902 305.326 160.785 304.844 160.556 304.422C160.326 303.995 160.006 303.659 159.595 303.414C159.188 303.169 158.715 303.047 158.173 303.047C157.595 303.047 157.087 303.187 156.649 303.469C156.212 303.745 155.871 304.109 155.626 304.562C155.386 305.01 155.264 305.503 155.259 306.039V307.703C155.259 308.401 155.386 309 155.642 309.5C155.897 309.995 156.254 310.375 156.712 310.641C157.17 310.901 157.707 311.031 158.321 311.031C158.733 311.031 159.105 310.974 159.438 310.859C159.772 310.74 160.061 310.565 160.306 310.336C160.55 310.107 160.735 309.823 160.86 309.484L163.501 309.781C163.334 310.479 163.017 311.089 162.548 311.609C162.084 312.125 161.491 312.526 160.767 312.812C160.043 313.094 159.215 313.234 158.282 313.234ZM172.003 301V303.187H165.104V301H172.003ZM166.808 298.125H169.636V309.391C169.636 309.771 169.693 310.063 169.808 310.266C169.927 310.464 170.084 310.599 170.276 310.672C170.469 310.745 170.683 310.781 170.917 310.781C171.094 310.781 171.256 310.768 171.401 310.742C171.552 310.716 171.667 310.693 171.745 310.672L172.222 312.883C172.071 312.935 171.854 312.992 171.573 313.055C171.297 313.117 170.959 313.154 170.558 313.164C169.849 313.185 169.211 313.078 168.644 312.844C168.076 312.604 167.625 312.234 167.292 311.734C166.964 311.234 166.802 310.609 166.808 309.859V298.125ZM174.368 313V301H177.196V313H174.368ZM175.79 299.297C175.342 299.297 174.957 299.148 174.634 298.852C174.311 298.549 174.149 298.187 174.149 297.766C174.149 297.339 174.311 296.977 174.634 296.68C174.957 296.378 175.342 296.227 175.79 296.227C176.243 296.227 176.629 296.378 176.946 296.68C177.269 296.977 177.431 297.339 177.431 297.766C177.431 298.187 177.269 298.549 176.946 298.852C176.629 299.148 176.243 299.297 175.79 299.297ZM182.933 305.969V313H180.104V301H182.808V303.039H182.948C183.224 302.367 183.664 301.833 184.269 301.437C184.878 301.042 185.631 300.844 186.526 300.844C187.354 300.844 188.076 301.021 188.69 301.375C189.31 301.729 189.789 302.242 190.128 302.914C190.472 303.586 190.641 304.401 190.636 305.359V313H187.808V305.797C187.808 304.995 187.599 304.367 187.183 303.914C186.771 303.461 186.201 303.234 185.472 303.234C184.977 303.234 184.537 303.344 184.151 303.562C183.771 303.776 183.472 304.086 183.253 304.492C183.039 304.898 182.933 305.391 182.933 305.969ZM198.729 317.75C197.714 317.75 196.841 317.612 196.112 317.336C195.383 317.065 194.797 316.701 194.354 316.242C193.912 315.784 193.604 315.276 193.433 314.719L195.979 314.102C196.094 314.336 196.261 314.568 196.479 314.797C196.698 315.031 196.993 315.224 197.362 315.375C197.737 315.531 198.209 315.609 198.776 315.609C199.578 315.609 200.243 315.414 200.769 315.023C201.295 314.638 201.558 314.003 201.558 313.117V310.844H201.417C201.271 311.135 201.058 311.435 200.776 311.742C200.5 312.049 200.133 312.307 199.675 312.516C199.222 312.724 198.651 312.828 197.964 312.828C197.042 312.828 196.206 312.612 195.456 312.18C194.711 311.742 194.118 311.091 193.675 310.227C193.237 309.357 193.019 308.268 193.019 306.961C193.019 305.643 193.237 304.531 193.675 303.625C194.118 302.714 194.714 302.023 195.464 301.555C196.214 301.081 197.05 300.844 197.972 300.844C198.675 300.844 199.253 300.964 199.706 301.203C200.164 301.437 200.529 301.721 200.8 302.055C201.071 302.383 201.276 302.693 201.417 302.984H201.573V301H204.362V313.195C204.362 314.221 204.118 315.07 203.628 315.742C203.138 316.414 202.469 316.917 201.62 317.25C200.771 317.583 199.808 317.75 198.729 317.75ZM198.753 310.609C199.352 310.609 199.862 310.464 200.284 310.172C200.706 309.88 201.026 309.461 201.245 308.914C201.464 308.367 201.573 307.711 201.573 306.945C201.573 306.19 201.464 305.529 201.245 304.961C201.032 304.393 200.714 303.953 200.292 303.641C199.875 303.323 199.362 303.164 198.753 303.164C198.123 303.164 197.597 303.328 197.175 303.656C196.753 303.984 196.435 304.435 196.222 305.008C196.008 305.576 195.901 306.221 195.901 306.945C195.901 307.68 196.008 308.323 196.222 308.875C196.44 309.422 196.761 309.849 197.183 310.156C197.61 310.458 198.133 310.609 198.753 310.609Z"
     fill="#BC58EF"
     id="path24" />
  <path
     d="M293.044 445V429H299.044C300.273 429 301.304 429.229 302.138 429.687C302.976 430.146 303.609 430.776 304.036 431.578C304.468 432.375 304.685 433.281 304.685 434.297C304.685 435.323 304.468 436.234 304.036 437.031C303.604 437.828 302.966 438.456 302.122 438.914C301.278 439.367 300.239 439.594 299.005 439.594H295.028V437.211H298.614C299.333 437.211 299.922 437.086 300.38 436.836C300.838 436.586 301.177 436.242 301.396 435.805C301.619 435.367 301.731 434.865 301.731 434.297C301.731 433.729 301.619 433.229 301.396 432.797C301.177 432.365 300.836 432.029 300.372 431.789C299.914 431.544 299.323 431.422 298.599 431.422H295.942V445H293.044ZM307.077 445V433H309.819V435H309.944C310.163 434.307 310.538 433.773 311.069 433.398C311.606 433.018 312.218 432.828 312.905 432.828C313.062 432.828 313.236 432.836 313.429 432.852C313.627 432.862 313.791 432.88 313.921 432.906V435.508C313.801 435.466 313.611 435.43 313.351 435.398C313.095 435.362 312.848 435.344 312.608 435.344C312.093 435.344 311.629 435.456 311.218 435.68C310.812 435.898 310.491 436.203 310.257 436.594C310.022 436.984 309.905 437.435 309.905 437.945V445H307.077ZM320.54 445.234C319.368 445.234 318.353 444.977 317.493 444.461C316.634 443.945 315.967 443.224 315.493 442.297C315.024 441.37 314.79 440.286 314.79 439.047C314.79 437.807 315.024 436.721 315.493 435.789C315.967 434.857 316.634 434.133 317.493 433.617C318.353 433.102 319.368 432.844 320.54 432.844C321.712 432.844 322.728 433.102 323.587 433.617C324.446 434.133 325.11 434.857 325.579 435.789C326.053 436.721 326.29 437.807 326.29 439.047C326.29 440.286 326.053 441.37 325.579 442.297C325.11 443.224 324.446 443.945 323.587 444.461C322.728 444.977 321.712 445.234 320.54 445.234ZM320.556 442.969C321.191 442.969 321.722 442.794 322.149 442.445C322.576 442.091 322.894 441.617 323.103 441.023C323.316 440.43 323.423 439.768 323.423 439.039C323.423 438.305 323.316 437.641 323.103 437.047C322.894 436.448 322.576 435.971 322.149 435.617C321.722 435.263 321.191 435.086 320.556 435.086C319.905 435.086 319.363 435.263 318.931 435.617C318.504 435.971 318.183 436.448 317.97 437.047C317.761 437.641 317.657 438.305 317.657 439.039C317.657 439.768 317.761 440.43 317.97 441.023C318.183 441.617 318.504 442.091 318.931 442.445C319.363 442.794 319.905 442.969 320.556 442.969ZM333.144 445.211C332.201 445.211 331.357 444.969 330.612 444.484C329.868 444 329.279 443.297 328.847 442.375C328.414 441.453 328.198 440.333 328.198 439.016C328.198 437.682 328.417 436.557 328.854 435.641C329.297 434.719 329.894 434.023 330.644 433.555C331.394 433.081 332.229 432.844 333.151 432.844C333.854 432.844 334.433 432.964 334.886 433.203C335.339 433.437 335.698 433.721 335.964 434.055C336.229 434.383 336.435 434.693 336.581 434.984H336.698V429H339.534V445H336.753V443.109H336.581C336.435 443.401 336.224 443.711 335.948 444.039C335.672 444.362 335.308 444.638 334.854 444.867C334.401 445.096 333.831 445.211 333.144 445.211ZM333.933 442.891C334.532 442.891 335.042 442.729 335.464 442.406C335.886 442.078 336.206 441.622 336.425 441.039C336.644 440.456 336.753 439.776 336.753 439C336.753 438.224 336.644 437.549 336.425 436.977C336.211 436.404 335.894 435.958 335.472 435.641C335.055 435.323 334.542 435.164 333.933 435.164C333.302 435.164 332.776 435.328 332.354 435.656C331.933 435.984 331.615 436.437 331.401 437.016C331.188 437.594 331.081 438.255 331.081 439C331.081 439.75 331.188 440.419 331.401 441.008C331.62 441.591 331.94 442.052 332.362 442.391C332.789 442.724 333.313 442.891 333.933 442.891ZM350.196 439.953V433H353.024V445H350.282V442.867H350.157C349.886 443.539 349.441 444.089 348.821 444.516C348.207 444.943 347.449 445.156 346.548 445.156C345.761 445.156 345.066 444.982 344.462 444.633C343.863 444.279 343.394 443.766 343.056 443.094C342.717 442.417 342.548 441.599 342.548 440.641V433H345.376V440.203C345.376 440.964 345.584 441.568 346.001 442.016C346.418 442.464 346.965 442.687 347.642 442.687C348.058 442.687 348.462 442.586 348.853 442.383C349.243 442.18 349.563 441.878 349.813 441.477C350.069 441.07 350.196 440.562 350.196 439.953ZM361.167 445.234C359.969 445.234 358.94 444.971 358.081 444.445C357.227 443.919 356.568 443.193 356.104 442.266C355.646 441.333 355.417 440.26 355.417 439.047C355.417 437.828 355.651 436.753 356.12 435.82C356.589 434.883 357.25 434.154 358.104 433.633C358.964 433.107 359.979 432.844 361.151 432.844C362.125 432.844 362.987 433.023 363.737 433.383C364.493 433.737 365.094 434.24 365.542 434.891C365.99 435.536 366.245 436.292 366.308 437.156H363.604C363.495 436.578 363.235 436.096 362.823 435.711C362.417 435.32 361.873 435.125 361.19 435.125C360.612 435.125 360.104 435.281 359.667 435.594C359.229 435.901 358.888 436.344 358.644 436.922C358.404 437.5 358.284 438.193 358.284 439C358.284 439.818 358.404 440.521 358.644 441.109C358.883 441.693 359.219 442.143 359.651 442.461C360.089 442.773 360.602 442.93 361.19 442.93C361.607 442.93 361.979 442.852 362.308 442.695C362.641 442.534 362.92 442.302 363.144 442C363.368 441.698 363.521 441.331 363.604 440.898H366.308C366.24 441.747 365.99 442.5 365.558 443.156C365.125 443.807 364.537 444.318 363.792 444.687C363.047 445.052 362.172 445.234 361.167 445.234ZM374.622 433V435.187H367.724V433H374.622ZM369.427 430.125H372.255V441.391C372.255 441.771 372.312 442.063 372.427 442.266C372.547 442.464 372.703 442.599 372.896 442.672C373.088 442.745 373.302 442.781 373.536 442.781C373.713 442.781 373.875 442.768 374.021 442.742C374.172 442.716 374.286 442.693 374.364 442.672L374.841 444.883C374.69 444.935 374.474 444.992 374.192 445.055C373.916 445.117 373.578 445.154 373.177 445.164C372.468 445.185 371.83 445.078 371.263 444.844C370.695 444.604 370.244 444.234 369.911 443.734C369.583 443.234 369.422 442.609 369.427 441.859V430.125Z"
     fill="#BC58EF"
     id="path26" />
  <path
     d="M225.343 685H219.921V669H225.452C227.041 669 228.405 669.32 229.546 669.961C230.692 670.596 231.572 671.51 232.187 672.703C232.801 673.896 233.108 675.323 233.108 676.984C233.108 678.651 232.799 680.083 232.179 681.281C231.564 682.479 230.676 683.398 229.515 684.039C228.358 684.68 226.968 685 225.343 685ZM222.819 682.492H225.202C226.317 682.492 227.246 682.289 227.991 681.883C228.736 681.471 229.296 680.859 229.671 680.047C230.046 679.229 230.233 678.208 230.233 676.984C230.233 675.76 230.046 674.745 229.671 673.937C229.296 673.125 228.741 672.518 228.007 672.117C227.278 671.711 226.371 671.508 225.288 671.508H222.819V682.492ZM241.05 685.234C239.847 685.234 238.808 684.984 237.933 684.484C237.063 683.979 236.394 683.266 235.925 682.344C235.456 681.417 235.222 680.326 235.222 679.07C235.222 677.836 235.456 676.753 235.925 675.82C236.399 674.883 237.06 674.154 237.909 673.633C238.758 673.107 239.756 672.844 240.901 672.844C241.641 672.844 242.339 672.964 242.995 673.203C243.657 673.437 244.24 673.802 244.745 674.297C245.256 674.792 245.657 675.422 245.948 676.187C246.24 676.948 246.386 677.854 246.386 678.906V679.773H236.55V677.867H243.675C243.67 677.326 243.552 676.844 243.323 676.422C243.094 675.995 242.774 675.659 242.362 675.414C241.956 675.169 241.482 675.047 240.94 675.047C240.362 675.047 239.854 675.187 239.417 675.469C238.979 675.745 238.638 676.109 238.394 676.562C238.154 677.01 238.032 677.503 238.026 678.039V679.703C238.026 680.401 238.154 681 238.409 681.5C238.664 681.995 239.021 682.375 239.479 682.641C239.938 682.901 240.474 683.031 241.089 683.031C241.5 683.031 241.873 682.974 242.206 682.859C242.539 682.74 242.828 682.565 243.073 682.336C243.318 682.107 243.503 681.823 243.628 681.484L246.269 681.781C246.102 682.479 245.784 683.089 245.315 683.609C244.852 684.125 244.258 684.526 243.534 684.812C242.81 685.094 241.982 685.234 241.05 685.234ZM259.153 673L254.88 685H251.755L247.481 673H250.497L253.255 681.914H253.38L256.146 673H259.153Z"
     fill="#BC58EF"
     id="path28" />
  <path
     d="M397.025 685H391.604V669H397.135C398.723 669 400.088 669.32 401.229 669.961C402.374 670.596 403.255 671.51 403.869 672.703C404.484 673.896 404.791 675.323 404.791 676.984C404.791 678.651 404.481 680.083 403.861 681.281C403.247 682.479 402.359 683.398 401.197 684.039C400.041 684.68 398.65 685 397.025 685ZM394.502 682.492H396.885C397.999 682.492 398.929 682.289 399.674 681.883C400.419 681.471 400.979 680.859 401.354 680.047C401.729 679.229 401.916 678.208 401.916 676.984C401.916 675.76 401.729 674.745 401.354 673.937C400.979 673.125 400.424 672.518 399.689 672.117C398.96 671.711 398.054 671.508 396.971 671.508H394.502V682.492ZM412.732 685.234C411.529 685.234 410.49 684.984 409.615 684.484C408.745 683.979 408.076 683.266 407.607 682.344C407.139 681.417 406.904 680.326 406.904 679.07C406.904 677.836 407.139 676.753 407.607 675.82C408.081 674.883 408.743 674.154 409.592 673.633C410.441 673.107 411.438 672.844 412.584 672.844C413.324 672.844 414.021 672.964 414.678 673.203C415.339 673.437 415.923 673.802 416.428 674.297C416.938 674.792 417.339 675.422 417.631 676.187C417.923 676.948 418.068 677.854 418.068 678.906V679.773H408.232V677.867H415.357C415.352 677.326 415.235 676.844 415.006 676.422C414.777 675.995 414.456 675.659 414.045 675.414C413.639 675.169 413.165 675.047 412.623 675.047C412.045 675.047 411.537 675.187 411.1 675.469C410.662 675.745 410.321 676.109 410.076 676.562C409.837 677.01 409.714 677.503 409.709 678.039V679.703C409.709 680.401 409.837 681 410.092 681.5C410.347 681.995 410.704 682.375 411.162 682.641C411.62 682.901 412.157 683.031 412.771 683.031C413.183 683.031 413.555 682.974 413.889 682.859C414.222 682.74 414.511 682.565 414.756 682.336C415.001 682.107 415.186 681.823 415.311 681.484L417.951 681.781C417.785 682.479 417.467 683.089 416.998 683.609C416.535 684.125 415.941 684.526 415.217 684.812C414.493 685.094 413.665 685.234 412.732 685.234ZM429.945 676.172L427.367 676.453C427.294 676.193 427.167 675.948 426.984 675.719C426.807 675.49 426.568 675.305 426.266 675.164C425.964 675.023 425.594 674.953 425.156 674.953C424.568 674.953 424.073 675.081 423.672 675.336C423.276 675.591 423.081 675.922 423.086 676.328C423.081 676.677 423.208 676.961 423.469 677.18C423.734 677.398 424.172 677.578 424.781 677.719L426.828 678.156C427.964 678.401 428.807 678.789 429.359 679.32C429.917 679.852 430.198 680.547 430.203 681.406C430.198 682.161 429.977 682.828 429.539 683.406C429.107 683.979 428.505 684.427 427.734 684.75C426.964 685.073 426.078 685.234 425.078 685.234C423.609 685.234 422.427 684.927 421.531 684.312C420.635 683.693 420.102 682.831 419.93 681.727L422.688 681.461C422.813 682.003 423.078 682.411 423.484 682.687C423.891 682.964 424.419 683.102 425.07 683.102C425.742 683.102 426.281 682.964 426.688 682.687C427.099 682.411 427.305 682.07 427.305 681.664C427.305 681.32 427.172 681.036 426.906 680.812C426.646 680.589 426.24 680.417 425.687 680.297L423.641 679.867C422.49 679.628 421.638 679.224 421.086 678.656C420.534 678.083 420.26 677.359 420.266 676.484C420.26 675.745 420.461 675.104 420.867 674.562C421.279 674.016 421.849 673.594 422.578 673.297C423.313 672.995 424.159 672.844 425.117 672.844C426.523 672.844 427.63 673.143 428.438 673.742C429.25 674.341 429.753 675.151 429.945 676.172ZM432.535 685V673H435.363V685H432.535ZM433.957 671.297C433.509 671.297 433.124 671.148 432.801 670.852C432.478 670.549 432.316 670.187 432.316 669.766C432.316 669.339 432.478 668.977 432.801 668.68C433.124 668.378 433.509 668.227 433.957 668.227C434.41 668.227 434.796 668.378 435.113 668.68C435.436 668.977 435.598 669.339 435.598 669.766C435.598 670.187 435.436 670.549 435.113 670.852C434.796 671.148 434.41 671.297 433.957 671.297ZM443.49 689.75C442.475 689.75 441.602 689.612 440.873 689.336C440.144 689.065 439.558 688.701 439.115 688.242C438.673 687.784 438.365 687.276 438.193 686.719L440.74 686.102C440.855 686.336 441.021 686.568 441.24 686.797C441.459 687.031 441.753 687.224 442.123 687.375C442.498 687.531 442.969 687.609 443.537 687.609C444.339 687.609 445.003 687.414 445.529 687.023C446.055 686.638 446.318 686.003 446.318 685.117V682.844H446.178C446.032 683.135 445.818 683.435 445.537 683.742C445.261 684.049 444.894 684.307 444.436 684.516C443.982 684.724 443.412 684.828 442.725 684.828C441.803 684.828 440.967 684.612 440.217 684.18C439.472 683.742 438.878 683.091 438.436 682.227C437.998 681.357 437.779 680.268 437.779 678.961C437.779 677.643 437.998 676.531 438.436 675.625C438.878 674.714 439.475 674.023 440.225 673.555C440.975 673.081 441.811 672.844 442.732 672.844C443.436 672.844 444.014 672.964 444.467 673.203C444.925 673.437 445.29 673.721 445.561 674.055C445.831 674.383 446.037 674.693 446.178 674.984H446.334V673H449.123V685.195C449.123 686.221 448.878 687.07 448.389 687.742C447.899 688.414 447.23 688.917 446.381 689.25C445.532 689.583 444.568 689.75 443.49 689.75ZM443.514 682.609C444.113 682.609 444.623 682.464 445.045 682.172C445.467 681.88 445.787 681.461 446.006 680.914C446.225 680.367 446.334 679.711 446.334 678.945C446.334 678.19 446.225 677.529 446.006 676.961C445.792 676.393 445.475 675.953 445.053 675.641C444.636 675.323 444.123 675.164 443.514 675.164C442.883 675.164 442.357 675.328 441.936 675.656C441.514 675.984 441.196 676.435 440.982 677.008C440.769 677.576 440.662 678.221 440.662 678.945C440.662 679.68 440.769 680.323 440.982 680.875C441.201 681.422 441.521 681.849 441.943 682.156C442.37 682.458 442.894 682.609 443.514 682.609ZM454.85 677.969V685H452.021V673H454.725V675.039H454.865C455.141 674.367 455.581 673.833 456.186 673.437C456.795 673.042 457.548 672.844 458.443 672.844C459.271 672.844 459.993 673.021 460.607 673.375C461.227 673.729 461.706 674.242 462.045 674.914C462.389 675.586 462.558 676.401 462.553 677.359V685H459.725V677.797C459.725 676.995 459.516 676.367 459.1 675.914C458.688 675.461 458.118 675.234 457.389 675.234C456.894 675.234 456.454 675.344 456.068 675.562C455.688 675.776 455.389 676.086 455.17 676.492C454.956 676.898 454.85 677.391 454.85 677.969Z"
     fill="#BC58EF"
     id="path30" />
  <path
     d="M524.983 491L520.468 475H523.585L526.468 486.758H526.616L529.694 475H532.53L535.616 486.766H535.757L538.64 475H541.757L537.241 491H534.382L531.179 479.773H531.054L527.843 491H524.983ZM542.89 491V479H545.632V481H545.757C545.976 480.307 546.351 479.773 546.882 479.398C547.418 479.018 548.03 478.828 548.718 478.828C548.874 478.828 549.049 478.836 549.241 478.852C549.439 478.862 549.603 478.88 549.733 478.906V481.508C549.614 481.466 549.424 481.43 549.163 481.398C548.908 481.362 548.66 481.344 548.421 481.344C547.905 481.344 547.442 481.456 547.03 481.68C546.624 481.898 546.304 482.203 546.069 482.594C545.835 482.984 545.718 483.435 545.718 483.945V491H542.89ZM551.612 491V479H554.44V491H551.612ZM553.034 477.297C552.586 477.297 552.201 477.148 551.878 476.852C551.555 476.549 551.394 476.187 551.394 475.766C551.394 475.339 551.555 474.977 551.878 474.68C552.201 474.378 552.586 474.227 553.034 474.227C553.487 474.227 553.873 474.378 554.19 474.68C554.513 474.977 554.675 475.339 554.675 475.766C554.675 476.187 554.513 476.549 554.19 476.852C553.873 477.148 553.487 477.297 553.034 477.297ZM563.341 479V481.187H556.442V479H563.341ZM558.146 476.125H560.974V487.391C560.974 487.771 561.031 488.063 561.146 488.266C561.265 488.464 561.422 488.599 561.614 488.672C561.807 488.745 562.021 488.781 562.255 488.781C562.432 488.781 562.593 488.768 562.739 488.742C562.89 488.716 563.005 488.693 563.083 488.672L563.56 490.883C563.409 490.935 563.192 490.992 562.911 491.055C562.635 491.117 562.297 491.154 561.896 491.164C561.187 491.185 560.549 491.078 559.981 490.844C559.414 490.604 558.963 490.234 558.63 489.734C558.302 489.234 558.14 488.609 558.146 487.859V476.125ZM570.89 491.234C569.687 491.234 568.647 490.984 567.772 490.484C566.903 489.979 566.233 489.266 565.765 488.344C565.296 487.417 565.062 486.326 565.062 485.07C565.062 483.836 565.296 482.753 565.765 481.82C566.239 480.883 566.9 480.154 567.749 479.633C568.598 479.107 569.595 478.844 570.741 478.844C571.481 478.844 572.179 478.964 572.835 479.203C573.496 479.437 574.08 479.802 574.585 480.297C575.095 480.792 575.496 481.422 575.788 482.187C576.08 482.948 576.226 483.854 576.226 484.906V485.773H566.39V483.867H573.515C573.509 483.326 573.392 482.844 573.163 482.422C572.934 481.995 572.614 481.659 572.202 481.414C571.796 481.169 571.322 481.047 570.78 481.047C570.202 481.047 569.694 481.187 569.257 481.469C568.819 481.745 568.478 482.109 568.233 482.562C567.994 483.01 567.871 483.503 567.866 484.039V485.703C567.866 486.401 567.994 487 568.249 487.5C568.504 487.995 568.861 488.375 569.319 488.641C569.778 488.901 570.314 489.031 570.929 489.031C571.34 489.031 571.713 488.974 572.046 488.859C572.379 488.74 572.668 488.565 572.913 488.336C573.158 488.107 573.343 487.823 573.468 487.484L576.108 487.781C575.942 488.479 575.624 489.089 575.155 489.609C574.692 490.125 574.098 490.526 573.374 490.812C572.65 491.094 571.822 491.234 570.89 491.234ZM578.618 491V479H581.36V481H581.485C581.704 480.307 582.079 479.773 582.61 479.398C583.147 479.018 583.759 478.828 584.446 478.828C584.603 478.828 584.777 478.836 584.97 478.852C585.168 478.862 585.332 478.88 585.462 478.906V481.508C585.342 481.466 585.152 481.43 584.892 481.398C584.636 481.362 584.389 481.344 584.149 481.344C583.634 481.344 583.17 481.456 582.759 481.68C582.353 481.898 582.032 482.203 581.798 482.594C581.563 482.984 581.446 483.435 581.446 483.945V491H578.618ZM596.825 482.172L594.247 482.453C594.174 482.193 594.047 481.948 593.864 481.719C593.687 481.49 593.448 481.305 593.146 481.164C592.843 481.023 592.474 480.953 592.036 480.953C591.448 480.953 590.953 481.081 590.552 481.336C590.156 481.591 589.961 481.922 589.966 482.328C589.961 482.677 590.088 482.961 590.349 483.18C590.614 483.398 591.052 483.578 591.661 483.719L593.708 484.156C594.843 484.401 595.687 484.789 596.239 485.32C596.797 485.852 597.078 486.547 597.083 487.406C597.078 488.161 596.856 488.828 596.419 489.406C595.987 489.979 595.385 490.427 594.614 490.75C593.843 491.073 592.958 491.234 591.958 491.234C590.489 491.234 589.307 490.927 588.411 490.312C587.515 489.693 586.981 488.831 586.81 487.727L589.567 487.461C589.692 488.003 589.958 488.411 590.364 488.687C590.771 488.964 591.299 489.102 591.95 489.102C592.622 489.102 593.161 488.964 593.567 488.687C593.979 488.411 594.185 488.07 594.185 487.664C594.185 487.32 594.052 487.036 593.786 486.812C593.526 486.589 593.119 486.417 592.567 486.297L590.521 485.867C589.369 485.628 588.518 485.224 587.966 484.656C587.414 484.083 587.14 483.359 587.146 482.484C587.14 481.745 587.341 481.104 587.747 480.562C588.159 480.016 588.729 479.594 589.458 479.297C590.192 478.995 591.039 478.844 591.997 478.844C593.403 478.844 594.51 479.143 595.317 479.742C596.13 480.341 596.632 481.151 596.825 482.172Z"
     fill="#BC58EF"
     id="path32" />
  <path
     d="M667.634 353.099C667.516 352.716 667.352 352.373 667.144 352.07C666.94 351.762 666.694 351.499 666.405 351.281C666.121 351.063 665.795 350.9 665.425 350.791C665.056 350.678 664.653 350.621 664.218 350.621C663.437 350.621 662.741 350.817 662.13 351.21C661.519 351.603 661.038 352.181 660.688 352.943C660.342 353.701 660.17 354.624 660.17 355.713C660.17 356.812 660.342 357.742 660.688 358.504C661.034 359.267 661.514 359.847 662.13 360.244C662.745 360.637 663.46 360.834 664.275 360.834C665.013 360.834 665.653 360.692 666.192 360.408C666.737 360.124 667.156 359.721 667.449 359.2C667.743 358.675 667.89 358.059 667.89 357.354L668.486 357.446H664.537V355.386H670.439V357.134C670.439 358.379 670.174 359.456 669.644 360.365C669.114 361.274 668.385 361.975 667.456 362.467C666.528 362.955 665.463 363.199 664.26 363.199C662.921 363.199 661.744 362.898 660.731 362.297C659.722 361.691 658.934 360.831 658.366 359.719C657.802 358.601 657.52 357.276 657.52 355.741C657.52 354.567 657.686 353.518 658.018 352.595C658.354 351.672 658.823 350.888 659.424 350.244C660.025 349.596 660.731 349.103 661.54 348.767C662.35 348.426 663.231 348.256 664.182 348.256C664.987 348.256 665.738 348.374 666.434 348.611C667.13 348.843 667.748 349.174 668.287 349.605C668.832 350.036 669.279 350.547 669.63 351.139C669.98 351.731 670.21 352.384 670.319 353.099H667.634ZM677.632 363.213C676.567 363.213 675.644 362.979 674.862 362.51C674.081 362.041 673.475 361.385 673.044 360.543C672.618 359.7 672.405 358.715 672.405 357.588C672.405 356.461 672.618 355.474 673.044 354.626C673.475 353.779 674.081 353.121 674.862 352.652C675.644 352.183 676.567 351.949 677.632 351.949C678.698 351.949 679.621 352.183 680.402 352.652C681.183 353.121 681.787 353.779 682.213 354.626C682.644 355.474 682.86 356.461 682.86 357.588C682.86 358.715 682.644 359.7 682.213 360.543C681.787 361.385 681.183 362.041 680.402 362.51C679.621 362.979 678.698 363.213 677.632 363.213ZM677.646 361.153C678.224 361.153 678.707 360.995 679.095 360.678C679.484 360.356 679.772 359.925 679.962 359.385C680.156 358.845 680.253 358.244 680.253 357.581C680.253 356.913 680.156 356.31 679.962 355.77C679.772 355.225 679.484 354.792 679.095 354.47C678.707 354.148 678.224 353.987 677.646 353.987C677.055 353.987 676.562 354.148 676.169 354.47C675.781 354.792 675.49 355.225 675.296 355.77C675.106 356.31 675.012 356.913 675.012 357.581C675.012 358.244 675.106 358.845 675.296 359.385C675.49 359.925 675.781 360.356 676.169 360.678C676.562 360.995 677.055 361.153 677.646 361.153ZM694.415 352.091L690.53 363H687.689L683.804 352.091H686.546L689.053 360.195H689.166L691.681 352.091H694.415ZM700.653 363.213C699.559 363.213 698.614 362.986 697.819 362.531C697.028 362.072 696.42 361.423 695.993 360.585C695.567 359.742 695.354 358.75 695.354 357.609C695.354 356.487 695.567 355.502 695.993 354.655C696.424 353.803 697.026 353.14 697.797 352.666C698.569 352.188 699.476 351.949 700.518 351.949C701.19 351.949 701.824 352.058 702.421 352.276C703.022 352.489 703.553 352.82 704.012 353.27C704.476 353.72 704.84 354.293 705.106 354.989C705.371 355.68 705.503 356.504 705.503 357.46V358.249H696.562V356.516H703.039C703.034 356.023 702.928 355.585 702.719 355.202C702.511 354.813 702.22 354.508 701.846 354.286C701.476 354.063 701.046 353.952 700.553 353.952C700.028 353.952 699.566 354.08 699.168 354.335C698.77 354.586 698.46 354.918 698.238 355.33C698.02 355.737 697.909 356.184 697.904 356.672V358.185C697.904 358.819 698.02 359.364 698.252 359.818C698.484 360.268 698.808 360.614 699.225 360.855C699.642 361.092 700.129 361.21 700.688 361.21C701.062 361.21 701.401 361.158 701.704 361.054C702.007 360.945 702.269 360.786 702.492 360.578C702.715 360.37 702.883 360.112 702.996 359.804L705.397 360.074C705.245 360.708 704.956 361.262 704.53 361.736C704.109 362.205 703.569 362.569 702.911 362.83C702.253 363.085 701.5 363.213 700.653 363.213ZM707.678 363V352.091H710.171V353.909H710.285C710.484 353.279 710.825 352.794 711.308 352.453C711.795 352.107 712.352 351.935 712.977 351.935C713.119 351.935 713.277 351.942 713.453 351.956C713.633 351.965 713.782 351.982 713.9 352.006V354.371C713.791 354.333 713.618 354.3 713.382 354.271C713.15 354.238 712.925 354.222 712.707 354.222C712.238 354.222 711.817 354.323 711.443 354.527C711.073 354.726 710.782 355.003 710.569 355.358C710.356 355.713 710.249 356.123 710.249 356.587V363H707.678ZM718.179 356.608V363H715.608V352.091H718.066V353.945H718.193C718.444 353.334 718.844 352.848 719.394 352.489C719.948 352.129 720.632 351.949 721.446 351.949C722.199 351.949 722.855 352.11 723.414 352.432C723.977 352.754 724.413 353.22 724.72 353.831C725.033 354.442 725.187 355.183 725.182 356.054V363H722.611V356.452C722.611 355.723 722.422 355.152 722.043 354.74C721.669 354.328 721.15 354.122 720.487 354.122C720.038 354.122 719.637 354.222 719.287 354.42C718.941 354.615 718.669 354.896 718.47 355.266C718.276 355.635 718.179 356.082 718.179 356.608ZM730.935 363.22C730.244 363.22 729.621 363.097 729.067 362.851C728.518 362.6 728.082 362.231 727.76 361.743C727.443 361.255 727.284 360.654 727.284 359.939C727.284 359.323 727.398 358.814 727.625 358.412C727.852 358.009 728.163 357.688 728.556 357.446C728.949 357.205 729.391 357.022 729.884 356.899C730.381 356.771 730.895 356.679 731.425 356.622C732.064 356.556 732.583 356.497 732.98 356.445C733.378 356.388 733.667 356.303 733.847 356.189C734.031 356.071 734.124 355.888 734.124 355.642V355.599C734.124 355.064 733.965 354.65 733.648 354.357C733.331 354.063 732.874 353.916 732.277 353.916C731.647 353.916 731.148 354.054 730.779 354.328C730.414 354.603 730.168 354.927 730.04 355.301L727.639 354.96C727.829 354.297 728.141 353.743 728.577 353.298C729.012 352.848 729.545 352.512 730.175 352.29C730.805 352.062 731.501 351.949 732.263 351.949C732.789 351.949 733.312 352.01 733.833 352.134C734.353 352.257 734.829 352.46 735.26 352.744C735.691 353.024 736.037 353.405 736.297 353.888C736.562 354.371 736.695 354.974 736.695 355.699V363H734.223V361.501H734.138C733.982 361.804 733.762 362.089 733.477 362.354C733.198 362.614 732.845 362.825 732.419 362.986C731.998 363.142 731.503 363.22 730.935 363.22ZM731.602 361.331C732.119 361.331 732.566 361.229 732.945 361.026C733.324 360.817 733.615 360.543 733.818 360.202C734.027 359.861 734.131 359.489 734.131 359.087V357.801C734.05 357.867 733.913 357.929 733.719 357.986C733.53 358.043 733.316 358.092 733.08 358.135C732.843 358.178 732.609 358.215 732.377 358.249C732.145 358.282 731.943 358.31 731.773 358.334C731.389 358.386 731.046 358.471 730.743 358.589C730.44 358.708 730.201 358.874 730.026 359.087C729.851 359.295 729.763 359.565 729.763 359.896C729.763 360.37 729.936 360.727 730.281 360.969C730.627 361.21 731.067 361.331 731.602 361.331ZM741.851 356.608V363H739.28V352.091H741.737V353.945H741.865C742.116 353.334 742.516 352.848 743.066 352.489C743.619 352.129 744.304 351.949 745.118 351.949C745.871 351.949 746.527 352.11 747.085 352.432C747.649 352.754 748.084 353.22 748.392 353.831C748.705 354.442 748.859 355.183 748.854 356.054V363H746.283V356.452C746.283 355.723 746.093 355.152 745.715 354.74C745.341 354.328 744.822 354.122 744.159 354.122C743.709 354.122 743.309 354.222 742.959 354.42C742.613 354.615 742.341 354.896 742.142 355.266C741.948 355.635 741.851 356.082 741.851 356.608ZM756.226 363.213C755.137 363.213 754.202 362.974 753.421 362.496C752.644 362.018 752.045 361.357 751.624 360.514C751.207 359.667 750.999 358.691 750.999 357.588C750.999 356.48 751.212 355.502 751.638 354.655C752.064 353.803 752.665 353.14 753.442 352.666C754.223 352.188 755.146 351.949 756.212 351.949C757.097 351.949 757.881 352.112 758.563 352.439C759.249 352.761 759.796 353.218 760.203 353.81C760.61 354.397 760.843 355.083 760.899 355.869H758.442C758.343 355.344 758.106 354.906 757.732 354.555C757.362 354.2 756.868 354.023 756.247 354.023C755.722 354.023 755.26 354.165 754.862 354.449C754.465 354.728 754.155 355.131 753.932 355.656C753.714 356.182 753.605 356.812 753.605 357.545C753.605 358.289 753.714 358.928 753.932 359.463C754.15 359.993 754.455 360.403 754.848 360.692C755.246 360.976 755.712 361.118 756.247 361.118C756.626 361.118 756.965 361.047 757.263 360.905C757.566 360.758 757.819 360.547 758.023 360.273C758.227 359.998 758.366 359.664 758.442 359.271H760.899C760.838 360.043 760.61 360.727 760.218 361.324C759.825 361.916 759.289 362.38 758.612 362.716C757.935 363.047 757.14 363.213 756.226 363.213ZM767.84 363.213C766.746 363.213 765.802 362.986 765.006 362.531C764.215 362.072 763.607 361.423 763.181 360.585C762.755 359.742 762.542 358.75 762.542 357.609C762.542 356.487 762.755 355.502 763.181 354.655C763.612 353.803 764.213 353.14 764.985 352.666C765.757 352.188 766.663 351.949 767.705 351.949C768.377 351.949 769.012 352.058 769.608 352.276C770.21 352.489 770.74 352.82 771.199 353.27C771.663 353.72 772.028 354.293 772.293 354.989C772.558 355.68 772.691 356.504 772.691 357.46V358.249H763.749V356.516H770.226C770.222 356.023 770.115 355.585 769.907 355.202C769.698 354.813 769.407 354.508 769.033 354.286C768.664 354.063 768.233 353.952 767.741 353.952C767.215 353.952 766.753 354.08 766.356 354.335C765.958 354.586 765.648 354.918 765.425 355.33C765.207 355.737 765.096 356.184 765.091 356.672V358.185C765.091 358.819 765.207 359.364 765.439 359.818C765.671 360.268 765.996 360.614 766.412 360.855C766.829 361.092 767.317 361.21 767.876 361.21C768.25 361.21 768.588 361.158 768.891 361.054C769.194 360.945 769.457 360.786 769.68 360.578C769.902 360.37 770.07 360.112 770.184 359.804L772.584 360.074C772.433 360.708 772.144 361.262 771.718 361.736C771.296 362.205 770.757 362.569 770.099 362.83C769.44 363.085 768.688 363.213 767.84 363.213Z"
     fill="#BC58EF"
     id="path34" />
  <path
     d="M388 293L387.055 292.673L387.053 292.679L388 293ZM397.5 265.5L388.778 273.067L399.692 276.837L397.5 265.5ZM360.447 377.321L388.947 293.321L387.053 292.679L358.553 376.679L360.447 377.321ZM388.945 293.327L395.507 274.333L393.616 273.68L387.055 292.673L388.945 293.327Z"
     fill="#BC58EF"
     id="path36" />
  <path
     d="M361.5 222L350.437 218.693L353.105 229.928L361.5 222ZM201.731 260.973L352.975 225.053L352.512 223.107L201.269 259.027L201.731 260.973Z"
     fill="#BC58EF"
     id="path38" />
  <path
     d="M488.5 231.5L495.225 240.887L499.992 230.37L488.5 231.5ZM665.413 310.589L497.11 234.305L496.284 236.126L664.587 312.411L665.413 310.589Z"
     fill="#BC58EF"
     id="path40" />
  <path
     d="M451.5 265L450.823 276.527L461.144 271.35L451.5 265ZM531.894 423.052L456.429 272.596L454.641 273.493L530.106 423.948L531.894 423.052Z"
     fill="#BC58EF"
     id="path42" />
  <path
     d="M366 492.5L364.673 503.971L375.27 499.384L366 492.5ZM418.418 611.103L370.492 500.363L368.657 501.157L416.582 611.897L418.418 611.103Z"
     fill="#BC58EF"
     id="path44" />
  <path
     d="M308 495.5L298.375 501.879L308.712 507.025L308 495.5ZM251.395 611.446L304.884 504.002L303.094 503.111L249.605 610.554L251.395 611.446Z"
     fill="#BC58EF"
     id="path46" />
  <defs
     id="defs65">
    <filter
       id="filter0_d_0_1"
       x="0"
       y="0"
       width="853"
       height="853"
       filterUnits="userSpaceOnUse"
       color-interpolation-filters="sRGB">
      <feFlood
         flood-opacity="0"
         result="BackgroundImageFix"
         id="feFlood48" />
      <feColorMatrix
         in="SourceAlpha"
         type="matrix"
         values="0 0 0 0 0 0 0 0 0 0 0 0 0 0 0 0 0 0 127 0"
         result="hardAlpha"
         id="feColorMatrix50" />
      <feOffset
         dy="10"
         id="feOffset52" />
      <feGaussianBlur
         stdDeviation="20.5"
         id="feGaussianBlur54" />
      <feComposite
         in2="hardAlpha"
         operator="out"
         id="feComposite56" />
      <feColorMatrix
         type="matrix"
         values="0 0 0 0 0 0 0 0 0 0 0 0 0 0 0 0 0 0 0.5 0"
         id="feColorMatrix58" />
      <feBlend
         mode="normal"
         in2="BackgroundImageFix"
         result="effect1_dropShadow_0_1"
         id="feBlend60" />
      <feBlend
         mode="normal"
         in="SourceGraphic"
         in2="effect1_dropShadow_0_1"
         result="shape"
         id="feBlend62" />
    </filter>
  </defs>
</svg>
