<?xml version="1.0" encoding="UTF-8" standalone="no"?>
<svg
   xmlns:dc="http://purl.org/dc/elements/1.1/"
   xmlns:cc="http://creativecommons.org/ns#"
   xmlns:rdf="http://www.w3.org/1999/02/22-rdf-syntax-ns#"
   xmlns:svg="http://www.w3.org/2000/svg"
   xmlns="http://www.w3.org/2000/svg"
   xmlns:sodipodi="http://sodipodi.sourceforge.net/DTD/sodipodi-0.dtd"
   xmlns:inkscape="http://www.inkscape.org/namespaces/inkscape"
   width="165"
   height="29"
   viewBox="0 0 165 29"
   fill="none"
   version="1.1"
   id="svg22"
   sodipodi:docname="coordinape.svg"
   inkscape:version="0.92.4 (5da689c313, 2019-01-14)">
  <metadata
     id="metadata28">
    <rdf:RDF>
      <cc:Work
         rdf:about="">
        <dc:format>image/svg+xml</dc:format>
        <dc:type
           rdf:resource="http://purl.org/dc/dcmitype/StillImage" />
      </cc:Work>
    </rdf:RDF>
  </metadata>
  <defs
     id="defs26" />
  <sodipodi:namedview
     pagecolor="#ffffff"
     bordercolor="#666666"
     borderopacity="1"
     objecttolerance="10"
     gridtolerance="10"
     guidetolerance="10"
     inkscape:pageopacity="0"
     inkscape:pageshadow="2"
     inkscape:window-width="1920"
     inkscape:window-height="1001"
     id="namedview24"
     showgrid="false"
     inkscape:zoom="2.4181818"
     inkscape:cx="13.439849"
     inkscape:cy="14.5"
     inkscape:window-x="-9"
     inkscape:window-y="-9"
     inkscape:window-maximized="1"
     inkscape:current-layer="svg22" />
  <path
     d="M17.4205 12.0909H12.6137C12.5796 11.6932 12.4887 11.3324 12.341 11.0085C12.1989 10.6847 12.0001 10.4063 11.7444 10.1733C11.4944 9.93466 11.1904 9.75285 10.8325 9.62785C10.4745 9.49716 10.0682 9.43182 9.6137 9.43182C8.81825 9.43182 8.14495 9.62501 7.59382 10.0114C7.04836 10.3977 6.63359 10.9517 6.3495 11.6733C6.07109 12.3949 5.93188 13.2614 5.93188 14.2727C5.93188 15.3409 6.07393 16.2358 6.35802 16.9574C6.64779 17.6733 7.06541 18.2131 7.61086 18.5767C8.15632 18.9347 8.81257 19.1136 9.57961 19.1136C10.0171 19.1136 10.4092 19.0597 10.7557 18.9517C11.1023 18.8381 11.4035 18.6761 11.6592 18.4659C11.9148 18.2557 12.1222 18.0028 12.2813 17.7074C12.4461 17.4063 12.5569 17.0682 12.6137 16.6932L17.4205 16.7273C17.3637 17.4659 17.1563 18.2188 16.7984 18.9858C16.4404 19.7472 15.9319 20.4517 15.2728 21.0994C14.6194 21.7415 13.8097 22.2585 12.8438 22.6506C11.8779 23.0426 10.7557 23.2386 9.47734 23.2386C7.87507 23.2386 6.43757 22.8949 5.16484 22.2074C3.89779 21.5199 2.89495 20.5085 2.15632 19.1733C1.42336 17.8381 1.05688 16.2046 1.05688 14.2727C1.05688 12.3296 1.43188 10.6932 2.18188 9.36364C2.93188 8.02841 3.94325 7.01989 5.21598 6.33807C6.4887 5.65057 7.90916 5.30682 9.47734 5.30682C10.5796 5.30682 11.5938 5.45739 12.52 5.75853C13.4461 6.05966 14.2586 6.50001 14.9575 7.07955C15.6563 7.65341 16.2188 8.3608 16.645 9.20171C17.0711 10.0426 17.3296 11.0057 17.4205 12.0909Z"
     fill="#4E5658"
     id="path2"
     style="fill:#b3b3b3" />
  <path
     d="M36.4795 14.2727C36.4795 16.2159 36.1016 17.8551 35.3459 19.1903C34.5903 20.5199 33.5704 21.5284 32.2863 22.2159C31.0022 22.8977 29.5704 23.2386 27.9908 23.2386C26.3999 23.2386 24.9624 22.8949 23.6783 22.2074C22.3999 21.5142 21.3829 20.5028 20.6272 19.1733C19.8772 17.8381 19.5022 16.2046 19.5022 14.2727C19.5022 12.3296 19.8772 10.6932 20.6272 9.36364C21.3829 8.02841 22.3999 7.01989 23.6783 6.33807C24.9624 5.65057 26.3999 5.30682 27.9908 5.30682C29.5704 5.30682 31.0022 5.65057 32.2863 6.33807C33.5704 7.01989 34.5903 8.02841 35.3459 9.36364C36.1016 10.6932 36.4795 12.3296 36.4795 14.2727ZM31.6045 14.2727C31.6045 13.2273 31.4653 12.3466 31.1869 11.6307C30.9141 10.9091 30.5079 10.3636 29.9681 9.99432C29.434 9.61932 28.7749 9.43182 27.9908 9.43182C27.2067 9.43182 26.5448 9.61932 26.005 9.99432C25.4709 10.3636 25.0647 10.9091 24.7863 11.6307C24.5136 12.3466 24.3772 13.2273 24.3772 14.2727C24.3772 15.3182 24.5136 16.2017 24.7863 16.9233C25.0647 17.6392 25.4709 18.1847 26.005 18.5597C26.5448 18.929 27.2067 19.1136 27.9908 19.1136C28.7749 19.1136 29.434 18.929 29.9681 18.5597C30.5079 18.1847 30.9141 17.6392 31.1869 16.9233C31.4653 16.2017 31.6045 15.3182 31.6045 14.2727Z"
     fill="#4E5658"
     id="path4"
     style="fill:#b3b3b3" />
  <path
     d="M55.581 14.2727C55.581 16.2159 55.2032 17.8551 54.4475 19.1903C53.6918 20.5199 52.6719 21.5284 51.3878 22.2159C50.1038 22.8977 48.6719 23.2386 47.0924 23.2386C45.5015 23.2386 44.064 22.8949 42.7799 22.2074C41.5015 21.5142 40.4844 20.5028 39.7288 19.1733C38.9788 17.8381 38.6038 16.2046 38.6038 14.2727C38.6038 12.3296 38.9788 10.6932 39.7288 9.36364C40.4844 8.02841 41.5015 7.01989 42.7799 6.33807C44.064 5.65057 45.5015 5.30682 47.0924 5.30682C48.6719 5.30682 50.1038 5.65057 51.3878 6.33807C52.6719 7.01989 53.6918 8.02841 54.4475 9.36364C55.2032 10.6932 55.581 12.3296 55.581 14.2727ZM50.706 14.2727C50.706 13.2273 50.5668 12.3466 50.2884 11.6307C50.0157 10.9091 49.6094 10.3636 49.0697 9.99432C48.5356 9.61932 47.8765 9.43182 47.0924 9.43182C46.3083 9.43182 45.6464 9.61932 45.1066 9.99432C44.5725 10.3636 44.1663 10.9091 43.8878 11.6307C43.6151 12.3466 43.4788 13.2273 43.4788 14.2727C43.4788 15.3182 43.6151 16.2017 43.8878 16.9233C44.1663 17.6392 44.5725 18.1847 45.1066 18.5597C45.6464 18.929 46.3083 19.1136 47.0924 19.1136C47.8765 19.1136 48.5356 18.929 49.0697 18.5597C49.6094 18.1847 50.0157 17.6392 50.2884 16.9233C50.5668 16.2017 50.706 15.3182 50.706 14.2727Z"
     fill="#4E5658"
     id="path6"
     style="fill:#b3b3b3" />
  <path
     d="M57.7735 23V5.54546H65.3076C66.603 5.54546 67.7366 5.78126 68.7082 6.25285C69.6798 6.72444 70.4354 7.40342 70.9752 8.28978C71.515 9.17614 71.7849 10.2386 71.7849 11.4773C71.7849 12.7273 71.5065 13.7813 70.9496 14.6392C70.3985 15.4972 69.6229 16.1449 68.6229 16.5824C67.6286 17.0199 66.4667 17.2386 65.1371 17.2386H60.6371V13.5568H64.1826C64.7394 13.5568 65.2139 13.4886 65.6059 13.3523C66.0036 13.2102 66.3076 12.9858 66.5178 12.679C66.7337 12.3722 66.8417 11.9716 66.8417 11.4773C66.8417 10.9773 66.7337 10.571 66.5178 10.2585C66.3076 9.94035 66.0036 9.70739 65.6059 9.55966C65.2139 9.40626 64.7394 9.32955 64.1826 9.32955H62.5121V23H57.7735ZM68.0008 14.9886L72.3644 23H67.2167L62.9553 14.9886H68.0008Z"
     fill="#4E5658"
     id="path8"
     style="fill:#b3b3b3" />
  <path
     d="M80.5207 23H73.8048V5.54546H80.4525C82.2479 5.54546 83.7991 5.89489 85.1059 6.59376C86.4184 7.28694 87.4298 8.28694 88.14 9.59376C88.8559 10.8949 89.2138 12.4546 89.2138 14.2727C89.2138 16.0909 88.8587 17.6534 88.1485 18.9602C87.4383 20.2614 86.4326 21.2614 85.1315 21.9602C83.8303 22.6534 82.2934 23 80.5207 23ZM78.5434 18.9773H80.3502C81.2138 18.9773 81.9496 18.8381 82.5576 18.5597C83.1712 18.2813 83.6371 17.8011 83.9553 17.1193C84.2792 16.4375 84.4411 15.4886 84.4411 14.2727C84.4411 13.0568 84.2763 12.108 83.9468 11.4261C83.6229 10.7443 83.1457 10.2642 82.515 9.9858C81.89 9.70739 81.1229 9.56819 80.2138 9.56819H78.5434V18.9773Z"
     fill="#4E5658"
     id="path10"
     style="fill:#b3b3b3" />
  <path
     d="M96.145 5.54546V23H91.4063V5.54546H96.145Z"
     fill="#4E5658"
     id="path12"
     style="fill:#b3b3b3" />
  <path
     d="M113.493 5.54546V23H109.538L103.232 13.8296H103.129V23H98.3907V5.54546H102.413L108.618 14.6818H108.754V5.54546H113.493Z"
     fill="#4E5658"
     id="path14"
     style="fill:#b3b3b3" />
  <path
     d="M120.269 23H115.155L120.916 5.54546H127.394L133.155 23H128.041L124.223 10.3523H124.087L120.269 23ZM119.314 16.1136H128.928V19.6591H119.314V16.1136Z"
     fill="#4E5658"
     id="path16"
     style="fill:#b3b3b3" />
  <path
     d="M134.836 23V5.54546H142.37C143.666 5.54546 144.799 5.80114 145.771 6.31251C146.742 6.82387 147.498 7.54262 148.038 8.46876C148.577 9.39489 148.847 10.4773 148.847 11.7159C148.847 12.9659 148.569 14.0483 148.012 14.9631C147.461 15.8778 146.685 16.5824 145.685 17.0767C144.691 17.571 143.529 17.8182 142.2 17.8182H137.7V14.1364H141.245C141.802 14.1364 142.276 14.0398 142.668 13.8466C143.066 13.6477 143.37 13.3665 143.58 13.0028C143.796 12.6392 143.904 12.2102 143.904 11.7159C143.904 11.2159 143.796 10.7898 143.58 10.4375C143.37 10.0796 143.066 9.80682 142.668 9.61932C142.276 9.42614 141.802 9.32955 141.245 9.32955H139.575V23H134.836Z"
     fill="#4E5658"
     id="path18"
     style="fill:#b3b3b3" />
  <path
     d="M150.586 23V5.54546H163.166V9.36364H155.325V12.3636H162.518V16.1818H155.325V19.1818H163.131V23H150.586Z"
     fill="#4E5658"
     id="path20"
     style="fill:#b3b3b3" />
</svg>
