<?xml version="1.0" encoding="UTF-8" standalone="no"?>
<!-- Creator: CorelDRAW 2019 (64-Bit) -->

<svg
   xmlns:dc="http://purl.org/dc/elements/1.1/"
   xmlns:cc="http://creativecommons.org/ns#"
   xmlns:rdf="http://www.w3.org/1999/02/22-rdf-syntax-ns#"
   xmlns:svg="http://www.w3.org/2000/svg"
   xmlns="http://www.w3.org/2000/svg"
   xmlns:xlink="http://www.w3.org/1999/xlink"
   xmlns:sodipodi="http://sodipodi.sourceforge.net/DTD/sodipodi-0.dtd"
   xmlns:inkscape="http://www.inkscape.org/namespaces/inkscape"
   xml:space="preserve"
   width="1883.6951"
   height="2165.3"
   version="1.1"
   viewBox="0 0 1883.6951 2165.3"
   id="svg19"
   sodipodi:docname="crypto1.svg"
   inkscape:version="0.92.4 (5da689c313, 2019-01-14)"
   style="clip-rule:evenodd;fill-rule:evenodd;image-rendering:optimizeQuality;shape-rendering:geometricPrecision;text-rendering:geometricPrecision"><metadata
   id="metadata25"><rdf:RDF><cc:Work
       rdf:about=""><dc:format>image/svg+xml</dc:format><dc:type
         rdf:resource="http://purl.org/dc/dcmitype/StillImage" /><dc:title></dc:title></cc:Work></rdf:RDF></metadata><defs
   id="defs23"><linearGradient
   inkscape:collect="always"
   id="linearGradient1631"><stop
     style="stop-color:#000000;stop-opacity:1;"
     offset="0"
     id="stop1627" /><stop
     style="stop-color:#000000;stop-opacity:0;"
     offset="1"
     id="stop1629" /></linearGradient><linearGradient
   inkscape:collect="always"
   id="linearGradient1601"><stop
     style="stop-color:#8247e5;stop-opacity:0.42402827"
     offset="0"
     id="stop1597" /><stop
     id="stop1609"
     offset="0.34887722"
     style="stop-color:#cfb9f5;stop-opacity:0" /><stop
     style="stop-color:#ffffff;stop-opacity:0"
     offset="1"
     id="stop1599" /></linearGradient><linearGradient
   inkscape:collect="always"
   id="linearGradient1583"><stop
     style="stop-color:#ff0f0f;stop-opacity:1"
     offset="0"
     id="stop1579" /><stop
     style="stop-color:#ff2a2a;stop-opacity:0;"
     offset="1"
     id="stop1581" /></linearGradient><inkscape:path-effect
   effect="spiro"
   id="path-effect1416"
   is_visible="true" /><linearGradient
   inkscape:collect="always"
   id="linearGradient1367"><stop
     style="stop-color:#1a1a1a;stop-opacity:1"
     offset="0"
     id="stop1363" /><stop
     style="stop-color:#999999;stop-opacity:1"
     offset="1"
     id="stop1365" /></linearGradient><linearGradient
   inkscape:collect="always"
   id="linearGradient1037"><stop
     style="stop-color:#b3b3b3;stop-opacity:1"
     offset="0"
     id="stop1033" /><stop
     style="stop-color:#ffffff;stop-opacity:1"
     offset="1"
     id="stop1035" /></linearGradient><linearGradient
   inkscape:collect="always"
   id="linearGradient1029"><stop
     style="stop-color:#ffffff;stop-opacity:1"
     offset="0"
     id="stop1025" /><stop
     style="stop-color:#b3b3b3;stop-opacity:1"
     offset="1"
     id="stop1027" /></linearGradient><linearGradient
   inkscape:collect="always"
   id="linearGradient1021"><stop
     style="stop-color:#ffffff;stop-opacity:1"
     offset="0"
     id="stop1017" /><stop
     style="stop-color:#999999;stop-opacity:1"
     offset="1"
     id="stop1019" /></linearGradient>
  
  
 
   
  
    
    
    
    
    
    
   <filter
   inkscape:collect="always"
   style="color-interpolation-filters:sRGB"
   id="filter881"
   x="-0.63790166"
   width="2.2758033"
   y="-1.3441499"
   height="3.6882999"><feGaussianBlur
     inkscape:collect="always"
     stdDeviation="30.009658"
     id="feGaussianBlur883" /></filter><filter
   inkscape:collect="always"
   style="color-interpolation-filters:sRGB"
   id="filter913"
   x="-0.79090911"
   width="2.5818181"
   y="-0.96666664"
   height="2.9333334"><feGaussianBlur
     inkscape:collect="always"
     stdDeviation="29.43139"
     id="feGaussianBlur915" /></filter><filter
   inkscape:collect="always"
   style="color-interpolation-filters:sRGB"
   id="filter1013"
   x="-0.11355304"
   width="1.2271061"
   y="-0.069726788"
   height="1.1394536"><feGaussianBlur
     inkscape:collect="always"
     stdDeviation="37.1115"
     id="feGaussianBlur1015" /></filter><linearGradient
   inkscape:collect="always"
   xlink:href="#linearGradient1021"
   id="linearGradient1023"
   x1="383.5"
   y1="29.110001"
   x2="586.56757"
   y2="660.35809"
   gradientUnits="userSpaceOnUse" /><linearGradient
   inkscape:collect="always"
   xlink:href="#linearGradient1029"
   id="linearGradient1031"
   x1="194.50757"
   y1="456.09198"
   x2="716.47162"
   y2="588.00098"
   gradientUnits="userSpaceOnUse" /><linearGradient
   inkscape:collect="always"
   xlink:href="#linearGradient1037"
   id="linearGradient1039"
   x1="335.58551"
   y1="1198.6974"
   x2="291.93561"
   y2="836.04858"
   gradientUnits="userSpaceOnUse" /><filter
   height="1.2088586"
   y="-0.10442931"
   width="1.1098785"
   x="-0.054939251"
   id="filter945"
   style="color-interpolation-filters:sRGB"
   inkscape:collect="always"><feGaussianBlur
     id="feGaussianBlur947"
     stdDeviation="5.8785"
     inkscape:collect="always" /></filter><filter
   height="1.4803748"
   y="-0.24018742"
   width="1.2527206"
   x="-0.12636028"
   id="filter985"
   style="color-interpolation-filters:sRGB"
   inkscape:collect="always"><feGaussianBlur
     id="feGaussianBlur987"
     stdDeviation="13.52055"
     inkscape:collect="always" /></filter><filter
   height="1.1440001"
   y="-0.071999997"
   width="1.1440001"
   x="-0.071999997"
   id="filter1011"
   style="color-interpolation-filters:sRGB"
   inkscape:collect="always"><feGaussianBlur
     id="feGaussianBlur1013"
     stdDeviation="15"
     inkscape:collect="always" /></filter><filter
   inkscape:collect="always"
   style="color-interpolation-filters:sRGB"
   id="filter1251"
   x="-0.090235002"
   width="1.18047"
   y="-0.10255191"
   height="1.2051038"><feGaussianBlur
     inkscape:collect="always"
     stdDeviation="12.60507"
     id="feGaussianBlur1253" /></filter><filter
   inkscape:collect="always"
   style="color-interpolation-filters:sRGB"
   id="filter1301"
   x="-0.048"
   width="1.096"
   y="-0.048"
   height="1.096"><feGaussianBlur
     inkscape:collect="always"
     stdDeviation="10.933593"
     id="feGaussianBlur1303" /></filter><linearGradient
   inkscape:collect="always"
   xlink:href="#linearGradient1367"
   id="linearGradient1369"
   x1="1012.9812"
   y1="1250.9257"
   x2="974.8382"
   y2="604.10596"
   gradientUnits="userSpaceOnUse"
   gradientTransform="translate(-13.34637,654.53485)" /><filter
   inkscape:collect="always"
   style="color-interpolation-filters:sRGB"
   id="filter1393"
   x="-0.071999997"
   width="1.1440001"
   y="-0.071999997"
   height="1.1440001"><feGaussianBlur
     inkscape:collect="always"
     stdDeviation="19.810371"
     id="feGaussianBlur1395" /></filter><linearGradient
   inkscape:collect="always"
   xlink:href="#linearGradient1367"
   id="linearGradient1476"
   gradientUnits="userSpaceOnUse"
   x1="1012.9812"
   y1="1250.9257"
   x2="974.8382"
   y2="604.10596"
   gradientTransform="translate(-13.34637,654.53485)" /><linearGradient
   inkscape:collect="always"
   xlink:href="#linearGradient1583"
   id="linearGradient1585"
   x1="2014.7286"
   y1="-243.821"
   x2="2021.3507"
   y2="-435.60925"
   gradientUnits="userSpaceOnUse"
   gradientTransform="matrix(1,0,0,0.67195268,-1818.9022,-638.96294)" /><linearGradient
   inkscape:collect="always"
   xlink:href="#linearGradient1601"
   id="linearGradient1605"
   x1="1677.9962"
   y1="-578.16101"
   x2="1688.4714"
   y2="-791.63306"
   gradientUnits="userSpaceOnUse"
   gradientTransform="matrix(1,0,0,0.63305048,-72.07922,-181.79878)" /><linearGradient
   inkscape:collect="always"
   xlink:href="#linearGradient1631"
   id="linearGradient1633"
   x1="1197.2567"
   y1="-659.90704"
   x2="1187.6384"
   y2="-871.80701"
   gradientUnits="userSpaceOnUse"
   gradientTransform="matrix(1,0,0,0.53184497,-230.90397,-1501.976)" /></defs><sodipodi:namedview
   pagecolor="#ffffff"
   bordercolor="#666666"
   borderopacity="1"
   objecttolerance="10"
   gridtolerance="10"
   guidetolerance="10"
   inkscape:pageopacity="0"
   inkscape:pageshadow="2"
   inkscape:window-width="1920"
   inkscape:window-height="1001"
   id="namedview21"
   showgrid="false"
   inkscape:zoom="0.13063919"
   inkscape:cx="-619.67793"
   inkscape:cy="1160.5654"
   inkscape:window-x="-9"
   inkscape:window-y="-9"
   inkscape:window-maximized="1"
   inkscape:current-layer="svg19"
   fit-margin-top="0"
   fit-margin-left="0"
   fit-margin-right="0"
   fit-margin-bottom="0" />
 <ellipse
   transform="scale(1,-1)"
   class="st0"
   cx="1576.4026"
   cy="-717.97485"
   id="circle1587"
   style="opacity:0.42399998;fill:url(#linearGradient1605);fill-opacity:1;stroke-width:0.846466"
   rx="265.9686"
   ry="168.37155" /><ellipse
   style="opacity:0.731;fill:url(#linearGradient1585);fill-opacity:1;stroke-width:0.52600765"
   id="circle1510"
   cy="-991.68323"
   cx="189.5222"
   class="st0"
   transform="scale(1,-1)"
   rx="160.42155"
   ry="107.79569" />
<g
   id="g1199"
   transform="matrix(0.57559539,0,0,0.57559539,0,539.32026)"><circle
     transform="matrix(1.1148216,0,0,1.1148216,-1.7276622e-6,-1.7276622e-6)"
     style="fill:#ff4a5e;fill-opacity:1;filter:url(#filter1011)"
     class="st0"
     cx="286"
     cy="286"
     r="250"
     id="circle989" /><circle
     style="fill:#ff0420;stroke-width:1.11482167"
     id="circle4"
     r="278.70541"
     cy="318.83899"
     cx="318.83899"
     class="st0" /><g
     transform="matrix(1.2447275,0,0,1.2447275,7.0335383,7.8064803)"
     id="g827"><path
       style="fill:#ffffff"
       inkscape:connector-curvature="0"
       class="st1"
       d="m 177.1,316.4 c -14.9,0 -27.1,-3.5 -36.6,-10.5 -9.4,-7.1 -14.1,-17.3 -14.1,-30.4 0,-2.8 0.3,-6.1 0.9,-10.1 1.6,-9 3.9,-19.8 6.9,-32.5 8.5,-34.4 30.5,-51.6 65.9,-51.6 9.6,0 18.3,1.6 25.9,4.9 7.6,3.1 13.6,7.9 18,14.3 4.4,6.3 6.6,13.8 6.6,22.5 0,2.6 -0.3,5.9 -0.9,9.9 -1.9,11.1 -4.1,22 -6.8,32.5 -4.4,17.1 -11.9,30 -22.7,38.5 -10.7,8.4 -25.1,12.5 -43.1,12.5 z m 2.7,-27 c 7,0 12.9,-2.1 17.8,-6.2 5,-4.1 8.6,-10.4 10.7,-19 2.9,-11.8 5.1,-22 6.6,-30.8 0.5,-2.6 0.8,-5.3 0.8,-8.1 0,-11.4 -5.9,-17.1 -17.8,-17.1 -7,0 -13,2.1 -18,6.2 -4.9,4.1 -8.4,10.4 -10.5,19 -2.3,8.4 -4.5,18.6 -6.8,30.8 -0.5,2.5 -0.8,5.1 -0.8,7.9 -0.1,11.6 6,17.3 18,17.3 z"
       id="path6" /><path
       style="fill:#ffffff"
       inkscape:connector-curvature="0"
       class="st1"
       d="m 259.3,314.6 c -1.4,0 -2.4,-0.4 -3.2,-1.3 -0.6,-1 -0.8,-2.1 -0.6,-3.4 l 25.9,-122 c 0.2,-1.4 0.9,-2.5 2.1,-3.4 1.1,-0.9 2.3,-1.3 3.6,-1.3 H 337 c 13.9,0 25,2.9 33.4,8.6 8.5,5.8 12.8,14.1 12.8,25 0,3.1 -0.4,6.4 -1.1,9.8 -3.1,14.4 -9.4,25 -19,31.9 -9.4,6.9 -22.3,10.3 -38.7,10.3 h -25.3 l -8.6,41.1 c -0.3,1.4 -0.9,2.5 -2.1,3.4 -1.1,0.9 -2.3,1.3 -3.6,1.3 z m 66.4,-71.7 c 5.3,0 9.8,-1.4 13.7,-4.3 4,-2.9 6.6,-7 7.9,-12.4 0.4,-2.1 0.6,-4 0.6,-5.6 0,-3.6 -1.1,-6.4 -3.2,-8.3 -2.1,-2 -5.8,-3 -10.9,-3 h -22.5 l -7.1,33.6 z"
       id="path8" /></g><g
     transform="matrix(1.2447275,0,0,1.2447275,7.0335383,7.8064803)"
     id="g883"
     style="opacity:0.8479996;fill:#ffffff;filter:url(#filter985)"><path
       inkscape:connector-curvature="0"
       style="fill:#ffffff"
       class="st1"
       d="m 177.1,316.4 c -14.9,0 -27.1,-3.5 -36.6,-10.5 -9.4,-7.1 -14.1,-17.3 -14.1,-30.4 0,-2.8 0.3,-6.1 0.9,-10.1 1.6,-9 3.9,-19.8 6.9,-32.5 8.5,-34.4 30.5,-51.6 65.9,-51.6 9.6,0 18.3,1.6 25.9,4.9 7.6,3.1 13.6,7.9 18,14.3 4.4,6.3 6.6,13.8 6.6,22.5 0,2.6 -0.3,5.9 -0.9,9.9 -1.9,11.1 -4.1,22 -6.8,32.5 -4.4,17.1 -11.9,30 -22.7,38.5 -10.7,8.4 -25.1,12.5 -43.1,12.5 z m 2.7,-27 c 7,0 12.9,-2.1 17.8,-6.2 5,-4.1 8.6,-10.4 10.7,-19 2.9,-11.8 5.1,-22 6.6,-30.8 0.5,-2.6 0.8,-5.3 0.8,-8.1 0,-11.4 -5.9,-17.1 -17.8,-17.1 -7,0 -13,2.1 -18,6.2 -4.9,4.1 -8.4,10.4 -10.5,19 -2.3,8.4 -4.5,18.6 -6.8,30.8 -0.5,2.5 -0.8,5.1 -0.8,7.9 -0.1,11.6 6,17.3 18,17.3 z"
       id="path879" /><path
       inkscape:connector-curvature="0"
       style="fill:#ffffff"
       class="st1"
       d="m 259.3,314.6 c -1.4,0 -2.4,-0.4 -3.2,-1.3 -0.6,-1 -0.8,-2.1 -0.6,-3.4 l 25.9,-122 c 0.2,-1.4 0.9,-2.5 2.1,-3.4 1.1,-0.9 2.3,-1.3 3.6,-1.3 H 337 c 13.9,0 25,2.9 33.4,8.6 8.5,5.8 12.8,14.1 12.8,25 0,3.1 -0.4,6.4 -1.1,9.8 -3.1,14.4 -9.4,25 -19,31.9 -9.4,6.9 -22.3,10.3 -38.7,10.3 h -25.3 l -8.6,41.1 c -0.3,1.4 -0.9,2.5 -2.1,3.4 -1.1,0.9 -2.3,1.3 -3.6,1.3 z m 66.4,-71.7 c 5.3,0 9.8,-1.4 13.7,-4.3 4,-2.9 6.6,-7 7.9,-12.4 0.4,-2.1 0.6,-4 0.6,-5.6 0,-3.6 -1.1,-6.4 -3.2,-8.3 -2.1,-2 -5.8,-3 -10.9,-3 h -22.5 l -7.1,33.6 z"
       id="path881" /></g><g
     transform="matrix(1.2447275,0,0,1.2447275,7.0335383,7.8064803)"
     style="filter:url(#filter945)"
     id="g833"><path
       style="fill:#ffffff"
       inkscape:connector-curvature="0"
       id="path829"
       d="m 177.1,316.4 c -14.9,0 -27.1,-3.5 -36.6,-10.5 -9.4,-7.1 -14.1,-17.3 -14.1,-30.4 0,-2.8 0.3,-6.1 0.9,-10.1 1.6,-9 3.9,-19.8 6.9,-32.5 8.5,-34.4 30.5,-51.6 65.9,-51.6 9.6,0 18.3,1.6 25.9,4.9 7.6,3.1 13.6,7.9 18,14.3 4.4,6.3 6.6,13.8 6.6,22.5 0,2.6 -0.3,5.9 -0.9,9.9 -1.9,11.1 -4.1,22 -6.8,32.5 -4.4,17.1 -11.9,30 -22.7,38.5 -10.7,8.4 -25.1,12.5 -43.1,12.5 z m 2.7,-27 c 7,0 12.9,-2.1 17.8,-6.2 5,-4.1 8.6,-10.4 10.7,-19 2.9,-11.8 5.1,-22 6.6,-30.8 0.5,-2.6 0.8,-5.3 0.8,-8.1 0,-11.4 -5.9,-17.1 -17.8,-17.1 -7,0 -13,2.1 -18,6.2 -4.9,4.1 -8.4,10.4 -10.5,19 -2.3,8.4 -4.5,18.6 -6.8,30.8 -0.5,2.5 -0.8,5.1 -0.8,7.9 -0.1,11.6 6,17.3 18,17.3 z"
       class="st1" /><path
       style="fill:#ffffff"
       inkscape:connector-curvature="0"
       id="path831"
       d="m 259.3,314.6 c -1.4,0 -2.4,-0.4 -3.2,-1.3 -0.6,-1 -0.8,-2.1 -0.6,-3.4 l 25.9,-122 c 0.2,-1.4 0.9,-2.5 2.1,-3.4 1.1,-0.9 2.3,-1.3 3.6,-1.3 H 337 c 13.9,0 25,2.9 33.4,8.6 8.5,5.8 12.8,14.1 12.8,25 0,3.1 -0.4,6.4 -1.1,9.8 -3.1,14.4 -9.4,25 -19,31.9 -9.4,6.9 -22.3,10.3 -38.7,10.3 h -25.3 l -8.6,41.1 c -0.3,1.4 -0.9,2.5 -2.1,3.4 -1.1,0.9 -2.3,1.3 -3.6,1.3 z m 66.4,-71.7 c 5.3,0 9.8,-1.4 13.7,-4.3 4,-2.9 6.6,-7 7.9,-12.4 0.4,-2.1 0.6,-4 0.6,-5.6 0,-3.6 -1.1,-6.4 -3.2,-8.3 -2.1,-2 -5.8,-3 -10.9,-3 h -22.5 l -7.1,33.6 z"
       class="st1" /></g></g><style
   id="style2"
   type="text/css">
	.st0{fill:#8247E5;}
</style><style
   id="style2-1"
   type="text/css">
	.st0{fill:#FF0420;}
	.st1{fill:#FFFFFF;}
</style><g
   id="g1309"
   transform="matrix(0.95456327,0,0,0.95456327,246.62532,-508.67276)"><circle
     r="273.33981"
     cy="832.46576"
     cx="1415.4131"
     id="circle1255"
     style="opacity:1;fill:#9f71eb;fill-opacity:1;stroke:none;stroke-width:0.82786882;stroke-linecap:round;stroke-linejoin:round;stroke-miterlimit:4;stroke-dasharray:none;stroke-dashoffset:0;stroke-opacity:1;paint-order:stroke markers fill;filter:url(#filter1301)" /><circle
     style="opacity:1;fill:#8247e5;fill-opacity:1;stroke:none;stroke-width:0.82786882;stroke-linecap:round;stroke-linejoin:round;stroke-miterlimit:4;stroke-dasharray:none;stroke-dashoffset:0;stroke-opacity:1;paint-order:stroke markers fill"
     id="circle1203"
     cx="1415.4131"
     cy="832.46576"
     r="273.33981" /><path
     class="st0"
     d="m 1509.8122,782.05438 c -6.1275,-3.50141 -14.0056,-3.50141 -21.0085,0 l -49.0197,28.88663 -33.2634,18.38239 -48.1443,28.88662 c -6.1275,3.50141 -14.0057,3.50141 -21.0085,0 l -37.6401,-22.75915 c -6.1275,-3.50141 -10.5043,-10.50423 -10.5043,-18.3824 v -43.76761 c 0,-7.00282 3.5014,-14.00563 10.5043,-18.38239 l 37.6401,-21.88381 c 6.1275,-3.50141 14.0056,-3.50141 21.0085,0 l 37.6401,22.75916 c 6.1275,3.50141 10.5042,10.50422 10.5042,18.38239 v 28.88663 l 33.2634,-19.25775 v -29.76198 c 0,-7.00281 -3.5014,-14.00563 -10.5042,-18.38239 l -70.0282,-41.14156 c -6.1275,-3.50141 -14.0056,-3.50141 -21.0084,0 l -71.7789,42.01691 c -7.0028,3.50141 -10.5042,10.50423 -10.5042,17.50704 v 82.28311 c 0,7.00282 3.5014,14.00564 10.5042,18.3824 l 70.9035,41.14155 c 6.1275,3.50141 14.0056,3.50141 21.0085,0 l 48.1443,-28.01127 33.2634,-19.25775 48.1444,-28.01127 c 6.1275,-3.50141 14.0056,-3.50141 21.0084,0 l 37.6402,21.88381 c 6.1275,3.5014 10.5042,10.50422 10.5042,18.38239 v 43.76761 c 0,7.00282 -3.5014,14.00564 -10.5042,18.3824 l -36.7648,21.8838 c -6.1275,3.50141 -14.0056,3.50141 -21.0085,0 l -37.6401,-21.8838 c -6.1275,-3.50141 -10.5042,-10.50423 -10.5042,-18.3824 v -28.01127 l -33.2634,19.25775 v 28.88662 c 0,7.00282 3.5014,14.00564 10.5042,18.3824 l 70.9035,41.14155 c 6.1275,3.50141 14.0057,3.50141 21.0085,0 l 70.9035,-41.14155 c 6.1275,-3.50141 10.5042,-10.50423 10.5042,-18.3824 v -83.15846 c 0,-7.00281 -3.5014,-14.00563 -10.5042,-18.38239 z"
     id="path4"
     inkscape:connector-curvature="0"
     style="fill:#ffffff;fill-opacity:1;stroke:#ffffff;stroke-width:8.75352192;stroke-linecap:round;stroke-linejoin:round;stroke-miterlimit:4;stroke-dasharray:none;stroke-opacity:1;paint-order:stroke markers fill" /><path
     style="fill:#ffffff;fill-opacity:1;stroke:#ffffff;stroke-width:8.75352192;stroke-linecap:round;stroke-linejoin:round;stroke-miterlimit:4;stroke-dasharray:none;stroke-opacity:1;paint-order:stroke markers fill;filter:url(#filter1251)"
     inkscape:connector-curvature="0"
     id="path1213"
     d="m 1509.8122,782.05438 c -6.1275,-3.50141 -14.0056,-3.50141 -21.0085,0 l -49.0197,28.88663 -33.2634,18.38239 -48.1443,28.88662 c -6.1275,3.50141 -14.0057,3.50141 -21.0085,0 l -37.6401,-22.75915 c -6.1275,-3.50141 -10.5043,-10.50423 -10.5043,-18.3824 v -43.76761 c 0,-7.00282 3.5014,-14.00563 10.5043,-18.38239 l 37.6401,-21.88381 c 6.1275,-3.50141 14.0056,-3.50141 21.0085,0 l 37.6401,22.75916 c 6.1275,3.50141 10.5042,10.50422 10.5042,18.38239 v 28.88663 l 33.2634,-19.25775 v -29.76198 c 0,-7.00281 -3.5014,-14.00563 -10.5042,-18.38239 l -70.0282,-41.14156 c -6.1275,-3.50141 -14.0056,-3.50141 -21.0084,0 l -71.7789,42.01691 c -7.0028,3.50141 -10.5042,10.50423 -10.5042,17.50704 v 82.28311 c 0,7.00282 3.5014,14.00564 10.5042,18.3824 l 70.9035,41.14155 c 6.1275,3.50141 14.0056,3.50141 21.0085,0 l 48.1443,-28.01127 33.2634,-19.25775 48.1444,-28.01127 c 6.1275,-3.50141 14.0056,-3.50141 21.0084,0 l 37.6402,21.88381 c 6.1275,3.5014 10.5042,10.50422 10.5042,18.38239 v 43.76761 c 0,7.00282 -3.5014,14.00564 -10.5042,18.3824 l -36.7648,21.8838 c -6.1275,3.50141 -14.0056,3.50141 -21.0085,0 l -37.6401,-21.8838 c -6.1275,-3.50141 -10.5042,-10.50423 -10.5042,-18.3824 v -28.01127 l -33.2634,19.25775 v 28.88662 c 0,7.00282 3.5014,14.00564 10.5042,18.3824 l 70.9035,41.14155 c 6.1275,3.50141 14.0057,3.50141 21.0085,0 l 70.9035,-41.14155 c 6.1275,-3.50141 10.5042,-10.50423 10.5042,-18.3824 v -83.15846 c 0,-7.00281 -3.5014,-14.00563 -10.5042,-18.38239 z"
     class="st0" /></g><circle
   r="330.17285"
   cy="1576.3096"
   cx="952.81519"
   id="circle1371"
   style="opacity:1;fill:url(#linearGradient1476);fill-opacity:1;stroke:none;stroke-width:1;stroke-linecap:round;stroke-linejoin:round;stroke-miterlimit:4;stroke-dasharray:none;stroke-dashoffset:0;stroke-opacity:1;paint-order:stroke markers fill;filter:url(#filter1393)" /><circle
   style="opacity:1;fill:url(#linearGradient1369);fill-opacity:1;stroke:none;stroke-width:1;stroke-linecap:round;stroke-linejoin:round;stroke-miterlimit:4;stroke-dasharray:none;stroke-dashoffset:0;stroke-opacity:1;paint-order:stroke markers fill"
   id="path1201"
   cx="952.81519"
   cy="1576.3096"
   r="330.17285" /><g
   id="g863"
   transform="matrix(0.47056943,0,0,0.47056943,540.84662,1203.5709)"><g
     transform="matrix(0.76141415,0,0,0.76141415,576.85293,316.9018)"
     style="opacity:0.31100003;filter:url(#filter1013)"
     id="g935"><polygon
       points="383.5,29.11 383.5,873.74 392.07,882.29 784.13,650.54 392.07,0 "
       id="polygon917"
       style="fill:#ffffff;fill-rule:nonzero" /><polygon
       points="392.07,882.29 392.07,472.33 392.07,0 0,650.54 "
       id="polygon919"
       style="fill:#ffffff;fill-rule:nonzero" /><polygon
       points="387.24,962.41 387.24,1263.28 392.07,1277.38 784.37,724.89 392.07,956.52 "
       id="polygon921"
       style="fill:#ffffff;fill-rule:nonzero" /><polygon
       points="392.07,1277.38 392.07,956.52 0,724.89 "
       id="polygon923"
       style="fill:#ffffff;fill-rule:nonzero" /><polygon
       points="392.07,882.29 784.13,650.54 392.07,472.33 "
       id="polygon925"
       style="fill:#ffffff;fill-rule:nonzero" /><polygon
       points="0,650.54 392.07,882.29 392.07,472.33 "
       id="polygon927"
       style="fill:#ffffff;fill-rule:nonzero" /></g><polygon
     transform="matrix(0.76141415,0,0,0.76141415,576.85293,316.9018)"
     points="383.5,29.11 383.5,873.74 392.07,882.29 784.13,650.54 392.07,0 "
     id="polygon3"
     style="fill:url(#linearGradient1023);fill-opacity:1;fill-rule:nonzero" /><polygon
     transform="matrix(0.76141415,0,0,0.76141415,576.85293,316.9018)"
     points="392.07,882.29 392.07,472.33 392.07,0 0,650.54 "
     id="polygon5"
     style="fill:#f2f2f2;fill-rule:nonzero" /><polygon
     transform="matrix(0.76141415,0,0,0.76141415,576.85293,316.9018)"
     points="387.24,962.41 387.24,1263.28 392.07,1277.38 784.37,724.89 392.07,956.52 "
     id="polygon7"
     style="fill:#cccccc;fill-rule:nonzero" /><polygon
     transform="matrix(0.76141415,0,0,0.76141415,576.85293,316.9018)"
     points="392.07,1277.38 392.07,956.52 0,724.89 "
     id="polygon9"
     style="fill:url(#linearGradient1039);fill-opacity:1;fill-rule:nonzero" /><polygon
     transform="matrix(0.76141415,0,0,0.76141415,576.85293,316.9018)"
     points="392.07,882.29 784.13,650.54 392.07,472.33 "
     id="polygon11"
     style="fill:url(#linearGradient1031);fill-opacity:1;fill-rule:nonzero" /><polygon
     transform="matrix(0.76141415,0,0,0.76141415,576.85293,316.9018)"
     points="0,650.54 392.07,882.29 392.07,472.33 "
     id="polygon13"
     style="fill:#ffffff;fill-rule:nonzero" /><ellipse
     transform="matrix(1.1568777,0.66792363,-0.01454054,0.02518496,417.46723,53.852966)"
     ry="26.791348"
     rx="56.453197"
     cy="-2.8536594"
     cx="391.34503"
     id="path855"
     style="opacity:1;fill:#ffffff;fill-opacity:1;stroke:none;stroke-width:0.37795275;stroke-linecap:butt;stroke-linejoin:round;stroke-miterlimit:4;stroke-dasharray:none;stroke-dashoffset:0;stroke-opacity:1;paint-order:fill markers stroke;filter:url(#filter881)" /><ellipse
     style="opacity:1;fill:#ffffff;fill-opacity:1;stroke:none;stroke-width:0.37795275;stroke-linecap:butt;stroke-linejoin:round;stroke-miterlimit:4;stroke-dasharray:none;stroke-dashoffset:0;stroke-opacity:1;paint-order:fill markers stroke;filter:url(#filter881)"
     id="ellipse885"
     cx="391.34503"
     cy="-2.8536594"
     rx="56.453197"
     ry="26.791348"
     transform="matrix(-1.1568777,0.66792363,0.01454054,0.02518496,1326.493,57.319122)" /><ellipse
     transform="matrix(0.76141415,0,0,0.76141415,509.0356,226.86865)"
     ry="36.535519"
     rx="44.654522"
     cy="148.01434"
     cx="480.13297"
     id="path887"
     style="opacity:1;fill:#ffffff;fill-opacity:1;stroke:none;stroke-width:0.37795275;stroke-linecap:butt;stroke-linejoin:round;stroke-miterlimit:4;stroke-dasharray:none;stroke-dashoffset:0;stroke-opacity:1;paint-order:fill markers stroke;filter:url(#filter913)" /></g><ellipse
   ry="129.1297"
   rx="383.53299"
   style="opacity:0.42399998;fill:url(#linearGradient1633);fill-opacity:1;stroke-width:0.89017296"
   id="ellipse1615"
   cy="-2036.1704"
   cx="949.38208"
   class="st0"
   transform="scale(1,-1)" /></svg>