<svg width="111" height="41" viewBox="0 0 111 41" fill="none" xmlns="http://www.w3.org/2000/svg"><path d="M31.9512 33.322C31.6904 33.5401 28.8356 33.4037 28.5403 33.5739C28.245 33.7442 26.9655 36.2638 26.6447 36.3809C26.324 36.4979 23.6886 35.4072 23.3521 35.4676C23.0156 35.528 20.9392 37.4642 20.5971 37.4661C20.2551 37.4679 18.1571 35.5544 17.8199 35.4976C17.4827 35.4409 14.8598 36.5603 14.5377 36.4467C14.2156 36.3331 12.908 33.8276 12.6109 33.6606C12.3137 33.4936 9.46061 33.661 9.19738 33.4457C8.93415 33.2303 8.57466 30.435 8.35336 30.1779C8.13205 29.9208 5.3929 29.1161 5.22025 28.825C5.04759 28.5339 5.67958 25.7859 5.56083 25.4697C5.44207 25.1534 3.14728 23.4737 3.08602 23.1419C3.02477 22.8102 4.57199 20.441 4.57011 20.1038C4.56822 19.7666 2.99459 17.4144 3.05213 17.082C3.10966 16.7496 5.38552 15.045 5.50073 14.7275C5.61594 14.41 4.95324 11.669 5.12263 11.3761C5.29202 11.0831 8.022 10.2487 8.24041 9.98917C8.45883 9.72967 8.78701 6.93056 9.04782 6.71239C9.30862 6.49422 12.1634 6.63061 12.4587 6.4604C12.754 6.29019 14.0335 3.77055 14.3542 3.65347C14.675 3.5364 17.3104 4.62716 17.6469 4.56677C17.9834 4.50638 20.0598 2.57012 20.4019 2.56826C20.7439 2.5664 22.8419 4.47997 23.1791 4.53669C23.5163 4.59341 26.1392 3.47406 26.4613 3.58764C26.7834 3.70123 28.091 6.2068 28.3881 6.37379C28.6853 6.54078 31.5384 6.37335 31.8016 6.58867C32.0649 6.804 32.4243 9.59935 32.6456 9.85647C32.8669 10.1136 35.6061 10.9183 35.7788 11.2094C35.9514 11.5005 35.3194 14.2485 35.4382 14.5647C35.5569 14.8809 37.8517 16.5607 37.913 16.8924C37.9742 17.2242 36.427 19.5934 36.4289 19.9306C36.4308 20.2678 38.0044 22.62 37.9469 22.9524C37.8893 23.2848 35.6135 24.9894 35.4983 25.3069C35.3831 25.6244 36.0458 28.3653 35.8764 28.6583C35.707 28.9512 32.977 29.7857 32.7586 30.0452C32.5402 30.3047 32.212 33.1038 31.9512 33.322Z" fill="#93FDFD"></path><path d="M25.3529 27.0816C25.3821 27.0545 25.4078 27.0227 25.4282 26.9861C25.5312 26.8009 25.4636 26.5678 25.2771 26.4653C24.4055 25.9869 23.971 25.346 23.971 25.346C23.681 24.7606 23.4254 24.279 23.2375 23.2353C23.2354 23.2247 23.1755 22.6805 23.1711 22.519L22.9071 19.9892C22.8815 19.7445 23.028 19.5042 23.2565 19.4149L29.3602 17.0321C29.7672 16.8735 29.8317 16.3024 29.4656 16.1015L26.9034 14.6948C26.7801 14.6272 26.6314 14.6194 26.4945 14.6731L20.4747 17.2069C20.3438 17.2622 20.1941 17.2646 20.0654 17.2043C19.8647 17.1096 19.8353 16.9272 20.0126 16.608L22.1854 12.698C22.3247 12.447 22.2483 12.1395 22.0143 12.011L20.1054 10.9633C19.8715 10.8348 19.5689 10.9341 19.4294 11.1853L18.495 12.8667C18.4515 12.9495 18.2886 12.8464 18.244 12.8254C18.1564 12.7838 18.244 12.8254 18.1631 12.7808L16.3788 11.8015C16.0944 11.6452 15.7265 11.7661 15.5572 12.0713L14.882 13.2861C14.7125 13.5912 14.8055 13.9652 15.0899 14.1211L16.8741 15.1006C16.9552 15.145 17.0088 15.1859 17.0971 15.2388C17.1391 15.2639 17.1555 15.2772 17.1303 15.3226L15.1552 18.8369C15.1526 18.8403 15.1084 18.9172 15.0487 19.0141C14.9975 19.0976 14.903 19.0606 14.7866 19.0024C14.7692 18.9936 14.756 18.9759 14.7289 18.9612L12.9445 17.9818C12.6603 17.8256 12.2923 17.9463 12.123 18.2513L11.4479 19.4665C11.2784 19.7714 11.3715 20.1452 11.6557 20.3013L13.4401 21.2808C13.5211 21.3253 13.5943 21.349 13.6634 21.4031C13.7018 21.4335 13.7003 21.4954 13.675 21.541L12.7452 23.2141C12.6059 23.4651 12.6823 23.7726 12.9161 23.9011L14.8252 24.9488C15.0589 25.0773 15.3617 24.978 15.501 24.7268L17.0112 22.0096C17.0732 21.8978 17.1715 21.8111 17.287 21.7658L18.8884 21.1394C19.1912 21.0208 19.8025 21.3071 19.8359 21.6307L19.9767 22.9905C19.9767 22.9922 19.9768 22.9935 19.977 22.9952C19.9761 23.0887 20.0336 26.0686 21.6118 28.3655C21.6118 28.3655 21.8902 28.7988 22.6065 29.2024C22.7368 29.2738 22.8901 29.2625 23.006 29.186L23.0077 29.1886L23.0257 29.1725C23.0429 29.1593 23.0589 29.1448 23.0739 29.1291L25.3529 27.0816Z" fill="#0A1E59"></path><path d="M59.6176 11L52.0628 19.2723V11H49V28.5295H52.0628V23.0392L54.6037 20.3556L59.7764 28.5295H63.4291L56.7817 18.1398L63.4291 11H59.6176Z" fill="white"></path><path d="M70.6338 15.6286C68.955 15.6286 67.7752 16.4657 67.14 18.0906V15.8255H64.3722V28.5295H67.2308V22.079C67.2308 20.9219 67.503 20.0356 68.0929 19.4447C68.6827 18.8538 69.5222 18.5337 70.6111 18.5337H71.3371V15.6778C71.1103 15.6532 70.8834 15.6286 70.6338 15.6286Z" fill="white"></path><path d="M83.3968 22.3991C83.3968 20.3556 82.875 18.7061 81.8314 17.4258C80.7878 16.1702 79.3812 15.5301 77.6116 15.5301C75.8873 15.5301 74.4807 16.1456 73.4144 17.352C72.3481 18.583 71.8263 20.1833 71.8263 22.1775C71.8263 24.1964 72.3481 25.7967 73.4371 27.003C74.5034 28.234 75.91 28.8249 77.6569 28.8249C79.0409 28.8249 80.2206 28.4556 81.1961 27.6924C82.149 26.9292 82.7842 25.8951 83.1019 24.5903H80.3567C79.8576 25.8213 78.9728 26.4122 77.6796 26.4122C76.7948 26.4122 76.0915 26.1413 75.5697 25.5997C75.0479 25.0581 74.7303 24.221 74.6395 23.1377H83.3968V22.3991ZM77.5889 17.9429C78.4056 17.9429 79.0635 18.2137 79.5854 18.7553C80.0845 19.297 80.4021 20.0356 80.5382 20.9711H74.6622C74.9345 18.9523 75.91 17.9429 77.5889 17.9429Z" fill="white"></path><path d="M91.7312 15.5301C90.143 15.5301 88.9179 16.1948 88.1012 17.4751V11H85.2426V28.5295H87.9878V26.7076C88.8272 28.1356 90.075 28.8249 91.7312 28.8249C93.3193 28.8249 94.6124 28.234 95.5653 27.003C96.4955 25.7967 96.9719 24.1964 96.9719 22.1775C96.9719 20.1587 96.4955 18.5584 95.5653 17.3274C94.6124 16.1456 93.3193 15.5301 91.7312 15.5301ZM88.8499 25.2058C88.3054 24.5164 88.0331 23.507 88.0331 22.1775C88.0331 20.8726 88.2827 19.8632 88.8272 19.1492C89.349 18.4599 90.0977 18.0906 91.0505 18.0906C92.0034 18.0906 92.7521 18.4353 93.2739 19.1246C93.7957 19.814 94.0679 20.7988 94.0679 22.079C94.0679 23.4085 93.7957 24.4426 93.2739 25.1565C92.7294 25.8951 91.9807 26.2644 91.0505 26.2644C90.0977 26.2644 89.349 25.9198 88.8499 25.2058Z" fill="white"></path><path d="M101.593 14.176V11.2708H98.7801V14.176H101.593ZM101.616 28.5295V15.8255H98.7575V28.5295H101.616Z" fill="white"></path><path d="M110.023 15.8255H107.708V12.1325H104.873V15.8255H103.058V18.1891H104.873V25.3781C104.873 26.5106 105.145 27.3477 105.735 27.8647C106.325 28.3818 107.255 28.628 108.525 28.628C108.888 28.628 109.387 28.6033 110.023 28.5295V26.166H109.047C108.548 26.166 108.208 26.0921 108.003 25.9198C107.799 25.772 107.708 25.4766 107.708 25.0581V18.1891H110.023V15.8255Z" fill="white"></path></svg>