<svg width="360" height="360" viewBox="0 0 360 360" fill="none" xmlns="http://www.w3.org/2000/svg">
<path d="M195.327 194.952C194.378 195.665 193.476 196.401 192.481 197.045C190.305 198.425 187.876 199.184 185.353 199.667C183.108 200.082 180.84 200.196 178.549 200.128C174.962 199.99 171.491 199.345 168.274 197.666C167.071 197.045 165.96 196.286 165.011 195.32C164.78 195.067 164.71 194.883 164.826 194.538C166.631 189.501 168.436 184.463 170.241 179.426C171.514 175.838 172.856 172.273 174.06 168.684C174.476 167.419 174.684 166.085 174.939 164.774C175.402 162.29 175.656 159.783 175.61 157.253C175.518 153.503 174.823 149.915 173.041 146.58C171.514 143.705 169.408 141.358 166.585 139.656C165.682 139.127 164.71 138.713 163.715 138.322C155.777 135.217 148.025 131.79 140.619 127.581C135.528 124.705 130.668 121.485 126.271 117.644C122.8 114.608 119.675 111.25 117.361 107.224C115.811 104.556 114.746 101.727 114.399 98.6676C114.121 96.1145 114.306 93.6304 115.417 91.2842C115.95 90.1802 117.06 89.9961 117.986 90.8242C118.611 91.3762 119.027 92.0662 119.305 92.8253C119.537 93.4923 119.768 94.1594 119.93 94.8264C120.138 95.6545 120.671 96.2526 121.319 96.7586C122.707 97.8167 124.327 98.3917 125.993 98.8747C128.655 99.6337 131.362 100.094 134.093 100.416C137.356 100.83 140.527 101.589 143.72 102.325C149.945 103.774 156.032 105.568 161.956 108.006C165.729 109.547 169.362 111.341 172.694 113.688C175.055 115.344 177.184 117.23 178.896 119.576C179.128 119.898 179.336 120.243 179.591 120.542C179.938 120.956 180.192 120.956 180.539 120.542C181.141 119.783 181.697 118.978 182.321 118.219C183.71 116.517 185.399 115.137 187.181 113.872C192.157 110.353 197.711 108.029 203.427 106.028C209.467 103.935 215.669 102.394 221.941 101.129C224.209 100.669 226.5 100.416 228.791 100.025C231.545 99.5648 234.276 99.0357 236.844 97.8857C237.77 97.4716 238.65 96.9885 239.321 96.2295C239.714 95.7924 239.992 95.3095 240.131 94.7345C240.408 93.4924 240.825 92.2732 241.658 91.2382C242.144 90.6401 242.746 90.2721 243.556 90.3641C243.949 90.4101 244.227 90.5481 244.412 90.9161C245.06 92.0892 245.43 93.3543 245.592 94.6654C246.148 98.8517 245.106 102.693 243.162 106.373C241.172 110.168 238.395 113.389 235.294 116.287C230.827 120.45 225.806 123.9 220.529 126.96C212.962 131.353 205.024 134.941 196.878 138.092C194.772 138.92 192.758 139.886 191.046 141.382C188.408 143.705 186.649 146.58 185.561 149.915C184.543 153.043 184.289 156.263 184.427 159.53C184.566 162.428 185.029 165.28 185.746 168.086C186.094 169.466 186.672 170.8 187.135 172.134C189.796 179.61 192.481 187.063 195.142 194.538C195.212 194.63 195.258 194.745 195.327 194.952Z" fill="white"/>
<path d="M179.914 202.429C179.428 202.429 178.942 202.429 178.456 202.405C174.083 202.244 170.403 201.347 167.186 199.691C165.659 198.909 164.409 197.989 163.345 196.931C162.465 196.057 162.211 194.93 162.627 193.757C164.132 189.594 165.613 185.43 167.117 181.244L169.153 175.586C170.079 173.056 170.982 170.525 171.861 167.972C172.162 167.052 172.347 166.04 172.555 164.982L172.671 164.361C173.134 161.831 173.342 159.53 173.296 157.323C173.203 153.573 172.463 150.422 171.005 147.662C169.639 145.086 167.765 143.061 165.404 141.658C164.641 141.198 163.738 140.83 162.882 140.508C153.602 136.874 146.15 133.424 139.485 129.629C133.676 126.339 128.863 122.981 124.767 119.416C120.647 115.828 117.569 112.24 115.371 108.421C113.543 105.247 112.478 102.165 112.131 98.9675C111.761 95.7013 112.177 92.8721 113.358 90.342C113.913 89.1689 114.908 88.3639 116.088 88.1339C117.292 87.8809 118.564 88.2719 119.56 89.146C120.416 89.905 121.064 90.894 121.504 92.0901C121.781 92.8261 122.013 93.5623 122.198 94.3213C122.221 94.4133 122.267 94.6203 122.73 94.9653C123.864 95.8163 125.299 96.2994 126.641 96.6904C128.817 97.3114 131.2 97.7715 134.394 98.1625C137.61 98.5766 140.758 99.2896 143.79 100.003L144.252 100.118C151.172 101.728 157.258 103.614 162.835 105.914C167.302 107.731 170.866 109.617 174.013 111.825C176.489 113.551 178.456 115.345 180.053 117.323C180.192 117.139 180.331 116.955 180.493 116.771C181.835 115.138 183.525 113.62 185.816 111.986C191.462 107.984 197.78 105.546 202.64 103.844C208.241 101.912 214.396 100.279 221.455 98.8525C222.913 98.5535 224.394 98.3465 225.852 98.1165C226.685 98.0015 227.518 97.8635 228.351 97.7255C230.712 97.3345 233.419 96.8285 235.826 95.7474C236.705 95.3564 237.191 95.0343 237.562 94.6432C237.7 94.4822 237.77 94.3673 237.816 94.1833C238.094 93.0102 238.58 91.285 239.783 89.7669C240.802 88.5018 242.19 87.8809 243.717 88.0189C244.875 88.1339 245.823 88.732 246.379 89.744C247.119 91.1011 247.605 92.5962 247.837 94.2983C248.392 98.5996 247.536 102.878 245.175 107.363C243.255 111.02 240.593 114.379 236.844 117.898C232.725 121.762 227.749 125.35 221.663 128.893C214.674 132.941 206.829 136.644 197.688 140.186C196.021 140.83 194.124 141.681 192.573 143.062C190.328 145.063 188.755 147.524 187.76 150.583C186.927 153.159 186.603 156.057 186.741 159.393C186.857 161.992 187.274 164.706 187.991 167.489C188.223 168.363 188.546 169.237 188.894 170.157L189.333 171.33L198.058 195.735L195.859 197.391C195.165 197.92 194.448 198.472 193.707 198.932C191.486 200.335 188.963 201.256 185.746 201.877C183.895 202.268 181.974 202.429 179.914 202.429ZM167.348 194.309C167.927 194.769 168.575 195.206 169.338 195.597C171.93 196.931 174.962 197.667 178.618 197.805C180.886 197.897 182.946 197.759 184.89 197.391C187.505 196.908 189.518 196.172 191.208 195.091C191.671 194.792 192.11 194.47 192.55 194.125L184.543 171.79C184.173 170.778 183.779 169.743 183.478 168.639C182.692 165.557 182.229 162.521 182.09 159.622C181.905 155.712 182.321 152.308 183.316 149.203C184.543 145.385 186.603 142.187 189.449 139.657C191.578 137.771 194.054 136.69 195.975 135.931C204.885 132.481 212.522 128.893 219.279 124.959C225.065 121.601 229.74 118.22 233.627 114.586C237.006 111.434 239.367 108.467 241.033 105.27C242.931 101.659 243.648 98.2776 243.208 94.9194C243.139 94.3673 243.023 93.8382 242.884 93.3551C242.676 93.8612 242.468 94.4593 242.306 95.1954C242.098 96.1384 241.635 97.0125 240.964 97.7485C239.969 98.8526 238.765 99.4737 237.724 99.9337C234.808 101.245 231.73 101.82 229.092 102.257C228.235 102.395 227.356 102.533 226.5 102.648C225.111 102.855 223.7 103.062 222.334 103.338C215.484 104.718 209.537 106.282 204.144 108.145C199.562 109.732 193.638 112.032 188.477 115.69C186.533 117.07 185.145 118.312 184.08 119.623C183.756 120.014 183.455 120.428 183.131 120.842C182.877 121.187 182.599 121.555 182.321 121.9C181.558 122.889 180.655 123.096 180.053 123.096C179.359 123.119 178.549 122.912 177.762 121.946C177.554 121.693 177.392 121.44 177.207 121.187L176.998 120.888C175.61 118.979 173.759 117.231 171.329 115.529C168.459 113.528 165.173 111.802 161.031 110.1C155.685 107.915 149.83 106.098 143.165 104.534L142.702 104.419C139.647 103.706 136.754 103.039 133.769 102.671C130.344 102.234 127.729 101.728 125.322 101.038C123.61 100.555 121.642 99.8646 119.884 98.5535C118.703 97.6565 117.963 96.6214 117.639 95.3563C117.5 94.7582 117.292 94.1603 117.083 93.5852C117.06 93.5162 117.037 93.4472 117.014 93.3782C116.551 94.8273 116.435 96.4375 116.644 98.3696C116.921 100.923 117.801 103.43 119.305 106.052C121.272 109.456 123.957 112.585 127.729 115.874C131.594 119.232 136.153 122.406 141.707 125.557C148.186 129.238 155.453 132.596 164.525 136.161C165.52 136.552 166.654 137.012 167.719 137.656C170.796 139.496 173.273 142.141 175.031 145.477C176.837 148.881 177.762 152.699 177.855 157.184C177.901 159.715 177.693 162.337 177.161 165.166L177.045 165.764C176.837 166.96 176.605 168.179 176.189 169.398C175.309 171.974 174.383 174.551 173.458 177.104L171.421 182.762C170.102 186.626 168.737 190.468 167.348 194.309Z" fill="white"/>
<path d="M166.54 269.327C166.381 269.338 166.222 269.372 166.062 269.372C160.311 269.372 154.561 269.372 148.81 269.384C148.442 269.384 148.172 269.349 148.209 268.902C148.221 268.616 148.344 268.524 148.638 268.524C149.092 268.536 149.533 268.513 149.987 268.524C151.863 268.57 153.335 267.115 153.322 265.35C153.298 258.943 153.335 252.549 153.347 246.142C153.359 242.062 153.347 237.994 153.384 233.914C153.396 232.848 153.016 231.966 152.121 231.336C151.606 230.969 150.993 230.694 150.294 230.717C149.631 230.728 148.969 230.717 148.332 230.717C148.172 229.983 148.246 229.892 148.957 229.892C151.373 229.892 153.788 229.857 156.192 229.903C157.295 229.926 158.362 230.144 159.331 230.705C160.287 231.267 161.01 232.023 161.525 232.952C161.685 233.249 161.709 233.605 161.807 233.937C161.856 234.12 161.918 234.304 161.991 234.533C162.666 234.006 163.254 233.502 163.892 233.066C164.885 232.39 165.878 231.714 166.933 231.129C167.791 230.659 168.723 230.304 169.655 229.96C172.193 229.032 174.793 228.86 177.392 229.651C179.293 230.235 180.936 231.255 182.162 232.734C183.866 234.774 184.296 237.077 183.241 239.507C182.726 240.687 181.892 241.661 180.764 242.441C179.244 243.495 177.552 243.839 175.712 243.736C175.381 243.724 175.295 243.61 175.308 243.323C175.332 242.475 175.357 241.615 175.332 240.767C175.295 239.048 174.842 237.41 174.02 235.874C173.419 234.739 172.598 233.754 171.261 233.284C170.072 232.871 168.895 232.986 167.73 233.353C166.197 233.834 164.959 234.705 164.027 235.943C163.205 237.031 162.764 238.269 162.396 239.553C161.918 241.203 161.967 242.888 161.967 244.572C161.967 251.471 161.979 258.359 161.955 265.258C161.955 266.244 162.249 267.057 162.972 267.734C163.463 268.203 164.113 268.375 164.787 268.513C165.412 268.639 166.038 268.708 166.639 268.925C166.688 268.96 166.773 269.235 166.54 269.327Z" fill="white"/>
<path d="M209.825 246.097C209.714 245.822 209.616 245.57 209.518 245.318C208.832 243.553 208.059 241.823 207.066 240.184C206.269 238.855 205.386 237.571 204.344 236.391C203.461 235.394 202.517 234.477 201.425 233.709C200.628 233.136 199.746 232.677 198.777 232.402C197.183 231.944 195.196 232.758 194.24 234.041C193.504 235.038 193.051 236.127 192.621 237.239C192.413 237.777 192.266 238.362 192.205 238.935C192.045 240.321 191.861 241.708 191.861 243.106C191.861 244.55 192.045 246.006 192.217 247.45C192.327 248.367 192.511 249.283 192.756 250.177C193.1 251.426 193.443 252.687 193.921 253.902C194.51 255.392 195.184 256.859 195.932 258.28C196.852 260.033 197.98 261.683 199.316 263.196C200.628 264.675 202.112 265.947 203.951 266.795C205.116 267.322 206.33 267.517 207.569 266.955C208.537 266.52 209.543 266.119 210.511 265.672C211.063 265.419 211.603 265.133 212.13 264.835C212.498 264.617 212.706 264.617 212.939 265.041C213.454 265.993 213.503 265.993 212.522 266.531C211.247 267.23 209.984 267.941 208.672 268.571C207.716 269.029 206.723 269.408 205.705 269.717C203.976 270.244 202.186 270.279 200.395 270.141C199.513 270.072 198.654 269.82 197.784 269.648C196.398 269.373 195.135 268.8 193.946 268.113C192.903 267.505 191.923 266.795 190.991 266.038C189.458 264.789 188.207 263.299 187.153 261.661C186.159 260.102 185.399 258.463 184.798 256.733C183.634 253.363 183.437 249.948 183.891 246.476C184.038 245.353 184.296 244.218 184.627 243.129C185.154 241.422 185.865 239.76 186.834 238.224C187.729 236.815 188.747 235.474 189.985 234.282C191.334 232.975 192.818 231.875 194.51 230.993C195.491 230.489 196.545 230.145 197.6 229.801C199.427 229.216 201.278 229.159 203.167 229.262C204.663 229.342 206.097 229.721 207.458 230.282C208.415 230.672 209.359 231.13 210.242 231.646C210.806 231.978 211.321 232.437 211.762 232.907C213.552 234.832 214.423 237.055 214.153 239.622C213.957 241.479 213.16 243.095 211.86 244.504C211.321 245.146 210.671 245.685 209.825 246.097Z" fill="white"/>
<path fill-rule="evenodd" clip-rule="evenodd" d="M112.736 244C112.208 245.879 112.049 247.816 112 249.489C112.037 252.572 112.478 255.334 113.619 257.97C114.085 259.047 114.624 260.113 115.237 261.121C115.838 262.118 116.537 263.104 117.297 264.009C118.474 265.407 119.897 266.576 121.466 267.596C123.305 268.788 125.316 269.59 127.487 269.969C129.485 270.312 131.496 270.312 133.495 269.785L133.532 269.776C134.709 269.469 135.897 269.16 136.965 268.582C137.909 268.078 138.853 267.573 139.724 266.978C141.575 265.694 143.096 264.112 144.334 262.313C145.193 261.075 145.892 259.723 146.529 258.359C147.032 257.294 147.387 256.148 147.682 255.002C147.952 253.924 148.172 252.813 148.221 251.701C148.269 250.549 148.213 249.39 148.156 248.235C148.14 247.908 148.124 247.581 148.111 247.254C148.075 246.167 147.811 245.113 147.544 244.049L147.535 244.011C147.118 242.349 146.48 240.779 145.683 239.267C144.849 237.696 143.807 236.252 142.556 234.935C141.526 233.846 140.386 232.883 139.123 232.024C137.48 230.9 135.677 230.098 133.728 229.628C130.993 228.964 128.247 229.044 125.562 229.881C123.685 230.465 121.993 231.359 120.436 232.493C118.07 234.235 116.255 236.401 114.832 238.865C113.888 240.493 113.238 242.223 112.736 244ZM139.945 257.951C139.991 257.487 140.037 257.023 140.092 256.561C140.079 256.561 140.067 256.559 140.055 256.558C140.03 256.556 140.006 256.553 139.981 256.561C140.018 254.418 139.785 252.297 139.307 250.212C139.013 248.917 138.62 247.645 138.191 246.395C137.75 245.135 137.272 243.886 136.695 242.671C136.107 241.444 135.408 240.264 134.697 239.095C133.691 237.445 132.453 235.944 130.957 234.637C129.841 233.651 128.627 232.758 127.107 232.437C125.5 232.093 124.041 232.437 122.901 233.663C121.797 234.843 121.233 236.287 120.816 237.754C120.51 238.843 120.326 239.978 120.277 241.101C120.215 242.602 120.277 244.126 120.399 245.627C120.51 246.911 120.743 248.183 120.988 249.444C121.454 251.873 122.275 254.2 123.33 256.457C124.029 257.947 124.826 259.38 125.745 260.755C126.947 262.554 128.345 264.193 130.111 265.511C131.398 266.474 132.808 267.23 134.586 267.104C135.812 267.012 136.72 266.439 137.455 265.614C138.669 264.25 139.233 262.6 139.564 260.904C139.748 259.93 139.846 258.94 139.945 257.951Z" fill="white"/>
<path fill-rule="evenodd" clip-rule="evenodd" d="M241.678 258.126C241.695 258.09 241.712 258.053 241.729 258.016H241.729C241.766 258.016 241.803 258.016 241.778 258.027C241.785 258.059 241.792 258.092 241.798 258.124C241.831 258.278 241.864 258.438 241.864 258.589C241.864 259.586 241.864 260.594 241.852 261.591C241.852 262.44 241.876 263.299 242.011 264.147C242.342 266.153 243.495 267.551 245.518 268.296C246.131 268.525 246.781 268.617 247.443 268.617C248.688 268.617 249.929 268.62 251.171 268.622C252.412 268.625 253.654 268.628 254.898 268.628H255.095C255.266 268.628 255.352 268.536 255.401 268.387C255.524 268.009 255.352 267.803 254.935 267.792C254.758 267.788 254.582 267.782 254.406 267.777C254.06 267.767 253.716 267.757 253.366 267.757C251.943 267.757 250.533 266.508 250.46 265.201C250.447 264.949 250.435 264.686 250.435 264.434V250.647C250.435 249.999 250.436 249.351 250.437 248.702C250.439 246.761 250.441 244.819 250.423 242.877C250.411 242.086 250.325 241.284 250.202 240.505C250.118 239.962 249.982 239.426 249.846 238.887C249.783 238.64 249.721 238.392 249.663 238.144C249.528 237.513 249.307 236.895 249.013 236.31C247.689 233.651 245.678 231.634 242.772 230.442C241.46 229.904 240.074 229.548 238.652 229.308C236.996 229.021 235.329 228.975 233.649 229.01C233.011 229.021 232.374 229.079 231.736 229.136L231.736 229.136C230.972 229.201 230.241 229.393 229.509 229.586C229.336 229.631 229.163 229.677 228.989 229.72C228.775 229.775 228.557 229.825 228.338 229.876C227.82 229.995 227.298 230.116 226.807 230.293C225.262 230.843 223.852 231.6 222.564 232.563C221.583 233.285 220.713 234.121 220.124 235.164C219.315 236.597 219.021 238.109 219.462 239.702C219.903 241.284 220.946 242.476 222.331 243.427C222.478 243.53 222.638 243.61 222.809 243.679C223.447 243.943 224.085 243.599 224.146 242.946C224.162 242.794 224.168 242.637 224.173 242.481C224.176 242.402 224.179 242.324 224.183 242.246C224.232 241.112 224.342 239.989 224.636 238.877C225.237 236.631 226.451 234.729 228.425 233.296C229.97 232.173 231.736 231.485 233.649 231.141C234.85 230.924 236.052 230.889 237.229 231.187C239.351 231.726 240.699 233.067 241.496 234.923C241.729 235.462 241.876 236.035 241.889 236.631C241.913 238.098 241.325 239.336 240.184 240.321C239.105 241.249 238.1 241.971 236.763 242.556C236.382 242.72 235.981 242.897 235.574 243.076C234.816 243.411 234.036 243.755 233.318 244.046C231.969 244.596 230.62 245.169 229.369 245.902C227.824 246.819 226.329 247.805 224.894 248.871C223.508 249.89 222.172 250.968 221.068 252.274C218.432 255.391 217.304 258.864 218.138 262.806C218.689 265.408 220.234 267.345 222.846 268.433C224.71 269.213 226.672 269.499 228.707 269.213C231.16 268.869 233.379 267.998 235.28 266.485C236.641 265.396 237.855 264.159 238.958 262.841C240.062 261.523 240.846 260.033 241.521 258.486C241.568 258.363 241.622 258.246 241.678 258.126ZM241.901 241.1C241.901 241.1 241.901 241.1 241.901 241.1V241.101C241.901 241.182 241.901 241.263 241.901 241.343V242.567C241.896 243.057 241.892 243.547 241.887 244.038C241.869 245.992 241.852 247.95 241.803 249.901C241.741 252.193 241.141 254.371 240.098 256.434C239.277 258.038 238.087 259.368 236.493 260.365C235.292 261.11 233.968 261.534 232.533 261.625C232.433 261.632 232.334 261.636 232.235 261.638C230.789 261.676 229.494 261.24 228.352 260.388C227.616 259.838 227.126 259.105 226.831 258.257C226.12 256.171 226.304 254.165 227.506 252.263C227.689 251.973 227.888 251.697 228.1 251.433C228.891 250.377 229.846 249.452 230.902 248.629C232.275 247.69 233.453 247.048 234.875 246.372C238.217 244.646 239.292 243.607 240.776 242.096C240.998 241.847 241.231 241.596 241.484 241.341C241.559 241.263 241.647 241.191 241.734 241.121C241.761 241.099 241.789 241.077 241.815 241.055C241.825 241.058 241.834 241.062 241.842 241.066C241.849 241.067 241.859 241.074 241.87 241.081C241.879 241.088 241.89 241.095 241.901 241.1V241.1Z" fill="white"/>
</svg>
